<?xml version="1.0" encoding="utf-8"?>
<!-- Generated by IcoMoon.io -->
<!DOCTYPE svg PUBLIC "-//W3C//DTD SVG 1.1//EN" "http://www.w3.org/Graphics/SVG/1.1/DTD/svg11.dtd">
<svg version="1.1" xmlns="http://www.w3.org/2000/svg" xmlns:xlink="http://www.w3.org/1999/xlink" width="32" height="32" viewBox="0 0 32 32">
<path fill="#555" d="M20.583 13.697c0 0.631 0.513 1.146 1.145 1.146 0.633 0 1.146-0.515 1.146-1.146v-1.145c0-0.631-0.513-1.146-1.146-1.146-0.632 0-1.145 0.515-1.145 1.146v1.145zM9.125 13.697c0 0.631 0.513 1.146 1.146 1.146s1.145-0.515 1.145-1.146v-1.145c0-0.631-0.513-1.146-1.145-1.146s-1.146 0.515-1.146 1.146v1.145z"></path>
<path fill="#414a55" d="M4.893 19.678c-0.105-0.103-0.19-0.223-0.25-0.355 0.052 0.149 0.131 0.269 0.25 0.355zM4.542 18.962v0zM27.458 18.962v0z"></path>
<path fill="#974d4c" d="M27.458 18.509v-0.235l-0.001 0.167 0.001 0.069z"></path>
<path fill="#57ac6e" d="M16 16.040l-9.739 2.75c-1.655 0.493-1.719-0.235-1.719-1.375v0.688c0-1.135-0.053-1.919 1.003-2.567l10.455-4.99 10.455 4.99c1.056 0.647 1.003 1.432 1.003 2.567v-0.688c0 1.141-0.063 1.868-1.719 1.375l-9.739-2.75z"></path>
<path fill="#dedeca" d="M4.543 17.341l-0.001 0.057v-0.269l0.001 0.212zM4.542 17.398v0z"></path>
<path fill="#3a4048" d="M13.375 16.499v0zM18.625 16.499v0z"></path>
<path fill="#555" d="M14.281 23.218c0 0.911 0.197 1.65 1.146 1.65h1.145c0.949 0 1.146-0.739 1.146-1.65l0.573-15.387c0-0.911-1.342-3.873-2.291-3.873s-2.291 2.962-2.291 3.873l0.573 15.387z"></path>
<path fill="#735746" d="M9.703 25.069l6.297-3.925 6.297 3.925c0.661 0.521 0.577 1.311 0.577 2.24 0 0-0.111 1.043-1.145 0.642l-5.729-2.224-5.729 2.224c-1.035 0.401-1.146-0.642-1.146-0.642 0-0.929-0.083-1.719 0.578-2.24z"></path>
<path fill="#f3c600" d="M16 7.395c-0.666 0-1.246-0.699-1.554-1.736 0.461-0.899 1.061-1.701 1.554-1.701s1.093 0.802 1.555 1.701c-0.308 1.037-0.889 1.736-1.555 1.736z"></path>
</svg>
