<?xml version="1.0" encoding="utf-8"?>
<!-- Generated by IcoMoon.io -->
<!DOCTYPE svg PUBLIC "-//W3C//DTD SVG 1.1//EN" "http://www.w3.org/Graphics/SVG/1.1/DTD/svg11.dtd">
<svg version="1.1" xmlns="http://www.w3.org/2000/svg" xmlns:xlink="http://www.w3.org/1999/xlink" width="32" height="32" viewBox="0 0 32 32">
<path fill="#42a6dd" d="M3.033 7.18c5.414-0.431 10.223 3.741 11.433 8.871 0.027 1.336 0.017 2.677 0.022 4.024-1.739 0.076-3.479 0.147-5.218 0.229-2.95 0.060-5.845-2.186-6.15-5.179-0.218-2.645-0.033-5.3-0.087-7.945z"></path>
<path fill="#f5b401" d="M17.51 16.883c0.611-5.539 5.823-10.092 11.439-9.667-0.104 2.939 0.283 5.921-0.251 8.833-0.736 2.579-3.331 4.323-5.975 4.297l-5.229-0.207c0-1.091 0-2.175 0.017-3.255z"></path>
<path fill="#d63f31" d="M9.271 20.304c1.739-0.082 3.479-0.153 5.218-0.229 0 1.734 0.011 3.473-0.033 5.213-0.431 1.995-2.197 3.751-4.324 3.691-2.241 0.060-4.291-1.859-4.367-4.095-0.229-2.164 1.478-4.078 3.506-4.58z"></path>
<path fill="#3b9f5d" d="M17.493 20.139l5.229 0.207c2.028 0.507 3.74 2.432 3.5 4.602-0.093 2.235-2.153 4.143-4.389 4.073-2.121 0.049-3.893-1.712-4.302-3.708-0.044-1.728-0.039-3.451-0.039-5.174z"></path>
<path fill="#444" d="M19.379 2.977l0.184 0.071c0.241 0.133 0.361 0.379 0.268 0.548l-2.345 4.231c1.032 0.42 1.412 1.535 1.513 2.541-0.061 0.922-0.454 2.095-1.396 2.491v13.613c0 0.863-0.699 1.563-1.562 1.563s-1.563-0.699-1.563-1.563v-13.613c-0.963-0.439-1.301-1.542-1.396-2.491 0.061-0.918 0.451-2.095 1.391-2.489l-2.355-4.251c-0.093-0.169 0.026-0.414 0.268-0.548s0.513-0.105 0.607 0.063l2.408 4.346c0.228-0.097 0.028-0.017 0.641-0.079l0.504 0.051 2.41-4.35c0.177-0.177 0.053-0.095 0.423-0.134z"></path>
</svg>
