<?xml version="1.0" encoding="utf-8"?>
<!-- Generated by IcoMoon.io -->
<!DOCTYPE svg PUBLIC "-//W3C//DTD SVG 1.1//EN" "http://www.w3.org/Graphics/SVG/1.1/DTD/svg11.dtd">
<svg version="1.1" xmlns="http://www.w3.org/2000/svg" xmlns:xlink="http://www.w3.org/1999/xlink" width="32" height="32" viewBox="0 0 32 32">
<path fill="#5e75ff" d="M7.816 4.542h16.369c0.603 0 1.091 0.489 1.091 1.091v20.733c0 0.603-0.488 1.091-1.091 1.091h-16.369c-0.603 0-1.091-0.489-1.091-1.091v-20.733c0-0.603 0.489-1.091 1.091-1.091z"></path>
<path fill="#555" d="M9.453 6.725h13.095c0.602 0 1.091 0.489 1.091 1.091v3.819c0 0.603-0.489 1.091-1.091 1.091h-13.095c-0.603 0-1.091-0.489-1.091-1.091v-3.819c0-0.603 0.488-1.091 1.091-1.091z"></path>
<path fill="#565860" d="M9.453 14.909h2.183c0.603 0 1.091 0.489 1.091 1.091v2.183c0 0.602-0.489 1.091-1.091 1.091h-2.183c-0.603 0-1.091-0.489-1.091-1.091v-2.183c0-0.603 0.488-1.091 1.091-1.091zM9.453 20.365h2.183c0.603 0 1.091 0.489 1.091 1.091v2.182c0 0.603-0.489 1.091-1.091 1.091h-2.183c-0.603 0-1.091-0.489-1.091-1.091v-2.182c0-0.603 0.488-1.091 1.091-1.091zM14.909 14.909h2.183c0.603 0 1.091 0.489 1.091 1.091v2.183c0 0.602-0.489 1.091-1.091 1.091h-2.183c-0.603 0-1.091-0.489-1.091-1.091v-2.183c0-0.603 0.489-1.091 1.091-1.091zM14.909 20.365h2.183c0.603 0 1.091 0.489 1.091 1.091v2.182c0 0.603-0.489 1.091-1.091 1.091h-2.183c-0.603 0-1.091-0.489-1.091-1.091v-2.182c0-0.603 0.489-1.091 1.091-1.091z"></path>
<path fill="#d72f44" d="M20.365 14.909h2.183c0.602 0 1.091 0.489 1.091 1.091v7.638c0 0.603-0.489 1.091-1.091 1.091h-2.183c-0.603 0-1.091-0.489-1.091-1.091v-7.638c0-0.603 0.489-1.091 1.091-1.091z"></path>
<path fill="#fff" d="M22.821 20.092v0.545h-2.728v-0.545h2.728zM22.821 18.728v0.545h-2.728v-0.545h2.728z"></path>
</svg>
