<?xml version="1.0" encoding="utf-8"?>
<!-- Generated by IcoMoon.io -->
<!DOCTYPE svg PUBLIC "-//W3C//DTD SVG 1.1//EN" "http://www.w3.org/Graphics/SVG/1.1/DTD/svg11.dtd">
<svg version="1.1" xmlns="http://www.w3.org/2000/svg" xmlns:xlink="http://www.w3.org/1999/xlink" width="32" height="32" viewBox="0 0 32 32">
<path fill="#57ac6e" d="M5.962 12.634c-0.744 0.765-2.174 2.354-2.174 2.354l12.207 0.129 12.202-0.117-2.165-2.37c-0.042-2.483-0.117-7.445-0.117-7.445h-19.84l-0.113 7.449zM7.634 6.757c11.157-0.004 16.734-0.004 16.734-0.004l-0.017 5.869-16.717 0.004v-5.869z"></path>
<path fill="#8941b1" d="M28.565 14.983l-25.141-0.013 0.042 7.683h25.057l0.042-7.671z"></path>
<path fill="#fff" d="M26.876 16.785c-1.672-0.005-3.348-0.005-5.029 0.004 0.004 1.396 0.004 2.792 0 4.189h5.012c0.005-1.397 0.017-2.793 0.017-4.193zM20.183 16.785c-2.788-0.005-5.577-0.005-8.369 0.004 0.004 0.56 0.004 1.12 0 1.685 2.792 0.009 5.581 0.004 8.369 0.004 0.005-0.565 0.009-1.129 0-1.693zM10.155 16.785c-1.676-0.005-3.353 0.012-5.029 0.017 0.004 1.392 0.004 2.784 0 4.176h5.025c0.008-1.401 0.008-2.797 0.004-4.193z"></path>
<path fill="#d72f44" d="M26.028 17.633c-1.108 0-2.22 0.005-3.332 0.009 0.004 0.827 0.004 1.659 0 2.495l3.332 0.005c0.004-0.836 0.004-1.673 0-2.509zM9.306 17.633c-1.107 0-2.219 0-3.331 0.005 0.004 0.831 0 1.663-0.004 2.495 1.116-0.004 2.223-0.004 3.331-0.004 0.004-0.832 0.009-1.664 0.004-2.496z"></path>
<path fill="#fff" d="M20.183 19.293c-2.788-0.004-5.577-0.009-8.369 0 0.004 0.56 0.004 1.125 0 1.685h8.369c0.005-0.56 0.005-1.125 0-1.685zM29.359 22.654c-26.098 0-26.512 0.005-26.717 0.005 0.005 0.543 0.005 1.091-0.004 1.639 25.617 0.012 26.169 0.008 26.717 0.004 0.004-0.552 0.009-1.099 0.004-1.647z"></path>
<path fill="#565860" d="M27.7 24.314c-1.948 0.013-3.901 0.008-5.853 0.004 0.017 0.828 0.029 1.659 0.042 2.487 1.931 0.013 3.863 0.013 5.789 0.004 0.013-0.832 0.021-1.663 0.021-2.495zM10.155 24.318c-1.945 0.004-3.897 0.009-5.849-0.004 0.009 0.832 0.009 1.663 0.004 2.499 1.94 0 3.875 0.005 5.811 0 0.017-0.831 0.029-1.663 0.034-2.495z"></path>
</svg>
