<?xml version="1.0" encoding="utf-8"?>
<!-- Generated by IcoMoon.io -->
<!DOCTYPE svg PUBLIC "-//W3C//DTD SVG 1.1//EN" "http://www.w3.org/Graphics/SVG/1.1/DTD/svg11.dtd">
<svg version="1.1" xmlns="http://www.w3.org/2000/svg" xmlns:xlink="http://www.w3.org/1999/xlink" width="32" height="32" viewBox="0 0 32 32">
<path fill="#555" d="M12.563 5.975h6.875c1.266 0 2.291 1.026 2.291 2.291v11.458h-11.457v-11.458c0-1.265 1.026-2.291 2.291-2.291zM19.437 8.266h-6.875v11.458h6.875v-11.458z"></path>
<path fill="#565860" d="M27.458 15.141v8.593c0 1.265-1.026 2.291-2.292 2.291h-18.332c-1.266 0-2.292-1.026-2.292-2.291v-8.593h22.916z"></path>
<path fill="#57ac6e" d="M6.834 9.985c-1.266 0-2.292 1.026-2.292 2.291v2.865h6.875v1.146c0 1.265 1.026 2.291 2.292 2.291h4.583c1.266 0 2.292-1.026 2.292-2.291v-1.146h6.875v-2.865c0-1.265-1.026-2.291-2.292-2.291h-18.332zM13.709 15.141h4.583v1.146h-4.583v-1.146z"></path>
</svg>
