<?xml version="1.0" encoding="utf-8"?>
<!-- Generated by IcoMoon.io -->
<!DOCTYPE svg PUBLIC "-//W3C//DTD SVG 1.1//EN" "http://www.w3.org/Graphics/SVG/1.1/DTD/svg11.dtd">
<svg version="1.1" xmlns="http://www.w3.org/2000/svg" xmlns:xlink="http://www.w3.org/1999/xlink" width="32" height="32" viewBox="0 0 32 32">
<path fill="#f5b401" d="M28.384 13.321c0.295-5.633-6.836-9.126-11.447-6.543-4.311 1.975-8.783 3.616-13.035 5.708l-0.295 0.818c8.259 0.081 16.518 0.054 24.777 0.017z"></path>
<path fill="#f3c600" d="M28.384 13.187c-8.259 0.037-16.485 0.133-24.744 0.052 0.091 1.006 0.095 1.943 0.122 2.954 1.691 0.257 3.611 1.482 3.097 3.461-0.155 1.61-1.797 2.075-3.124 2.348 0.166 1.284-0.508 2.98 0.54 3.963 7.81 0.166 15.657 0.161 23.467 0l0.492-0.486c0.262-4.087-0.048-8.201 0.149-12.293z"></path>
<path fill="#f5b401" d="M22.028 22.8c1.477 0 2.674-1.197 2.674-2.675s-1.197-2.674-2.674-2.674c-1.477 0-2.675 1.197-2.675 2.674s1.197 2.675 2.675 2.675zM13.336 20.493c0.849 0 1.537-0.689 1.537-1.538s-0.689-1.538-1.537-1.538c-0.85 0-1.539 0.689-1.539 1.538s0.689 1.538 1.539 1.538z"></path>
</svg>
