<?xml version="1.0" encoding="utf-8"?>
<!-- Generated by IcoMoon.io -->
<!DOCTYPE svg PUBLIC "-//W3C//DTD SVG 1.1//EN" "http://www.w3.org/Graphics/SVG/1.1/DTD/svg11.dtd">
<svg version="1.1" xmlns="http://www.w3.org/2000/svg" xmlns:xlink="http://www.w3.org/1999/xlink" width="32" height="32" viewBox="0 0 32 32">
<path fill="#555" d="M4.153 17.712v9.176c0 0.676 0.548 1.223 1.224 1.223h22.023c0.676 0 1.223-0.547 1.223-1.223v-9.176h-24.47z"></path>
<path fill="#d72f44" d="M16.799 13.43l-4.282 4.282h-3.881l4.282-4.282h3.881zM24.14 13.43l-4.283 4.282h-3.881l4.282-4.282h3.881zM28.623 13.43v2.657l-1.625 1.625h-3.681l4.282-4.282h1.023zM9.458 13.43l-4.282 4.282h-1.023v-4.282h5.305zM8.146 7.597l-3.607 5.751-0.386 0.081-0.749-3.594c-0.138-0.661 0.287-1.309 0.948-1.447l3.795-0.791zM15.195 6.127l-3.607 5.752-3.727 0.777 3.607-5.752 3.727-0.777zM22.245 4.656l-3.607 5.752-3.727 0.777 3.607-5.752 3.727-0.777zM26.395 3.889c0.906 0.593 0.65 0.222 0.962 0.951l0.227 1.087-1.887 3.009-3.737 0.779 3.607-5.751 0.342-0.072 0.486-0.003z"></path>
<path fill="#f3c600" d="M28.623 16.087v1.625h-1.625l1.625-1.625zM27.6 13.43l-4.283 4.282h-3.46l4.283-4.282h3.46zM20.259 13.43l-4.282 4.282h-3.46l4.282-4.282h3.46zM12.918 13.43l-4.282 4.282h-3.46l4.282-4.282h3.46zM11.469 6.904l-3.607 5.752-3.323 0.693 3.607-5.751 3.323-0.693zM18.518 5.433l-3.607 5.752-3.322 0.693 3.607-5.752 3.323-0.693zM25.567 3.963l-3.607 5.751-3.322 0.694 3.607-5.753 3.323-0.693zM27.584 5.926l0.523 2.507-2.41 0.503 1.887-3.009z"></path>
<path fill="#ffd300" d="M5.703 13.573c0 0.597-0.484 1.081-1.081 1.081s-1.081-0.484-1.081-1.081c0-0.597 0.483-1.081 1.081-1.081s1.081 0.483 1.081 1.081z"></path>
</svg>
