<?xml version="1.0" encoding="utf-8"?>
<!-- Generated by IcoMoon.io -->
<!DOCTYPE svg PUBLIC "-//W3C//DTD SVG 1.1//EN" "http://www.w3.org/Graphics/SVG/1.1/DTD/svg11.dtd">
<svg version="1.1" xmlns="http://www.w3.org/2000/svg" xmlns:xlink="http://www.w3.org/1999/xlink" width="32" height="32" viewBox="0 0 32 32">
<path fill="#f3c600" d="M21.325 24.283c0.654 0 1.184-0.529 1.184-1.183v-3.55c0-0.654-0.53-1.183-1.184-1.183h-15.975s-1.713-1.183-2.367-1.183c-0.654 0-1.183 0.529-1.183 1.183v5.917c0 0.654 0.529 1.183 1.183 1.183s2.367-1.183 2.367-1.183h15.975z"></path>
<path fill="#555" d="M8.9 16c-0.654 0-1.183 0.529-1.183 1.183v9.467c0 0.654 0.529 1.183 1.183 1.183h17.75c0.654 0 1.183-0.529 1.183-1.183v-3.55h1.183c0.654 0 1.183-0.529 1.183-1.183v-3.55c0-0.654-0.529-1.183-1.183-1.183h-1.183c0-0.654-0.529-1.183-1.183-1.183h-17.75z"></path>
<path fill="#d72f44" d="M17.183 10.083c0 3.268 2.649 5.917 5.917 5.917s5.917-2.649 5.917-5.917-2.649-5.917-5.917-5.917-5.917 2.649-5.917 5.917z"></path>
<path fill="#5e75ff" d="M7.717 11.267c0 2.614 2.119 4.733 4.733 4.733s4.733-2.119 4.733-4.733-2.119-4.733-4.733-4.733-4.733 2.119-4.733 4.733z"></path>
</svg>
