<?xml version="1.0" encoding="utf-8"?>
<!-- Generated by IcoMoon.io -->
<!DOCTYPE svg PUBLIC "-//W3C//DTD SVG 1.1//EN" "http://www.w3.org/Graphics/SVG/1.1/DTD/svg11.dtd">
<svg version="1.1" xmlns="http://www.w3.org/2000/svg" xmlns:xlink="http://www.w3.org/1999/xlink" width="32" height="32" viewBox="0 0 32 32">
<path fill="#735647" d="M4.924 16c0 6.117 4.959 11.075 11.076 11.075s11.076-4.959 11.076-11.075-4.959-11.075-11.076-11.075c-6.117 0-11.076 4.959-11.076 11.075z"></path>
<path fill="#f3c600" d="M9.75 10.885l3.085 4.944c-0.005 0.070 3.304 3.378 3.374 3.373l4.944 3.086c0.129 0.081 0.275 0.121 0.421 0.121 0.206 0 0.41-0.080 0.564-0.233 0.263-0.263 0.309-0.671 0.111-0.984l-3.085-4.944c0.005-0.073-3.303-3.38-3.374-3.375l-4.944-3.085c-0.309-0.196-0.722-0.15-0.984 0.112-0.264 0.263-0.311 0.67-0.113 0.985z"></path>
<path fill="#555" d="M16 19.067c-1.694 0-3.067-1.373-3.067-3.067s1.373-3.067 3.067-3.067c1.694 0 3.067 1.373 3.067 3.067s-1.373 3.067-3.067 3.067z"></path>
</svg>
