<?xml version="1.0" encoding="utf-8"?>
<!-- Generated by IcoMoon.io -->
<!DOCTYPE svg PUBLIC "-//W3C//DTD SVG 1.1//EN" "http://www.w3.org/Graphics/SVG/1.1/DTD/svg11.dtd">
<svg version="1.1" xmlns="http://www.w3.org/2000/svg" xmlns:xlink="http://www.w3.org/1999/xlink" width="32" height="32" viewBox="0 0 32 32">
<path fill="#fff" d="M5.901 7.007h15.333c0.651 0 1.179 0.528 1.179 1.179v20.051c0 0.651-0.528 1.179-1.179 1.179h-15.333c-0.651 0-1.179-0.528-1.179-1.179v-20.051c0-0.651 0.528-1.179 1.179-1.179z"></path>
<path fill="#d63f31" d="M21.971 2.583c2.931 0 5.307 2.377 5.307 5.308s-2.376 5.307-5.307 5.307-5.308-2.376-5.308-5.307 2.377-5.308 5.308-5.308z"></path>
<path fill="#fff" d="M21.971 8.774l-1.767 1.766-0.883-0.883 1.766-1.766-1.766-1.767 0.883-0.883 1.767 1.767 1.766-1.767 0.883 0.883-1.766 1.767 1.766 1.766-0.883 0.883-1.766-1.766z"></path>
</svg>
