<?xml version="1.0" encoding="utf-8"?>
<!-- Generated by IcoMoon.io -->
<!DOCTYPE svg PUBLIC "-//W3C//DTD SVG 1.1//EN" "http://www.w3.org/Graphics/SVG/1.1/DTD/svg11.dtd">
<svg version="1.1" xmlns="http://www.w3.org/2000/svg" xmlns:xlink="http://www.w3.org/1999/xlink" width="32" height="32" viewBox="0 0 32 32">
<path fill="#57ac6e" d="M26.371 28.256c0.521 0.521 1.365 0.521 1.885 0 0.521-0.521 0.521-1.365 0-1.885l-6.599-6.6c-0.521-0.521-1.365-0.521-1.887 0s-0.521 1.365 0 1.886l6.6 6.599z"></path>
<path fill="#d72f44" d="M17.885 12.229c0.521 0.521 1.365 0.521 1.885 0s0.521-1.365 0-1.885l-6.599-6.599c-0.521-0.521-1.365-0.521-1.886 0s-0.521 1.365 0 1.885l6.6 6.599zM10.343 19.771c0.52 0.521 1.365 0.521 1.886 0s0.521-1.365 0-1.885l-6.6-6.6c-0.521-0.521-1.365-0.521-1.885 0s-0.521 1.365 0 1.886l6.599 6.599z"></path>
<path fill="#555" d="M20.064 7.807l5.363 5.364c2.864 2.864 2.864 7.507 0 10.371l-1.885 1.886c-2.864 2.863-7.507 2.863-10.371 0l-5.364-5.364 12.257-12.257z"></path>
<path fill="#5e75ff" d="M6.571 21.657c0.521 0.521 1.365 0.521 1.886 0l13.199-13.199c0.521-0.521 0.521-1.365 0-1.886s-1.365-0.521-1.886 0l-13.199 13.199c-0.521 0.521-0.521 1.365 0 1.886z"></path>
</svg>
