<?xml version="1.0" encoding="utf-8"?>
<!-- Generated by IcoMoon.io -->
<!DOCTYPE svg PUBLIC "-//W3C//DTD SVG 1.1//EN" "http://www.w3.org/Graphics/SVG/1.1/DTD/svg11.dtd">
<svg version="1.1" xmlns="http://www.w3.org/2000/svg" xmlns:xlink="http://www.w3.org/1999/xlink" width="32" height="32" viewBox="0 0 32 32">
<path fill="#565860" d="M27.507 27.239v-19.435h-3.474v19.435h3.474zM18.473 7.804v19.435h3.475v-19.435h-3.475zM31.124 3.746l0.031 0.091 0.015 0.049 0.011 0.062 0.011 0.076 0.005 0.085 0.001 0.095-0.009 0.105-0.019 0.115-0.013 0.061-0.019 0.062c-0.050 0.169-0.14 0.355-0.273 0.531-0.132 0.177-0.303 0.343-0.498 0.486s-0.41 0.262-0.633 0.36c-0.223 0.097-0.453 0.173-0.681 0.232-0.227 0.059-0.454 0.101-0.667 0.134l-0.307 0.043-0.269 0.035-0.517 0.073c-0.165 0.025-0.32 0.053-0.467 0.083-0.145 0.031-0.283 0.065-0.41 0.106s-0.247 0.091-0.355 0.148-0.203 0.122-0.285 0.183l-0.189 0.161-0.070 0.065-0.037-0.090-0.033-0.111-0.016-0.073-0.011-0.083c-0.014-0.119-0.014-0.269 0.021-0.439 0.033-0.171 0.103-0.36 0.212-0.549s0.257-0.372 0.435-0.539l0.138-0.119 0.147-0.113 0.155-0.104 0.162-0.096c0.221-0.122 0.457-0.222 0.699-0.297l0.183-0.051 0.096-0.023 0.093-0.020 0.343-0.062c0.221-0.033 0.43-0.055 0.629-0.071l1.049-0.077c0.149-0.014 0.287-0.031 0.417-0.056s0.249-0.059 0.36-0.105c0.11-0.045 0.212-0.101 0.295-0.157l0.111-0.077 0.086-0.069 0.075-0.061zM25.517 3.746l0.030 0.091 0.015 0.049 0.011 0.062 0.011 0.076 0.005 0.085 0.001 0.095-0.009 0.105-0.019 0.115-0.013 0.061-0.018 0.062c-0.050 0.169-0.141 0.355-0.273 0.531-0.131 0.177-0.303 0.343-0.498 0.486s-0.409 0.262-0.633 0.36c-0.223 0.097-0.453 0.173-0.681 0.232-0.227 0.059-0.453 0.101-0.667 0.134l-0.307 0.043-0.269 0.035-0.517 0.073c-0.165 0.025-0.321 0.053-0.467 0.083-0.145 0.031-0.283 0.065-0.411 0.106s-0.247 0.091-0.355 0.148c-0.109 0.057-0.204 0.122-0.286 0.183l-0.189 0.161-0.070 0.065-0.037-0.090-0.033-0.111-0.016-0.073-0.012-0.083c-0.014-0.119-0.013-0.269 0.021-0.439s0.103-0.36 0.213-0.549c0.108-0.189 0.257-0.372 0.435-0.539l0.138-0.119 0.147-0.113 0.155-0.104 0.163-0.096c0.22-0.122 0.456-0.222 0.699-0.297l0.183-0.051 0.096-0.023 0.092-0.020 0.344-0.062c0.221-0.033 0.43-0.055 0.629-0.071l1.048-0.077c0.149-0.014 0.287-0.031 0.417-0.056s0.249-0.059 0.36-0.105c0.11-0.045 0.213-0.101 0.295-0.157l0.112-0.077 0.086-0.069 0.075-0.061zM29.123 26.913h-28.322v1.341h28.322z"></path>
<path fill="#d72f44" d="M24.033 27.239v-14.953l-7.313 3.601v-3.601l-7.313 3.601v-3.601l-7.314 3.601v11.351h21.941z"></path>
<path fill="#565860" d="M19.164 22.623v2.423h2.383v-2.423h-2.383zM4.537 22.623v2.423h2.382v-2.423h-2.382zM11.851 22.623v2.423h2.423v-2.423h-2.423zM11.851 18.243v2.423h2.382v-2.423h-2.382zM4.537 18.243v2.423h2.382v-2.423h-2.382zM19.164 18.243v2.423h2.383v-2.423h-2.383z"></path>
</svg>
