<?xml version="1.0" encoding="utf-8"?>
<!-- Generated by IcoMoon.io -->
<!DOCTYPE svg PUBLIC "-//W3C//DTD SVG 1.1//EN" "http://www.w3.org/Graphics/SVG/1.1/DTD/svg11.dtd">
<svg version="1.1" xmlns="http://www.w3.org/2000/svg" xmlns:xlink="http://www.w3.org/1999/xlink" width="32" height="32" viewBox="0 0 32 32">
<path fill="#d72f44" d="M15.083 4.943c-2.444 0.681-3.726 2.318-3.977 4.801 0 2.703 2.191 4.894 4.894 4.894s4.894-2.191 4.894-4.894c-0.065-1.621-0.772-3.13-2.158-4.058l-1.75-0.737-0.069-0.007z"></path>
<path fill="#555" d="M14.833 3.292h2.375v1.667h-2.375v-1.667zM10.494 27.309c0 0.773 0.617 1.399 1.377 1.399h8.259c0.76 0 1.377-0.626 1.377-1.399v-16.779c0-0.773-0.617-1.399-1.377-1.399h-8.259c-0.76 0-1.377 0.626-1.377 1.399v16.779z"></path>
<path fill="#57ac6e" d="M12.323 18.302c0 2.031 1.646 3.677 3.677 3.677s3.677-1.646 3.677-3.677c0-2.030-1.646-3.677-3.677-3.677s-3.677 1.647-3.677 3.677z"></path>
<path fill="#fff" d="M15.198 4.355c-0.109 0-0.198-0.117-0.198-0.261s0.089-0.26 0.198-0.26 0.198 0.117 0.198 0.26c0 0.144-0.089 0.261-0.198 0.261z"></path>
</svg>
