<?xml version="1.0" encoding="utf-8"?>
<!-- Generated by IcoMoon.io -->
<!DOCTYPE svg PUBLIC "-//W3C//DTD SVG 1.1//EN" "http://www.w3.org/Graphics/SVG/1.1/DTD/svg11.dtd">
<svg version="1.1" xmlns="http://www.w3.org/2000/svg" xmlns:xlink="http://www.w3.org/1999/xlink" width="32" height="32" viewBox="0 0 32 32">
<path fill="#555" d="M15.818 26.312c0.633 0 1.145-0.515 1.145-1.146v-18.332c0-0.631-0.513-1.146-1.145-1.146s-1.146 0.515-1.146 1.146v18.332c0 0.631 0.513 1.146 1.146 1.146zM7.875 26.312c0.633 0 1.146-0.515 1.146-1.146v-18.332c0-0.631-0.513-1.146-1.146-1.146s-1.146 0.515-1.146 1.146v18.332c0 0.631 0.513 1.146 1.146 1.146zM23.981 26.312c0.633 0 1.146-0.515 1.146-1.146v-18.332c0-0.631-0.513-1.146-1.146-1.146s-1.145 0.515-1.145 1.146v18.332c0 0.631 0.513 1.146 1.145 1.146z"></path>
<path fill="#8941b1" d="M5.011 17.719c0 1.583 1.283 2.865 2.865 2.865s2.865-1.282 2.865-2.865c0-1.583-1.283-2.865-2.865-2.865s-2.865 1.282-2.865 2.865z"></path>
<path fill="#57ac6e" d="M12.81 11.56c0 1.662 1.347 3.008 3.008 3.008s3.007-1.346 3.007-3.008c0-1.662-1.347-3.007-3.007-3.007s-3.008 1.345-3.008 3.007z"></path>
<path fill="#5e75ff" d="M20.974 20.726c0 1.662 1.347 3.008 3.007 3.008 1.662 0 3.008-1.346 3.008-3.008s-1.346-3.007-3.008-3.007c-1.661 0-3.007 1.346-3.007 3.007z"></path>
</svg>
