<?xml version="1.0" encoding="utf-8"?>
<!-- Generated by IcoMoon.io -->
<!DOCTYPE svg PUBLIC "-//W3C//DTD SVG 1.1//EN" "http://www.w3.org/Graphics/SVG/1.1/DTD/svg11.dtd">
<svg version="1.1" xmlns="http://www.w3.org/2000/svg" xmlns:xlink="http://www.w3.org/1999/xlink" width="32" height="32" viewBox="0 0 32 32">
<path fill="#555" d="M17.763 7.616c1.719 0.035 1.468 2.005 1.468 2.005l5.61 0.215c0.949 0 1.719 0.769 1.719 1.719v8.020c0 0.949-0.769 1.719-1.719 1.719h-8.021c-0.949 0-1.719-0.769-1.719-1.719v-0.573h-6.875v-11.457l9.536 0.071z"></path>
<path fill="#57ac6e" d="M7.159 4.542c0.949 0 1.719 0.769 1.719 1.719 0.005 0.529-0.216 0.883-0.573 1.241v18.811c0 0.633-0.513 1.146-1.146 1.146s-1.146-0.513-1.146-1.146v-18.811c-0.408-0.299-0.525-0.765-0.573-1.241 0-0.949 0.769-1.719 1.719-1.719z"></path>
</svg>
