<?xml version="1.0" encoding="utf-8"?>
<!-- Generated by IcoMoon.io -->
<!DOCTYPE svg PUBLIC "-//W3C//DTD SVG 1.1//EN" "http://www.w3.org/Graphics/SVG/1.1/DTD/svg11.dtd">
<svg version="1.1" xmlns="http://www.w3.org/2000/svg" xmlns:xlink="http://www.w3.org/1999/xlink" width="32" height="32" viewBox="0 0 32 32">
<path fill="#555" d="M24.565 11.412v-3.977h-3.977c-0.507 0-0.917-0.411-0.917-0.917s0.411-0.917 0.917-0.917h4.894c0.241 0 0.478 0.097 0.649 0.268s0.268 0.408 0.268 0.649v4.894c0 0.507-0.411 0.917-0.917 0.917s-0.917-0.411-0.917-0.917zM11.412 7.435h-3.977v3.977c0 0.507-0.411 0.917-0.917 0.917s-0.917-0.411-0.917-0.917v-4.894c0-0.241 0.097-0.478 0.268-0.649s0.408-0.268 0.649-0.268h4.894c0.507 0 0.917 0.411 0.917 0.917s-0.411 0.917-0.917 0.917z"></path>
<path fill="#57ac6e" d="M7.435 20.588v3.977h3.977c0.507 0 0.917 0.411 0.917 0.917s-0.411 0.917-0.917 0.917h-4.894c-0.241 0-0.478-0.097-0.649-0.268s-0.268-0.408-0.268-0.649v-4.894c0-0.507 0.411-0.917 0.917-0.917s0.917 0.411 0.917 0.917z"></path>
<path fill="#555" d="M20.588 24.565h3.977v-3.977c0-0.507 0.411-0.917 0.917-0.917s0.917 0.411 0.917 0.917v4.894c0 0.241-0.097 0.478-0.268 0.649s-0.408 0.268-0.649 0.268h-4.894c-0.507 0-0.917-0.411-0.917-0.917s0.411-0.917 0.917-0.917z"></path>
<path fill="#d72f44" d="M14.165 17.835v-0.918h2.753v-1.835h-1.835v2.753h-1.835v-3.671c0-0.241 0.098-0.477 0.269-0.649s0.407-0.269 0.649-0.269h3.671c0.241 0 0.477 0.098 0.649 0.269s0.269 0.407 0.269 0.649v3.671c0 0.241-0.098 0.477-0.269 0.649s-0.407 0.269-0.649 0.269h-3.671c-0.241 0-0.477-0.098-0.649-0.269s-0.269-0.407-0.269-0.649h0.917z"></path>
</svg>
