<?xml version="1.0" encoding="utf-8"?>
<!-- Generated by IcoMoon.io -->
<!DOCTYPE svg PUBLIC "-//W3C//DTD SVG 1.1//EN" "http://www.w3.org/Graphics/SVG/1.1/DTD/svg11.dtd">
<svg version="1.1" xmlns="http://www.w3.org/2000/svg" xmlns:xlink="http://www.w3.org/1999/xlink" width="32" height="32" viewBox="0 0 32 32">
<path fill="#555" d="M16 19.659c-5.628 0-5.842 1.867-7.953 3.733s-6.117 2.486-6.117-3.733c0-6.218 2.814-9.955 2.814-9.955s2.691-4.604 6.362-1.004c2.615 2.565 7.173 2.565 9.788 0 3.671-3.6 6.362 1.004 6.362 1.004s2.814 3.737 2.814 9.955c0 6.219-4.007 5.6-6.117 3.733s-2.325-3.733-7.953-3.733z"></path>
<path fill="#5e75ff" d="M7.435 17.947c0 0.676 0.548 1.223 1.224 1.223s1.223-0.547 1.223-1.223-0.547-1.223-1.223-1.223-1.224 0.547-1.224 1.223z"></path>
<path fill="#d72f44" d="M4.989 14.888c0 0.676 0.547 1.223 1.223 1.223s1.223-0.547 1.223-1.223-0.547-1.223-1.223-1.223-1.223 0.547-1.223 1.223z"></path>
<path fill="#57ac6e" d="M24.87 13.665c-0.506 0-0.917 0.412-0.917 0.921v1.22h-1.221c-0.508 0-0.921 0.411-0.921 0.918s0.413 0.917 0.921 0.917h1.221v1.221c0 0.508 0.411 0.921 0.917 0.921s0.918-0.413 0.918-0.921v-1.221h1.22c0.509 0 0.921-0.411 0.921-0.917s-0.412-0.918-0.921-0.918h-1.22v-1.22c0-0.509-0.411-0.921-0.918-0.921z"></path>
</svg>
