<?xml version="1.0" encoding="utf-8"?>
<!-- Generated by IcoMoon.io -->
<!DOCTYPE svg PUBLIC "-//W3C//DTD SVG 1.1//EN" "http://www.w3.org/Graphics/SVG/1.1/DTD/svg11.dtd">
<svg version="1.1" xmlns="http://www.w3.org/2000/svg" xmlns:xlink="http://www.w3.org/1999/xlink" width="32" height="32" viewBox="0 0 32 32">
<path fill="#555" d="M17.361 22.946c0.278 0 0.54-0.135 0.701-0.363l5.891-8.34 4.46 2.973c0.396 0.264 0.929 0.157 1.191-0.238 0.264-0.395 0.157-0.928-0.238-1.192l-5.156-3.437c-0.387-0.257-0.91-0.161-1.179 0.22l-5.576 7.893-6.143-11.317c-0.139-0.255-0.398-0.423-0.688-0.446s-0.571 0.101-0.749 0.332l-7.447 9.667c-0.29 0.376-0.22 0.916 0.157 1.205 0.375 0.289 0.915 0.22 1.205-0.157l6.641-8.621 6.173 11.372c0.141 0.261 0.408 0.43 0.705 0.447l0.051 0.001z"></path>
<path fill="#d72f44" d="M13.064 10.701c0 1.384-1.122 2.507-2.507 2.507s-2.506-1.123-2.506-2.507 1.122-2.506 2.506-2.506c1.385 0 2.507 1.122 2.507 2.506z"></path>
<path fill="#5e75ff" d="M20.249 21.299c0 1.384-1.122 2.506-2.507 2.506s-2.507-1.122-2.507-2.506 1.123-2.507 2.507-2.507c1.385 0 2.507 1.123 2.507 2.507z"></path>
</svg>
