<?xml version="1.0" encoding="utf-8"?>
<!-- Generated by IcoMoon.io -->
<!DOCTYPE svg PUBLIC "-//W3C//DTD SVG 1.1//EN" "http://www.w3.org/Graphics/SVG/1.1/DTD/svg11.dtd">
<svg version="1.1" xmlns="http://www.w3.org/2000/svg" xmlns:xlink="http://www.w3.org/1999/xlink" width="32" height="32" viewBox="0 0 32 32">
<path fill="#8941b1" d="M26.083 18.054v-4.275c0-5.576-4.515-10.095-10.083-10.095s-10.083 4.519-10.083 10.095v4.275c-1.182 0.479-2.017 1.639-2.017 2.993v4.039c0 1.784 1.445 3.23 3.227 3.23h1.21v-14.537c0-4.237 3.431-7.673 7.663-7.673s7.663 3.435 7.663 7.673v14.537h1.21c1.782 0 3.227-1.446 3.227-3.23v-4.039c0-1.355-0.835-2.514-2.017-2.993z"></path>
<path fill="#57ac6e" d="M23.26 17.817c-0.891 0-1.613 0.723-1.613 1.615v7.269c0 0.892 0.723 1.615 1.613 1.615h0.403v-10.499zM8.74 17.817h-0.403v10.499h0.403c0.891 0 1.613-0.723 1.613-1.615v-7.269c0-0.892-0.723-1.615-1.613-1.615z"></path>
</svg>
