<?xml version="1.0" encoding="utf-8"?>
<!-- Generated by IcoMoon.io -->
<!DOCTYPE svg PUBLIC "-//W3C//DTD SVG 1.1//EN" "http://www.w3.org/Graphics/SVG/1.1/DTD/svg11.dtd">
<svg version="1.1" xmlns="http://www.w3.org/2000/svg" xmlns:xlink="http://www.w3.org/1999/xlink" width="32" height="32" viewBox="0 0 32 32">
<path fill="#555" d="M16.245 3.447c3.603 3.139 7.047 6.458 10.656 9.597 0.819 0.715 1.697 1.463 1.976 2.577-1.212-0.377-2.107-1.288-3.008-2.123-3.193-2.943-6.409-5.841-9.624-8.757-3.221 2.915-6.442 5.831-9.641 8.767-0.901 0.83-1.785 1.763-3.013 2.091 0.622-1.971 2.751-2.767 3.865-4.389 0.142-1.823 0.027-3.647 0.093-5.47 1.059-0.017 2.119-0.017 3.183 0 0.027 0.857 0.055 1.725 0.087 2.593 1.775-1.665 3.614-3.259 5.427-4.885z"></path>
<path fill="#ffd300" d="M6.604 13.507s6.419-5.852 9.641-8.767c3.215 2.915 9.624 8.757 9.624 8.757l-0.313 14.059-18.755 0.311-0.196-14.359z"></path>
<path fill="#43a6dd" d="M13.548 12.841c1.801-0.055 3.603-0.055 5.399 0.005 0.022 1.43 0.017 2.861-0.016 4.297-1.796 0.038-3.598 0.033-5.394-0.022-0.021-1.431-0.016-2.855 0.011-4.28z"></path>
<path fill="#555" d="M13.521 19.807c1.801-0.054 3.603-0.054 5.399 0.006 0.022 1.43 0.017 2.86-0.016 4.296-1.796 0.038-3.598 0.033-5.393-0.022-0.022-1.43-0.017-2.855 0.011-4.28z"></path>
</svg>
