<?xml version="1.0" encoding="utf-8"?>
<!-- Generated by IcoMoon.io -->
<!DOCTYPE svg PUBLIC "-//W3C//DTD SVG 1.1//EN" "http://www.w3.org/Graphics/SVG/1.1/DTD/svg11.dtd">
<svg version="1.1" xmlns="http://www.w3.org/2000/svg" xmlns:xlink="http://www.w3.org/1999/xlink" width="32" height="32" viewBox="0 0 32 32">
<path fill="#555" d="M9.907 25.492c-2.175 0-3.943-1.769-3.943-3.943s1.769-3.943 3.943-3.943 3.943 1.769 3.943 3.943-1.769 3.943-3.943 3.943zM9.907 14.738c-3.755 0-6.811 3.055-6.811 6.811s3.055 6.811 6.811 6.811c3.755 0 6.811-3.055 6.811-6.811s-3.055-6.811-6.811-6.811zM9.907 19.757c-0.99 0-1.793 0.802-1.793 1.792s0.803 1.793 1.793 1.793 1.793-0.803 1.793-1.793-0.803-1.792-1.793-1.792zM25.533 24.725c-0.599 0.711-1.587 0.957-2.534 0.596-0.495-0.189-0.903-0.597-1.093-1.093-0.385-1.011-0.036-1.753 0.207-2.105 0.402-0.585 1.065-0.934 1.773-0.934 0.13 0 0.263 0.012 0.395 0.035 0.865 0.149 1.573 0.857 1.722 1.721 0.113 0.654-0.055 1.285-0.47 1.779zM28.829 22.459c-0.357-2.071-1.989-3.703-4.059-4.059-1.942-0.337-3.913 0.495-5.017 2.097-0.957 1.388-1.148 3.121-0.525 4.753 0.482 1.266 1.485 2.269 2.751 2.751 0.624 0.239 1.267 0.359 1.909 0.359 1.483 0 2.883-0.651 3.839-1.786s1.359-2.636 1.103-4.115z"></path>
<path fill="#f3c600" d="M20.577 18.705c0.545-0.457 0.661-1.231 0.312-1.825l3.514-3.577h1.563c0.791 0 1.434-0.642 1.434-1.434s-0.643-1.434-1.434-1.434h-5.664c-0.792 0-1.433 0.643-1.433 1.434s0.641 1.434 1.433 1.434h1.087l-1.87 1.903-1.323-1.581c-1.801-2.161-4.415-3.427-7.213-3.529v-1.813c0-0.98 0.797-1.777 1.777-1.777 0.792 0 1.434-0.642 1.434-1.434s-0.642-1.434-1.434-1.434c-2.561 0-4.645 2.084-4.645 4.645v4.302c0 0.792 0.642 1.433 1.434 1.433 0.661 0 1.212-0.449 1.378-1.058 1.966 0.085 3.799 0.979 5.068 2.502l2.563 3.062c0.284 0.339 0.691 0.513 1.101 0.513 0.325 0 0.651-0.109 0.919-0.334z"></path>
</svg>
