<?xml version="1.0" encoding="utf-8"?>
<!-- Generated by IcoMoon.io -->
<!DOCTYPE svg PUBLIC "-//W3C//DTD SVG 1.1//EN" "http://www.w3.org/Graphics/SVG/1.1/DTD/svg11.dtd">
<svg version="1.1" xmlns="http://www.w3.org/2000/svg" xmlns:xlink="http://www.w3.org/1999/xlink" width="32" height="32" viewBox="0 0 32 32">
<path fill="#555" d="M14.996 27.208c0.555 0.333 1.453 0.333 2.007 0l10.039-6.023c0.554-0.333 0.554-0.872 0-1.205l-10.039-6.023c-0.554-0.333-1.453-0.333-2.007 0l-10.038 6.023c-0.555 0.333-0.555 0.872 0 1.205l10.038 6.023z"></path>
<path fill="#57ac6e" d="M14.996 22.625c0.555 0.333 1.453 0.333 2.007 0l10.039-6.023c0.554-0.332 0.554-0.872 0-1.204l-10.039-6.023c-0.554-0.332-1.453-0.332-2.007 0l-10.038 6.023c-0.555 0.332-0.555 0.872 0 1.204l10.038 6.023z"></path>
<path fill="#8941b1" d="M14.996 18.043c0.555 0.332 1.453 0.332 2.008 0l10.038-6.023c0.554-0.333 0.554-0.872 0-1.205l-10.038-6.023c-0.555-0.332-1.453-0.332-2.008 0l-10.038 6.023c-0.555 0.333-0.555 0.872 0 1.205l10.038 6.023z"></path>
</svg>
