<?xml version="1.0" encoding="utf-8"?>
<!-- Generated by IcoMoon.io -->
<!DOCTYPE svg PUBLIC "-//W3C//DTD SVG 1.1//EN" "http://www.w3.org/Graphics/SVG/1.1/DTD/svg11.dtd">
<svg version="1.1" xmlns="http://www.w3.org/2000/svg" xmlns:xlink="http://www.w3.org/1999/xlink" width="32" height="32" viewBox="0 0 32 32">
<path fill="#f3c702" d="M4.738 10.346c0 3.096 2.51 5.606 5.606 5.606s5.606-2.51 5.606-5.606-2.51-5.606-5.606-5.606-5.606 2.51-5.606 5.606z"></path>
<path fill="#555" d="M17.008 11.801l9.221 10.696c0.412 0.412 0.412 1.081 0 1.493l-0.472 0.471 1.241 1.242c0.359 0.358 0.359 0.939 0 1.297-0.179 0.18-0.413 0.269-0.648 0.269s-0.47-0.089-0.649-0.269l-1.241-1.241-0.344 0.345c-0.413 0.412-1.082 0.412-1.494 0l-10.815-9.091c1.265-0.276 2.428-0.902 3.365-1.839 0.959-0.959 1.567-2.137 1.836-3.373z"></path>
<path fill="#d72f44" d="M6.747 14.647c1.722-0.556 3.303-1.509 4.619-2.826 1.532-1.531 2.531-3.393 3.023-5.356 2.104 2.197 2.079 5.681-0.082 7.843-1.096 1.096-2.532 1.643-3.968 1.643-1.278 0-2.555-0.437-3.593-1.305z"></path>
<path fill="#92672b" d="M6.372 6.374c1.096-1.096 2.531-1.643 3.967-1.643 0.871 0 1.742 0.205 2.538 0.609-0.337 1.927-1.243 3.775-2.731 5.263-1.325 1.325-2.935 2.182-4.631 2.595-1.276-2.153-0.995-4.971 0.856-6.823z"></path>
</svg>
