<?xml version="1.0" encoding="utf-8"?>
<!-- Generated by IcoMoon.io -->
<!DOCTYPE svg PUBLIC "-//W3C//DTD SVG 1.1//EN" "http://www.w3.org/Graphics/SVG/1.1/DTD/svg11.dtd">
<svg version="1.1" xmlns="http://www.w3.org/2000/svg" xmlns:xlink="http://www.w3.org/1999/xlink" width="32" height="32" viewBox="0 0 32 32">
<path fill="#57ac6e" d="M8.309 16c0 4.248 3.443 7.691 7.691 7.691s7.691-3.443 7.691-7.691c0-4.248-3.443-7.691-7.691-7.691s-7.691 3.443-7.691 7.691z"></path>
<path fill="#555" d="M8.921 17.176c1.786 0 3.233-1.448 3.233-3.233s-1.447-3.233-3.233-3.233c-1.785 0-3.233 1.447-3.233 3.233s1.448 3.233 3.233 3.233zM11.609 25.112c1.786 0 3.233-1.448 3.233-3.233s-1.447-3.233-3.233-3.233-3.233 1.447-3.233 3.233c0 1.785 1.447 3.233 3.233 3.233zM19.233 8.651c0-1.786-1.447-3.233-3.233-3.233s-3.233 1.447-3.233 3.233c0 1.785 1.448 3.233 3.233 3.233s3.233-1.448 3.233-3.233zM20.427 25.112c1.786 0 3.233-1.448 3.233-3.233s-1.447-3.233-3.233-3.233-3.233 1.447-3.233 3.233c0 1.785 1.447 3.233 3.233 3.233zM26.288 13.943c0-1.786-1.447-3.233-3.233-3.233s-3.233 1.447-3.233 3.233c0 1.785 1.447 3.233 3.233 3.233s3.233-1.448 3.233-3.233zM16 3.067c7.143 0 12.933 5.791 12.933 12.933s-5.791 12.933-12.933 12.933c-7.143 0-12.933-5.791-12.933-12.933s5.791-12.933 12.933-12.933z"></path>
</svg>
