<?xml version="1.0" encoding="utf-8"?>
<!-- Generated by IcoMoon.io -->
<!DOCTYPE svg PUBLIC "-//W3C//DTD SVG 1.1//EN" "http://www.w3.org/Graphics/SVG/1.1/DTD/svg11.dtd">
<svg version="1.1" xmlns="http://www.w3.org/2000/svg" xmlns:xlink="http://www.w3.org/1999/xlink" width="32" height="32" viewBox="0 0 32 32">
<path fill="#565860" d="M13.689 7.506l1.358 1.141c-2.461 2.726-4.922 5.453-7.383 8.179 2.167 3.507 4.336 7.013 6.504 10.52l-1.528 0.883-7.298-11.603 8.347-9.119z"></path>
<path fill="#885e3d" d="M8.195 26.034h7.82c1.251 0 2.266 1.053 2.266 2.353h-12.351c0-1.299 1.014-2.353 2.265-2.353z"></path>
<path fill="#f5b401" d="M22.691 10.743c1.462 0 2.647 1.185 2.647 2.647s-1.185 2.647-2.647 2.647-2.647-1.185-2.647-2.647 1.185-2.647 2.647-2.647z"></path>
<path fill="#d63f31" d="M14.64 3.613l3.965 3.327c0.568-0.386 1.245-0.551 1.904-0.703 0.407-0.075 0.824-0.072 1.236-0.107 1.549 0.016 2.885 0.593 4.103 1.513 0.613 0.57 0.347 0.278 0.811 0.863-2.713 3.233-5.426 6.466-8.139 9.7-0.656-0.356-0.323-0.145-0.991-0.651-2.107-1.915-2.785-4.289-1.948-7.009l-3.966-3.328 3.025-3.604z"></path>
</svg>
