<?xml version="1.0" encoding="utf-8"?>
<!-- Generated by IcoMoon.io -->
<!DOCTYPE svg PUBLIC "-//W3C//DTD SVG 1.1//EN" "http://www.w3.org/Graphics/SVG/1.1/DTD/svg11.dtd">
<svg version="1.1" xmlns="http://www.w3.org/2000/svg" xmlns:xlink="http://www.w3.org/1999/xlink" width="32" height="32" viewBox="0 0 32 32">
<path fill="#565860" d="M15.862 17.113c0.476 0 0.862 0.385 0.862 0.861v2.862l0.006 0.005c0.246 0.258 0.237 0.439 0.237 0.771l4.928 4.892c0.335 0.334 0.335 0.875-0.003 1.21s-0.883 0.336-1.218 0.003l-3.95-3.922v2.223c0 0.476-0.386 0.862-0.862 0.862s-0.861-0.386-0.861-0.862v-2.229l-3.958 3.958c-0.337 0.337-0.883 0.337-1.219 0s-0.337-0.882 0-1.219l4.942-4.942c-0.044-0.279 0.063-0.5 0.235-0.708v-2.905c0-0.476 0.385-0.861 0.861-0.861z"></path>
<path fill="#f3c600" d="M4.658 5.333h21.834c0.634 0 1.149 0.515 1.149 1.149v13.215c0 0.635-0.515 1.149-1.149 1.149h-21.834c-0.635 0-1.149-0.515-1.149-1.149v-13.215c0-0.635 0.515-1.149 1.149-1.149z"></path>
<path fill="#d72f44" d="M10.885 17.111l-2.688-3.725c-0.174-0.241-0.092-0.559 0.183-0.71s0.64-0.079 0.814 0.163l1.714 2.374 3.112-4.104 3.282 3.361 4.572-5.398 2.686 1.965c0.249 0.183 0.283 0.508 0.075 0.726-0.209 0.218-0.58 0.247-0.831 0.063l-1.725-1.263-4.71 5.561-3.229-3.307-3.255 4.293z"></path>
</svg>
