<?xml version="1.0" encoding="utf-8"?>
<!-- Generated by IcoMoon.io -->
<!DOCTYPE svg PUBLIC "-//W3C//DTD SVG 1.1//EN" "http://www.w3.org/Graphics/SVG/1.1/DTD/svg11.dtd">
<svg version="1.1" xmlns="http://www.w3.org/2000/svg" xmlns:xlink="http://www.w3.org/1999/xlink" width="32" height="32" viewBox="0 0 32 32">
<path fill="#f3c600" d="M27.737 6.057h-23.473c-0.997 0-1.805 0.809-1.805 1.808v16.269c0 0.999 0.809 1.808 1.805 1.808h23.473c0.997 0 1.805-0.809 1.805-1.808v-16.269c0-0.999-0.809-1.808-1.805-1.808z"></path>
<path fill="#fff" d="M25.931 8.769h-9.028c-0.499 0-0.903 0.404-0.903 0.903v4.519c0 0.5 0.404 0.904 0.903 0.904h9.028c0.499 0 0.903-0.404 0.903-0.904v-4.519c0-0.499-0.404-0.903-0.903-0.903z"></path>
<path fill="#555" d="M17.805 13.289h7.223v-0.904h-7.223zM17.805 12.385l4.514-1.808h-4.514v0.904h4.514z"></path>
</svg>
