<?xml version="1.0" encoding="utf-8"?>
<!-- Generated by IcoMoon.io -->
<!DOCTYPE svg PUBLIC "-//W3C//DTD SVG 1.1//EN" "http://www.w3.org/Graphics/SVG/1.1/DTD/svg11.dtd">
<svg version="1.1" xmlns="http://www.w3.org/2000/svg" xmlns:xlink="http://www.w3.org/1999/xlink" width="32" height="32" viewBox="0 0 32 32">
<path fill="#555" d="M25.166 8.266v17.98c0 0.605-0.372 1.152-0.942 1.384-0.19 0.077-0.388 0.114-0.585 0.114-0.397 0-0.788-0.153-1.080-0.439l-6.559-6.433-6.559 6.433c-0.291 0.286-0.683 0.439-1.079 0.439-0.197 0-0.396-0.037-0.584-0.114-0.571-0.232-0.944-0.779-0.944-1.384v-17.98h18.332z"></path>
<path fill="#ec6205" d="M6.834 8.266v-2.865c0-0.632 0.685-1.145 1.528-1.145h15.277c0.843 0 1.527 0.513 1.527 1.145v2.865h-18.332z"></path>
</svg>
