<?xml version="1.0" encoding="utf-8"?>
<!-- Generated by IcoMoon.io -->
<!DOCTYPE svg PUBLIC "-//W3C//DTD SVG 1.1//EN" "http://www.w3.org/Graphics/SVG/1.1/DTD/svg11.dtd">
<svg version="1.1" xmlns="http://www.w3.org/2000/svg" xmlns:xlink="http://www.w3.org/1999/xlink" width="32" height="32" viewBox="0 0 32 32">
<path fill="#4c5665" d="M28.235 17.835c0-0.675-0.547-1.223-1.223-1.223h-22.023c-0.676 0-1.223 0.548-1.223 1.223v7.341c0 0.676 0.547 1.223 1.223 1.223h22.023c0.676 0 1.223-0.547 1.223-1.223v-7.341z"></path>
<path fill="#555" d="M20.894 26.399c0 0.676-0.547 1.224-1.223 1.224h-14.682c-0.676 0-1.223-0.548-1.223-1.224v-8.564c0-0.675 0.547-1.223 1.223-1.223h3.059v-11.011c0-0.676 0.547-1.224 1.223-1.224h9.176c0.676 0 1.224 0.548 1.224 1.224v11.011c0.676 0 1.223 0.548 1.223 1.223v-0.612c0-2.027 1.643-3.67 3.671-3.67s3.67 1.643 3.67 3.67v5.506c0 2.027-1.643 3.67-3.67 3.67s-3.671-1.643-3.671-3.67v3.67z"></path>
<path fill="#d72f44" d="M26.399 17.223c0 1.014-0.821 1.835-1.835 1.835s-1.835-0.821-1.835-1.835c0-1.013 0.821-1.835 1.835-1.835s1.835 0.822 1.835 1.835z"></path>
<path fill="#57ac6e" d="M17.223 26.399c0 0.676-0.547 1.224-1.223 1.224h-4.282c-0.676 0-1.224-0.548-1.224-1.224v-9.787c0-0.676 0.548-1.224 1.224-1.224h4.282c0.676 0 1.223 0.548 1.223 1.224v9.787z"></path>
<path fill="#5e75ff" d="M26.399 23.341c0 0.676-0.548 1.224-1.223 1.224h-4.282c-0.676 0-1.223-0.548-1.223-1.224v-1.223c0-0.675 0.547-1.223 1.223-1.223h4.282c0.675 0 1.223 0.548 1.223 1.223v1.223z"></path>
</svg>
