<?xml version="1.0" encoding="utf-8"?>
<!-- Generated by IcoMoon.io -->
<!DOCTYPE svg PUBLIC "-//W3C//DTD SVG 1.1//EN" "http://www.w3.org/Graphics/SVG/1.1/DTD/svg11.dtd">
<svg version="1.1" xmlns="http://www.w3.org/2000/svg" xmlns:xlink="http://www.w3.org/1999/xlink" width="32" height="32" viewBox="0 0 32 32">
<path fill="#eaeaea" d="M26.981 25.019c0 1.155-0.937 2.092-2.092 2.092h-15.686c-1.155 0-2.091-0.937-2.091-2.092v-15.163c0-0.577 0.468-1.045 1.045-1.045h17.778c0.577 0 1.046 0.468 1.046 1.045v15.163z"></path>
<path fill="#4074f7" d="M7.111 11.948v-4.183c0-0.578 0.468-1.046 1.045-1.046h17.778c0.577 0 1.046 0.468 1.046 1.046v4.183h-19.869z"></path>
<path fill="#565860" d="M10.771 4.889c0.433 0 0.784 0.351 0.784 0.785v2.876c0 0.433-0.351 0.784-0.784 0.784s-0.785-0.351-0.785-0.784v-2.876c0-0.433 0.351-0.785 0.785-0.785zM23.32 4.889c0.433 0 0.785 0.351 0.785 0.785v2.876c0 0.433-0.351 0.784-0.785 0.784s-0.784-0.351-0.784-0.784v-2.876c0-0.433 0.351-0.785 0.784-0.785z"></path>
<path fill="#dbdbdb" d="M25.396 27.047c-0.163 0.041-0.332 0.065-0.507 0.065h-17.777c-1.155 0-2.092-0.937-2.092-2.092h18.578c0.11 0.996 0.841 1.803 1.799 2.027z"></path>
<path fill="#d5d4d5" d="M14.117 15.608h1.074c0.593 0 1.073 0.481 1.073 1.073v3.866c0 0.593-0.481 1.073-1.073 1.073h-1.074c-0.593 0-1.074-0.481-1.074-1.073v-3.866c0-0.593 0.481-1.073 1.074-1.073zM19.123 15.608h1.074c0.593 0 1.073 0.481 1.073 1.073v3.866c0 0.593-0.481 1.073-1.073 1.073h-1.074c-0.593 0-1.073-0.481-1.073-1.073v-3.866c0-0.593 0.481-1.073 1.073-1.073z"></path>
</svg>
