<?xml version="1.0" encoding="utf-8"?>
<!-- Generated by IcoMoon.io -->
<!DOCTYPE svg PUBLIC "-//W3C//DTD SVG 1.1//EN" "http://www.w3.org/Graphics/SVG/1.1/DTD/svg11.dtd">
<svg version="1.1" xmlns="http://www.w3.org/2000/svg" xmlns:xlink="http://www.w3.org/1999/xlink" width="32" height="32" viewBox="0 0 32 32">
<path fill="#555" d="M15.791 3.391c-4.896 0-10.312 3.077-12.078 8.971-0.893 2.973 2.971 1.782 3.233 5.242 0.215 2.83-0.637 3.781-0.823 5.483-0.251 2.286 5.084 5.729 9.876 5.511 7.033-0.321 12.421-5.563 12.421-12.603s-5.59-12.604-12.629-12.604z"></path>
<path fill="#d72f44" d="M11.618 10.839c0 1.266-1.026 2.291-2.292 2.291s-2.291-1.025-2.291-2.291 1.026-2.292 2.291-2.292c1.266 0 2.292 1.026 2.292 2.292z"></path>
<path fill="#57ac6e" d="M18.083 7.751c0 1.266-1.026 2.291-2.291 2.291s-2.292-1.025-2.292-2.291c0-1.266 1.027-2.291 2.292-2.291s2.291 1.025 2.291 2.291z"></path>
<path fill="#5e75ff" d="M24.505 10.685c0 1.266-1.026 2.291-2.291 2.291s-2.292-1.025-2.292-2.291c0-1.266 1.027-2.292 2.292-2.292s2.291 1.026 2.291 2.292z"></path>
<path fill="#8941b1" d="M26.21 17.869c0 1.266-1.026 2.291-2.291 2.291s-2.291-1.025-2.291-2.291c0-1.266 1.026-2.292 2.291-2.292s2.291 1.026 2.291 2.292z"></path>
<path fill="#f3c600" d="M21.007 23.5c0 1.266-1.026 2.291-2.291 2.291s-2.291-1.025-2.291-2.291c0-1.261 1.026-2.291 2.291-2.291s2.291 1.031 2.291 2.291z"></path>
<path fill="#735746" d="M13.591 21.709c0 1.266-1.026 2.291-2.291 2.291s-2.291-1.025-2.291-2.291c0-1.261 1.026-2.292 2.291-2.292s2.291 1.031 2.291 2.292z"></path>
</svg>
