<?xml version="1.0" encoding="utf-8"?>
<!-- Generated by IcoMoon.io -->
<!DOCTYPE svg PUBLIC "-//W3C//DTD SVG 1.1//EN" "http://www.w3.org/Graphics/SVG/1.1/DTD/svg11.dtd">
<svg version="1.1" xmlns="http://www.w3.org/2000/svg" xmlns:xlink="http://www.w3.org/1999/xlink" width="32" height="32" viewBox="0 0 32 32">
<path fill="#d72f44" d="M20.583 27.458c1.266 0 2.291-1.026 2.291-2.292v-18.332c0-1.266-1.025-2.292-2.291-2.292h-9.167c-1.265 0-2.291 1.026-2.291 2.292v16.041h-0.001l0.001 0.001v2.29c0.106 1.374 0.655 1.751 1.829 2.245l0.461 0.047h9.167z"></path>
<path fill="#555" d="M19.943 23.658c0.68 0 1.233-0.519 1.233-1.159v-14.837c0-0.639-0.553-1.159-1.233-1.159h-7.887c-0.68 0-1.233 0.519-1.233 1.159v14.837c0 0.639 0.553 1.159 1.233 1.159h7.887z"></path>
<path fill="#f3c600" d="M14.568 25.547c0-0.791 0.641-1.433 1.432-1.433 0.792 0 1.432 0.641 1.432 1.433s-0.64 1.432-1.432 1.432c-0.791 0-1.432-0.641-1.432-1.432z"></path>
</svg>
