<?xml version="1.0" encoding="utf-8"?>
<!-- Generated by IcoMoon.io -->
<!DOCTYPE svg PUBLIC "-//W3C//DTD SVG 1.1//EN" "http://www.w3.org/Graphics/SVG/1.1/DTD/svg11.dtd">
<svg version="1.1" xmlns="http://www.w3.org/2000/svg" xmlns:xlink="http://www.w3.org/1999/xlink" width="32" height="32" viewBox="0 0 32 32">
<path fill="#555" d="M26.025 9.698h-2.864s-0.829 0.191-1.433-1.337c-0.308-0.777-0.641-1.527-1.432-1.527h-5.729c-0.791 0-1.135 0.745-1.433 1.527-0.581 1.528-1.432 1.337-1.432 1.337h-1.432c0-0.843-0.642-1.145-1.433-1.145h-1.432c-0.791 0-1.432 0.302-1.432 1.145-0.791 0-1.433 0.875-1.433 1.719v12.221c0 0.843 0.642 1.528 1.433 1.528h20.051c0.791 0 1.433-0.685 1.433-1.528v-12.221c0-0.843-0.642-1.719-1.433-1.719z"></path>
<path fill="#3b9f5d" d="M21.156 17.146c0 2.847-2.309 5.156-5.156 5.156s-5.156-2.309-5.156-5.156 2.308-5.156 5.156-5.156c2.847 0 5.156 2.309 5.156 5.156z"></path>
</svg>
