<?xml version="1.0" encoding="utf-8"?>
<!-- Generated by IcoMoon.io -->
<!DOCTYPE svg PUBLIC "-//W3C//DTD SVG 1.1//EN" "http://www.w3.org/Graphics/SVG/1.1/DTD/svg11.dtd">
<svg version="1.1" xmlns="http://www.w3.org/2000/svg" xmlns:xlink="http://www.w3.org/1999/xlink" width="32" height="32" viewBox="0 0 32 32">
<path fill="#de8e4f" d="M21.88 4.451c-1.921 1.921-1.921 5.035 0 6.955s5.035 1.921 6.955 0c1.921-1.921 0-6.955 0-6.955s-5.035-1.921-6.955 0z"></path>
<path fill="#e4a472" d="M22.653 5.811c-1.332 1.331-1.332 3.491 0 4.823s3.491 1.332 4.823 0c1.331-1.332 1.331-3.491 0-4.823s-3.491-1.332-4.823 0z"></path>
<path fill="#de8e4f" d="M9.911 4.451c1.921 1.921 1.921 5.035 0 6.955s-5.035 1.921-6.955 0 0-6.955 0-6.955 5.035-1.921 6.955 0z"></path>
<path fill="#e4a472" d="M9.138 5.811c1.332 1.331 1.332 3.491 0 4.823s-3.491 1.332-4.823 0-1.332-3.491 0-4.823c1.332-1.332 3.491-1.332 4.823 0z"></path>
<path fill="#de8e4f" d="M30.596 16.488c0 6.581-6.535 11.915-14.596 11.915s-14.596-5.335-14.596-11.915 6.535-11.915 14.596-11.915c8.061 0 14.596 5.334 14.596 11.915z"></path>
<path fill="#e4a472" d="M23.802 20.484c0 3.707-3.493 6.712-7.802 6.712s-7.802-3.005-7.802-6.712c0-3.707 3.493-6.712 7.802-6.712s7.802 3.005 7.802 6.712z"></path>
<path fill="#de8e4f" d="M21.967 20.484c0 2.835-2.671 5.133-5.967 5.133s-5.967-2.298-5.967-5.133c0-2.835 2.671-5.133 5.967-5.133s5.967 2.298 5.967 5.133z"></path>
<path fill="#e4a472" d="M15.001 20.455c0 0.679-0.551 1.229-1.229 1.229s-1.229-0.551-1.229-1.229c0-0.679 0.55-1.23 1.229-1.23s1.229 0.551 1.229 1.23zM19.598 20.455c0 0.679-0.55 1.229-1.229 1.229s-1.229-0.551-1.229-1.229c0-0.679 0.55-1.23 1.229-1.23s1.229 0.551 1.229 1.23z"></path>
<path fill="#333" d="M10.655 14.306c0 0.545-0.441 0.986-0.986 0.986s-0.987-0.441-0.987-0.986c0-0.545 0.441-0.987 0.987-0.987s0.986 0.441 0.986 0.987zM23.318 14.306c0 0.545-0.441 0.986-0.987 0.986s-0.986-0.441-0.986-0.986c0-0.545 0.441-0.987 0.986-0.987s0.987 0.441 0.987 0.987z"></path>
</svg>
