<?xml version="1.0" encoding="utf-8"?>
<!-- Generated by IcoMoon.io -->
<!DOCTYPE svg PUBLIC "-//W3C//DTD SVG 1.1//EN" "http://www.w3.org/Graphics/SVG/1.1/DTD/svg11.dtd">
<svg version="1.1" xmlns="http://www.w3.org/2000/svg" xmlns:xlink="http://www.w3.org/1999/xlink" width="32" height="32" viewBox="0 0 32 32">
<path fill="#555" d="M16 2.847c0.507 0 0.917 0.411 0.917 0.918v4.996c0 0.507-0.41 0.917-0.917 0.917s-0.917-0.411-0.917-0.917v-4.996c0-0.507 0.41-0.918 0.917-0.918z"></path>
<path fill="#5e75ff" d="M22.423 16c0-0.507 0.411-0.917 0.917-0.917h4.894c0.507 0 0.918 0.41 0.918 0.917s-0.411 0.917-0.918 0.917h-4.894c-0.507 0-0.917-0.41-0.917-0.917z"></path>
<path fill="#555" d="M16 22.423c0.507 0 0.917 0.411 0.917 0.917v4.894c0 0.507-0.41 0.918-0.917 0.918s-0.917-0.411-0.917-0.918v-4.894c0-0.507 0.41-0.917 0.917-0.917zM11.535 21.899c0.253-0.438 0.814-0.589 1.254-0.336 0.438 0.253 0.589 0.815 0.335 1.253l-2.447 4.238c-0.17 0.295-0.479 0.459-0.795 0.459-0.156 0-0.314-0.039-0.458-0.123-0.439-0.253-0.589-0.814-0.336-1.253l2.447-4.238zM21.323 4.946c0.253-0.439 0.814-0.59 1.253-0.336s0.589 0.814 0.336 1.253l-2.498 4.326c-0.171 0.295-0.478 0.459-0.795 0.459-0.155 0-0.313-0.039-0.458-0.123-0.439-0.253-0.589-0.815-0.335-1.253l2.497-4.326z"></path>
<path fill="#d72f44" d="M10.525 12.839c-0.17 0.295-0.478 0.459-0.795 0.459-0.156 0-0.313-0.040-0.458-0.124l-4.326-2.497c-0.439-0.253-0.59-0.815-0.336-1.253s0.813-0.589 1.253-0.336l4.326 2.498c0.439 0.253 0.589 0.815 0.336 1.253z"></path>
<path fill="#5e75ff" d="M3.765 15.083h4.996c0.507 0 0.917 0.41 0.917 0.917s-0.411 0.917-0.917 0.917h-4.996c-0.507 0-0.918-0.41-0.918-0.917s0.411-0.917 0.918-0.917z"></path>
<path fill="#555" d="M4.946 21.323l4.238-2.447c0.439-0.253 0.999-0.103 1.253 0.335s0.103 1.001-0.336 1.254l-4.238 2.447c-0.145 0.083-0.302 0.123-0.458 0.123-0.317 0-0.625-0.165-0.795-0.459-0.254-0.439-0.103-1 0.336-1.253zM27.054 10.677l-4.326 2.497c-0.145 0.084-0.302 0.124-0.457 0.124-0.318 0-0.626-0.165-0.796-0.459-0.253-0.439-0.103-1 0.336-1.253l4.326-2.498c0.439-0.253 1-0.103 1.253 0.336s0.103 1-0.336 1.253z"></path>
<path fill="#d72f44" d="M21.563 19.211c0.253-0.438 0.813-0.589 1.253-0.335l4.238 2.447c0.439 0.253 0.59 0.815 0.336 1.253-0.17 0.295-0.479 0.459-0.795 0.459-0.155 0-0.313-0.040-0.458-0.123l-4.238-2.447c-0.439-0.253-0.589-0.815-0.336-1.254z"></path>
<path fill="#f3c700" d="M19.211 21.563c0.439-0.253 1.001-0.102 1.254 0.336l2.447 4.238c0.253 0.439 0.103 1-0.336 1.253-0.144 0.084-0.302 0.123-0.457 0.123-0.317 0-0.626-0.164-0.796-0.459l-2.447-4.238c-0.253-0.439-0.103-1 0.335-1.253zM12.84 10.525c-0.145 0.084-0.303 0.123-0.459 0.123-0.317 0-0.625-0.165-0.795-0.459l-2.498-4.326c-0.253-0.439-0.103-1 0.336-1.253s0.999-0.103 1.253 0.336l2.497 4.326c0.254 0.439 0.104 1-0.335 1.253z"></path>
</svg>
