<?xml version="1.0" encoding="utf-8"?>
<!-- Generated by IcoMoon.io -->
<!DOCTYPE svg PUBLIC "-//W3C//DTD SVG 1.1//EN" "http://www.w3.org/Graphics/SVG/1.1/DTD/svg11.dtd">
<svg version="1.1" xmlns="http://www.w3.org/2000/svg" xmlns:xlink="http://www.w3.org/1999/xlink" width="32" height="32" viewBox="0 0 32 32">
<path fill="#555" d="M4.321 8.12l16.322-2.814c0.622 0 1.126 0.504 1.126 1.126v15.759c0 0.621-0.504 1.126-1.126 1.126l-16.322 2.814c-0.622 0-1.125-0.504-1.125-1.126v-15.759c0-0.621 0.503-1.126 1.125-1.126z"></path>
<path fill="#d72f44" d="M24.583 26.694h-20.262c-0.622 0-1.125-0.504-1.125-1.126v-16.322c0-0.421 0.233-0.784 0.575-0.977l-0.013 0.132c0 0.467 0.379 0.845 0.845 0.845h19.981c0.621 0 1.125 0.503 1.125 1.126v15.196c0 0.622-0.504 1.126-1.125 1.126z"></path>
<path fill="#555" d="M23.739 15.921h3.659c0.777 0 1.407 0.629 1.407 1.407v1.407c0 0.777-0.63 1.407-1.407 1.407h-3.659c-0.777 0-1.407-0.63-1.407-1.407v-1.407c0-0.777 0.629-1.407 1.407-1.407z"></path>
</svg>
