<?xml version="1.0" encoding="utf-8"?>
<!-- Generated by IcoMoon.io -->
<!DOCTYPE svg PUBLIC "-//W3C//DTD SVG 1.1//EN" "http://www.w3.org/Graphics/SVG/1.1/DTD/svg11.dtd">
<svg version="1.1" xmlns="http://www.w3.org/2000/svg" xmlns:xlink="http://www.w3.org/1999/xlink" width="32" height="32" viewBox="0 0 32 32">
<path fill="#d5d5d5" d="M21.772 5.353c-3.375-3.473-9.783-2.973-12.446 1.114-0.887 1.371-1.229 2.993-1.631 4.55 5.533 0.175 11.080 0.175 16.613 0-0.496-2.009-0.984-4.176-2.537-5.664z"></path>
<path fill="#d72f44" d="M16.633 5.556c-1.253-0.63-2.757 0.874-2.135 2.131 0.415 1.179 2.225 1.35 2.859 0.281 0.585-0.801 0.211-2.070-0.723-2.411z"></path>
<path fill="#d5d5d5" d="M26.444 12.415c-0.094-1.037-2.135-1.399-2.135-1.399h-16.613s-1.192 0.051-1.944 0.809c-0.751 0.758-0.256 4.148-0.329 6.209-0.089 3.586 0.492 7.294-0.739 10.754 1.382 0.203 2.781 0.228 4.159 0.045-0.325-0.984-0.663-1.959-0.993-2.943 0.863-0.025 1.712-0.045 2.562-0.073 3.729-0.093 7.457-0.093 11.181 0 0.854 0.029 1.711 0.049 2.558 0.073-0.321 0.984-0.655 1.959-0.989 2.943 1.383 0.183 2.781 0.159 4.155-0.045-1.187-3.329-0.666-6.895-0.735-10.347-0.033-2.009 0.187-4.038-0.138-6.026z"></path>
<path fill="#555" d="M24.309 11.017c-5.533 0.175-11.080 0.175-16.613 0 0.057 0.577 0.105 1.155 0.15 1.736 5.441-0.009 10.877-0.009 16.313 0 0.053-0.581 0.101-1.159 0.15-1.736z"></path>
<path fill="#5e75ff" d="M20.068 21.693c0.004 0.541 0.004 1.082 0 1.627h-8.132c0.004-0.545 0.004-1.086 0-1.627h8.132zM20.068 18.441c0.004 0.541 0.004 1.081 0 1.626h-8.132c0.004-0.545 0.004-1.085 0-1.626h8.132zM20.068 15.188c0.004 0.541 0.004 1.082 0 1.627h-8.132c0.004-0.545 0.004-1.085 0-1.627h8.132z"></path>
<path fill="#555" d="M21.593 25.817c-3.725-0.093-7.453-0.093-11.181 0 0.683 0.618 1.24 1.724 2.309 1.573 2.419-0.029 4.843 0.069 7.258-0.053 0.646-0.374 1.106-0.996 1.614-1.521z"></path>
</svg>
