<?xml version="1.0" encoding="utf-8"?>
<!-- Generated by IcoMoon.io -->
<!DOCTYPE svg PUBLIC "-//W3C//DTD SVG 1.1//EN" "http://www.w3.org/Graphics/SVG/1.1/DTD/svg11.dtd">
<svg version="1.1" xmlns="http://www.w3.org/2000/svg" xmlns:xlink="http://www.w3.org/1999/xlink" width="32" height="32" viewBox="0 0 32 32">
<path fill="#555" d="M16.061 18.987c0.892 0.894 3.487 7.184 3.487 7.184 0.381 0.693-0.189 1.197-1.485 0.539l-4.658-2.544c-2.51-1.392-2.996-1.759-2.963-4.594 0.627-4.503 1.487-4.715 2.378-3.821zM18.94 16.111c0.891 0.888 7.185 3.483 7.185 3.483 0.692 0.384 1.194-0.189 0.536-1.484l-2.541-4.657c-1.395-2.509-1.759-2.996-4.599-2.962-4.502 0.625-4.713 1.489-3.821 2.377z"></path>
<path fill="#d72f44" d="M22.277 18.907c-2.907-2.905-5.349-2.017-5.349-2.017s-0.888 2.441 2.019 5.351c2.907 2.905 7.614 5.019 7.981 4.652 0.356-0.355-1.745-5.076-4.651-7.986z"></path>
<path fill="#57ac6e" d="M9.451 17.498c4.475 4.474 11.334 3.248 11.334 3.248s1.224-6.857-3.25-11.331c-4.475-4.475-11.253-4.95-12.144-4.062-0.863 0.865-0.414 7.671 4.060 12.145z"></path>
<path fill="#f3c600" d="M10.139 13.431c0.896 0.893 2.346 0.893 3.241 0s0.895-2.349 0-3.243c-0.895-0.894-2.345-0.894-3.241 0-0.895 0.893-0.895 2.349 0 3.243z"></path>
</svg>
