<?xml version="1.0" encoding="utf-8"?>
<!-- Generated by IcoMoon.io -->
<!DOCTYPE svg PUBLIC "-//W3C//DTD SVG 1.1//EN" "http://www.w3.org/Graphics/SVG/1.1/DTD/svg11.dtd">
<svg version="1.1" xmlns="http://www.w3.org/2000/svg" xmlns:xlink="http://www.w3.org/1999/xlink" width="32" height="32" viewBox="0 0 32 32">
<path fill="#555" d="M23.341 20.894h-9.787l9.787-7.341v7.341zM6.212 25.788h19.576c1.351 0 2.447-1.096 2.447-2.447v-14.681c0-0.927-0.523-1.774-1.352-2.189s-1.821-0.325-2.563 0.231l-19.576 14.682c-0.843 0.632-1.186 1.733-0.853 2.731 0.333 1 1.268 1.673 2.321 1.673z"></path>
<path fill="#99cb31" d="M23.953 22.729c0.338 0 0.612 0.274 0.612 0.611v2.447h-1.224v-2.447c0-0.337 0.275-0.611 0.612-0.611z"></path>
<path fill="#f3c700" d="M20.894 23.953c0.338 0 0.612 0.274 0.612 0.612v1.223h-1.224v-1.223c0-0.338 0.274-0.612 0.612-0.612z"></path>
<path fill="#5e75ff" d="M17.835 22.729c0.337 0 0.612 0.274 0.612 0.611v2.447h-1.224v-2.447c0-0.337 0.274-0.611 0.612-0.611z"></path>
<path fill="#f3c700" d="M14.777 23.953c0.337 0 0.611 0.274 0.611 0.612v1.223h-1.223v-1.223c0-0.338 0.274-0.612 0.612-0.612z"></path>
<path fill="#d72f44" d="M11.718 22.729c0.337 0 0.611 0.274 0.611 0.611v2.447h-1.223v-2.447c0-0.337 0.274-0.611 0.612-0.611z"></path>
<path fill="#f3c700" d="M8.047 24.565c0-0.338 0.274-0.612 0.612-0.612s0.611 0.274 0.611 0.612v1.223h-1.223v-1.223z"></path>
</svg>
