<?xml version="1.0" encoding="utf-8"?>
<!-- Generated by IcoMoon.io -->
<!DOCTYPE svg PUBLIC "-//W3C//DTD SVG 1.1//EN" "http://www.w3.org/Graphics/SVG/1.1/DTD/svg11.dtd">
<svg version="1.1" xmlns="http://www.w3.org/2000/svg" xmlns:xlink="http://www.w3.org/1999/xlink" width="32" height="32" viewBox="0 0 32 32">
<path fill="#555" d="M17.961 17.079c0.115 0 0.256 0.072 0.296 0.232l0.886 3.562c0.040 0.163-0.059 0.329-0.223 0.371l-5.937 1.477c-0.139 0.035-0.322-0.029-0.371-0.223l-0.886-3.561c-0.040-0.164 0.059-0.331 0.223-0.371l5.937-1.477 0.075-0.009zM12.909 24.565c0.174 0 0.349-0.022 0.519-0.064l5.936-1.477c1.146-0.285 1.845-1.449 1.561-2.595l-0.886-3.562c-0.238-0.956-1.092-1.624-2.077-1.624-0.174 0-0.348 0.021-0.518 0.063l-5.937 1.477c-1.145 0.285-1.845 1.449-1.561 2.595l0.886 3.562c0.238 0.957 1.092 1.625 2.077 1.625zM5.601 22.423l22.634-4.894v-4.282l-22.634-4.894v14.070z"></path>
<path fill="#99cb31" d="M26.399 17.223c0 0.676 0.548 1.223 1.224 1.223s1.223-0.547 1.223-1.223v-3.67c0-0.676-0.547-1.224-1.223-1.224s-1.224 0.548-1.224 1.224v3.67z"></path>
<path fill="#5e75ff" d="M3.153 22.117c0 0.676 0.547 1.223 1.223 1.223s1.224-0.547 1.224-1.223v-13.458c0-0.676-0.548-1.224-1.224-1.224s-1.223 0.548-1.223 1.224v13.458z"></path>
</svg>
