<?xml version="1.0" encoding="utf-8"?>
<!-- Generated by IcoMoon.io -->
<!DOCTYPE svg PUBLIC "-//W3C//DTD SVG 1.1//EN" "http://www.w3.org/Graphics/SVG/1.1/DTD/svg11.dtd">
<svg version="1.1" xmlns="http://www.w3.org/2000/svg" xmlns:xlink="http://www.w3.org/1999/xlink" width="32" height="32" viewBox="0 0 32 32">
<path fill="#57ac6e" d="M9.125 23.279c0 0.633 0.513 1.146 1.146 1.146s1.145-0.513 1.145-1.146v-3.437c0-0.633-0.513-1.145-1.145-1.145s-1.146 0.513-1.146 1.145v3.437zM14.854 23.279c0 0.633 0.513 1.146 1.146 1.146s1.146-0.513 1.146-1.146v-3.437c0-0.633-0.513-1.145-1.146-1.145s-1.146 0.513-1.146 1.145v3.437zM20.583 23.279c0 0.633 0.513 1.146 1.146 1.146s1.145-0.513 1.145-1.146v-3.437c0-0.633-0.513-1.145-1.145-1.145s-1.146 0.513-1.146 1.145v3.437zM6.261 12.395h19.479c0.949 0 1.719 0.769 1.719 1.719l-2.292 10.312c0 0.949-0.769 1.719-1.719 1.719h-14.895c-0.949 0-1.719-0.769-1.719-1.719l-2.292-10.312c0-0.949 0.77-1.719 1.719-1.719zM2.251 13.541c0 0.632 0.513 1.145 1.146 1.145h25.207c0.633 0 1.146-0.513 1.146-1.145 0-0.633-0.513-1.146-1.146-1.146h-25.207c-0.633 0-1.146 0.513-1.146 1.146z"></path>
<path fill="#555" d="M9.797 6.191c-0.447 0.447-0.447 1.173 0 1.62l6.539 8.831c0.447 0.447 1.173 0.447 1.621 0s0.447-1.173 0-1.62l-6.54-8.831c-0.447-0.447-1.173-0.447-1.62 0z"></path>
</svg>
