<?xml version="1.0" encoding="utf-8"?>
<!-- Generated by IcoMoon.io -->
<!DOCTYPE svg PUBLIC "-//W3C//DTD SVG 1.1//EN" "http://www.w3.org/Graphics/SVG/1.1/DTD/svg11.dtd">
<svg version="1.1" xmlns="http://www.w3.org/2000/svg" xmlns:xlink="http://www.w3.org/1999/xlink" width="32" height="32" viewBox="0 0 32 32">
<path fill="#555" d="M7.435 27.623c0 0.676 0.548 1.223 1.224 1.223h14.681c0.676 0 1.224-0.547 1.224-1.223v-23.247c0-0.676-0.548-1.223-1.224-1.223h-14.681c-0.676 0-1.224 0.547-1.224 1.223v23.247z"></path>
<path fill="#d72f44" d="M9.577 20.588c0 3.547 2.876 6.423 6.423 6.423s6.423-2.876 6.423-6.423-2.876-6.423-6.423-6.423-6.423 2.876-6.423 6.423z"></path>
<path fill="#5e75ff" d="M12.024 8.965c0 2.197 1.78 3.977 3.976 3.977s3.976-1.78 3.976-3.977c0-2.196-1.78-3.976-3.976-3.976s-3.976 1.78-3.976 3.976z"></path>
<path fill="#ffd300" d="M14.505 20.588c0 0.826 0.669 1.495 1.495 1.495s1.495-0.669 1.495-1.495c0-0.826-0.669-1.495-1.495-1.495s-1.495 0.669-1.495 1.495z"></path>
<path fill="#f3c600" d="M17.035 7.459l0.471 0.471-1.035 1.035 1.021 1.022-0.471 0.471-1.021-1.021-1.035 1.035-0.471-0.471 1.035-1.035-1.021-1.021 0.471-0.471 1.021 1.021 1.035-1.035z"></path>
</svg>
