<?xml version="1.0" encoding="utf-8"?>
<!-- Generated by IcoMoon.io -->
<!DOCTYPE svg PUBLIC "-//W3C//DTD SVG 1.1//EN" "http://www.w3.org/Graphics/SVG/1.1/DTD/svg11.dtd">
<svg version="1.1" xmlns="http://www.w3.org/2000/svg" xmlns:xlink="http://www.w3.org/1999/xlink" width="32" height="32" viewBox="0 0 32 32">
<path fill="#619af4" d="M7.831 15.245c0.265-0.059 0.799-0.167 1.064-0.221 1.312-0.113 2.597 0.308 3.849 0.664 3.028 0.913 6.073 1.787 9.113 2.667l1.063 0.303c1.889 0.615 4.437 0.853 5.237 3.007 1.101 2.337-0.891 5.344-3.482 5.193-5.053 0.049-10.106 0.033-15.159 0.005-2.947 0.092-5.631-2.369-5.89-5.29-0.351-2.764 1.533-5.577 4.205-6.327z"></path>
<path fill="#555" d="M3.675 8.541c2.111-0.027 4.222-0.033 6.338 0 0.005 0.264 0.005 0.783 0.005 1.047l-3.606 0.021c-0.918-0.011-1.83-0.016-2.743-0.021l0.005-1.047z"></path>
<path fill="#444" d="M6.412 9.609l1.139-0.005c0.443 1.809 0.897 3.611 1.345 5.42-0.265 0.054-0.799 0.162-1.064 0.221-0.485-1.879-0.95-3.763-1.419-5.636z"></path>
<path fill="#5e75ff" d="M8.129 17.389c1.587-0.594 3.266 0.248 4.821 0.605 4.043 1.258 8.152 2.305 12.174 3.601 1.528 0.173 1.565 2.813 0.049 2.997-5.005 0.426-10.068-0.109-15.089 0.117-1.619 0.238-3.132-0.625-3.909-2.034-1.199-1.922 0.043-4.405 1.954-5.285z"></path>
<path fill="#f3c600" d="M9.479 24.75c-2.106 0-3.813-1.707-3.813-3.813s1.707-3.812 3.813-3.812c2.105 0 3.813 1.707 3.813 3.812s-1.707 3.813-3.813 3.813z"></path>
<path fill="#555" d="M9.208 20c0.483 0 0.875 0.392 0.875 0.875l-0.037 0.183c1.442 0.94 0.821 0.461 1.899 1.389 0.729 0.869 1.971 0.577 2.975 0.739l-0.021 1.042c-1.329-0.071-2.915 0.281-3.887-0.875-0.99-0.971-0.49-0.423-1.472-1.671l-0.331 0.067c-0.483 0-0.875-0.392-0.875-0.875s0.392-0.875 0.875-0.875zM19.887 4.227c1.771-0.005 3.552-0.119 5.323 0.049 1.663 0.183 2.705 2.191 1.971 3.687-1.361 3.585-2.85 7.126-4.259 10.695l-1.063-0.303c1.382-3.509 2.834-6.991 4.195-10.505 0.491-0.88 0.221-2.165-0.821-2.462-1.781-0.183-3.574-0.070-5.35-0.119l0.005-1.042z"></path>
</svg>
