<?xml version="1.0" encoding="utf-8"?>
<!-- Generated by IcoMoon.io -->
<!DOCTYPE svg PUBLIC "-//W3C//DTD SVG 1.1//EN" "http://www.w3.org/Graphics/SVG/1.1/DTD/svg11.dtd">
<svg version="1.1" xmlns="http://www.w3.org/2000/svg" xmlns:xlink="http://www.w3.org/1999/xlink" width="32" height="32" viewBox="0 0 32 32">
<path fill="#d72f44" d="M20.9 4.825c-7.511 0.004-7.647 1.755-7.651 6.118s3.426 5.615 7.651 5.615c0.477 0 0.944-0.032 1.397-0.093l3.958 2.446-0.846-3.431c1.904-1.021 3.141-0.143 3.141-4.536s-0.139-6.122-7.65-6.118z"></path>
<path fill="#565860" d="M12.631 10.028c9.013 0.005 9.176 2.136 9.181 7.447s-4.11 6.836-9.181 6.836c-0.573 0-1.133-0.039-1.676-0.113-0.015 0.009-4.444 2.977-4.444 2.977s0.703-4.157 0.709-4.177c-2.286-1.243-3.77-0.175-3.77-5.523s0.168-7.452 9.181-7.447z"></path>
</svg>
