<?xml version="1.0" encoding="utf-8"?>
<!-- Generated by IcoMoon.io -->
<!DOCTYPE svg PUBLIC "-//W3C//DTD SVG 1.1//EN" "http://www.w3.org/Graphics/SVG/1.1/DTD/svg11.dtd">
<svg version="1.1" xmlns="http://www.w3.org/2000/svg" xmlns:xlink="http://www.w3.org/1999/xlink" width="32" height="32" viewBox="0 0 32 32">
<path fill="#735746" d="M21.659 18.833h-0.809v-6.475h0.809c1.786 0 3.234 1.45 3.234 3.238s-1.448 3.237-3.234 3.237zM21.659 9.929h-0.809v-2.428c0-0.447-0.362-0.809-0.808-0.809h-14.553c-0.447 0-0.809 0.362-0.809 0.809v14.165c0 2.012 1.629 3.642 3.638 3.642h8.893c2.009 0 3.638-1.63 3.638-3.642v-0.405h0.809c3.125 0 5.659-2.537 5.659-5.666s-2.534-5.666-5.659-5.666z"></path>
<path fill="#d72f44" d="M4.681 9.929h16.169v-1.619h-16.169z"></path>
</svg>
