<?xml version="1.0" encoding="utf-8"?>
<!-- Generated by IcoMoon.io -->
<!DOCTYPE svg PUBLIC "-//W3C//DTD SVG 1.1//EN" "http://www.w3.org/Graphics/SVG/1.1/DTD/svg11.dtd">
<svg version="1.1" xmlns="http://www.w3.org/2000/svg" xmlns:xlink="http://www.w3.org/1999/xlink" width="32" height="32" viewBox="0 0 32 32">
<path fill="#fffffe" d="M10.844 18.641l2.229-2.132c0.524-0.501 0-1.019 0-1.019l-2.391-2.287c-1.623-1.553-1.557-3.815-1.557-3.815v-2.936h13.75l-0.001 2.936s0.067 2.262-1.557 3.815l-2.391 2.287s-0.523 0.517 0 1.019l2.229 2.132s1.719 1.631 1.719 4.233l0.001 2.912h-13.75v-2.912c0-2.602 1.719-4.233 1.719-4.233z"></path>
<path fill="#ec6206" d="M11.416 9.455c0.001 0 0.013 1.292 0.851 2.092l2.391 2.287c0.242 0.239 0.779 0.985 0.771 2.165v5.093l-4.584 4.073h10.312l-4.587-4.077-0.014-5.089c-0.009-1.181 0.546-1.926 0.762-2.14l2.417-2.313c0.821-0.785 0.851-2.079 0.85-2.092h-9.168z"></path>
<path fill="#555" d="M6.834 5.688c0 0.633 0.513 1.146 1.145 1.146h16.041c0.633 0 1.145-0.513 1.145-1.146s-0.513-1.146-1.145-1.146h-16.041c-0.632 0-1.145 0.513-1.145 1.146zM6.834 26.312c0 0.633 0.513 1.146 1.145 1.146h16.041c0.633 0 1.145-0.513 1.145-1.146s-0.513-1.146-1.145-1.146h-16.041c-0.632 0-1.145 0.513-1.145 1.146z"></path>
</svg>
