<?xml version="1.0" encoding="utf-8"?>
<!-- Generated by IcoMoon.io -->
<!DOCTYPE svg PUBLIC "-//W3C//DTD SVG 1.1//EN" "http://www.w3.org/Graphics/SVG/1.1/DTD/svg11.dtd">
<svg version="1.1" xmlns="http://www.w3.org/2000/svg" xmlns:xlink="http://www.w3.org/1999/xlink" width="32" height="32" viewBox="0 0 32 32">
<path fill="#57ac6e" d="M29.923 17.238c0 6.377-6.233 11.547-13.923 11.547s-13.923-5.17-13.923-11.547c0-6.377 6.233-11.547 13.923-11.547s13.923 5.17 13.923 11.547z"></path>
<path fill="#7bcb91" d="M29.921 17.173c-0.042-6.347-6.257-11.483-13.921-11.483s-13.879 5.135-13.921 11.483z"></path>
<path fill="#96efae" d="M14.286 8.067c0 2.679-2.172 4.851-4.851 4.851s-4.851-2.172-4.851-4.851c0-2.679 2.172-4.851 4.851-4.851s4.851 2.172 4.851 4.851zM27.416 8.067c0 2.679-2.172 4.851-4.851 4.851s-4.851-2.172-4.851-4.851c0-2.679 2.172-4.851 4.851-4.851s4.851 2.172 4.851 4.851z"></path>
<path fill="#000" d="M10.651 8.1c0 0.662-0.525 1.199-1.173 1.199s-1.173-0.537-1.173-1.199c0-0.663 0.525-1.199 1.173-1.199s1.173 0.537 1.173 1.199zM23.675 8.1c0 0.662-0.525 1.199-1.173 1.199s-1.173-0.537-1.173-1.199c0-0.663 0.525-1.199 1.173-1.199s1.173 0.537 1.173 1.199z"></path>
<path fill="#498359" d="M11.631 20.607c0 0.609-0.494 1.102-1.103 1.102s-1.102-0.493-1.102-1.102 0.493-1.103 1.102-1.103 1.103 0.494 1.103 1.103zM23.626 20.607c0 0.609-0.494 1.102-1.103 1.102s-1.102-0.493-1.102-1.102 0.493-1.103 1.102-1.103 1.103 0.494 1.103 1.103z"></path>
</svg>
