<?xml version="1.0" encoding="utf-8"?>
<!-- Generated by IcoMoon.io -->
<!DOCTYPE svg PUBLIC "-//W3C//DTD SVG 1.1//EN" "http://www.w3.org/Graphics/SVG/1.1/DTD/svg11.dtd">
<svg version="1.1" xmlns="http://www.w3.org/2000/svg" xmlns:xlink="http://www.w3.org/1999/xlink" width="32" height="32" viewBox="0 0 32 32">
<path fill="#57ac6e" d="M23.189 8.837c-0.837 0-1.517-0.679-1.517-1.517s0.68-1.517 1.517-1.517c0.838 0 1.517 0.679 1.517 1.517s-0.679 1.517-1.517 1.517zM18.654 9.687c0 0.367-0.315 0.663-0.681 0.663h-10.039c-0.368 0-0.655-0.296-0.655-0.663v-3.216c0-0.655 0.655-0.671 0.655-0.671h10.039c0.367 0 0.681 0.303 0.681 0.671zM24.401 2.767h-16.831c-1.837 0-3.325 1.496-3.325 3.335v7.735c0 1.839 1.487 3.339 3.325 3.339h3.622c0.919 0 1.709-0.328 2.359-0.978l1.837-1.836c0.649-0.65 1.439-0.977 2.358-0.977h6.655c1.838 0 3.353-1.501 3.353-3.339v-3.943c0-1.839-1.515-3.335-3.353-3.335z"></path>
<path fill="#555" d="M22.445 26.838v-6.553c1.517 1.185 2.653 2.623 2.653 3.806 0 1.607-1.136 2.48-2.653 2.747zM20.17 26.843c-1.517-0.257-2.653-1.105-2.653-2.722 0-1.203 1.136-2.647 2.653-3.834zM22.445 17.082v-1.515c0-0.367-0.305-0.665-0.673-0.665h-0.94c-0.367 0-0.662 0.298-0.662 0.665v1.515c-1.517 2.103-4.951 3.911-4.951 7.039 0 1.647 0.663 2.904 1.749 3.775 1.115 0.895 2.655 1.337 4.335 1.337 1.677 0 3.212-0.457 4.323-1.356 1.092-0.883 1.764-2.151 1.764-3.786 0-3.11-3.429-4.917-4.945-7.009z"></path>
</svg>
