<?xml version="1.0" encoding="utf-8"?>
<!-- Generated by IcoMoon.io -->
<!DOCTYPE svg PUBLIC "-//W3C//DTD SVG 1.1//EN" "http://www.w3.org/Graphics/SVG/1.1/DTD/svg11.dtd">
<svg version="1.1" xmlns="http://www.w3.org/2000/svg" xmlns:xlink="http://www.w3.org/1999/xlink" width="32" height="32" viewBox="0 0 32 32">
<path fill="#555" d="M1.858 22.717l14.142-5.657 14.142 5.657-14.142 6.364-14.142-6.364z"></path>
<path fill="#57ac6e" d="M18.121 2.919l4.949 19.799c-0.087-0.143 0 2.829-7.071 2.829s-6.983-2.971-7.071-2.829l4.949-19.799h4.243z"></path>
<path fill="#555" d="M22.086 18.777l0.545 2.181c-2.107 0.859-4.346 1.333-6.617 1.405-2.276-0.037-4.535-0.565-6.645-1.408l0.543-2.174c1.945 0.743 3.991 1.138 6.069 1.203 2.099 0.005 4.137-0.525 6.105-1.208zM21.233 15.369c-1.739 0.638-3.38 0.89-5.223 0.985-1.791-0.011-3.555-0.412-5.243-0.986l0.489-1.956c1.585 0.447 1.631 0.508 3.545 0.76 0.392 0.052 0.79 0.041 1.185 0.061 1.627 0.021 3.205-0.388 4.757-0.824l0.49 1.96zM19.4 8.036l0.495 1.979c-1.253 0.439-2.568 0.616-3.887 0.682-1.325-0.016-2.646-0.27-3.903-0.683l0.494-1.977c1.097 0.361 2.244 0.481 3.391 0.538 1.16 0.009 2.297-0.238 3.411-0.54z"></path>
</svg>
