<?xml version="1.0" encoding="utf-8"?>
<!-- Generated by IcoMoon.io -->
<!DOCTYPE svg PUBLIC "-//W3C//DTD SVG 1.1//EN" "http://www.w3.org/Graphics/SVG/1.1/DTD/svg11.dtd">
<svg version="1.1" xmlns="http://www.w3.org/2000/svg" xmlns:xlink="http://www.w3.org/1999/xlink" width="32" height="32" viewBox="0 0 32 32">
<path fill="#444" d="M16 3.593c-6.844 0-12.392 5.555-12.392 12.407s5.548 12.407 12.392 12.407c6.844 0 12.392-5.555 12.392-12.407s-5.548-12.407-12.392-12.407z"></path>
<path fill="#57ac6e" d="M16 16.73c-0.403 0-0.729-0.327-0.729-0.73s0.326-0.73 0.729-0.73 0.729 0.327 0.729 0.73-0.326 0.73-0.729 0.73zM16 10.162c-3.221 0-5.831 2.613-5.831 5.838s2.611 5.838 5.831 5.838 5.831-2.614 5.831-5.838c0-3.225-2.611-5.838-5.831-5.838z"></path>
</svg>
