<?xml version="1.0" encoding="utf-8"?>
<!-- Generated by IcoMoon.io -->
<!DOCTYPE svg PUBLIC "-//W3C//DTD SVG 1.1//EN" "http://www.w3.org/Graphics/SVG/1.1/DTD/svg11.dtd">
<svg version="1.1" xmlns="http://www.w3.org/2000/svg" xmlns:xlink="http://www.w3.org/1999/xlink" width="32" height="32" viewBox="0 0 32 32">
<path fill="#eaeaea" d="M26.941 5.464h-21.882c-1.119 0-2.026 0.907-2.026 2.027v17.019c0 1.119 0.907 2.026 2.026 2.026h21.882c1.119 0 2.027-0.907 2.027-2.026v-17.019c0-1.119-0.907-2.027-2.027-2.027z"></path>
<path fill="#56545c" d="M20.112 16.21c0 4.013-3.254 7.267-7.267 7.267s-7.267-3.254-7.267-7.267 3.254-7.267 7.267-7.267 7.267 3.254 7.267 7.267z"></path>
<path fill="#f5b401" d="M14.677 16c0 0.954-0.773 1.728-1.728 1.728s-1.728-0.774-1.728-1.728 0.774-1.728 1.728-1.728c0.955 0 1.728 0.774 1.728 1.728z"></path>
<path fill="#56545c" d="M25.041 9.663v3.197h-0.532v7.321c0.683 0.229 0.968 0.878 1.035 1.544 0 0.951-0.771 1.722-1.722 1.722s-1.722-0.771-1.722-1.722c0.020-0.579 0.278-1.089 0.759-1.428 0.143-0.101 0.323-0.136 0.485-0.205v-7.232h-0.532v-3.197h2.229z"></path>
</svg>
