<?xml version="1.0" encoding="utf-8"?>
<!-- Generated by IcoMoon.io -->
<!DOCTYPE svg PUBLIC "-//W3C//DTD SVG 1.1//EN" "http://www.w3.org/Graphics/SVG/1.1/DTD/svg11.dtd">
<svg version="1.1" xmlns="http://www.w3.org/2000/svg" xmlns:xlink="http://www.w3.org/1999/xlink" width="32" height="32" viewBox="0 0 32 32">
<path fill="#e5415c" d="M9.073 19.661c0.409-0.427 1.617-0.993 2.043-0.583 0.427 0.409-0.088 1.64-0.497 2.066s-1.088 0.441-1.513 0.031c-0.427-0.409-0.441-1.087-0.033-1.514zM14.75 19.931c0.59-0.022 1.116 1.203 1.139 1.795 0.021 0.591-0.441 1.088-1.031 1.11s-1.088-0.439-1.11-1.031c-0.021-0.59 0.409-1.852 1.001-1.874zM18.205 18.262c0.418-0.417 1.638 0.123 2.055 0.542s0.417 1.095 0 1.513c-0.417 0.419-1.097 0.419-1.515 0-0.417-0.418-0.957-1.636-0.541-2.055zM19.633 9.101c0.427-0.409 1.105-0.395 1.513 0.033 0.41 0.425 0.396 1.105-0.031 1.513s-1.657 0.924-2.065 0.497c-0.41-0.427 0.156-1.634 0.583-2.043zM22.807 14.887c-0.023 0.591-0.519 1.052-1.11 1.030s-1.817-0.548-1.794-1.139c0.021-0.592 1.283-1.023 1.874-1.001s1.052 0.52 1.030 1.11zM20.455 23.241c5.086-3.56 6.322-10.569 2.762-15.653-0.716-1.021-1.571-1.887-2.522-2.591l-15.722 15.722c3.611 4.884 10.479 6.027 15.482 2.522z"></path>
<path fill="#57ac6e" d="M25.039 2.929c-0.522-0.521-1.507-0.885-2.421 0.009-0.4 0.393-0.739 0.738-0.739 0.738 3.069 2.377 5.049 6.098 5.047 10.28 0.002 7.175-5.817 12.993-12.991 12.993-4.182 0-7.903-1.978-10.281-5.049 0 0-0.194 0.214-0.556 0.589-0.556 0.575-1.185 1.407-0.255 2.407 2.765 2.973 6.795 4.709 11.172 4.709 8.624 0 15.617-6.993 15.617-15.617 0-4.321-1.761-8.227-4.593-11.059z"></path>
</svg>
