<?xml version="1.0" encoding="utf-8"?>
<!-- Generated by IcoMoon.io -->
<!DOCTYPE svg PUBLIC "-//W3C//DTD SVG 1.1//EN" "http://www.w3.org/Graphics/SVG/1.1/DTD/svg11.dtd">
<svg version="1.1" xmlns="http://www.w3.org/2000/svg" xmlns:xlink="http://www.w3.org/1999/xlink" width="32" height="32" viewBox="0 0 32 32">
<path fill="#565860" d="M29.689 13.6c0 2.16-1.751 3.911-3.911 3.911-0.223 0-0.439-0.025-0.652-0.061v0.061h-10.43c-1.8 0-3.259-1.459-3.259-3.259s1.459-3.259 3.259-3.259c0.255 0 0.501 0.032 0.739 0.087-0.055-0.238-0.087-0.485-0.087-0.739 0-1.8 1.459-3.259 3.259-3.259 0.907 0 1.727 0.371 2.319 0.97 0.62-1.341 1.973-2.273 3.548-2.273 2.16 0 3.911 1.751 3.911 3.911 0 0.311-0.040 0.613-0.109 0.903 0.863 0.717 1.413 1.798 1.413 3.008z"></path>
<path fill="#4074f7" d="M26.178 25.313c2.040-0.297 3.407-1.845 3.511-3.891 0-2.16-1.751-3.911-3.911-3.911l-0.241 0.012c0.201-0.407 0.218-0.873 0.241-1.316 0-2.16-1.751-3.911-3.911-3.911-1.043 0.007-2.007 0.413-2.742 1.147-0.518-3.013-3.106-4.909-6.058-5.058-3.42 0-6.193 2.773-6.193 6.193 0.038 0.753-0.010 0.426 0.105 0.989-2.676 0.089-4.538 2.317-4.667 4.878 0 2.7 2.189 4.889 4.889 4.889l0.326-0.021v0.021h18.252l0.4-0.020zM18.319 17.815l0.011 0.023h-0.028l0.017-0.023z"></path>
</svg>
