<svg xmlns="http://www.w3.org/2000/svg" width="192" height="192" viewBox="0 0 192 192"><path fill="#555" d="M12.48 113.28v65.28h174.048v-65.28h-174.048z"/><path fill="#d72f44" d="M102.384 82.848l-30.48 30.432h-27.6l30.48-30.432h27.6zm52.224 0l-30.288 30.432h-27.84l30.528-30.432h27.552zm32.016 0v18.72l-11.424 11.712h-26.4l30.48-30.432zm-136.08 0l-30.864 30.432h-7.2v-30.432h37.68zm-9.744-41.568l-25.632 40.992-2.736.576-7.2-33.6 35.568-7.968zm50.4-10.416l-25.92 40.944-26.4 5.472 25.68-40.8 26.544-5.616zm49.92-10.464l-25.632 40.944-26.544 5.52 25.68-40.944 26.496-5.472zm38.016 9.12l-13.44 21.36-26.592 5.52 25.68-40.896 11.232-2.112z"/><path fill="#f3c600" d="M186.528 101.664v11.616h-11.52l11.52-11.664zm-7.296-18.816l-30.432 30.432h-24.624l30.432-30.432h24.96zm-52.224 0l-30.528 30.432h-24.48l30.48-30.432h24.624zm-52.224 0l-30.48 30.432h-24.624l30.48-30.432h24.624zm-10.32-46.368l-25.68 40.8-23.616 4.992 25.632-40.992 23.664-4.8zm50.16-10.56l-25.68 40.944-23.616 4.944 25.92-40.944 23.472-4.944zm50.16-10.416l-25.68 40.896-23.616 4.944 25.632-40.944 23.664-4.896zm14.4 13.92l3.648 17.856-17.28 3.6 13.44-21.408z"/></svg>