<svg xmlns="http://www.w3.org/2000/svg" width="192" height="192" viewBox="0 0 192 192"><path fill="#555" d="M95.616 5.616c7.392 0 17.904 23.136 17.904 30.24l-1.104 29.28 19.008 9.12 17.904-1.44v8.928l28.128 14.4c6.576 3.984 8.928 8.16 8.976 15.456-.144 3.072-.96 8.448-4.08 10.32-3.072 1.776-7.296.48-10.416-.384l-60.672-17.184-1.92 51.744h-26.88l-1.92-51.744-60.864 17.184c-3.216.72-8.496 2.64-11.232-.24-2.256-2.4-2.112-5.856-2.208-8.88 0-7.584 1.296-12 7.824-16.32l28.08-13.44v-9.888l17.856 1.44 18.96-9.12-.96-29.184c0-7.2 10.416-30.24 17.856-30.24z"/><path fill="#8941b1" d="M59.28 169.296l36.816-29.28s36.384 29.04 36.816 29.28c.48.24 3.36 16.8 3.36 16.8l-40.272-11.856-40.176 11.808 3.36-16.8z"/></svg>