<svg xmlns="http://www.w3.org/2000/svg" width="192" height="192" viewBox="0 0 192 192"><path fill="#d72f44" d="M164.736 75.36c0 37.92-69.504 95.712-69.504 95.712s-67.2-57.792-67.2-95.712c0-37.776 30.624-68.304 68.352-68.304 37.68 0 68.352 30.528 68.352 68.352z"/><path fill="#f3c600" d="M95.184 171.072s68.4-56.976 69.936-94.752c1.536-37.92-30.336-70.464-70.464-69.264 0 0 38.544 17.904 39.36 68.256.48 24.96-22.896 75.84-38.88 95.616z"/><path fill="#8941b1" d="M95.232 171.072s-68.352-57.984-68.352-95.712c0-37.92 30.096-68.304 67.824-68.304-20.784 9.408-37.776 36.24-37.776 68.304 0 25.056 22.368 75.84 38.304 95.712z"/><path fill="#555" d="M101.52 172.656l-.576 12.384h-11.184l-.624-12.384h5.424l.624-1.584.624 1.584z"/></svg>