<svg xmlns="http://www.w3.org/2000/svg" width="192" height="192" viewBox="0 0 192 192"><path fill="#d5d5d5" d="M186.24 52.896v117.6l-180.48-.576.24-117.024 58.08-.096 30.384-31.536 30.336 31.536 61.44.096zm-92.16-22.848l-22.08 23.04h44.16l-22.08-23.04z"/><path fill="#57ac6e" d="M5.856 138.72l-.096 31.872h101.28c-25.44-23.712-61.92-30.72-95.52-31.872z"/><path fill="#555" d="M175.68 133.776c-34.224 1.056-76.992 8.928-100.704 36.768h111.264v-36.48l-10.56-.288z"/><path fill="#d72f44" d="M149.472 114.048c9.216 0 16.8-7.488 16.8-16.704 0-9.264-7.584-16.8-16.8-16.8-9.264 0-16.8 7.536-16.8 16.8 0 9.216 7.536 16.704 16.8 16.704z"/></svg>