<svg xmlns="http://www.w3.org/2000/svg" width="192" height="192" viewBox="0 0 192 192"><path fill="#555" d="M118.973 188.777c-5.559-2.623-12.422-15.761-2.913-48.388 6.535-22.425 3.92-37.454 3.92-37.454l3.572-.652s2.794 15.799-3.999 39.112c-9.177 31.48-2.41 42.513.972 44.107l-1.551 3.274z"/><path fill="#f3c600" d="M121.253 1.591c22.894 0 41.453 17 41.453 46.859-1.033 22.395-16.306 53.207-37.027 63.749l.583.293c2.287 1.014 5.833 1.849 5.806 4.24-.05 4.361-7.469 5.051-9.92 1.449-2.566 3.751-9.859 2.875-9.909-1.475.321-2.531 3.18-3.23 5.231-4.019-17.77-5.658-30.775-30.493-35.235-47.157-2.249-8.399-2.074-9.935-2.436-17.08 0-29.859 18.559-46.859 41.453-46.859z"/><path fill="#555" d="M53.817 107.38c6.115.61 16.989 10.69 18.959 44.618 1.361 23.314 8.864 36.596 8.864 36.596l-3.149 1.815s-7.93-13.95-9.341-38.194c-1.902-32.735-11.979-40.859-15.7-41.229z"/><path fill="#735746" d="M56.456 59.278c14.068 1.102 21.907 11.723 25.727 24.4 3.142 14.804-.881 37.103-12.288 47.813l.565.122c1.594.271 3.931.21 4.319 1.769.713 2.852-3.774 4.568-5.906 2.642-.953 2.878-5.627 3.557-6.397.728-.218-1.705 1.399-2.627 2.593-3.534-16.912-3.161-29.402-19.73-34.309-35.384-5.074-19.451 3.55-33.691 17.751-37.599 4.384-.98 1.757-.534 7.945-.957z"/></svg>