<?xml version="1.0" encoding="utf-8"?>
<!-- Generated by IcoMoon.io -->
<!DOCTYPE svg PUBLIC "-//W3C//DTD SVG 1.1//EN" "http://www.w3.org/Graphics/SVG/1.1/DTD/svg11.dtd">
<svg version="1.1" xmlns="http://www.w3.org/2000/svg" xmlns:xlink="http://www.w3.org/1999/xlink" width="32" height="32" viewBox="0 0 32 32">
<path fill="#3b9f5d" d="M19.329 29.899l-0.117-0.026c-0.835-0.394-1.867-2.368-0.437-7.271 0.981-3.37 0.593-5.606 0.589-5.628-0.027-0.147 0.071-0.289 0.219-0.317 0.145-0.027 0.291 0.071 0.318 0.219 0.018 0.095 0.42 2.374-0.601 5.877-1.379 4.73-0.362 6.388 0.146 6.627 0.136 0.065 0.195 0.227 0.13 0.362-0.047 0.099-0.145 0.156-0.247 0.156zM19.795 1.746c3.44 0 6.229 2.555 6.229 7.041-0.155 3.365-2.451 7.995-5.564 9.579l0.087 0.044c0.344 0.153 0.877 0.278 0.873 0.637-0.007 0.655-1.122 0.759-1.491 0.217-0.385 0.564-1.481 0.432-1.489-0.221 0.048-0.381 0.477-0.485 0.786-0.604-2.671-0.85-4.625-4.582-5.295-7.086-0.338-1.262-0.312-1.493-0.366-2.567 0-4.487 2.789-7.041 6.229-7.041z"></path>
<path fill="#aa7e5f" d="M9.703 17.657l0.118-0.014c0.919 0.091 2.553 1.606 2.849 6.704 0.205 3.503 1.321 5.48 1.332 5.499 0.075 0.13 0.030 0.297-0.101 0.372-0.128 0.074-0.297 0.031-0.372-0.099-0.049-0.084-1.192-2.096-1.404-5.739-0.286-4.919-1.8-6.139-2.359-6.195-0.149-0.016-0.259-0.149-0.244-0.298 0.012-0.109 0.085-0.195 0.181-0.23z"></path>
<path fill="#735746" d="M10.058 10.415c2.114 0.165 3.292 1.761 3.866 3.666 0.472 2.225-0.133 5.575-1.847 7.185l0.085 0.019c0.239 0.041 0.591 0.031 0.649 0.265 0.107 0.429-0.567 0.687-0.887 0.397-0.143 0.433-0.846 0.535-0.961 0.109-0.033-0.256 0.21-0.395 0.389-0.531-2.541-0.475-4.418-2.965-5.155-5.317-0.763-2.923 0.533-5.063 2.667-5.65 0.659-0.147 0.264-0.080 1.194-0.143z"></path>
</svg>
