<svg xmlns="http://www.w3.org/2000/svg" width="192" height="192" viewBox="0 0 192 192"><path fill="#735746" d="M17.851 22.555c14.476-14.095 81.997-16.996 125.197 23.782 43.208 40.783 45.454 111.457 31.267 123.897-16.085 14.11-83.674 14.61-126.886-26.17-43.208-40.779-43.055-108.387-29.578-121.51z"/><path fill="#f3c600" d="M69.648 49.822l7.679 7.694-23.032 23.078-7.678-7.694zm23.028 23.077l-23.028 23.078-7.675-7.69 23.024-23.081zm46.063 46.155l-23.031 23.07-7.675-7.694 23.032-23.074zm-30.706-30.767l-23.036 23.07-7.671-7.69 23.028-23.074zm15.353 15.38l-23.032 23.081-7.679-7.694 23.032-23.078z"/></svg>