<svg xmlns="http://www.w3.org/2000/svg" width="192" height="192" viewBox="0 0 192 192"><path fill="#f3c600" d="M160.826 160.826c35.806-35.806 35.806-93.845 0-129.651-35.8-35.806-93.851-35.806-129.651 0-35.806 35.806-35.806 93.845 0 129.651 35.8 35.806 93.85 35.806 129.651 0z"/><path fill="#d72f44" d="M187.282 104.332c.355-3.942.378-7.907.23-11.861-18.422-5.558-35.869-15.195-50.893-28.988l28.054-28.048c-5.209-5.632-6.67-6.853-8.102-8.102l-28.054 28.048c-13.786-15.024-23.43-32.471-28.982-50.893-3.959-.149-7.918-.126-11.867.229 5.907 21.31 16.811 41.525 32.747 58.766l-24.415 24.415-60.566-60.565c-5.627 5.214-6.841 6.67-8.102 8.102l60.565 60.566-24.409 24.415c-17.247-15.947-37.462-26.845-58.766-32.747-.361 3.942-.384 7.907-.229 11.861 18.416 5.558 35.864 15.196 50.888 28.988l-28.048 28.048c5.214 5.633 6.67 6.853 8.102 8.102l28.054-28.048c13.786 15.024 23.424 32.471 28.982 50.894 3.959.149 7.919.131 11.861-.23-5.902-21.31-16.806-41.53-32.74-58.766l24.409-24.415 60.571 60.566c5.627-5.214 6.841-6.67 8.102-8.102l-60.571-60.565 24.415-24.415c17.247 15.94 37.456 26.845 58.766 32.746z"/></svg>