<svg xmlns="http://www.w3.org/2000/svg" width="192" height="192" viewBox="0 0 192 192"><path fill="#8941b1" d="M143.669 71.944v25.341h27.379v54.669h-27.379v16.214c0 10.101-6.734 19.05-16.835 19.05h-63.795c-10.101 0-17.012-8.949-17.012-19.05v-96.224h97.642zm0 38.366v29.948h15.86v-29.948h-15.86z"/><path fill="#f3c600" d="M140.568 33.224c-8.506 0-19.227 5.494-19.67 5.05 6.203-3.19 7.443-6.645 7.443-14.177 0-10.633-8.683-19.316-19.316-19.316s-19.316 8.683-19.316 19.316c0 1.241-8.772-4.164-15.151-4.164-8.861 0-16.303 5.936-18.607 13.999-2.126-.531-4.342-.797-6.557-.797-15.682 0-28.442 12.759-28.442 28.442s12.759 28.442 28.442 28.442c10.278 0 19.316-5.494 24.278-13.734 4.962 8.24 13.999 13.734 24.278 13.734 8.506 0 16.037-3.721 21.265-9.569 5.228 5.848 12.759 9.569 21.265 9.569 15.683 0 28.442-12.759 28.442-28.442s-12.67-28.354-28.353-28.354z"/></svg>