<svg xmlns="http://www.w3.org/2000/svg" width="192" height="192" viewBox="0 0 192 192"><path fill="#d72f44" d="M91.968 27.936c-9.456 1.584-17.376 7.392-21.6 15.36-4.992-3.36-10.944-5.376-17.424-5.376-16.704 0-36.864 13.056-36.864 29.136 0 0 .72 82.08 22.8 111.024 0 0 16.464 23.232 36.768-1.92 6.336 8.352 17.184 9.456 18.576 9.456h3.504c1.44 0 12.24-1.056 18.576-9.408 20.304 25.44 36.768 1.92 36.768 1.92 22.08-28.8 22.56-110.88 22.56-110.88 0-15.84-20.16-28.896-36.96-28.896-5.76 0-11.04 1.632-15.744 4.32-2.592-4.176-6.144-7.68-10.416-10.32z"/><path fill="#57ac6e" d="M122.4 4.128c6.48.864 11.136 7.776 8.16 14.064-1.92 3.84-5.952 6.24-9.888 8.16-3.12 1.44-5.616 2.976-7.68 5.28-6.72 7.2-9.12 17.28-9.216 26.88 4.32-2.4 9.408-3.36 14.304-3.36 1.728 0 3.072 1.44 3.072 3.072s-1.344 3.072-3.072 3.072c-4.032 0-13.536 0-19.2 10.56-.48.96-1.536 1.584-2.688 1.584h-.336c-1.248-.144-2.304-1.056-2.592-2.256-2.976-11.04-18.96-9.984-19.104-9.984-1.728.144-3.168-1.152-3.36-2.88-.096-1.632 1.152-3.12 2.88-3.36 3.696-.144 7.44.288 11.04 1.2.72.144 1.44.48 2.064.672-.192-10.08 1.44-20.16 5.184-29.52 4.512-10.032 12.672-19.632 27.552-22.992 1.632-.288.72-.192 2.88-.24z"/></svg>