<svg xmlns="http://www.w3.org/2000/svg" width="192" height="192" viewBox="0 0 192 192"><path fill="#555" d="M154.306 85.345c-18.284 0-33.029 14.745-33.029 33.028 0 18.2 14.829 33.029 33.029 33.029 18.284 0 33.028-14.745 33.028-33.029 0-18.199-14.829-33.028-33.028-33.028zm0 54.093c-11.627 0-21.064-9.437-21.064-21.064s9.437-21.064 21.064-21.064 21.064 9.437 21.064 21.064-9.437 21.064-21.064 21.064zm-116.612-54.093c-18.284 0-33.028 14.745-33.028 33.028 0 18.2 14.829 33.029 33.028 33.029 18.284 0 33.029-14.745 33.029-33.029 0-18.199-14.829-33.028-33.029-33.028zm0 54.093c-11.627 0-21.064-9.437-21.064-21.064s9.437-21.064 21.064-21.064 21.064 9.437 21.064 21.064-9.437 21.064-21.064 21.064z"/><path fill="#8941b1" d="M143.375 37.786l1.807 3.393-9.894 7.72 4.914 15.393.062.194 14.575 45.658c4.453.186 7.51 4 7.724 8.23 0 4.56-3.697 8.257-8.257 8.257s-8.257-3.697-8.257-8.257c.061-2.289 1.071-5.066 3.052-6.404l-14.013-43.897h-4.73l-23.532 45.567c2.054 1.462 2.954 4.009 3.076 6.419-.061 1.949-2.071 5.438-2.071 5.438l4.481 7.453h4.752v6.066h-15.419c.001 0 .001-6.066.001-6.066h3.518l-3.518-4.634c-4.14-.059-7.302-2.941-8.111-6.91h-48.654c-.671 4.091-4.081 6.706-8.112 6.91-4.56 0-8.257-3.697-8.257-8.257s3.697-8.257 8.257-8.257l31.428-43.076.169-12.702-8.089-1.6.001-4.466h20.895v4.466l-6.741 1.6v5.982h58.721l-3.214-10.069-12.668 5.368-2.127-3.393 28.232-16.126zm-73.538 36.041l-22.498 36.714 42.491-8.205-19.993-28.509zm47.785-5.67h-43.243l26.69 35.829 16.553-35.829z"/></svg>