<svg xmlns="http://www.w3.org/2000/svg" width="192" height="192" viewBox="0 0 192 192"><path fill="#f3c600" d="M45.44 43.187h15.293v19.038h-15.293v-19.038z"/><path fill="#57ac6e" d="M131.267 43.187h15.293v19.038h-15.293v-19.038z"/><path fill="#8941b1" d="M88.354 43.187h15.293v19.038h-15.293v-19.038z"/><path fill="#d63f31" d="M47.53 43.421c-1.481-2.015-6.042-4.728 0-18.905 6.039-14.179 9.623-19.694 8.747-23.369 0 0 14.984 32.413 2.804 42.275zm42.745 0c-1.481-2.015-6.04-4.726 0-18.905s9.623-19.694 8.75-23.369c0 0 14.982 32.413 2.805 42.275zm42.809 0c-1.481-2.015-6.042-4.726 0-18.905 6.037-14.179 9.623-19.694 8.748-23.369 0 0 13.466 30.33 2.804 42.275z"/><path fill="#5e75ff" d="M13.386 76.912v110.582h165.229v-110.582h-165.229z"/><path fill="#d5d5d5" d="M12.762 62.517v58.236c0 11.742 7.22 21.262 16.126 21.262s16.126-9.52 16.126-21.262v-36.974h.052c.386-4.063 3.009-7.207 6.191-7.207 3.185 0 5.808 3.144 6.194 7.207h.05v58.783c0 11.742 7.222 21.262 16.129 21.262s16.126-9.52 16.126-21.262v-58.783h.053c.385-4.063 3.006-7.207 6.191-7.207s6.191 3.014 6.191 7.207h.055v52.797c0 11.739 7.218 21.262 16.127 21.262 8.906 0 16.126-9.523 16.126-21.262v-52.797h.074c.386-4.063 3.006-7.207 6.191-7.207s5.808 3.144 6.193 7.207h.032v13.175c0 11.742 7.218 21.262 16.127 21.262 8.905 0 16.124-9.52 16.124-21.262v-34.437z"/></svg>