<svg xmlns="http://www.w3.org/2000/svg" width="192" height="192" viewBox="0 0 192 192"><path fill="#f3c600" d="M136.78 131.56s46.266-20.252 0-95.752c0 0-4.406 29.488-13.304 36.861 0 0-13.558-36.861-30.59-36.861 0 0-11.863 3.644-1.61-29.488 0 0-13.727 7.372-19.15 34.996 0 0-3.729 9.236 0 27.624 0 0-24.489-11.015-24.15-42.368 0 0-42.623 55.248 0 104.904 27.709 18.303 57.282 18.557 88.804.085z"/><path fill="#d72f44" d="M115.003 139.61s19.489-8.558 0-40.334c0 0-1.864 12.371-5.593 15.507 0 0-5.762-15.507-12.88-15.507 0 0-4.999 1.525-.678-12.371 0 0-5.762 3.135-8.05 14.744 0 0-1.61 3.898 0 11.609 0 0-10.338-4.661-10.168-17.794 0 0-17.965 23.303 0 44.233 11.609 7.541 24.065 7.711 37.369-.085z"/><path fill="#555" d="M183.233 123.308l-87.286 20.781-87.179-20.755.11 19.701 43.348 11.463-43.317 11.455-.11 19.702 87.147-20.748 87.255 20.773-.109-19.701-43.424-11.481 43.456-11.489.109-19.701z"/></svg>