<?xml version="1.0" encoding="utf-8"?>
<!-- Generated by IcoMoon.io -->
<!DOCTYPE svg PUBLIC "-//W3C//DTD SVG 1.1//EN" "http://www.w3.org/Graphics/SVG/1.1/DTD/svg11.dtd">
<svg version="1.1" xmlns="http://www.w3.org/2000/svg" xmlns:xlink="http://www.w3.org/1999/xlink" width="32" height="32" viewBox="0 0 32 32">
<path fill="#555" d="M6.834 25.166c0 1.266 1.026 2.292 2.291 2.292h13.749c1.266 0 2.291-1.026 2.291-2.292v-18.332c0-1.266-1.025-2.292-2.291-2.292h-13.749c-1.265 0-2.291 1.026-2.291 2.292v18.332z"></path>
<path fill="#f3c600" d="M14.281 4.542v4.495c0 0.151-0.093 0.288-0.235 0.346l-0.146 0.029c-0.1 0-0.197-0.039-0.271-0.11l-1.639-1.608-1.64 1.608c-0.073 0.071-0.171 0.11-0.269 0.11l-0.147-0.029c-0.143-0.058-0.236-0.195-0.236-0.346v-4.495h4.583z"></path>
</svg>
