<svg xmlns="http://www.w3.org/2000/svg" width="192" height="192" viewBox="0 0 192 192"><path fill="#555" d="M152.154 24.601c-3.316-9.463-13.045-15.998-23.089-15.344-30.47.025-91.619-.079-91.619-.079l-.134 48.189s99.265.167 99.571.076c14.11-4.185 20.209-19.797 15.272-32.842z"/><path fill="#d5d5d5" d="M81.666 42.495c9.767-1.049 12.446-16.938.097-18.49-.578-.073-44.619-.002-44.619-.002v18.471s44.041.073 44.522.022z"/><path fill="#d72f44" d="M166.537 57.502s-122.498-.345-129.47.049c-12.267.693-23.815 20.741-19.821 35.625 2.202 10.262 10.915 17.885 20.33 21.734 123.213.049 129.109-.049 129.109-.049z"/><path fill="#d5d5d5" d="M166.785 72.124s-34.198.073-51.309.121c-4.646.29-9.995-.315-13.892 2.807-7.478 5.397-7.527 18.079-.097 23.548 3.873 3.17 9.269 2.541 13.965 2.88 17.111.049 51.357.121 51.357.121l-.024-29.478z"/><path fill="#f3c600" d="M159.859 114.982c-133.886.218-155.041-.118-155.041-.118l-.043 67.884s99.226-.025 148.549.024c18.248 1.089 34.778-15.586 33.883-33.762.895-16.191-11.811-30.833-27.349-34.028z"/><path fill="#8941b1" d="M85.655 148.841c.436-9.439-7.498-16.628-16.893-19.071-2.351-.611-64.014-.387-64.014-.387l.025 38.596s62.008.331 63.893-.018c9.592-1.774 17.449-9.633 16.99-19.12z"/></svg>