<svg xmlns="http://www.w3.org/2000/svg" width="192" height="192" viewBox="0 0 192 192"><path fill="#735746" d="M146.15 86.98v-.091h-59.821v-50.903h-73.034v111.012h162.752c3.841-6.098 6.095-13.359 6.095-21.174 0-20.896-15.967-37.898-35.993-38.843z"/><path fill="#f3c600" d="M53.162 142.197c-.264-20.459-16.91-36.97-37.432-36.97-.822 0-1.625.07-2.434.123v36.847h16.973z"/><path fill="#555" d="M4.532 142.129v25.318h20.449v-6.817h9.739v6.817h17.527v-6.817h9.738v6.817h17.528v-6.817h9.738v6.817h17.528v-6.817h9.737v6.817h17.528v-6.817h9.738v6.817h17.528v-6.817h9.738v6.817h16.418v-25.318z"/><path fill="#8941b1" d="M96 44.75h-91.468v-20.197h91.468z"/></svg>