<svg xmlns="http://www.w3.org/2000/svg" width="192" height="192" viewBox="0 0 192 192"><path fill="#555" d="M101.234 75.418c32.86 32.859 32.73 47.799 23.435 57.093s-24.234 9.424-57.093-23.435c-32.86-32.86-71.196-86.265-61.902-95.559s62.7 29.042 95.559 61.902z"/><path fill="#e5415c" d="M111.975 119.817c11.733-11.737 33.312-9.189 45.049 2.548 4.654 4.654 7.198 9.814 9.102 15.396-8.323 8.174-24.666 33.379-57.103 19.753-6.683-11.992-6.626-28.119 2.952-37.697z"/><path fill="#735746" d="M159.523 137.315c-10.521.73-14.991 2.582-21.948 10.347-5.504 6.139-2.155 3.432-10.383 7.685-10.588 2.119-4.556 1.216-18.169 2.166 1.505 2.698 3.342 5.193 5.501 7.352 20.401 20.397 62.464 17.377 73.215 6.626-12.14-7.696-17.164-20.742-21.613-33.729v-.001h-.001c-2.747-.425-.563-.116-6.603-.447z"/></svg>