<svg xmlns="http://www.w3.org/2000/svg" width="192" height="192" viewBox="0 0 192 192"><path fill="#555" d="M169.54 51.745c-.007 66.828-.011 67.883 0 68.937.023.804-57.693 1.516-57.693 1.516l-.377 66.782-27.166-.377-.377-66.028c0 .001-61.466-1.893-61.466-1.893v-68.937c1.26.061 147.08 0 147.08 0z"/><path fill="#f3c600" d="M37.747 56.538c.562-1.976 2.224-4.311 6.776-4.492 4.059 0 7.354 3.295 7.354 7.354v14.708c0 4.06 3.295 7.354 7.354 7.354s7.354-3.294 7.354-7.354v-14.708c0-4.059 3.295-7.354 7.354-7.354s7.354 3.295 7.354 7.354 3.295 7.354 7.354 7.354 7.354-3.295 7.354-7.354v-.001c.315-4.679 3.154-6.505 7.352-7.354h66.188v-49.026h-147.08v61.283c0 4.059 3.295 7.354 7.354 7.354s7.354-3.295 7.354-7.354c0 0 .017-5.788.578-7.765z"/></svg>