<svg xmlns="http://www.w3.org/2000/svg" width="192" height="192" viewBox="0 0 192 192"><path fill="#555" d="M148.432 152.033l20.31 8.612-4.766 11.241-23.51-8.613 7.966-11.24zm-104.865 0l7.007 11.24-22.55 8.613-4.765-11.241 20.308-8.612zm111.885-38.572l22.078.157-.128 12.527-.134-.002-22.078-.476.263-12.207zm-118.902 0l.263 12.207-22.214.477-.128-12.527 22.08-.158zm132.904-45.742l4.766 11.24-20.311 8.613-4.766-11.241 20.311-8.612zm-146.906 0l20.31 8.612-4.766 11.241-20.311-8.613 4.767-11.24z"/><path fill="#8941b1" d="M158.915 108.017c0 43.937-28.353 79.555-63.328 79.555s-63.327-35.618-63.327-79.555c0-43.937 28.352-79.556 63.327-79.556s63.328 35.619 63.328 79.556z"/><path fill="#f3c600" d="M141.776 52.093c-11.554-15.653-27.967-25.445-46.189-25.445s-34.635 9.792-46.19 25.445c10.27 13.912 24.383 23.177 40.189 25.069h-.056v110.409h13.702v-110.409c17.513-1.892 28.274-11.157 38.544-25.069z"/><path fill="#d72f44" d="M132.647 4.436c6.176 0 11.182 4.972 11.182 11.106s-5.006 11.106-11.182 11.106l-12.296 17.837-7.768-4.849 11.015-17.648c-1.483-1.856-2.015-4.124-2.134-6.446 0-6.134 5.007-11.106 11.182-11.106zm-72.5 0c6.175 0 11.183 4.972 11.183 11.106-.035 2.026-.52 4.073-1.671 5.765l11.44 18.33-7.767 4.847c-12.415-17.818-11.778-17.907-13.185-17.836-6.175 0-11.182-4.972-11.182-11.106s5.007-11.106 11.182-11.106z"/></svg>