<svg xmlns="http://www.w3.org/2000/svg" width="192" height="192" viewBox="0 0 192 192"><path fill="#735746" d="M40.608 18.72c22.56-15.984 53.184-16.608 79.2-13.776 35.52 3.936 63.36 37.824 60.384 73.2-56.256 0-114 2.208-170.208 2.016-1.104-23.136 11.04-48.624 30.624-61.44z"/><path fill="#cc3a52" d="M8.352 96.576l171.168 1.824 4.128 33.6-168.288-3.84-7.008-31.584z"/><path fill="#57ac6e" d="M8.16 127.2l180.576 4.608v18.528s-183.264-.336-183.456-.096z"/><path fill="#f3c600" d="M185.76 78.24l-2.88 20.16-41.28 1.92-6.24 33.12-2.4-33.6-126.72-2.88 1.44-17.28z"/><path fill="#735746" d="M10.896 150.24c56.736-.144 113.52-.144 170.208 0-4.416 17.04-17.088 32.304-35.904 34.896-32.4 4.464-65.376 4.128-98.592 0-18.72-2.4-31.44-17.76-35.616-34.848z"/></svg>