<svg xmlns="http://www.w3.org/2000/svg" width="192" height="192" viewBox="0 0 192 192"><path fill="#42a6dd" d="M4.536 26.063c38.584-3.069 72.857 26.656 81.482 63.221.195 9.519.154 28.676.154 28.676l-37.185 1.632s-41.653-15.581-43.83-36.914c-1.554-18.846-.233-37.77-.622-56.615z"/><path fill="#f5b401" d="M105.817 93.897c4.352-39.477 41.497-71.923 81.521-68.892-.739 20.943 2.019 42.198-1.789 62.949-5.245 18.377-42.587 30.619-42.587 30.619s-24.867-.971-37.263-1.477c0-7.771 0-15.503.118-23.198z"/><path fill="#d63f31" d="M48.988 119.593c12.396-.584 37.185-1.632 37.185-1.632l-.233 37.147s-15.658 26.733-30.812 26.305c-15.971.428-30.581-13.251-31.125-29.182-1.632-15.425 10.531-29.066 24.984-32.639z"/><path fill="#8941b1" d="M105.699 116.978c12.396.506 24.83.971 37.263 1.478 14.456 3.614 26.657 17.33 24.946 32.795-.661 15.931-15.349 29.531-31.279 29.025-15.114.35-30.657-26.423-30.657-26.423s-.273-24.595-.273-36.874z"/><path fill="#444" d="M120.457 13.721l-15.208 27.446c6.695 2.723 9.159 9.952 9.818 16.482-.395 5.98-2.944 13.588-9.054 16.161v88.292c0 5.597-4.537 10.135-10.134 10.135s-10.135-4.537-10.135-10.135v-88.292c-6.245-2.852-8.433-10.003-9.053-16.161.395-5.953 2.926-13.584 9.02-16.147l-15.277-27.572 5.674-3.143 15.617 28.185 7.426-.181 15.633-28.213 5.674 3.143z"/></svg>