<svg xmlns="http://www.w3.org/2000/svg" width="192" height="192" viewBox="0 0 192 192"><path fill="#d5d5d5" d="M9.28 9.28h173.44v173.44h-173.44v-173.44z"/><path fill="#555" d="M130.276 33.499v14.964h-14.964v14.964h14.964v14.965h14.964v-14.965h14.964v-14.964h-14.964v-14.964h-14.964z"/><path fill="#d72f44" d="M35.453 63.427h44.893v-14.964h-44.893z"/><path fill="#5e75ff" d="M50.417 112.061c0-4.134 3.352-7.482 7.482-7.482 4.134 0 7.482 3.349 7.482 7.482s-3.349 7.482-7.482 7.482c-4.13 0-7.482-3.349-7.482-7.482zm0 44.892c0-4.134 3.352-7.482 7.482-7.482 4.134 0 7.482 3.348 7.482 7.482s-3.349 7.482-7.482 7.482c-4.13 0-7.482-3.348-7.482-7.482zm-14.964-14.964h44.893v-14.964h-44.893z"/><path fill="#57ac6e" d="M152.722 112.704l-14.961 14.961-14.968-14.961-10.58 10.58 14.965 14.964-14.965 14.964 10.58 10.58 14.968-14.964 14.961 14.964 10.583-10.58-14.964-14.964 14.964-14.964-10.583-10.58z"/></svg>