<?xml version="1.0" encoding="utf-8"?>
<!-- Generated by IcoMoon.io -->
<!DOCTYPE svg PUBLIC "-//W3C//DTD SVG 1.1//EN" "http://www.w3.org/Graphics/SVG/1.1/DTD/svg11.dtd">
<svg version="1.1" xmlns="http://www.w3.org/2000/svg" xmlns:xlink="http://www.w3.org/1999/xlink" width="32" height="32" viewBox="0 0 32 32">
<path fill="#f3c600" d="M22.875 5.283c-0.633 0-1.146 0.513-1.146 1.145v2.292h-2.291c-0.633 0-1.146 0.513-1.146 1.145s0.513 1.146 1.146 1.146h2.291v2.291c0 0.633 0.513 1.146 1.146 1.146s1.146-0.513 1.146-1.146v-2.291h2.291c0.633 0 1.146-0.513 1.146-1.146s-0.513-1.145-1.146-1.145h-2.291v-2.292c0-0.633-0.513-1.145-1.146-1.145z"></path>
<path fill="#555" d="M4.542 9.866c0 0.633 0.513 1.146 1.146 1.146h6.875c0.633 0 1.146-0.513 1.146-1.146s-0.513-1.145-1.146-1.145h-6.875c-0.633 0-1.146 0.513-1.146 1.145z"></path>
<path fill="#5e75ff" d="M7.979 18.459c0-0.633 0.513-1.145 1.146-1.145s1.146 0.513 1.146 1.145c0 0.633-0.513 1.146-1.146 1.146s-1.146-0.513-1.146-1.146zM7.979 25.334c0-0.633 0.513-1.145 1.146-1.145s1.146 0.513 1.146 1.145c0 0.633-0.513 1.146-1.146 1.146s-1.146-0.513-1.146-1.146zM4.542 21.897c0 0.633 0.513 1.146 1.146 1.146h6.875c0.633 0 1.146-0.513 1.146-1.146s-0.513-1.145-1.146-1.145h-6.875c-0.633 0-1.146 0.513-1.146 1.145z"></path>
<path fill="#57ac6e" d="M25.545 18.306l-0.379 0.252-2.291 2.291-2.292-2.291c-0.447-0.447-1.173-0.447-1.621 0s-0.447 1.173 0 1.62l2.292 2.292-2.292 2.291c-0.447 0.447-0.447 1.173 0 1.62s1.173 0.447 1.621 0l2.292-2.291 2.291 2.291c0.447 0.447 1.173 0.447 1.621 0s0.447-1.173 0-1.62l-2.291-2.291 2.291-2.292c0.447-0.447 0.447-1.173 0-1.62-0.618-0.411-0.227-0.252-1.241-0.252z"></path>
</svg>
