<svg xmlns="http://www.w3.org/2000/svg" width="192" height="192" viewBox="0 0 192 192"><path fill="#5e75ff" d="M22.749 161.558s12.36 20.732 29.098 24.622c59.542 13.833 156.904-142.214 100.373-171.912-21.475-9.271-23.668-9.52-25.396-9.256-18.504 20.966-25.929 47.153-21.257 49.107 10.925 5.423 33.705 7.705 12.385 46.436-3.017 5.482-22.551 41.93-37.36 39.511 0 0-6.551-25.68-38.342-5.177-15.878 13.998-19.5 22.446-19.5 26.669z"/><path fill="#d72f44" d="M162.504 140.314c.198.152-120.966-89.864-120.966-89.864l-10.748 13.996 120.963 89.867s10.553-14.151 10.751-13.998z"/></svg>