<svg xmlns="http://www.w3.org/2000/svg" width="192" height="192" viewBox="0 0 192 192"><path fill="#555" d="M102.88 96h13.475v-26.95l71.579.073-.275 89.84-71.303-.082v-26.949h-13.475v44.915s-90.539-.176-89.831 0c.707.176.314-107.798.314-107.798z"/><path fill="#d72f44" d="M44.49 143.161c0 6.203-5.026 11.229-11.229 11.229s-11.229-5.026-11.229-11.229c0-6.202 5.026-11.229 11.229-11.229s11.229 5.026 11.229 11.229z"/><path fill="#8941b1" d="M57.965 15.151c-29.766 0-53.899 24.133-53.899 53.899s24.133 53.899 53.899 53.899c29.766 0 53.899-24.133 53.899-53.899s-24.133-53.899-53.899-53.899z"/></svg>