<svg xmlns="http://www.w3.org/2000/svg" width="192" height="192" viewBox="0 0 192 192"><path fill="#57ac6e" d="M165.755 19.907c.001 0 .826 52.382.826 52.382l-.001.001 17.505 16.675.025 53.851h-176.29c.18-53.851.095-53.851.095-53.851s11.691-11.145 17.462-16.647l-.001.001.795-52.411h139.584zm-10.882 11.031l-117.73.028-.001 41.294 117.615-.03.116-41.291z"/><path fill="#d72f44" d="M172.52 99.311c-11.763-.027-23.558-.027-35.382.025.03 8.692.03 17.384 0 26.076l35.264-.001c.03-8.692.118-17.384.118-26.1zm-117.643 0c-11.793-.027-23.589.078-35.382.105.03 8.665.03 17.33 0 25.995h35.352c.058-8.716.058-17.408.03-26.1z"/><path fill="#f3c600" d="M189.991 141.455c-183.613 0-186.526.034-187.967.034.03 4.271.03 8.577-.028 12.879 180.23.098 184.113.067 187.965.034.03-4.336.061-8.641.03-12.946z"/><path fill="#565860" d="M178.314 153.133c-13.705.095-27.44.062-41.175.033.118 6.274.206 12.577.294 18.851 13.589.095 27.176.095 40.735.033.088-6.306.146-12.61.146-18.916zm-123.437.032c-13.678.03-27.413.062-41.146-.033.058 6.306.058 12.61.028 18.946 13.647 0 27.264.032 40.881 0 .118-6.304.206-12.61.237-18.913z"/></svg>