<svg xmlns="http://www.w3.org/2000/svg" width="192" height="192" viewBox="0 0 192 192"><path fill="#d72f44" d="M154.261 40.24l-78.068.042-41.203 39.91-30.417 4.94.005 42.063 182.847.01-.037-44.451-16.16-.306-16.969-42.207z"/><path fill="#f3c600" d="M60.604 55.198s85.666-.575 85.787.042c.122.616 9.302 24.834 9.302 24.834l-120.703.117 25.613-24.994z"/><path fill="#555" d="M167.98 107.774c-8.56-6.858-21.75-6.794-30.247.111-5.043 3.787-7.955 9.706-9.228 15.783-2.323 14.479 10.342 28.958 25.091 28.051 14.304.08 25.998-14.113 23.755-28.13-1.305-6.11-4.264-12.045-9.371-15.815zm-102.894 15.868c-1.725-11.43-12.285-20.754-23.989-20.158-11.277-.015-21.089 9.095-22.859 20.082-2.152 13.475 9.141 27.133 22.89 26.995 14.116.779 26.171-13.063 23.959-26.919z"/><path fill="#57ac6e" d="M157.3 116.639c-7.262-3.659-16.607 3.181-15.227 11.216.563 8.106 11.245 12.553 17.422 7.304 6.459-4.532 5.137-15.621-2.195-18.52zm-111.369.113c-7.22-3.87-16.747 2.843-15.494 10.963.464 7.81 10.428 12.497 16.761 7.951 7.009-4.138 6.234-15.762-1.267-18.914z"/></svg>