<svg xmlns="http://www.w3.org/2000/svg" width="192" height="192" viewBox="0 0 192 192"><path fill="#f3c600" d="M30.482 164.735c1.063 4.961 5.948 8.114 10.905 7.051l75.859-16.283c4.958-1.063 8.114-5.948 7.051-10.906l-25.717-119.791c-1.063-4.962-5.948-8.114-10.905-7.051l-75.859 16.283c-4.958 1.063-8.114 5.944-7.051 10.906z"/><path fill="#d72f44" d="M48.814 73.298c4.994-1.246 10.076.584 11.621 2.386.665-2.276 4.549-6.028 9.612-6.945 13.193-2.386 21.007 10.408 17.767 22.509-2.63 9.835-9.546 19.484-15.418 25.318-1.139 1.132-2.005 1.724-2.762 1.969-.796.084-1.826-.098-3.328-.661-7.749-2.908-18.019-8.867-24.456-16.758-7.917-9.707-6.046-24.58 6.963-27.817z"/><path fill="#555" d="M72.375 150.881c-.844 5.002 2.531 9.736 7.53 10.577l76.517 12.863c4.998.844 9.736-2.528 10.576-7.533l20.313-120.822c.844-5.002-2.532-9.736-7.53-10.577l-76.517-12.867c-4.998-.84-9.736 2.532-10.577 7.534z"/><path fill="#d72f44" d="M108.924 85.555c5.886-7.913 15.56-14.12 22.929-17.27 1.429-.614 2.419-.837 3.19-.785.742.205 1.607.738 2.758 1.783 5.933 5.385 13.046 14.42 16.021 23.82 3.653 11.567-3.346 24.284-16.211 22.545-1.943-.259-3.73-.957-5.224-1.834-.807 4.106-1.096 9.572 1.118 14.675.789 2.068.712 2.47-.727 2.225l-8.133-1.366-.201-.033c-2.44-.413-5.25-.884-8.329-1.403-1.439-.241-1.381-.643.04-2.338 3.719-4.055 5.239-9.239 5.838-13.36-1.597.27-3.357.307-5.126-.055-12.725-2.561-15.18-16.868-7.943-26.605z"/></svg>