<svg xmlns="http://www.w3.org/2000/svg" width="192" height="192" viewBox="0 0 192 192"><path fill="#735746" d="M171.065 123.83l-19.525-56.859-111.181.509-19.425 56.351h150.131z"/><path fill="#555" d="M146.563 67.768h-101.126v-34.336h101.126zm40.95 90.8h-183.025v-34.897h183.025z"/><path fill="#57ac6e" d="M138.462 61.439h-84.925v-21.678h84.925z"/><path fill="#d72f44" d="M67.671 101.783v11.798h-21.365v-11.798h21.365z"/><path fill="#f3c600" d="M123.294 101.783v11.798h-21.365v-11.798h21.365zm-27.812 0v11.798h-21.365v-11.798h21.365z"/><path fill="#5e75ff" d="M145.694 82.501v31.56h-14.464v-31.56h14.464z"/><path fill="#f3c600" d="M95.482 82.554v11.798h-21.365v-11.798h21.365zm27.812 0v11.798h-21.365v-11.798h21.365zm-55.623 0v11.798h-21.365v-11.798h21.365z"/></svg>