<svg xmlns="http://www.w3.org/2000/svg" width="192" height="192" viewBox="0 0 192 192"><path fill="#f3c600" d="M158.214 10.648l-.039 19.295-15.522-.233-.039-19.061h15.6zm-108.928 0v19.061l-15.522.233-.039-19.256 15.561-.039zm54.464 0v18.983h-15.561v-18.945l15.561-.039zm-27.193 0v18.945l-15.6.039v-18.983h15.6zm54.464 0l-.039 18.983-15.6-.039.039-18.906 15.6-.039z"/><path fill="#d72f44" d="M33.764 29.689h124.411l.039 34.955-124.489.039.039-34.994z"/><path fill="#5e75ff" d="M52.76 64.683h86.558l23.614 116.514-133.864-.039 23.692-116.475z"/><path fill="#8941b1" d="M6.532 99.618h15.483l.039 19.412 19.802.117-12.547 62.011-22.817.194.039-81.734z"/><path fill="#57ac6e" d="M169.924 99.618h15.483s.155 54.464.078 81.734c-7.547-.078-15.309-.117-22.817-.155-3.929-20.735-12.547-62.05-12.547-62.05l19.725-.117.078-19.412z"/><path fill="#555" d="M78.208 131.63h35.583v49.309h-35.583v-49.309z"/></svg>