<svg xmlns="http://www.w3.org/2000/svg" width="192" height="192" viewBox="0 0 192 192"><path fill="#d63f31" d="M38.723 5.164h115.644v57.193h-115.644z"/><path fill="#555" d="M154.367 92.698h-16.099l.111-30.394h15.987v30.394zm-99.661-30.658l.107 29.963h-16.09v-29.963h15.983z"/><path fill="#f3c600" d="M18.56 103.2l27.198-18.221h100.927l26.755 18.221h-154.88z"/><path fill="#555" d="M163.048 80.055v23.171l-133.034-.009-.051-22.118-12.503.022-.152 33.745 39.023-.056 24.847 21.15-42.467 35.65 12.931 15.225 44.65-38.004 44.65 38.004 12.944-15.212-42.489-35.663 24.855-21.15 39.148-.038.23-34.611-12.583-.106z"/></svg>