<svg xmlns="http://www.w3.org/2000/svg" width="192" height="192" viewBox="0 0 192 192"><path fill="#56545c" d="M119.026 3.04v6.991l40.36-.167v164.489c0 8.359-28.234 15.135-63.062 15.135s-63.062-6.776-63.062-15.135l.081-164.216 40.279-.106v-6.991h45.405z"/><path fill="#d72f44" d="M33.262 146.714h126.125v27.747c0 8.359-28.234 15.135-63.062 15.135s-63.062-6.776-63.062-15.135v-27.747z"/><path fill="#c0273a" d="M96.324 137.025c34.828 0 63.062 4.518 63.062 10.09s-28.234 10.09-63.062 10.09c-34.828 0-63.062-4.518-63.062-10.09s28.234-10.09 63.062-10.09z"/></svg>