<svg xmlns="http://www.w3.org/2000/svg" width="192" height="192" viewBox="0 0 192 192"><path fill="#555" d="M110.991 144.153l40.803-57.763 30.891 20.594 6.603-9.904-35.713-23.808-8.162 1.52-38.621 54.675s-43.308-78.072-42.55-78.388c.759-.316-9.947-.79-9.947-.79l-51.585 66.961 9.432 7.261 46.001-59.715 42.755 78.765z"/><path fill="#d72f44" d="M76.37 54.686c0 9.587-7.769 17.36-17.36 17.36-9.586 0-17.36-7.773-17.36-17.36s7.774-17.36 17.36-17.36c9.591 0 17.36 7.773 17.36 17.36z"/><path fill="#5e75ff" d="M123.577 137.314c0 9.587-7.769 17.36-17.36 17.36-9.587 0-17.36-7.773-17.36-17.36s7.774-17.36 17.36-17.36c9.591 0 17.36 7.773 17.36 17.36z"/><path fill="#57ac6e" d="M167.549 78.346c0 9.587-7.77 17.36-17.36 17.36-9.587 0-17.36-7.774-17.36-17.36s7.773-17.36 17.36-17.36c9.59 0 17.36 7.773 17.36 17.36z"/></svg>