<?xml version="1.0" encoding="utf-8"?>
<!-- Generated by IcoMoon.io -->
<!DOCTYPE svg PUBLIC "-//W3C//DTD SVG 1.1//EN" "http://www.w3.org/Graphics/SVG/1.1/DTD/svg11.dtd">
<svg version="1.1" xmlns="http://www.w3.org/2000/svg" xmlns:xlink="http://www.w3.org/1999/xlink" width="32" height="32" viewBox="0 0 32 32">
<path fill="#56545c" d="M23.947 7.259v19.39c0 1.053-3.558 1.907-7.947 1.907s-7.947-0.853-7.947-1.907v-19.39h15.893z"></path>
<path fill="#3b9f5d" d="M23.947 17.431v9.218c0 1.053-3.558 1.907-7.947 1.907s-7.947-0.853-7.947-1.907v-9.218h15.893z"></path>
<path fill="#aa7e5f" d="M16 15.841c4.389 0 7.947 0.569 7.947 1.271s-3.558 1.271-7.947 1.271-7.947-0.569-7.947-1.271 3.558-1.271 7.947-1.271z"></path>
<path fill="#56545c" d="M16 5.851c4.389 0 7.947 0.6 7.947 1.339s-3.558 1.339-7.947 1.339-7.947-0.599-7.947-1.339c0-0.739 3.558-1.339 7.947-1.339z"></path>
<path fill="#56545c" d="M17.589 3.445c0.702 0 1.271 0.569 1.271 1.271v2.861c0 0.351-1.281 0.636-2.861 0.636s-2.861-0.285-2.861-0.636v-2.861c0-0.702 0.569-1.271 1.271-1.271h3.179z"></path>
</svg>
