<svg xmlns="http://www.w3.org/2000/svg" width="192" height="192" viewBox="0 0 192 192"><path fill="#d5d5d5" d="M161.576 23.504l.127 161.503h-148.304l-.113-161.503h148.289z"/><path fill="#3b9f5d" d="M143.285 4.67c19.975 0 36.169 16.194 36.169 36.169s-16.193 36.169-36.169 36.169c-19.976 0-36.169-16.194-36.169-36.169s16.193-36.169 36.169-36.169z"/><path fill="#d5d5d5" d="M138.243 57.116c-1.835-1.864-3.67-3.725-5.507-5.587l.055-.055c-3.846-3.974-7.686-7.953-11.533-11.927l5.423-5.505c3.93 3.913 7.859 7.826 11.789 11.738l21.418-21.466 5.423 5.503c-7.036 7.225-14.069 14.45-21.105 21.678l.038.035-5.754 5.836-.247-.249z"/></svg>