<svg xmlns="http://www.w3.org/2000/svg" width="192" height="192" viewBox="0 0 192 192"><path fill="#f5b401" d="M187.13 71.915l-30.474-45.902-150.595 46.1 181.069-.198z"/><path fill="#f3c600" d="M186.97 71.728l-180.928.022-.278 22.1s17.597 5.186 17.597 21.509c0 15.68-17.795 21.247-17.795 21.247l-.112 28.834 181.607.025-.09-93.737z"/><path fill="#f5b401" d="M139.231 145.36c10.869 0 19.681-8.812 19.681-19.685 0-10.87-8.812-19.681-19.681-19.681-10.874 0-19.685 8.811-19.685 19.681 0 10.873 8.812 19.685 19.685 19.685zm-63.012-19.859c6.248 0 11.316-5.068 11.316-11.317 0-6.253-5.068-11.32-11.316-11.32-6.253 0-11.32 5.068-11.32 11.32 0 6.249 5.068 11.317 11.32 11.317z"/></svg>