<svg xmlns="http://www.w3.org/2000/svg" width="192" height="192" viewBox="0 0 192 192"><path fill="#555" d="M87.933 5.199c3.317.18 5.014 3.227 5.246 6.259l-6.584 15.002c20.106-3.418 25.394 6.564 25.394 6.563 7.731 17.158 26.334 26.254 26.334 26.254s7.388 2.282 7.525 9.377c.172 8.939-8.465 8.439-8.465 8.439h-34.799c-10.493 0-1.881 8.439-1.881 8.439 10.346 13.754 20.693 27.507 31.04 41.26 6.57 0 10.346 3.777 10.346 8.435-.078 4.263-3.377 8.181-7.775 8.402 6.093 4.364 16.58 10.258 17.176 18.79-.067 2.191-.063 5.846-1.79 7.503 4.747.09 8.14 3.827 8.373 8.437 0 4.661-3.779 8.44-8.44 8.44h-107.269c-4.661 0-8.44-3.779-8.44-8.44.07-3.981 2.794-7.421 6.717-8.221-1.955-1.965-1.981-5.127-2.014-7.719.83-8.366 10.826-14.588 17.123-18.757-5.822 0-9.599-3.777-9.599-8.435.078-4.594 3.64-8.193 8.202-8.423-8.665-12.544-14.78-26.899-15.726-42.21 0-54.148 38.104-75.762 46.085-78.764 1.029-.446 2.116-.558 3.219-.633z"/></svg>