<svg xmlns="http://www.w3.org/2000/svg" width="192" height="192" viewBox="0 0 192 192"><path fill="#f3c600" d="M96 185.975c-49.691 0-89.975-40.283-89.975-89.975s40.283-89.975 89.975-89.975 89.975 40.283 89.975 89.975-40.283 89.975-89.975 89.975z"/><path fill="#d72f44" d="M95.999 99.874l26.792 40.368h.052l-.033.029.001.002h-.002l-27.32 24.203-26.581-24.358.382.001c8.903-13.415 17.807-26.829 26.709-40.245z"/><path fill="#404040" d="M68.114 98.065c0 4.492-3.561 8.134-7.954 8.134s-7.955-3.641-7.955-8.134c0-4.491 3.562-8.134 7.955-8.134s7.954 3.643 7.954 8.134zm72.675 0c0 4.492-3.561 8.134-7.954 8.134s-7.955-3.641-7.955-8.134c0-4.491 3.562-8.134 7.955-8.134s7.954 3.643 7.954 8.134z"/></svg>