<svg xmlns="http://www.w3.org/2000/svg" width="192" height="192" viewBox="0 0 192 192"><path fill="#f3c600" d="M45.395 153.962l.169-36.421-41.799-13.658.152 65.76 41.479-15.681z"/><path fill="#555" d="M45.563 97.813v73.347l121.234-.169v-39.793l21.287 4.405v-22.819l-21.776 3.744.151-18.716h-120.897zm61.734-39.562c0 20.662 16.749 37.411 37.411 37.411s37.412-16.749 37.412-37.411c0-20.662-16.749-37.411-37.412-37.411s-37.411 16.749-37.411 37.411zm-61.375 7.483c0 16.528 13.401 29.929 29.929 29.929s29.929-13.401 29.929-29.929-13.401-29.929-29.929-29.929-29.929 13.401-29.929 29.929z"/></svg>