<svg xmlns="http://www.w3.org/2000/svg" width="192" height="192" viewBox="0 0 192 192"><path fill="#555" d="M19.678 94.809v-8.95l10.734 1.28v-4.793h4.75v-15.85h6.069v15.85h9.502v-15.85h6.069v15.85h4.75v15.658l-10.295.001-2.24 7.829h-6.069l-2.88-7.829-9.655-.001v-4.795l-10.734 1.6z"/><path fill="#735746" d="M29.826 6.016l-20.48 60.961h74.977v95.617h-77.852v23.487h179.059v-180.161z"/><path fill="#f3c600" d="M159.61 48.196h-46.712v-6.07h46.712v6.07zm0 15.658h-46.712v-6.07h46.712v6.07zm0 15.657h-46.712v-6.07h46.712v6.07z"/><path fill="#bfbfbf" d="M45.911 161.794c17.546 0 31.769-14.222 31.769-31.769h-63.537c0 17.546 14.223 31.769 31.768 31.769z"/></svg>