<svg xmlns="http://www.w3.org/2000/svg" width="192" height="192" viewBox="0 0 192 192"><path fill="#d72f44" d="M80.543 13.55c43.076 0 77.995 14.964 77.995 33.424l-.18 8.373c9.489.11 18.372 2.99 25.082 9.863 6.495 7.55 7.73 18.486 3.667 32.505-4.604 15.883-14.533 26.595-27.246 29.387-4.626 1.016-9.331.875-13.614-.268-3.724-1.271-2.344-.541-4.349-1.737-5.048 11.301-13.28 20.619-22.37 28.776 2.168 1.654 3.043 4.151 3.355 6.75 0 9.846-18.957 17.827-42.342 17.827-23.38 0-42.337-7.981-42.337-17.827-.031-2.744 1.509-4.907 3.355-6.75-29.48-25.315-38.423-67.626-39.009-104.669v-2.23c0-18.46 34.919-33.424 77.991-33.424zm76.976 53.041c-1.719 16.287-4.322 33.218-11.063 48.304 3.289 2.001 7.291 1.843 10.945 1.267 5.035-1.108 14.185-5.383 18.882-21.578 2.938-10.154 2.48-17.581-1.367-22.079-4.56-4.815-11.108-5.734-17.396-5.914z"/><path fill="#735746" d="M81.287 20.668c37.997 0 68.801 10.976 68.801 24.511 0 13.539-30.803 24.515-68.801 24.515s-68.8-10.976-68.8-24.515c0-13.535 30.803-24.511 68.8-24.511z"/><path fill="#f3c600" d="M46.007 50.753c-10.461 0-18.944-2.493-18.944-5.571s8.483-5.571 18.944-5.571c10.457 0 18.939 2.493 18.939 5.571s-8.483 5.571-18.939 5.571z"/></svg>