<svg xmlns="http://www.w3.org/2000/svg" width="192" height="192" viewBox="0 0 192 192"><path fill="#5e75ff" d="M176.784 45.312l-.384 12.816h9.84v9.12h-11.232c-5.088 25.44-22.56 46.08-45.6 57.12-.384 0 15.456 22.56 15.456 22.56h-96.48l15.84-22.08c-22.944-9.456-41.904-31.344-47.232-57.648h-11.232v-9.12h9.84l-.384-12.768h161.568z"/><path fill="#d5d5d5" d="M52.56 94.56c-2.784 0-5.04-2.256-5.04-5.04s2.256-5.04 5.04-5.04 5.04 2.256 5.04 5.04-2.256 5.04-5.04 5.04zm29.28 0c-2.784 0-5.04-2.256-5.04-5.04s2.256-5.04 5.04-5.04 5.04 2.256 5.04 5.04-2.256 5.04-5.04 5.04zm28.32 0c-2.784 0-5.04-2.256-5.04-5.04s2.256-5.04 5.04-5.04 5.04 2.256 5.04 5.04-2.256 5.04-5.04 5.04zm29.76 0c-2.784 0-5.04-2.256-5.04-5.04s2.256-5.04 5.04-5.04 5.04 2.256 5.04 5.04-2.256 5.04-5.04 5.04zm-72.96 17.28c-2.784 0-5.04-2.256-5.04-5.04s2.256-5.04 5.04-5.04 5.04 2.256 5.04 5.04-2.256 5.04-5.04 5.04zm29.04 0c-2.784 0-5.04-2.256-5.04-5.04s2.256-5.04 5.04-5.04 5.04 2.256 5.04 5.04-2.256 5.04-5.04 5.04zm29.04 0c-2.784 0-5.04-2.256-5.04-5.04s2.256-5.04 5.04-5.04 5.04 2.256 5.04 5.04-2.256 5.04-5.04 5.04z"/></svg>