<?xml version="1.0" encoding="utf-8"?>
<!-- Generated by IcoMoon.io -->
<!DOCTYPE svg PUBLIC "-//W3C//DTD SVG 1.1//EN" "http://www.w3.org/Graphics/SVG/1.1/DTD/svg11.dtd">
<svg version="1.1" xmlns="http://www.w3.org/2000/svg" xmlns:xlink="http://www.w3.org/1999/xlink" width="32" height="32" viewBox="0 0 32 32">
<path fill="#5e75ff" d="M23.657 18.12c0.147-0.529 0.629-0.897 1.179-0.897h3.152c0.367 0 0.715 0.165 0.947 0.45s0.325 0.658 0.251 1.018c-0.557 2.734-1.928 5.193-3.965 7.111-0.229 0.215-0.529 0.333-0.839 0.333l-0.178-0.013c-0.37-0.055-0.695-0.275-0.881-0.599l-1.591-2.754c-0.265-0.46-0.203-1.039 0.153-1.433 0.829-0.915 1.442-2.028 1.771-3.216z"></path>
<path fill="#57ac6e" d="M13.001 24.354c0.221-0.384 0.629-0.612 1.060-0.612 0.086 0 0.173 0.009 0.261 0.029 0.554 0.121 1.119 0.182 1.679 0.182 0.783 0 1.557-0.115 2.3-0.341 0.118-0.036 0.238-0.053 0.357-0.053 0.428 0 0.837 0.226 1.059 0.612l1.562 2.705c0.179 0.313 0.213 0.689 0.091 1.028s-0.389 0.607-0.727 0.731c-1.479 0.547-3.041 0.824-4.641 0.824-1.323 0-2.63-0.192-3.882-0.569-0.358-0.108-0.647-0.374-0.784-0.721s-0.109-0.738 0.077-1.062l1.589-2.752z"></path>
<path fill="#555" d="M8.344 13.877c-0.145 0.531-0.629 0.9-1.18 0.9h-3.151c-0.367 0-0.715-0.165-0.947-0.449s-0.325-0.657-0.253-1.017c0.603-2.98 2.224-5.695 4.566-7.645 0.222-0.185 0.499-0.283 0.783-0.283l0.215 0.019c0.355 0.063 0.665 0.281 0.845 0.593l1.564 2.709c0.284 0.493 0.192 1.116-0.224 1.505-1.066 0.997-1.833 2.265-2.218 3.669z"></path>
<path fill="#d72f44" d="M12.119 3.111c1.252-0.377 2.559-0.569 3.882-0.569 1.601 0 3.162 0.277 4.641 0.824 0.339 0.125 0.605 0.393 0.727 0.731s0.089 0.715-0.091 1.028l-1.562 2.705c-0.223 0.386-0.631 0.612-1.059 0.612-0.119 0-0.239-0.017-0.357-0.053-0.743-0.225-1.517-0.341-2.3-0.341-0.559 0-1.125 0.061-1.679 0.182-0.087 0.019-0.175 0.029-0.261 0.029-0.431 0-0.838-0.228-1.060-0.612l-1.589-2.752c-0.187-0.324-0.215-0.715-0.077-1.062s0.426-0.613 0.784-0.721z"></path>
<path fill="#f3c600" d="M4.013 17.223h3.151c0.551 0 1.035 0.369 1.18 0.9 0.385 1.403 1.152 2.671 2.218 3.669 0.416 0.389 0.508 1.013 0.224 1.505l-1.564 2.709c-0.18 0.312-0.489 0.529-0.845 0.593l-0.215 0.019c-0.284 0-0.561-0.099-0.783-0.283-2.342-1.95-3.963-4.665-4.566-7.645-0.072-0.36 0.021-0.733 0.253-1.017s0.58-0.449 0.947-0.449z"></path>
<path fill="#555" d="M23.323 6.477c0.187-0.325 0.511-0.545 0.881-0.599l0.178-0.013c0.31 0 0.61 0.117 0.839 0.333 2.037 1.919 3.408 4.377 3.965 7.111 0.073 0.36-0.019 0.734-0.251 1.018s-0.58 0.45-0.947 0.45h-3.152c-0.549 0-1.032-0.367-1.179-0.897-0.329-1.188-0.942-2.301-1.771-3.216-0.357-0.394-0.419-0.973-0.153-1.433l1.591-2.754z"></path>
</svg>
