<svg xmlns="http://www.w3.org/2000/svg" width="192" height="192" viewBox="0 0 192 192"><path fill="#57ac6e" d="M112.271 4.958v22.928h26.399v159.157c.001 0-85.335-.001-85.34 0v-159.157c8.799.001 17.599.001 26.398.001v-22.929h32.543z"/><path fill="#f3c600" d="M96 137.392c-14.638 0-26.506-11.867-26.506-26.506s11.867-26.506 26.506-26.506 26.506 11.867 26.506 26.506-11.867 26.506-26.506 26.506z"/><path fill="#d72f44" d="M86.126 19.516c-1.498 0-2.711-1.598-2.711-3.568s1.214-3.568 2.711-3.568c1.498 0 2.712 1.597 2.712 3.568s-1.214 3.568-2.712 3.568z"/></svg>