<svg xmlns="http://www.w3.org/2000/svg" width="192" height="192" viewBox="0 0 192 192"><path fill="#555" d="M4.104 96c0 50.75 41.144 91.894 91.898 91.894s91.894-41.144 91.894-91.894-41.139-91.894-91.894-91.894-91.898 41.144-91.898 91.894z"/><path fill="#f3c600" d="M47.264 56.111l24.06 38.551c-.04.549 25.762 26.342 26.307 26.307l38.551 24.059c1.005.63 2.144.943 3.287.943 1.604 0 3.194-.621 4.396-1.814 2.055-2.05 2.412-5.231.871-7.674l-24.056-38.551c.036-.563-25.757-26.356-26.307-26.315l-38.551-24.06c-2.408-1.528-5.629-1.17-7.675.875-2.059 2.046-2.425 5.222-.885 7.679z"/><path fill="#e5415c" d="M96 119.913c-13.207 0-23.913-10.706-23.913-23.913s10.706-23.913 23.913-23.913c13.206 0 23.913 10.706 23.913 23.913s-10.706 23.913-23.913 23.913z"/></svg>