<svg xmlns="http://www.w3.org/2000/svg" width="192" height="192" viewBox="0 0 192 192"><path fill="#555" d="M149.031 158.418c-2.539-11.61-4.629-15.464-4.629-15.464l5.301-4.174c5.181 15.699 6.393 18.017 6.466 19.398 0 0 9.061.235 9.031.241v6.3h-72.468v-6.3l8.726-.738c2.125-14.893 7.461-18.901 7.461-18.901l3.527 4.295c-4.142 12.692-4.29 14.245-4.363 15.343h40.948z"/><path fill="#d72f44" d="M131.296 145.924c22.777-1.285 40.842-20.009 40.842-42.921 0-23.744-19.406-42.994-43.345-42.994-20.168 0-37.114 13.659-41.958 32.156l-59.395-7.029s63.606 63.798 103.888 60.862l-.033-.073z"/><path fill="#f3c600" d="M131.114 60.071c22.025 1.155 39.687 18.615 40.948 40.435l-61.527 10.794 20.579-51.229z"/><path fill="#57ac6e" d="M182.951 27.287c2.705.416 4.342 1.491 5.396 3.952.914 9.838-16.404 11.909-22.777 13.126-19.24 4.219-3.731 4.023 10.89 8.049 4.731 1.299 13.224 3.601 12.52 10.143-4.018 9.021-20.415 2.395-26.349.447-10.794-3.537-21.262-8.632-31.433-13.657l.044 11.082-5.675-.376-.031-10.632c-13.279 6.974-27.469 14.386-42.058 18.242-4.842 1.281-13.333 3.194-15.91-2.813-.914-9.838 16.405-11.913 22.778-13.126 19.475-4.209 3.846-3.993-10.89-8.05-4.731-1.303-13.224-3.602-12.52-10.143 4.015-9.021 20.413-2.395 26.349-.45 10.917 3.58 22.193 7.443 32.48 12.525l5.354-.132c16.126-7.615 33.342-18.454 51.835-18.187z"/><path fill="#8941b1" d="M18.895 95.509c-8.79 0-15.916-7.126-15.916-15.916s7.126-15.916 15.916-15.916 15.916 7.126 15.916 15.916-7.126 15.916-15.916 15.916z"/></svg>