<?xml version="1.0" encoding="utf-8"?>
<!-- Generated by IcoMoon.io -->
<!DOCTYPE svg PUBLIC "-//W3C//DTD SVG 1.1//EN" "http://www.w3.org/Graphics/SVG/1.1/DTD/svg11.dtd">
<svg version="1.1" xmlns="http://www.w3.org/2000/svg" xmlns:xlink="http://www.w3.org/1999/xlink" width="32" height="32" viewBox="0 0 32 32">
<path fill="#555" d="M14.015 3.494c1.091-0.63 2.877-0.63 3.969 0l7.855 4.531c1.091 0.63 1.985 2.177 1.985 3.437v9.075c0 1.26-0.893 2.807-1.985 3.437l-7.855 4.531c-1.091 0.63-2.877 0.63-3.969 0l-7.855-4.531c-1.091-0.63-1.985-2.177-1.985-3.437v-9.075c0-1.26 0.893-2.807 1.985-3.437l7.855-4.531z"></path>
<path fill="#8941b1" d="M16 14.757c0.643 0 1.262-0.149 1.698-0.401l7.855-4.532c0.338-0.195 0.532-0.435 0.532-0.653s-0.194-0.453-0.532-0.647l-7.855-4.537c-0.436-0.252-1.055-0.395-1.698-0.395s-1.263 0.143-1.698 0.395l-7.855 4.537c-0.338 0.195-0.532 0.429-0.532 0.647s0.194 0.458 0.532 0.653l7.855 4.532c0.435 0.252 1.055 0.401 1.698 0.401z"></path>
<path fill="#5e75ff" d="M14.897 28.203c0.479 0 0.53-0.59 0.53-0.842v-9.069c0-1.059-0.777-2.411-1.698-2.939l-7.855-4.537c-0.218-0.126-0.424-0.195-0.595-0.195-0.478 0-0.53 0.59-0.53 0.842v9.075c0 1.060 0.777 2.406 1.698 2.939l7.855 4.537c0.217 0.126 0.423 0.189 0.595 0.189z"></path>
</svg>
