<svg xmlns="http://www.w3.org/2000/svg" width="192" height="192" viewBox="0 0 192 192"><path fill="#f3c600" d="M104.368 62.528c0 23.108 18.736 41.84 41.84 41.84 23.108 0 41.84-18.731 41.84-41.84s-18.731-41.84-41.84-41.84c-23.104 0-41.84 18.731-41.84 41.84z"/><path fill="#555" d="M34.638 112.736c0-32.351 27.472-58.576 61.362-58.576 28.756 0 52.827 18.907 59.48 44.392 18.43 2.669 32.568 17.811 32.568 36.15 0 20.217-17.171 36.61-38.351 36.61h-115.059c-16.946 0-30.686-13.113-30.686-29.288s13.74-29.288 30.686-29.288z"/></svg>