<svg xmlns="http://www.w3.org/2000/svg" width="192" height="192" viewBox="0 0 192 192"><path fill="#735746" d="M176.344 7.382c6.264.891 9.691 5.749 8.541 11.589l-19.321 72.109-16.803 4.502-18.242-30.297-14.879 14.879 11.37 30.09h-6.009l-9.623-25.828-15.22 15.22 11.37 30.09h-6.009l-9.623-25.828-15.22 15.221 11.37 30.089-6.009.001-9.623-25.828-19.759 21.897-9.457 39.194c-.32-.32-34.24-35.2-34.373-35.549l37.442-10.033 21.898-19.758-25.83-9.624v-6.009l30.091 11.371 15.22-15.221-25.829-9.623v-6.009s29.521 10.928 30.09 11.371c.57.443 15.22-15.22 15.22-15.22l-25.829-9.623v-6.01l30.09 11.371 14.845-14.845-30.263-18.275 4.502-16.803 75.868-18.61z"/><path fill="#f3c600" d="M167.391 35.203c-3.049 3.05-7.991 3.05-11.039 0-3.048-3.049-3.048-7.991 0-11.038 3.049-3.049 7.991-3.049 11.039 0 3.049 3.047 3.049 7.99 0 11.038z"/></svg>