<svg xmlns="http://www.w3.org/2000/svg" width="192" height="192" viewBox="0 0 192 192"><path fill="#d5d5d5" d="M13.322 23.214l148.573.729-.115 160.634-148.191.116-.267-161.479z"/><path fill="#d63f31" d="M143.089 4.429c20.029 0 36.266 16.237 36.266 36.266s-16.237 36.266-36.266 36.266-36.266-16.238-36.266-36.266 16.237-36.266 36.266-36.266z"/><path fill="#d5d5d5" d="M143.089 46.73c-4.021 4.023-8.045 8.043-12.069 12.066l-6.032-6.034c4.021-4.021 8.043-8.045 12.066-12.067-7.402-7.404-3.381-3.381-12.068-12.068.002 0 6.034-6.035 6.034-6.035 4.023 4.024 8.045 8.045 12.069 12.069 3.993-3.993 7.987-7.989 11.982-11.982l.085-.087c.002 0 6.034 6.035 6.034 6.035-8.688 8.687-4.664 4.664-12.067 12.068l12.067 12.067-6.032 6.034-.087-.086c-3.995-3.994-7.989-7.987-11.982-11.98z"/></svg>