<svg xmlns="http://www.w3.org/2000/svg" width="192" height="192" viewBox="0 0 192 192"><path fill="#735746" d="M108.842 80.373l3.278 32.05 11.322 4.6.196 12.256-10.802 5.42-95.909.028-11.431-9.156.014-26.757 175.492-78.124 5.621 79.283-19.191 19.177s-11.151.148-11.096.141c-18.871-19.082-18.941-37.101-18.941-37.101l10.399 6.227 23.498-.086-3.483-39.486-58.966 31.527z"/><path fill="#f3c600" d="M20.666 51.364l53.18.064 28.543 61.399-81.605-.014-.118-61.45z"/><path fill="#555" d="M16.927 134.726c32.298-.167 64.609-.111 96.921-.028 5.136 4.062 10.789 8.877 11.236 15.939 1.549 10.315-7.244 20.602-17.684 20.588-27.008.139-54.03-.042-81.051.083-4.229.028-8.71-.321-12.311-2.777-7.356-4.466-10.594-14.321-7.481-22.318 1.702-5.137 6.462-8.151 10.37-11.487z"/><path fill="#57ac6e" d="M19.691 141.231c8.445-3.448 18.299 4.815 16.261 13.748-1.089 9.044-13.246 13.385-19.973 7.369-7.286-5.513-5.108-18.494 3.713-21.118zm26.715.349c7.942-3.936 18.201 2.959 17.349 11.822.098 9.323-11.822 15.144-19.262 9.617-7.816-4.858-6.685-18.061 1.912-21.439zm27.831-.084c7.886-3.741 17.963 3.085 17.168 11.836.112 9.254-11.515 15.116-19.01 9.868-8.123-4.76-7.048-18.424 1.843-21.704zm27.915-.098c8.43-3.825 18.717 4.341 16.735 13.441-.977 9.296-13.609 13.636-20.294 7.258-6.811-5.527-4.802-17.824 3.559-20.699z"/></svg>