<svg xmlns="http://www.w3.org/2000/svg" width="192" height="192" viewBox="0 0 192 192"><path fill="#d5d5d5" d="M5.054 13.743l.173 164.596 181.66-.073.059-164.606z"/><path fill="#56545c" d="M135.481 99.745c0 30.519-24.743 55.262-55.262 55.262s-55.26-24.743-55.26-55.262c0-30.517 24.741-55.26 55.26-55.26s55.262 24.743 55.262 55.26z"/><path fill="#f5b401" d="M94.154 98.149c0 7.255-5.882 13.141-13.139 13.141-7.255 0-13.139-5.886-13.139-13.141 0-7.253 5.884-13.137 13.139-13.137 7.258 0 13.139 5.884 13.139 13.137z"/><path fill="#56545c" d="M172.965 49.962v24.308h-4.045v55.664c5.194 1.747 7.358 6.678 7.868 11.741 0 7.234-5.864 13.096-13.093 13.096-7.236 0-13.096-5.862-13.096-13.094.151-4.404 2.113-8.284 5.771-10.862 1.091-.768 2.461-1.034 3.691-1.553v-54.992h-4.043v-24.308h16.947z"/></svg>