<?xml version="1.0" encoding="utf-8"?>
<!-- Generated by IcoMoon.io -->
<!DOCTYPE svg PUBLIC "-//W3C//DTD SVG 1.1//EN" "http://www.w3.org/Graphics/SVG/1.1/DTD/svg11.dtd">
<svg version="1.1" xmlns="http://www.w3.org/2000/svg" xmlns:xlink="http://www.w3.org/1999/xlink" width="32" height="32" viewBox="0 0 32 32">
<path fill="#f3c600" d="M13.709 9.698v-5.156h9.739c0.949 0 1.719 0.769 1.719 1.719v19.479c0 0.949-0.769 1.719-1.719 1.719h-14.895c-0.949 0-1.719-0.769-1.719-1.719v-14.323h5.156c0.949 0 1.719-0.769 1.719-1.719z"></path>
<path fill="#ae7a51" d="M6.834 11.417h5.156c0.421 0 0.807-0.151 1.105-0.403l-6.261 0.403z"></path>
<path fill="#555" d="M13.709 4.542v5.156c0 0.949-0.769 1.719-1.719 1.719h-5.156l6.875-6.875zM21.729 11.417h-5.514v2.355h5.514zM21.729 20.901h-11.457v2.355h11.457zM10.271 18.515h11.457v-2.355l-11.395-0.076-0.062 2.431z"></path>
</svg>
