<svg xmlns="http://www.w3.org/2000/svg" width="192" height="192" viewBox="0 0 192 192"><path fill="#555" d="M184.513 158.174s-56.591 8.378-55.903 9.317c.687.939-9.317 9.317-9.317 9.317h-111.806v-83.854h23.293v-83.855h88.513v83.855h9.721c2.378-13.535 13.964-22.949 27.548-23.293 15.438 0 27.951 12.513 27.951 27.951v60.562z"/><path fill="#d72f44" d="M170.537 97.612c0 7.719-6.257 13.976-13.976 13.976s-13.976-6.256-13.976-13.976c0-7.719 6.256-13.976 13.976-13.976s13.976 6.257 13.976 13.976z"/><path fill="#8941b1" d="M88.207 182.901h-32.61v-76.457h32.61z"/><path fill="#5e75ff" d="M169.229 148.64h-40.619v-23.077h40.619z"/></svg>