<svg xmlns="http://www.w3.org/2000/svg" width="192" height="192" viewBox="0 0 192 192"><path fill="#f3c600" d="M42.874 76.449c-13.785 5.701-33.525-9.87-33.525-9.87-13.699-13.699 0-17.443 0-17.443 12.849 4.425 22.889 4.595 29.781 3.574 3.318-13.869 15.826-24.25 30.717-24.25 17.529 0 31.653 14.21 31.653 31.653 0 12.678-7.488 23.655-18.294 28.675 2.212 5.446 7.573 9.19 13.785 9.19 1.021 0 90.789-23.059 90.789-23.059s-4.899 60.123-43.299 82.203c0 0-39.68 31.36-90.56 2.24 0 0-50.24-30.08-11.131-62.32 0 0 6.637-7.658 7.148-12.423-2.723-2.212-5.105-5.02-7.062-8.169z"/><path fill="#404040" d="M58.853 53.219c0 2.725 2.209 4.935 4.935 4.935s4.935-2.21 4.935-4.935c0-2.726-2.21-4.935-4.935-4.935s-4.935 2.209-4.935 4.935z"/></svg>