<svg xmlns="http://www.w3.org/2000/svg" width="192" height="192" viewBox="0 0 192 192"><path fill="#f3c600" d="M77.404 131.285h-11.761v53.462l20.85 3.207v-11.761l-9.089-4.277v-40.631zm26.358 0h-11.763v53.462l20.85 3.207v-11.761l-9.087-4.277v-40.631z"/><path fill="#d72f44" d="M183.889 45.128l-29.964 11.209-.866-20.213 30.83 9.004z"/><path fill="#d5d5d5" d="M123.674 4.046h-.172c-17.078 0-30.921 13.845-30.921 30.921v25.748h-47.583c-20.372 0-36.888 16.516-36.888 36.888v.002c0 20.374 16.514 36.888 36.886 36.888h82.867c14.765 0 26.733-11.968 26.733-26.731v-72.795c0-17.075-13.845-30.921-30.922-30.921z"/><path fill="#555" d="M139.319 28.286c0 2.627-2.132 4.761-4.761 4.761s-4.759-2.134-4.759-4.761c0-2.631 2.13-4.761 4.759-4.761s4.761 2.13 4.761 4.761zm-76.321 59.401c-9.282 0-17.156 7.273-17.391 16.553-.246 9.663 7.511 17.444 17.114 17.444l40.67.057v-34.437z"/></svg>