<svg xmlns="http://www.w3.org/2000/svg" width="192" height="192" viewBox="0 0 192 192"><path fill="#f3c600" d="M82.336 64.826l-23.237-21.601c5.852-4.828 8.807-10.042 6.902-17.923-2.651-10.958-13.641-17.689-24.555-15.025-10.914 2.675-17.59 13.729-14.939 24.695-2.161 1.174-5.051 1.182-7.952 1.889-10.906 2.675-17.59 13.726-14.939 24.695 2.649 10.969 13.648 17.691 24.555 15.017 6.808-1.664 9.675-7.571 11.946-13.711l25.855 23.564z"/><path fill="#735746" d="M177.502 99.269c-17.683-20.014-47.422-22.228-58.831-26.557-28.611-10.84-46.559-20.944-41.763-10.452 2.542 5.562-3.838 19.897-17.113 15.352-11.669-3.983-2.336 20.759 12.018 42.646 5.32 8.103 11.529 33.611 28.499 49.316 23.05 21.316 61.526 12.05 71.14-.174 12.537-15.942 28.946-44.218 6.049-70.13z"/></svg>