<svg xmlns="http://www.w3.org/2000/svg" width="192" height="192" viewBox="0 0 192 192"><path fill="#555" d="M5.92 85.707l19.095-7.765 8.226-19.924-8.008-16.845 16.669-16.67 16.845 8.008 19.924-8.226 6.274-17.631h23.559l6.274 17.631 19.916 8.226 16.853-8.008s15.548 16.271 16.67 16.67c1.122.399-8.008 16.845-8.008 16.845l8.231 19.924 17.626 6.274s-.569 24.752 0 23.559c.569-1.193-17.639 6.274-17.639 6.274s-7.822 20.477-8.226 19.924c-.404-.553 8.004 16.845 8.004 16.845l-16.669 16.67-16.841-8.008-19.924 8.226-6.274 17.639-23.55-.009-6.274-17.639-19.924-8.231-16.845 8.008-16.669-16.67 8.008-16.845-8.226-19.924-17.639-6.274z"/></svg>