<svg xmlns="http://www.w3.org/2000/svg" width="192" height="192" viewBox="0 0 192 192"><path fill="#57ac6e" d="M168.934 182.69c.201-.529 13.056-13.056 13.056-13.056l-45.701-45.705-13.06 13.061 45.705 45.7z"/><path fill="#f3c600" d="M105.779 66.326c.792.219 13.056-13.056 13.056-13.056l-45.7-45.7c-3.606-3.606-9.455-3.606-13.061 0s-3.606 9.45 0 13.056l45.705 45.7zm-52.233 52.233c-.159-.491 13.061-13.056 13.061-13.056l-45.706-45.705c-3.605-3.606-9.45-3.606-13.056 0s-3.605 9.455 0 13.061l45.701 45.7z"/><path fill="#555" d="M133.823 32.523l14.654 14.654c-2.844 2.864-5.689 5.728-8.534 8.591l46.916 46.489-84.874 84.878-46.815-46.386c-3.191 2.861-5.935 6.253-9.248 8.983l-14.654-14.654 102.555-102.555z"/></svg>