<svg xmlns="http://www.w3.org/2000/svg" width="192" height="192" viewBox="0 0 192 192"><path fill="#555" d="M104.048 178.42v-164.84h-19.139v164.84zm-66.334 0v-164.84h-19.138v164.84zm134.514 0v-164.84h-19.138v164.84z"/><path fill="#8941b1" d="M4.222 110.186c0 13.22 10.708 23.923 23.923 23.923 13.211 0 23.923-10.703 23.923-23.923s-10.713-23.923-23.923-23.923c-13.215 0-23.923 10.703-23.923 23.923z"/><path fill="#57ac6e" d="M69.359 58.752c0 13.88 11.248 25.119 25.119 25.119s25.119-11.239 25.119-25.119-11.249-25.119-25.119-25.119-25.119 11.239-25.119 25.119z"/><path fill="#5e75ff" d="M137.54 135.305c0 13.88 11.249 25.119 25.119 25.119 13.88 0 25.119-11.239 25.119-25.119s-11.239-25.119-25.119-25.119c-13.87 0-25.119 11.239-25.119 25.119z"/></svg>