<?xml version="1.0" encoding="utf-8"?>
<!-- Generated by IcoMoon.io -->
<!DOCTYPE svg PUBLIC "-//W3C//DTD SVG 1.1//EN" "http://www.w3.org/Graphics/SVG/1.1/DTD/svg11.dtd">
<svg version="1.1" xmlns="http://www.w3.org/2000/svg" xmlns:xlink="http://www.w3.org/1999/xlink" width="32" height="32" viewBox="0 0 32 32">
<path fill="#d63f31" d="M10.264 16l-1.229 0.511 0.633 4.129 2.53-0.843z"></path>
<path fill="#565860" d="M5.45 16.421l-1.055 9.279h5.272v-9.279z"></path>
<path fill="#3e7dfb" d="M4.654 6.3c-3.163 0-3.163 3.063-3.163 3.063v4.084s0.211 2.974 3.373 2.974h5.905v-10.121z"></path>
<path fill="#3b9f5d" d="M10.511 6.3v10.121l6.748-0.843v-8.435z"></path>
<path fill="#808080" d="M28.118 10.095h-8.329l-0.843-1.687-0.843-0.844h-0.843v7.591h0.843l0.843-0.843 0.843-1.687h9.279z"></path>
<path fill="#6a6a6a" d="M27.802 9.785l1.054 3.063 1.653-1.899zM24.639 9.785l1.055 3.063h2.109l-1.055-3.063zM21.476 9.785l1.054 3.063h2.109l-1.054-3.063zM19.634 9.785l-0.267-1.022-1.265-1.199h-0.843v7.591h0.843l1.265-1.287 0.311-1.021h1.798l-1.055-3.063z"></path>
</svg>
