<svg xmlns="http://www.w3.org/2000/svg" width="192" height="192" viewBox="0 0 192 192"><path fill="#555" d="M146.496 136.08c11.28 0 20.4-9.12 20.4-20.496 0-11.232-9.12-20.4-20.4-20.4v40.896zm-100.992 0c-11.28 0-20.4-9.12-20.4-20.496 0-11.232 9.12-20.4 20.4-20.4v40.896z"/><path fill="#d72f44" d="M96 4.704c9.936 0 19.2 7.68 20.16 17.76 14.64 7.296 22.944 21.12 23.328 37.344v17.472h-15.84v10.656h23.376v55.392h-23.328v28.176h33.744v15.84h-118.752v-15.84h29.568v-28.176h-23.136v-55.392h23.184v-10.656l-15.84-.096v-17.76c.144-16.224 8.976-29.664 23.376-36.96.96-10.224 10.224-17.52 20.16-17.76z"/></svg>