<svg xmlns="http://www.w3.org/2000/svg" width="192" height="192" viewBox="0 0 192 192"><path fill="#f3c600" d="M37.498 89.257c17.378-2.447 26.776.632 35.939 3.239 88.265 26.223 106.906 27.959 112.75 43.718 8.057 17.101-6.517 39.096-25.472 37.99-36.966.357-73.929.238-110.895.04-21.562.672-41.192-17.336-43.086-38.702-2.567-20.22 11.216-40.795 30.764-46.285z"/><path fill="#555" d="M53.452 41.858l.04 7.823-17.903-.044 9.53 39.227-7.782 1.139-10.225-40.326-20.063.004.04-7.822h46.364z"/><path fill="#d72f44" d="M125.685 9.238c12.952-.04 25.986-.868 38.938.357 12.166 1.342 19.786 16.032 14.415 26.973-9.951 26.223-31.158 78.074-31.158 78.074l-7.779-2.372s20.734-50.823 30.685-76.531c3.593-6.437 1.619-15.838-6.003-18.01-13.031-1.342-25.984-.514-38.976-.868l-.121-7.622z"/></svg>