<?xml version="1.0" encoding="utf-8"?>
<!-- Generated by IcoMoon.io -->
<!DOCTYPE svg PUBLIC "-//W3C//DTD SVG 1.1//EN" "http://www.w3.org/Graphics/SVG/1.1/DTD/svg11.dtd">
<svg version="1.1" xmlns="http://www.w3.org/2000/svg" xmlns:xlink="http://www.w3.org/1999/xlink" width="32" height="32" viewBox="0 0 32 32">
<path fill="#565860" d="M19.333 12.667h-6.667c-0.736 0-1.333 0.597-1.333 1.333v14.667c0 0.737 0.597 1.333 1.333 1.333h6.667c0.736 0 1.333-0.597 1.333-1.333v-14.667c0-0.736-0.597-1.333-1.333-1.333z"></path>
<path fill="#3b9f5d" d="M22.193 14.667c1.266-1.794 1.719-3.845 1.807-6.001 0-0.454-0.037-3.564-0.091-4h-15.817c-0.054 0.436-0.091 3.546-0.091 4 0 2.612 0.851 4.972 2.333 6.667 0 0.552 2.463 1 5.5 1s5.833-0.448 5.833-1l0.526-0.666z"></path>
<path fill="#f5b401" d="M16 2c-4.418 0-8 1.045-8 2.333s3.582 2.333 8 2.333 8-1.045 8-2.333-3.582-2.333-8-2.333z"></path>
</svg>
