<svg xmlns="http://www.w3.org/2000/svg" width="192" height="192" viewBox="0 0 192 192"><path fill="#41ac73" d="M89.749 42.05v34.444l-38.183-15.618 42.738 44.754 44.713-44.733-38.14 15.97v-34.818z"/><path fill="#555" d="M157.078 100.676c13.965 14.654-34.18 75.37-38.761 81.368-6.91 9.048-34.118 10.687-44.373 0-4.533-4.724-51.942-67.138-40.066-80.269 13.965-8.366 106.364-9.796 123.2-1.099z"/><path fill="#d72f44" d="M56.012 35.103c-4.887.191-9.378 2.335-12.191 6.487-1.009 1.487-1.396 3.309-2.091 4.966-7.1 2.083-10.727 7.1-11.453 14.287.191 4.887 2.335 9.379 6.487 12.192 1.483 1.009 3.309 1.395 4.966 2.091 2.083 7.1 7.1 10.726 14.283 11.452 4.892-.191 9.383-2.335 12.196-6.483 1.009-1.487 1.395-3.313 2.091-4.97 7.1-2.078 10.727-7.101 11.452-14.283-.191-4.891-2.335-9.383-6.487-12.196-1.483-1.009-3.309-1.396-4.965-2.091-2.083-7.096-7.1-10.726-14.288-11.453z"/><path fill="#f3c702" d="M46.821 60.747c0 5.074 4.117 9.191 9.196 9.191 5.074 0 9.192-4.117 9.192-9.191 0-5.078-4.118-9.191-9.192-9.191-5.078 0-9.196 4.113-9.196 9.191z"/><path fill="#d72f44" d="M135.705 34.215c-4.943.196-9.483 2.361-12.326 6.557-1.022 1.5-1.409 3.348-2.114 5.022-7.174 2.1-10.844 7.174-11.578 14.44.196 4.943 2.361 9.483 6.557 12.326 1.504 1.022 3.348 1.409 5.022 2.113 2.105 7.174 7.175 10.844 14.44 11.579 4.943-.195 9.483-2.361 12.326-6.556 1.022-1.505 1.409-3.348 2.113-5.022 7.179-2.104 10.844-7.174 11.579-14.439-.196-4.944-2.361-9.483-6.557-12.326-1.5-1.022-3.348-1.409-5.022-2.113-2.1-7.178-7.174-10.844-14.439-11.578z"/><path fill="#f3c702" d="M126.413 60.138c0 5.13 4.161 9.291 9.292 9.291s9.291-4.161 9.291-9.291c0-5.131-4.161-9.292-9.291-9.292s-9.292 4.161-9.292 9.292z"/><path fill="#d72f44" d="M95.293 1.583c-4.944.191-9.483 2.356-12.331 6.552-1.017 1.505-1.408 3.348-2.113 5.022-7.174 2.104-10.844 7.178-11.574 14.439.191 4.943 2.357 9.483 6.557 12.331 1.5 1.018 3.344 1.409 5.017 2.114 2.104 7.174 7.178 10.839 14.444 11.574 4.939-.191 9.478-2.357 12.326-6.557 1.018-1.5 1.409-3.348 2.113-5.017 7.174-2.104 10.844-7.178 11.574-14.444-.191-4.939-2.356-9.478-6.552-12.326-1.505-1.018-3.348-1.409-5.022-2.113-2.104-7.174-7.178-10.844-14.439-11.574z"/><path fill="#f3c702" d="M85.999 27.501c0 5.131 4.161 9.291 9.291 9.291s9.292-4.161 9.292-9.291-4.161-9.292-9.292-9.292-9.291 4.161-9.291 9.292z"/></svg>