<svg xmlns="http://www.w3.org/2000/svg" width="192" height="192" viewBox="0 0 192 192"><path fill="#57ac6e" d="M85.976 69.013l.218 81.875-76.642-37.027 85.582 74.885.204-.034 85.34-76.964s-76.16 38.369-76.425 37.943c-.265-.426 0-80.678 0-80.678h-18.276z"/><path fill="#8941b1" d="M95.114 3.285c-21.665-1.057-23.25 24.836-28.006 30.119-10.254 11.393-22.722 5.284-25.892 22.722-4.01 22.057 21.224 30.274 24.836 31.177 10.568 2.642 9.343 24.548 24.307 24.307 32.761-.529 36.461-23.779 35.932-25.893-3.718-14.87 21.248-13.75 22.154-28.688 1.625-26.795-19.511-29.965-25.324-31.022-15.08-2.742-13.058-21.993-28.006-22.722z"/><path fill="#f3c600" d="M76.068 57.029c0 10.517 8.529 19.046 19.046 19.046s19.046-8.529 19.046-19.046c0-10.518-8.529-19.046-19.046-19.046s-19.046 8.529-19.046 19.046z"/></svg>