<?xml version="1.0" encoding="utf-8"?>
<!-- Generated by IcoMoon.io -->
<!DOCTYPE svg PUBLIC "-//W3C//DTD SVG 1.1//EN" "http://www.w3.org/Graphics/SVG/1.1/DTD/svg11.dtd">
<svg version="1.1" xmlns="http://www.w3.org/2000/svg" xmlns:xlink="http://www.w3.org/1999/xlink" width="32" height="32" viewBox="0 0 32 32">
<path fill="#ec6205" d="M4.257 4.964c2.175-2.118 12.321-2.554 18.812 3.573 6.493 6.129 6.83 16.748 4.699 18.617-2.417 2.12-12.573 2.195-19.067-3.932s-6.469-16.287-4.444-18.259z"></path>
<path fill="#f3c600" d="M12.040 9.061l1.154 1.156-3.461 3.467-1.154-1.156zM15.501 12.529l-3.461 3.468-1.153-1.155 3.459-3.469zM22.422 19.464l-3.461 3.467-1.153-1.156 3.461-3.467zM17.808 14.841l-3.461 3.466-1.153-1.155 3.46-3.467zM20.115 17.152l-3.461 3.468-1.153-1.156 3.461-3.467z"></path>
</svg>
