<svg xmlns="http://www.w3.org/2000/svg" width="192" height="192" viewBox="0 0 192 192"><path fill="#8941b1" d="M34.969 64.998h122.062c17.74 0 32.122 14.382 32.122 32.122v32.122c0 17.74-14.381 32.122-32.122 32.122h-122.062c-17.741 0-32.122-14.382-32.122-32.122v-32.122c0-17.74 14.381-32.122 32.122-32.122z"/><path fill="#f3c600" d="M52.177 90.279v13.541h13.541v18.055h-13.541v13.541l-18.055.001v-13.541h-13.541l.001-18.055h13.541v-13.541h18.055z"/><path fill="#d72f44" d="M128.072 112.789c7.536 0 13.645 6.11 13.645 13.645s-6.109 13.645-13.645 13.645-13.645-6.109-13.645-13.645 6.109-13.645 13.645-13.645zM155.362 86.458c7.537 0 13.645 6.109 13.645 13.646s-6.109 13.645-13.645 13.645-13.645-6.109-13.645-13.645 6.109-13.646 13.645-13.646z"/><path fill="#57ac6e" d="M103.154 65.178l.049-34.542-14.224.32-.183 34.222h14.358z"/></svg>