<svg xmlns="http://www.w3.org/2000/svg" width="192" height="192" viewBox="0 0 192 192"><path fill="#555" d="M96 131.151c-36.259 0-37.639 14.507-51.236 29.011s-39.412 19.314-39.412-29.011c0-48.32 18.13-77.354 18.13-77.354s17.342-35.775 40.989-7.801c16.845 19.927 46.215 19.927 63.059 0 23.647-27.974 40.989 7.801 40.989 7.801s18.13 29.035 18.13 77.354c0 48.325-25.815 43.514-39.412 29.011s-14.977-29.011-51.236-29.011z"/><path fill="#404040" d="M44.4 123.36c-13.653 0-24.72-11.067-24.72-24.72s11.067-24.72 24.72-24.72 24.72 11.067 24.72 24.72-11.067 24.72-24.72 24.72z"/><path fill="#57ac6e" d="M43.92 107.04c-5.17 0-9.36-4.19-9.36-9.36s4.19-9.36 9.36-9.36 9.36 4.19 9.36 9.36-4.19 9.36-9.36 9.36z"/><path fill="#404040" d="M147.36 122.4c-14.05 0-25.44-11.39-25.44-25.44s11.39-25.44 25.44-25.44 25.44 11.39 25.44 25.44-11.39 25.44-25.44 25.44z"/><path fill="#5e75ff" d="M142.414 85.11v6.5h-6.501v9.776h6.501v6.501h9.775v-6.501h6.501v-9.776h-6.501v-6.5h-9.775z"/></svg>