<svg xmlns="http://www.w3.org/2000/svg" width="192" height="192" viewBox="0 0 192 192"><path fill="#57ac6e" d="M172.949 7.605l-109.887-.125-.397 159.033-10.772 4.525.247 13.482h131.752l-.356-12.879-10.498-5.073-.09-158.963z"/><path fill="#d72f44" d="M39.56 19.741l-9.099-5.207-21.598 38.838-.658 68.137s-1.562 23.325 7.866 30.561c10.909 9.949 30.67 4.607 34.863-9.593 3.234-14.633 2.247-44.511 2.247-44.511s6.304-5.318 9.593-7.619c.055-3.508.083-6.986.083-10.495-8.771 1.313-20.474 15.209-20.474 15.209l-1.781 42.455s-10.634 10.991-16.5 6.745c-4.961-2.853-4.906-14.307-4.906-14.307l.165-70.47 9.976-2.603 10.223-37.139z"/><path fill="#ffd300" d="M161.39 26.254h-86.939l-.034 43.545 87.008-.027-.034-43.518z"/><path fill="#8941b1" d="M143.28 30.72l-22.971 39.063 9.611.016 13.36-39.079z"/></svg>