<svg xmlns="http://www.w3.org/2000/svg" width="192" height="192" viewBox="0 0 192 192"><path fill="#57ac6e" d="M149.185 7.061l7.286 12.958-31.806 17.375 34.176-.24v16.204l-75.616-.793.006.089c-10.702-.296-18.461 2.438-21.859 6.66-6.97 8.657 4.975 53.806 4.975 53.806l-13.864 2.611s-13.153-52.198-1.937-66.825c7.567-9.723 44.254-11.466 44.254-11.466l54.385-30.379z"/><path fill="#8941b1" d="M109.889 74.921v-13.264h-27.778v13.264c-25.25 6.222-43.982 29.012-43.982 56.182v60.898h115.742v-60.898c0-27.17-18.731-49.959-43.982-56.182z"/><path fill="#555" d="M96 20.469c12.782 0 23.149 10.366 23.149 23.149 0 12.785-10.366 23.149-23.149 23.149-12.785 0-23.149-10.364-23.149-23.149 0-12.782 10.364-23.149 23.149-23.149z"/><path fill="#d72f44" d="M101.723 37.597l-6.616 16.21-4.83-1.886 7.081-16.271 4.365 1.947z"/></svg>