<svg xmlns="http://www.w3.org/2000/svg" width="192" height="192" viewBox="0 0 192 192"><path fill="#d63f31" d="M5.509 75.33h180.982v8.356h-180.982zm169.484 37.308h-8.356v-8.204c0-11.406-9.28-20.686-20.686-20.686 16.014-8.357 29.042 4.672 29.042 20.686v8.204zm-66.673-6.491l-12.641-20.359-12.106 20.241-6.863-4.768 10.506-17.68 17.65.083 10.362 17.78-6.908 4.703z"/><path fill="#5e75ff" d="M63.113 128.975h-40.534c-11.716 0-21.249-9.532-21.249-21.249v-26.014c0-11.717 9.532-21.249 21.249-21.249h40.534c11.717 0 21.249 9.532 21.249 21.249v26.014c0 11.716-9.532 21.249-21.249 21.249zm-40.534-60.154l40.534 51.798c7.109 0 12.892-5.783 12.892-12.892v-26.014c0-7.109-5.783-12.892-12.892-12.892h-40.534zm146.842 60.154h-40.534c-11.717 0-21.249-9.532-21.249-21.249v-26.014c0-11.717 9.532-21.249 21.249-21.249h40.534c11.716 0 21.249 9.532 21.249 21.249v26.014c0 11.716-9.532 21.249-21.249 21.249zm-40.534-60.154l40.534 51.798c7.108 0 12.892-5.783 12.892-12.892v-26.014c0-7.109-5.783-12.892-12.892-12.892h-40.534z"/></svg>