<?xml version="1.0" encoding="utf-8"?>
<!-- Generated by IcoMoon.io -->
<!DOCTYPE svg PUBLIC "-//W3C//DTD SVG 1.1//EN" "http://www.w3.org/Graphics/SVG/1.1/DTD/svg11.dtd">
<svg version="1.1" xmlns="http://www.w3.org/2000/svg" xmlns:xlink="http://www.w3.org/1999/xlink" width="32" height="32" viewBox="0 0 32 32">
<path fill="#d63f31" d="M1.905 12.979h28.191v1.302h-28.191zM4.914 18.781h-1.302v-1.278c0-2.494 2.029-4.523 4.524-4.523h3.741v1.301h-3.741c-1.777 0-3.222 1.445-3.222 3.222v1.278zM28.305 18.791h-1.302v-1.278c0-1.777-1.445-3.223-3.222-3.223h-3.74v-1.301h3.74c2.495 0 4.524 2.029 4.524 4.524v1.278zM17.919 17.78l-1.615-2.371c-0.097-0.144-0.243-0.16-0.301-0.161h-0.001c-0.059 0-0.203 0.016-0.301 0.157l-1.637 2.355-1.069-0.743 1.636-2.355c0.314-0.451 0.828-0.719 1.379-0.716 0.549 0.003 1.062 0.275 1.371 0.729l1.614 2.371-1.076 0.733z"></path>
<path opacity="0.715" fill="#3e7dfb" d="M10.877 11.315h-3.157v9.371h3.157c1.469 0 2.659-1.191 2.659-2.659v-4.052c0-1.469-1.19-2.659-2.659-2.659zM27.437 11.315h-3.157v9.371h3.157c1.469 0 2.659-1.191 2.659-2.659v-4.052c0-1.469-1.19-2.659-2.659-2.659z"></path>
<path fill="#494745" d="M10.877 21.336h-6.314c-1.825 0-3.31-1.485-3.31-3.31v-4.052c0-1.825 1.485-3.31 3.31-3.31h6.314c1.825 0 3.31 1.485 3.31 3.31v4.052c0 1.825-1.485 3.31-3.31 3.31zM4.563 11.966c-1.107 0-2.008 0.901-2.008 2.008v4.052c0 1.107 0.901 2.008 2.008 2.008h6.314c1.107 0 2.008-0.901 2.008-2.008v-4.052c0-1.107-0.901-2.008-2.008-2.008h-6.314zM27.437 21.336h-6.314c-1.825 0-3.31-1.485-3.31-3.31v-4.052c0-1.825 1.485-3.31 3.31-3.31h6.314c1.825 0 3.31 1.485 3.31 3.31v4.052c0 1.825-1.485 3.31-3.31 3.31zM21.123 11.966c-1.107 0-2.008 0.901-2.008 2.008v4.052c0 1.107 0.901 2.008 2.008 2.008h6.314c1.107 0 2.008-0.901 2.008-2.008v-4.052c0-1.107-0.901-2.008-2.008-2.008h-6.314z"></path>
</svg>
