<svg xmlns="http://www.w3.org/2000/svg" width="192" height="192" viewBox="0 0 192 192"><path fill="#bfbfbf" d="M4.614 170.633l-.069-145.451 180.014-.12.069 145.906z"/><path fill="#aaa" d="M24.666 107.999v-56.78h43.409v56.78z"/><path fill="#d72f44" d="M37.07 128.511c-6.849 0-12.404 5.772-12.404 12.899 0 7.118 5.554 12.903 12.404 12.903s12.399-5.786 12.399-12.903c0-7.127-5.55-12.899-12.399-12.899z"/><path fill="#6a6a6a" d="M188.415 124.045l-101.321.236.084-103.165 100.879-.084z"/><path opacity=".15" fill="#fff" d="M105.98 37.965h68.656v68.652h-68.656z"/><path fill="#555" d="M157.247 72.291c0 9.361-7.585 16.941-16.941 16.941s-16.941-7.581-16.941-16.941c0-9.356 7.585-16.941 16.941-16.941s16.941 7.585 16.941 16.941z"/></svg>