<svg xmlns="http://www.w3.org/2000/svg" width="192" height="192" viewBox="0 0 192 192"><path fill="#8941b1" d="M64.335 73.863l9.529-9.529c15.355-11.427 34.595-11.982 45.842-.734 2.697 2.697 4.707 5.85 6.06 9.295 3.231 8.236 11.529 13.099 20.374 13.153 10.341.064 19.977 3.56 27.123 10.706 16.902 16.901 13.477 47.73-7.65 68.858s-51.957 24.552-68.858 7.65c-7.146-7.146-10.642-16.783-10.706-27.124-.054-8.845-4.917-17.142-13.153-20.373-3.445-1.354-6.599-3.363-9.295-6.06-11.247-11.247-10.693-30.487.399-45.508z"/><path fill="#57ac6e" d="M18.452 4.16l19.057 19.057-2.382 2.382s65.74 66.38 66.153 66.081c.413-.299-9.529 9.529-9.529 9.529l-66.153-66.081-2.382 2.382-19.057-19.057z"/><path fill="#d72f44" d="M83.875 108.125c6.694 6.694 17.55 6.694 24.25 0 6.694-6.694 6.694-17.55 0-24.25-6.699-6.694-17.556-6.694-24.25 0-6.694 6.699-6.694 17.556 0 24.25z"/></svg>