<?xml version="1.0" encoding="utf-8"?>
<!-- Generated by IcoMoon.io -->
<!DOCTYPE svg PUBLIC "-//W3C//DTD SVG 1.1//EN" "http://www.w3.org/Graphics/SVG/1.1/DTD/svg11.dtd">
<svg version="1.1" xmlns="http://www.w3.org/2000/svg" xmlns:xlink="http://www.w3.org/1999/xlink" width="32" height="32" viewBox="0 0 32 32">
<path fill="#f3c600" d="M12.996 20.899h-1.633v7.422c0 0.246 0.199 0.445 0.445 0.445h2.449c0.451 0 0.816-0.365 0.816-0.816s-0.365-0.817-0.816-0.817h-0.668c-0.328 0-0.594-0.266-0.594-0.593zM12.996 20.899h-1.633v7.422c0 0.246 0.199 0.445 0.445 0.445h2.449c0.451 0 0.816-0.365 0.816-0.816s-0.365-0.817-0.816-0.817h-0.668c-0.328 0-0.594-0.266-0.594-0.593zM17.814 20.899h-1.633v7.422c0 0.246 0.199 0.445 0.445 0.445h2.449c0.451 0 0.816-0.365 0.816-0.816s-0.365-0.817-0.816-0.817h-0.668c-0.328 0-0.594-0.266-0.594-0.593z"></path>
<path fill="#d72f44" d="M27.996 8.937l-4.159 1.556-0.121-2.806h3.205c0.358 0 0.697 0.162 0.923 0.44l0.279 0.345c0.128 0.157 0.063 0.394-0.127 0.465z"></path>
<path fill="#fff" d="M19.854 3.235h-0.024c-2.371 0-4.293 1.922-4.293 4.292v3.575h-6.605c-2.828 0-5.121 2.293-5.121 5.121s2.293 5.121 5.121 5.121h11.505c2.049 0 3.711-1.661 3.711-3.711v-10.106c0-2.37-1.922-4.292-4.293-4.292z"></path>
<path fill="#666" d="M22.026 6.599c0 0.365-0.296 0.661-0.661 0.661s-0.661-0.297-0.661-0.661 0.296-0.661 0.661-0.661c0.365 0 0.661 0.296 0.661 0.661z"></path>
<path fill="#735746" d="M18.209 13.031h-7.989c-1.783 0-3.296 1.397-3.341 3.18-0.047 1.857 1.443 3.351 3.288 3.351h7.301c1.229 0 2.227-0.997 2.227-2.227v-2.821c0-0.816-0.668-1.484-1.485-1.484z"></path>
</svg>
