<svg xmlns="http://www.w3.org/2000/svg" width="192" height="192" viewBox="0 0 192 192"><path fill="#555" d="M185.452 169.53l-105.596-105.595-19.84 19.841 106.693 105.595z"/><path fill="#5e75ff" d="M34.184 37.713l12.778-13.078c1.609-1.647 3.884-2.422 6.134-2.09l14.313 2.09 5.112-5.23-1.849-5.677c-.433-1.33-.094-2.795.873-3.786l6.089-6.229c1.41-1.444 3.699-1.444 5.112 0l20.447 20.922c1.41 1.445 1.41 3.786 0 5.231l-6.089 6.232c-.97.991-2.401 1.336-3.699.893l-5.548-1.895-5.112 5.234 2.554 18.305-30.668 31.387-23.002-13.078c-14.08 14.408-15.476 23.044-18.379 37.343-1.713-.858-23.138-31.478 20.933-76.574z"/></svg>