<svg xmlns="http://www.w3.org/2000/svg" width="192" height="192" viewBox="0 0 192 192"><path fill="#57ac6e" d="M141.159 75.412c-3.632.317-6.841 3.041-6.841 6.793v88.883h13.681v-88.883c0-3.752-3.063-6.793-6.841-6.793z"/><path fill="#d72f44" d="M38.601 81.379h114.798c1.931 0 3.503-1.571 3.503-3.503 0-1.347-.753-2.553-1.965-3.147l-.06-.031-58.877-31.063-58.937 31.094c-1.211.594-1.964 1.8-1.964 3.147 0 1.931 1.571 3.503 3.502 3.503zm-3.578-10.729l58.6-30.917c-.448-2.942-2.426-4.551-5.039-6.677-3.468-2.821-7.785-6.329-7.785-14.037 0-8.382 6.819-15.201 15.2-15.201s15.2 6.819 15.2 15.201c0 1.259-1.021 2.279-2.28 2.279s-2.279-1.021-2.279-2.279c0-5.867-4.773-10.641-10.641-10.641s-10.64 4.773-10.64 10.641c0 5.537 2.827 7.837 6.101 10.498 2.932 2.385 6.215 5.068 6.739 10.121l58.778 31.011c2.767 1.371 4.485 4.136 4.485 7.226 0 4.446-3.617 8.063-8.063 8.063h-114.798c-4.446 0-8.062-3.617-8.062-8.063 0-3.09 1.717-5.855 4.485-7.226z"/><path fill="#735746" d="M49.294 180.869v-98.617c0-3.777 3.063-6.839 6.841-6.839h85.52c-3.778 0-6.841 3.062-6.841 6.839v98.617z"/><path fill="#f3c600" d="M135.07 122.024v59.965l-85.77 6.194v-54.266l85.77-11.891z"/></svg>