<?xml version="1.0" encoding="utf-8"?>
<!-- Generated by IcoMoon.io -->
<!DOCTYPE svg PUBLIC "-//W3C//DTD SVG 1.1//EN" "http://www.w3.org/Graphics/SVG/1.1/DTD/svg11.dtd">
<svg version="1.1" xmlns="http://www.w3.org/2000/svg" xmlns:xlink="http://www.w3.org/1999/xlink" width="32" height="32" viewBox="0 0 32 32">
<path fill="#d63f31" d="M10.473 8.906c-0.314-0.007-0.58-0.133-0.685-0.276-0.19-0.258-0.775-0.606 0-2.423s1.233-2.525 1.121-2.995c0 0 1.921 4.154 0.359 5.418l-0.123 0.089v-1.367h-0.672v1.555zM15.283 8.967c-0.313-0.007-0.58-0.133-0.685-0.276-0.189-0.258-0.774-0.605 0-2.423s1.233-2.524 1.121-2.995c0 0 1.921 4.154 0.36 5.418l-0.124 0.089v-1.367h-0.673v1.555zM20.237 8.967c-0.314-0.007-0.58-0.133-0.685-0.276-0.189-0.258-0.774-0.605 0-2.423s1.234-2.524 1.121-2.995c0 0 1.921 4.154 0.359 5.418l-0.123 0.089v-1.367h-0.673v1.555z"></path>
<path fill="#f5b401" d="M5.332 12.603v15.187c0 0.551 0.447 0.998 0.998 0.998h19.34c0.551 0 0.998-0.447 0.998-0.998v-15.187h-21.336z"></path>
<path fill="#fff" d="M24.602 10.535h-17.203c-1.141 0-2.067 0.925-2.067 2.067v5.661c0 1.141 0.925 2.067 2.067 2.067s2.067-0.925 2.067-2.067v-3.594h0.007c0.049-0.395 0.386-0.701 0.793-0.701 0.409 0 0.745 0.305 0.794 0.701h0.007v5.714c0 1.141 0.925 2.067 2.067 2.067s2.067-0.925 2.067-2.067v-5.714h0.007c0.049-0.395 0.385-0.701 0.793-0.701s0.793 0.293 0.793 0.701h0.007v5.132c0 1.141 0.925 2.067 2.067 2.067s2.067-0.925 2.067-2.067v-5.132h0.009c0.049-0.395 0.385-0.701 0.794-0.701s0.744 0.305 0.793 0.701h0.004v1.281c0 1.141 0.925 2.067 2.067 2.067s2.066-0.925 2.066-2.067v-3.348c0-1.141-0.925-2.067-2.066-2.067z"></path>
</svg>
