<svg xmlns="http://www.w3.org/2000/svg" width="192" height="192" viewBox="0 0 192 192"><path fill="#555" d="M162.079 125.465l4.16-48.175c0-39.039-31.611-70.687-70.604-70.687s-70.604 31.648-70.604 70.687l3.84 52.015-25.15-.463-.209 45.589 38.463-.151v-96.99c0-29.669 24.026-53.722 53.659-53.722s53.659 24.053 53.659 53.722v96.99l39.195.077-.123-48.913z"/><path fill="#57ac6e" d="M136.014 113.888l.109 71.509 13.491-.077s-.07-72.025-.32-71.595c-.251.43-13.279.163-13.279.163zm-80.14-.554l-13.899.071v71.915l14.011.04z"/></svg>