<svg xmlns="http://www.w3.org/2000/svg" width="192" height="192" viewBox="0 0 192 192"><path fill="#555" d="M37.358 187.819h117.283v-183.638h-117.283z"/><path fill="#d72f44" d="M52.019 130.084c0 24.29 19.691 43.981 43.981 43.981s43.981-19.691 43.981-43.981c0-24.29-19.691-43.981-43.981-43.981s-43.981 19.691-43.981 43.981z"/><path fill="#5e75ff" d="M72.774 48.665c0 12.828 10.398 23.226 23.226 23.226s23.226-10.398 23.226-23.226-10.398-23.227-23.226-23.227-23.226 10.399-23.226 23.227z"/><path fill="#ffd300" d="M85.763 130.084c0 5.655 4.582 10.237 10.237 10.237s10.237-4.582 10.237-10.237-4.582-10.237-10.237-10.237-10.237 4.582-10.237 10.237z"/><path fill="#f3c600" d="M102.047 39.866l2.753 2.753-6.046 6.046 5.966 5.966-2.754 2.754-5.966-5.967-6.046 6.047-2.753-2.753 6.046-6.046-5.967-5.967 2.754-2.753 5.966 5.966 6.047-6.046z"/></svg>