<svg xmlns="http://www.w3.org/2000/svg" width="192" height="192" viewBox="0 0 192 192"><path fill="#555" d="M82.08 145.44v43.536h27.552l.48-43.536h-28.032z"/><path fill="#8941b1" d="M151.68 112.32c.48.384 7.2-18.72 0-35.04-13.92-13.44-99.84-20.832-110.64 7.584-9.36 13.056-.72 24.096-.72 23.136.48 14.88 111.36 4.32 111.36 4.32z"/><path fill="#f3c600" d="M40.32 108.288s11.04 28.944 6.048 43.2c-5.088 14.112 92.352 1.152 102.24.672 9.792-.48-11.664-13.296 3.12-38.304 14.88-25.056-101.856-14.4-111.36-5.568z"/><path fill="#d72f44" d="M96.096 3.024c-41.52 2.496-43.296 63.552-55.056 82.08-11.76 18.576 110.64-7.584 110.64-7.584s-14.16-75.024-55.68-74.496z"/></svg>