<svg xmlns="http://www.w3.org/2000/svg" width="192" height="192" viewBox="0 0 192 192"><path fill="#f3c600" d="M186.565 48.351v121.258h-181.129v-121.258h181.129z"/><path fill="#565860" d="M83.591 138.152c0 1.11-.085 2.203-.211 3.279h-55.294c-.122-1.076-.207-2.169-.207-3.279 0-12.121 7.757-22.407 18.571-26.235-3.33-2.702-5.461-6.829-5.461-11.45 0-8.146 6.601-14.747 14.747-14.747s14.746 6.601 14.746 14.747c0 4.621-2.131 8.749-5.461 11.45 10.813 3.828 18.571 14.114 18.571 26.235z"/><path fill="#555" d="M148.28 128.493v8.625h-34.501v-8.625h34.501zm21.563-21.562v8.625h-56.063v-8.625h56.063zm0-21.564v8.625h-56.063v-8.625h56.063z"/><path fill="#565860" d="M109.487 22.391v36.423h-26.973v-36.423h26.973z"/></svg>