<svg xmlns="http://www.w3.org/2000/svg" width="192" height="192" viewBox="0 0 192 192"><path fill="#d72f44" d="M135.764 6.7c18.326 1.885 34.27 13.553 44.286 28.631 8.112 16.356 9.971 36.563 1.495 53.173-8.281 18.381-26.678 31.536-46.769 33.197-11.207 1.431-32.552-5.857-32.552-5.857l-70.646 69.943-26.622-13.22-.037-31.003 25.685-.059-.119-24.898 22.433-.014.083-23.405 25.709-.135s-6.042-15.031-7.026-22.166c-2.287-19.13 4.462-39.519 19.128-51.078 15.634-12.321 32.996-14.832 44.952-13.109z"/><path fill="#f3c600" d="M122.725 75.913c-6.975-4.06-9.338-13.007-5.278-19.982s13.007-9.338 19.983-5.278c6.975 4.06 9.338 13.007 5.278 19.982s-13.007 9.338-19.983 5.278z"/></svg>