<svg xmlns="http://www.w3.org/2000/svg" width="192" height="192" viewBox="0 0 192 192"><path fill="#555" d="M90.788 44.25c0-22.23 18.02-40.25 40.25-40.25h11.5v11.5h-11.5c-15.882 0-28.75 12.868-28.75 28.75v23h84.434v120.75h-181.445v-120.75h85.511v-23z"/><path fill="#f3c600" d="M37.293 79.423h-13.046c-3.607 0-6.523 2.916-6.523 6.523v13.046c0 3.607 2.916 6.523 6.523 6.523h13.046c3.607 0 6.523-2.916 6.523-6.523v-13.046c0-3.607-2.916-6.523-6.523-6.523z"/><path fill="#d72f44" d="M56.862 105.515h13.046c3.607 0 6.523-2.916 6.523-6.523v-13.046c0-3.607-2.916-6.523-6.523-6.523h-13.046c-3.607 0-6.523 2.916-6.523 6.523v13.046c0 3.607 2.916 6.523 6.523 6.523z"/><path fill="#57ac6e" d="M89.477 105.515h13.046c3.607 0 6.523-2.916 6.523-6.523v-13.046c0-3.607-2.915-6.523-6.523-6.523h-13.046c-3.607 0-6.523 2.916-6.523 6.523v13.046c0 3.607 2.915 6.523 6.523 6.523z"/><path fill="#8941b1" d="M135.138 79.423h-13.046c-3.607 0-6.523 2.916-6.523 6.523v13.046c0 3.607 2.916 6.523 6.523 6.523h13.046c3.607 0 6.523-2.916 6.523-6.523v-13.046c0-3.607-2.916-6.523-6.523-6.523z"/><path fill="#57ac6e" d="M37.293 112.038h-13.046c-3.607 0-6.523 2.915-6.523 6.523v13.046c0 3.607 2.916 6.523 6.523 6.523h13.046c3.607 0 6.523-2.915 6.523-6.523v-13.046c0-3.607-2.916-6.523-6.523-6.523z"/><path fill="#8941b1" d="M37.293 144.653h-13.046c-3.607 0-6.523 2.915-6.523 6.523v13.046c0 3.607 2.916 6.523 6.523 6.523h13.046c3.607 0 6.523-2.915 6.523-6.523v-13.046c0-3.608-2.916-6.523-6.523-6.523z"/><path fill="#f3c600" d="M56.862 138.13h13.046c3.607 0 6.523-2.915 6.523-6.523v-13.046c0-3.607-2.916-6.523-6.523-6.523h-13.046c-3.607 0-6.523 2.915-6.523 6.523v13.046c0 3.607 2.916 6.523 6.523 6.523z"/><path fill="#d72f44" d="M89.477 138.13h13.046c3.607 0 6.523-2.915 6.523-6.523v-13.046c0-3.607-2.915-6.523-6.523-6.523h-13.046c-3.607 0-6.523 2.915-6.523 6.523v13.046c0 3.607 2.915 6.523 6.523 6.523z"/><path fill="#f3c600" d="M135.138 112.038h-13.046c-3.607 0-6.523 2.915-6.523 6.523v13.046c0 3.607 2.916 6.523 6.523 6.523h13.046c3.607 0 6.523-2.915 6.523-6.523v-13.046c0-3.607-2.916-6.523-6.523-6.523z"/><path fill="#5e75ff" d="M167.753 79.423h-13.046c-3.607 0-6.523 2.916-6.523 6.523v13.046c0 3.607 2.916 6.523 6.523 6.523h13.046c3.607 0 6.523-2.916 6.523-6.523v-13.046c0-3.607-2.916-6.523-6.523-6.523zm-32.615 65.23h-78.277c-3.607 0-6.523 2.915-6.523 6.523v13.046c0 3.607 2.916 6.523 6.523 6.523h78.277c3.607 0 6.523-2.915 6.523-6.523v-13.046c0-3.608-2.916-6.523-6.523-6.523z"/><path fill="#d72f44" d="M167.753 112.038h-13.046c-3.607 0-6.523 2.915-6.523 6.523v45.662c0 3.607 2.916 6.523 6.523 6.523h13.046c3.607 0 6.523-2.915 6.523-6.523v-45.662c0-3.607-2.916-6.523-6.523-6.523z"/></svg>