<svg xmlns="http://www.w3.org/2000/svg" width="192" height="192" viewBox="0 0 192 192"><path fill="#8941b1" d="M73.789 62.483h-33.517v-45.422h33.517v45.422z"/><path fill="#735746" d="M106.642 178.396h-99.224v-120.103h99.224v120.103z"/><path fill="#57ac6e" d="M64.013 31.758c0 3.857-3.127 6.983-6.982 6.983-3.857 0-6.983-3.126-6.983-6.983s3.126-6.983 6.983-6.983c3.855 0 6.982 3.127 6.982 6.983z"/><path fill="#555" d="M146.875 161.638h-18.155v-58.655h18.155z"/><path fill="#d72f44" d="M184.582 102.983h-55.862v-80.162c0-5.091 4.127-9.218 9.218-9.218h46.645z"/><path fill="#555" d="M153.858 38.043c0 3.856-3.127 6.983-6.983 6.983s-6.983-3.127-6.983-6.983 3.127-6.983 6.983-6.983 6.983 3.127 6.983 6.983z"/></svg>