<?xml version="1.0" encoding="utf-8"?>
<!-- Generated by IcoMoon.io -->
<!DOCTYPE svg PUBLIC "-//W3C//DTD SVG 1.1//EN" "http://www.w3.org/Graphics/SVG/1.1/DTD/svg11.dtd">
<svg version="1.1" xmlns="http://www.w3.org/2000/svg" xmlns:xlink="http://www.w3.org/1999/xlink" width="32" height="32" viewBox="0 0 32 32">
<path fill="#f3c600" d="M6.212 9.271h7.953v13.459h-4.894c-0.676 0-1.223-0.548-1.223-1.223v-3.671s0-1.223-1.223-1.223h-0.612c-0.676 0-1.223-0.548-1.223-1.224v-4.894c0-0.675 0.547-1.223 1.223-1.223z"></path>
<path fill="#d72f44" d="M17.223 6.824c0 0.676 0.547 1.223 1.223 1.223h4.894c0.676 0 1.224-0.547 1.224-1.223s-0.548-1.223-1.224-1.223h-4.894c-0.676 0-1.223 0.547-1.223 1.223z"></path>
<path fill="#555" d="M14.777 25.176c0 0.676 0.547 1.223 1.223 1.223h9.788c0.676 0 1.223-0.547 1.223-1.223v-17.129c0-0.676-0.547-1.223-1.223-1.223h-9.788c-0.676 0-1.223 0.547-1.223 1.223v17.129z"></path>
</svg>
