<svg xmlns="http://www.w3.org/2000/svg" width="192" height="192" viewBox="0 0 192 192"><path fill="#555" d="M16.295 147.136l55.245-60.314v-67.294h-12.232v-12.232h73.41v12.232h-12.237v67.294l55.151 65.067c12.064 12.204 5.668 32.816-17.003 32.816h-124.705c-22.676 0-29.884-25.365-17.629-37.569z"/><path fill="#f3c600" d="M33.924 151.893l45.351-50.057v-16.677h34.007v16.677l45.346 50.057c11.336 11.116 5.294 20.575-7.559 20.575h-110.115c-15.071 0-18.366-9.458-7.031-20.575z"/><path fill="#d72f44" d="M84.985 121.412c0-4.65 3.847-8.413 8.581-8.413 4.739 0 8.576 3.763 8.576 8.413 0 4.645-3.838 8.417-8.576 8.417-4.734 0-8.582-3.772-8.582-8.417zm-2.549 33.651c2.96 0 5.36 2.358 5.36 5.257 0 2.909-2.4 5.266-5.36 5.266s-5.36-2.358-5.36-5.266c0-2.899 2.399-5.257 5.36-5.257zm23.222-12.871c3.838 0 6.951 3.053 6.951 6.807 0 3.763-3.114 6.816-6.951 6.816-3.829 0-6.938-3.053-6.938-6.816 0-3.754 3.109-6.807 6.938-6.807z"/></svg>