<svg xmlns="http://www.w3.org/2000/svg" width="192" height="192" viewBox="0 0 192 192"><path fill="#f3c600" d="M96 163.872c43.536 0 78.96-35.424 78.96-78.96 0-43.68-35.424-79.2-78.96-79.2s-78.96 35.568-78.96 79.248c0 43.488 35.424 78.912 78.96 78.912z"/><path fill="#735746" d="M128.16 82.704l-10.08 77.136h.144v20.64h-42.24v-20.64l-12.144-77.76h3.216l10.896 69.12 38.064.336 8.928-68.976 3.168.144z"/><path fill="#d72f44" d="M116.928 84.816c-1.584-1.536-3.84-2.112-6.144-2.112-3.024 0-5.76 1.2-7.392 3.552-1.584-2.4-4.32-3.552-7.44-3.552s-5.76 1.248-7.68 3.6c-1.584-2.4-4.32-3.6-7.44-3.6-2.256 0-4.32.48-5.76 1.92l-1.296 8.352c1.632-2.112 4.176-3.504 7.056-3.504 3.168 0 5.952 1.536 7.536 3.936 1.584-2.304 4.32-3.936 7.344-3.936s5.76 1.536 7.392 3.936c1.584-2.4 4.32-3.936 7.392-3.936s5.856 1.632 7.392 4.032l-1.296-8.64z"/><path fill="#555" d="M87.216 178.56h18.528v5.28h-18.528v-5.28z"/></svg>