<svg xmlns="http://www.w3.org/2000/svg" width="192" height="192" viewBox="0 0 192 192"><path fill="#57ac6e" d="M135.384 68.216c21.69 21.87 0 79.196 0 79.196s-56.857 21.869-78.546 0c-21.69-21.87-50.428-130.041-50.428-130.041s107.285 28.975 128.974 50.845z"/><path fill="#555" d="M168.542 174.629c5.178 0 17.049-3.208 17.049-3.208l-2.922-9.873s-15.76 8.046-22.688 5.603c-15.292-5.396-24.091-23.624-24.178-23.808l-.216-.383c-31.077-46.403-109.714-108.679-109.714-108.679l-.05-.092s74.079 66.288 104.674 111.932c1.133 2.304 10.631 20.727 27.495 26.677 3.459 1.221 6.985 1.831 10.552 1.831z"/></svg>