<svg xmlns="http://www.w3.org/2000/svg" width="192" height="192" viewBox="0 0 192 192"><path fill="#5e75ff" d="M66.149 35.637c0 17.7-13.107 32.05-29.275 32.05s-29.276-14.35-29.276-32.05c0-17.701 13.107-32.049 29.276-32.049s29.275 14.348 29.275 32.049z"/><path fill="#57ac6e" d="M122.015 35.637c0 17.7 13.107 32.05 29.275 32.05 16.169 0 29.276-14.35 29.276-32.05s-13.107-32.049-29.276-32.049c-16.167 0-29.275 14.348-29.275 32.049z"/><path fill="#8941b1" d="M184.378 95.186c0 42.88-38.897 77.641-86.879 77.641s-86.88-34.762-86.88-77.641c0-42.88 38.898-77.642 86.88-77.642s86.879 34.762 86.879 77.642z"/><path fill="#f3c600" d="M137.207 174.118c7.926-17.852-13.408-64.766-39.35-66.874v-.054c-1.235 0-.395.017-.618.025l-.618-.025v.054c-27.178 2.107-47.239 49.03-39.237 66.874 8.54 19.04 71.353 19.076 79.823 0z"/><path fill="#d72f44" d="M97.456 95.89c13.625.001 24.671 29.935 24.671 36.549l-.057.21c.056.353.022.104.057.751 0 5.557-11.046 22.108-24.671 22.108s-24.669-16.552-24.669-22.108c.035-.647.001-.398.057-.751l-.057-.21c0-6.613 11.045-36.548 24.669-36.548l-.001-.001z"/><path fill="#5e75ff" d="M49.384 120.496l-16.879 26.213c.001.001-11.48-9.926-15.639-22.562l32.518-3.651z"/><path fill="#d72f44" d="M145.34 120.316l33.053 3.242c-5.225 12.553-15.503 22.749-15.503 22.749l-17.55-25.99z"/><path fill="#404040" d="M66.549 97.766c4.043 0 7.319 3.589 7.319 8.013s-3.276 8.013-7.318 8.013-7.319-3.587-7.319-8.013c0-4.425 3.278-8.013 7.319-8.013zm62.179 0c4.042 0 7.319 3.589 7.319 8.013s-3.277 8.013-7.319 8.013-7.319-3.587-7.319-8.013c0-4.425 3.278-8.013 7.319-8.013z"/><path fill="#d72f44" d="M14.694 71.617l27.351 12.406-31.291 15.524c-1-15.824 3.94-27.93 3.939-27.93z"/><path fill="#f3c600" d="M179.713 70.021c5.601 14.691 4.623 27.605 4.622 27.604l-29.324-7.341 24.702-20.263zm-128.808-40.377l7.925 31.448-28.833-14.783c7.898-10.278 20.909-16.664 20.908-16.665z"/><path fill="#d72f44" d="M139.423 27.166c.001.001 13.81 5.875 22.22 15.653l-28.374 16.531 6.154-32.184z"/></svg>