<svg xmlns="http://www.w3.org/2000/svg" width="192" height="192" viewBox="0 0 192 192"><path fill="#555" d="M79.347 34.06l9.879 8.296c-17.9 19.829-35.8 39.658-53.705 59.488l41.408 66.976h19.334c9.1.001 16.479 7.663 16.479 17.113h-89.831c0-9.45 7.375-17.113 16.475-17.113l22.29-.001-43.045-68.438c0 .001 60.713-66.322 60.713-66.322z"/><path fill="#8941b1" d="M144.827 57.602c10.629 0 19.25 8.621 19.25 19.25s-8.621 19.25-19.25 19.25c-10.633 0-19.25-8.621-19.25-19.25s8.617-19.25 19.25-19.25z"/><path fill="#57ac6e" d="M86.269 5.747c9.608 8.067 19.221 16.134 28.834 24.196 4.129-2.804 9.058-4.004 13.85-5.113 2.958-.546 5.991-.525 8.987-.783 11.271.117 20.987 4.312 29.838 11.004 4.458 4.146 2.529 2.021 5.904 6.271-19.733 23.517-39.467 47.029-59.197 70.551-4.771-2.588-2.346-1.054-7.204-4.73-15.329-13.933-20.254-31.196-14.167-50.975l-28.846-24.205 22-26.217z"/></svg>