<svg xmlns="http://www.w3.org/2000/svg" width="192" height="192" viewBox="0 0 192 192"><path fill="#d5d5d5" d="M115.756 26.965h-38.734l-29.051 138.506h96.835z"/><path fill="#735746" d="M96.389 2.353l26.252 25.273h-52.504l13.127-12.637z"/><path fill="#d72f44" d="M95.563 36.812c0 4.666-3.783 8.447-8.447 8.447-4.666 0-8.449-3.781-8.449-8.447s3.783-8.447 8.449-8.447c4.665 0 8.447 3.781 8.447 8.447z"/><path fill="#57ac6e" d="M151.585 164.574h-111.171l-14.525 20.273h140.221z"/><path fill="#8941b1" d="M65.701 80.934l54.965-30.553-.62-3.322h-47.238zm-5.747 27.403l65.224-36.279 4.664 22.084-75.793 41.978zm-10.549 55.239l85.071-47.35 4.623 22.027-47.36 26.322h-43.58z"/><path fill="#555" d="M97.036 45.779h-32.281l6.029 5.023h51.21l6.025-5.023z"/></svg>