<svg xmlns="http://www.w3.org/2000/svg" width="192" height="192" viewBox="0 0 192 192"><path fill="#555" d="M102.815 2.851v37.972h-13.948v-37.972z"/><path fill="#5e75ff" d="M151.635 88.866h37.196v13.948h-37.196z"/><path fill="#555" d="M102.815 151.633v37.196h-13.948v-37.196zm-40.91-10.963l12.079 6.974-18.598 32.211-12.08-6.974zm74.391-128.846l12.08 6.974-18.989 32.881-12.074-6.974z"/><path fill="#d72f44" d="M44.706 74.369l-32.881-18.984 6.974-12.079 32.882 18.988z"/><path fill="#5e75ff" d="M2.852 88.866h37.972v13.948h-37.972v-13.948z"/><path fill="#555" d="M11.825 136.295l32.211-18.598 6.974 12.08-32.211 18.598-6.974-12.079zm168.033-80.91l-32.882 18.984-6.974-12.075 32.881-18.988 6.974 12.079z"/><path fill="#d72f44" d="M147.646 117.697l32.211 18.598-6.974 12.079-32.212-18.598z"/><path fill="#f3c700" d="M129.778 140.67l18.598 32.212-12.079 6.974-18.598-32.211zm-67.483-88.991l-18.988-32.881 12.079-6.974 18.983 32.882z"/></svg>