<svg xmlns="http://www.w3.org/2000/svg" width="192" height="192" viewBox="0 0 192 192"><path fill="#735746" d="M5.218 122.312h40.081v-60.122h-40.081z"/><path fill="#f3c600" d="M53.754 143.217v-36.928l16.7.187 30.699-77.734 52.803.211v54.142l33.401-.085.119 60.206h-133.723z"/><path fill="#57ac6e" d="M145.501 36.475v39.941l-38.306 30.061h-36.741l27.699-70.142z"/><path fill="#555" d="M124.293 146.557c0 9.222 7.478 16.701 16.7 16.701s16.701-7.478 16.701-16.701c0-9.222-7.478-16.7-16.701-16.7s-16.7 7.478-16.7 16.7zm-49.822 0c0 9.222 7.478 16.701 16.701 16.701s16.7-7.478 16.7-16.701c0-9.222-7.478-16.7-16.7-16.7s-16.701 7.478-16.701 16.7zM53.939 130.769l-49.295.981v5.15l49.295 10.3v-16.432z"/></svg>