<svg xmlns="http://www.w3.org/2000/svg" width="192" height="192" viewBox="0 0 192 192"><path fill="#555" d="M55.597 74.785c0-22.367 18.196-40.715 40.562-40.562 21.76.148 40.562 18.196 40.562 40.562h23.86c0-35.523-28.899-65.383-64.423-65.383s-64.423 29.859-64.423 65.383z"/><path fill="#d72f44" d="M9.734 74.844l172.302-.141.23 107.882-171.431.014z"/><path fill="#404040" d="M95.885 103.619c10.546 0 19.088 8.547 19.088 19.088 0 7.048-3.861 13.133-9.544 16.44v12.193c0 5.269-4.27 9.544-9.544 9.544-5.269 0-9.544-4.275-9.544-9.544v-12.193c-5.678-3.307-9.544-9.392-9.544-16.44 0-10.541 8.547-19.088 19.088-19.088z"/></svg>