<?xml version="1.0" encoding="utf-8"?>
<!-- Generated by IcoMoon.io -->
<!DOCTYPE svg PUBLIC "-//W3C//DTD SVG 1.1//EN" "http://www.w3.org/Graphics/SVG/1.1/DTD/svg11.dtd">
<svg version="1.1" xmlns="http://www.w3.org/2000/svg" xmlns:xlink="http://www.w3.org/1999/xlink" width="32" height="32" viewBox="0 0 32 32">
<path fill="#56545c" d="M23.947 7.1v19.389c0 1.053-3.558 1.907-7.947 1.907s-7.947-0.854-7.947-1.907v-19.389h15.893z"></path>
<path fill="#d63f31" d="M8.053 22.993h15.893v3.497c0 1.053-3.558 1.907-7.947 1.907s-7.947-0.854-7.947-1.907v-3.497z"></path>
<path fill="#aa7e5f" d="M16 22.039c4.389 0 7.947 0.569 7.947 1.271s-3.558 1.271-7.947 1.271-7.947-0.569-7.947-1.271 3.558-1.271 7.947-1.271z"></path>
<path fill="#56545c" d="M16 5.609c4.389 0 7.947 0.619 7.947 1.381s-3.558 1.381-7.947 1.381-7.947-0.619-7.947-1.381c0-0.762 3.558-1.381 7.947-1.381z"></path>
<path fill="#56545c" d="M17.589 3.603c0.702 0 1.271 0.569 1.271 1.271v2.861c0 0.351-1.281 0.636-2.861 0.636s-2.861-0.285-2.861-0.636v-2.861c0-0.702 0.569-1.271 1.271-1.271h3.179z"></path>
</svg>
