<svg xmlns="http://www.w3.org/2000/svg" width="192" height="192" viewBox="0 0 192 192"><path fill="#7d4241" d="M159.782 69.87h-13.37v13.371h13.37z"/><path fill="#619af4" d="M101.843 27.249h-13.37v13.371h13.37z"/><path fill="#555" d="M17.164 132.546h13.37v-13.651h11.207v-13.37h-11.207v-13.633h-13.37v13.633h-12.443v13.37h12.443v13.651zm170.115 30.197l-25.212 25.213-100.365-101.507 25.213-25.213z"/><path fill="#8941b1" d="M30.797 55.234l25.212-25.212 31.514 31.514-25.213 25.213z"/><path fill="#57ac6e" d="M146.411 48.702v12.254h-11.031v13.37h11.031v13.652h13.37v-13.652h10.078v-13.37h-10.078v-12.254l-13.37.001z"/><path fill="#555" d="M88.473 4.06c-.275-.562 0 14.275 0 14.275h-10.801v13.371h10.801v13.652h13.37v-13.652h10.671v-13.37l-10.671-.001v-14.275s-13.095.562-13.37 0z"/></svg>