<?xml version="1.0" encoding="utf-8"?>
<!-- Generated by IcoMoon.io -->
<!DOCTYPE svg PUBLIC "-//W3C//DTD SVG 1.1//EN" "http://www.w3.org/Graphics/SVG/1.1/DTD/svg11.dtd">
<svg version="1.1" xmlns="http://www.w3.org/2000/svg" xmlns:xlink="http://www.w3.org/1999/xlink" width="32" height="32" viewBox="0 0 32 32">
<path fill="#3b9f5d" d="M10.349 24.762l5.651 1.541 0.015-0.005c1.713-0.514 3.425-1.027 5.137-1.541l0.016 0.004 5.651 1.541v-20.092l-5.667-1.545-5.152 1.545-5.667-1.545-5.152 1.545v20.092l5.152-1.545 0.016 0.004z"></path>
<path fill="#fff" d="M21.152 4.665l-1.269 0.381c-3.289 5.697-6.579 11.394-9.867 17.091l0.892 0.515 10.365-17.954-0.121-0.033z"></path>
<path fill="#56545c" d="M5.181 12.848v13.455l5.152-1.546 0.016 0.005 5.651 1.541 0.015-0.005 5.137-1.541 0.016 0.005 5.651 1.541v-5.603l-5.667 0.708-5.667-4.894-6.439 3.607c-1.288-2.425-2.577-4.849-3.864-7.273z"></path>
<path fill="#fff" d="M6.081 5.941l-0.9 0.27v0.556l21.637 5.797v-1.067c-6.912-1.852-13.825-3.704-20.737-5.557z"></path>
<path fill="#f5b401" d="M15.427 8.787c-1.77 0-3.205 1.395-3.205 3.119 0 1.74 1.313 2.584 1.335 2.599 1.069 1.039 1.488 2.412 1.77 3.899h0.181c0.227-1.42 0.72-2.859 1.801-3.909 0.185-0.185 1.324-1.002 1.324-2.589 0-1.723-1.435-3.119-3.206-3.119z"></path>
</svg>
