<svg xmlns="http://www.w3.org/2000/svg" width="192" height="192" viewBox="0 0 192 192"><path fill="#555" d="M187.541 161.775l.004-144.302-47.908-13.066-43.553 13.066-47.908-13.066-43.553 13.066-.169 150.328z"/><path fill="#bfbfbf" d="M4.465 73.578v114.015l43.711-13.33 48.035 13.027 44.69-5.554 46.645 5.594v-47.363l-47.398-7.942-48.419-27.445-55.902 20.665-31.361-51.666z"/><path fill="#d72f44" d="M96.818 46.894c-14.967 0-26.866 10.698-26.764 25.262.106 15.071 25.917 56.036 25.917 56.036.219.242 27.937-41.492 27.199-57.722-.662-14.549-11.387-23.576-26.352-23.576z"/></svg>