<svg xmlns="http://www.w3.org/2000/svg" width="192" height="192" viewBox="0 0 192 192"><path fill="#d72f44" d="M96 4.456c48.148 0 87.184 35.131 87.184 78.466-1.8 35.035-16.866 51.517-45.479 68.906-12.175 13.727-26.177 25.911-41.705 35.715-1.914-8.77-3.697-17.567-5.31-26.395-43.741-1.399-79.429-34.686-81.874-78.226 0-43.335 39.032-78.466 87.184-78.466z"/><path fill="#f3c600" d="M87.282 82.922c0-4.817 3.906-8.719 8.718-8.719 4.817 0 8.718 3.901 8.718 8.719s-3.901 8.718-8.718 8.718c-4.813 0-8.718-3.901-8.718-8.718zm-41.114 0c0-4.817 3.906-8.719 8.718-8.719 4.817 0 8.719 3.901 8.719 8.719s-3.901 8.718-8.719 8.718c-4.813 0-8.718-3.901-8.718-8.718zm84.147 0c0-4.817 3.906-8.719 8.719-8.719 4.817 0 8.718 3.901 8.718 8.719s-3.901 8.718-8.718 8.718c-4.813 0-8.719-3.901-8.719-8.718z"/></svg>