<?xml version="1.0" encoding="utf-8"?>
<!-- Generated by IcoMoon.io -->
<!DOCTYPE svg PUBLIC "-//W3C//DTD SVG 1.1//EN" "http://www.w3.org/Graphics/SVG/1.1/DTD/svg11.dtd">
<svg version="1.1" xmlns="http://www.w3.org/2000/svg" xmlns:xlink="http://www.w3.org/1999/xlink" width="32" height="32" viewBox="0 0 32 32">
<path fill="#5e75ff" d="M24.803 5.126c0.125-0.975-0.489-2.043-1.585-1.934-4.684-0.069-9.381-0.016-14.069-0.024-0.971-0.125-2.043 0.489-1.935 1.585-0.064 5.756-0.020 11.516-0.020 17.271-0.076 0.863 0.462 1.557 0.931 2.219 14.152-0.1 14.947-0.060 15.742 0 0.474-0.658 1.012-1.356 0.931-2.219 0.017-5.631 0.009-11.267 0.004-16.898z"></path>
<path fill="#555" d="M23.219 7.964c-4.813-0.056-9.629-0.056-14.441 0-0.065 2.673-0.065 5.346 0 8.019 4.812 0.056 9.628 0.061 14.441 0 0.064-2.673 0.064-5.346 0-8.019z"></path>
<path fill="#f3c600" d="M22.259 17.701c-0.779-0.329-1.862 0.008-2.139 0.855-0.325 0.779 0.004 1.863 0.855 2.14 0.778 0.325 1.862-0.004 2.139-0.855 0.329-0.779-0.004-1.863-0.855-2.139zM11.025 17.701c-0.779-0.329-1.867 0.004-2.143 0.855-0.325 0.779 0.008 1.863 0.855 2.14 0.783 0.325 1.867-0.004 2.14-0.855 0.333-0.779-0.005-1.863-0.851-2.139z"></path>
<path fill="#555" d="M23.869 24.243c-0.795-0.060-1.59-0.1-2.393-0.136 0.434 0.514 0.875 1.020 1.321 1.521-4.531-0.008-9.067-0.008-13.599 0 0.446-0.501 0.891-1.003 1.317-1.521-0.795 0.036-1.589 0.072-2.388 0.136-1.011 1.108-2.147 2.1-3.127 3.239-0.425 0.414-0.273 1.092 0.229 1.365 1.301 0.045 1.766-1.806 3.111-1.609h15.313c1.349-0.201 1.815 1.657 3.114 1.605 0.51-0.269 0.659-0.947 0.233-1.361-0.983-1.136-2.115-2.131-3.131-3.239z"></path>
</svg>
