<svg xmlns="http://www.w3.org/2000/svg" width="192" height="192" viewBox="0 0 192 192"><path fill="#5e75ff" d="M164.959 5.6h-137.918l.386 143.327 137.532.133v-143.459z"/><path fill="#555" d="M148.304 21.622h-104.607v67.688h104.607v-67.688z"/><path fill="#f3c600" d="M141.53 101.756c-5.639-2.386-13.487.058-15.495 6.191-2.353 5.639.029 13.491 6.191 15.499 5.639 2.357 13.491-.029 15.499-6.196 2.382-5.639-.029-13.491-6.195-15.495zm-81.377 0c-5.639-2.386-13.52.029-15.524 6.191-2.357 5.639.058 13.49 6.191 15.499 5.669 2.353 13.52-.029 15.5-6.196 2.411-5.639-.034-13.491-6.166-15.495z"/><path fill="#555" d="M153.19 148.506l-17.329-.027 9.565 10.697h-98.503l9.536-10.697-17.296.347-31.053 33.325 22.021 3.863 10.571-15.177h110.919l11.019 15.563 21.248-5.408-30.698-32.486z"/></svg>