<svg xmlns="http://www.w3.org/2000/svg" width="192" height="192" viewBox="0 0 192 192"><path fill="#555" d="M168.913 51.028v21.032c-1.203 40.048-26.778 64.623-64.5 72.338v27.217h19.631v16.826h-56.087v-16.826h19.63v-27.218c-37.593-5.623-62.598-34.762-64.499-72.337v-21.032h16.826v21.032c.001 30.921 25.167 56.087 56.087 56.087 30.926.001 56.086-25.165 56.086-56.086v-21.032z"/><path fill="#8941b1" d="M143.831 3.56v69.133c0 26.416-21.415 47.831-47.831 47.831s-47.831-21.414-47.831-47.831v-69.133z"/><path fill="#f3c600" d="M48.063 20.592h25.823v10.989h-25.823v-10.989z"/></svg>