<svg xmlns="http://www.w3.org/2000/svg" width="192" height="192" viewBox="0 0 192 192"><path fill="#555" d="M74.977 55.436c10.934 0 19.797 8.864 19.797 19.797s-8.863 19.797-19.797 19.797c-2.401-.043-4.86-.378-7.088-1.32-1.738 6.122-2.359 12.488-2.449 18.829.011 9.85 1.9 19.694 5.979 28.68 2.827-4.829 8.114-7.242 13.534-7.48 5.864.083 11.957 5.462 14.782 10.647l20.507.089v-25.596l-27.554-.169v-7.515h69.421v7.515l-27.91.169v30.964h-32.653l6.106 24.422h25.294l8.587 12.345h-111.644l8.588-12.345h25.174l1.861-9.307c-11.147-11.494-15.417-27.812-15.764-43.429.224-11.96 2.573-24.53 9.169-34.739-2.488-3.379-3.633-7.398-3.738-11.556 0-10.933 8.863-19.797 19.797-19.797z"/><path fill="#57ac6e" d="M94.838 158.967c0 5.039-4.085 9.125-9.125 9.125-5.038 0-9.125-4.085-9.125-9.125s4.086-9.125 9.125-9.125c5.04 0 9.125 4.085 9.125 9.125zm-10.049-83.734c0 5.419-4.393 9.812-9.812 9.812s-9.812-4.393-9.812-9.812 4.393-9.812 9.812-9.812 9.812 4.393 9.812 9.812z"/><path fill="#d72f44" d="M134.835 80.938l-24.544 24.544-69.121-69.121 24.544-24.544z"/><path fill="#8941b1" d="M60.716 16.814l-14.549 14.549-11.423-11.423 14.549-14.549z"/><path fill="#f3c600" d="M134.329 90.427l-14.549 14.549-4.573-4.573 14.549-14.549z"/></svg>