<svg xmlns="http://www.w3.org/2000/svg" width="192" height="192" viewBox="0 0 192 192"><path fill="#735746" d="M118.552 39.745l-45.017.111-28.678 146.342h102.765l-29.07-146.454z"/><path fill="#d72f44" d="M48.8 5.801l-25.458 25.458 40.412 33.065 18.111-18.111-33.065-40.412z"/><path fill="#f3c600" d="M128.243 64.324l40.415-33.065-25.462-25.458-33.065 40.412 18.111 18.111zm-64.489 26.508l-40.412 33.065 25.462 25.458 33.065-40.412z"/><path fill="#57ac6e" d="M128.245 90.832l-18.111 18.111 33.065 40.412 25.458-25.458-40.412-33.065z"/><path fill="#5e75ff" d="M109.417 77.816c0 7.985-6.472 14.457-14.457 14.457s-14.457-6.472-14.457-14.457 6.472-14.457 14.457-14.457 14.457 6.472 14.457 14.457z"/></svg>