<svg xmlns="http://www.w3.org/2000/svg" width="192" height="192" viewBox="0 0 192 192"><path fill="#57ac6e" d="M8.548 83.791c4.502-4.501 11.798-4.501 16.299 0l7.201 7.202v-31.816c0-20.308 18.183-36.771 40.613-36.771s40.613 16.463 40.613 36.771v91.655h-81.227l-23.5-50.74c-4.501-4.501-4.501-11.798 0-16.3z"/><path fill="#f3c600" d="M26.561 164.002h92.751v-13.171h-92.751z"/><path fill="#d72f44" d="M176.018 125.613c0-6.365-5.161-11.525-11.525-11.525h-10.184l22.497-22.497c14.361-14.36 13.144-38.859-2.716-54.719s-40.359-17.077-54.719-2.716l-64.809 64.809 57.435 57.436 52.497-19.262c6.365 0 11.525-5.159 11.525-11.525z"/><path fill="#8941b1" d="M106.563 169.595l-65.585-65.585 9.314-9.315 65.585 65.585z"/></svg>