<?xml version="1.0" encoding="utf-8"?>
<!-- Generated by IcoMoon.io -->
<!DOCTYPE svg PUBLIC "-//W3C//DTD SVG 1.1//EN" "http://www.w3.org/Graphics/SVG/1.1/DTD/svg11.dtd">
<svg version="1.1" xmlns="http://www.w3.org/2000/svg" xmlns:xlink="http://www.w3.org/1999/xlink" width="32" height="32" viewBox="0 0 32 32">
<path fill="#eaeaea" d="M8.005 2.425l2.091 15.025c0.214 1.029 1.367 1.618 2.261 1.618h7.287c0.893 0 2.047-0.589 2.261-1.618l2.091-15.025h-15.991z"></path>
<path fill="#555" d="M21.79 19.069h-11.58c-0.933 0-1.69 0.756-1.69 1.85v8.656h14.96v-8.656c0-1.094-0.757-1.85-1.69-1.85z"></path>
<path fill="#d72f44" d="M18.145 24.402c0 1.184-0.96 2.145-2.144 2.145-1.185 0-2.145-0.961-2.145-2.145s0.959-2.145 2.145-2.145c1.184 0 2.144 0.961 2.144 2.145z"></path>
<path fill="#fff" d="M15.438 25.651l-0.683-0.682 1.807-1.807 0.683 0.683-1.807 1.807z"></path>
<path fill="#57ac6e" d="M10.37 11.965l0.621 4.468c0.182 0.873 1.161 1.373 1.919 1.373h6.18c0.759 0 1.737-0.5 1.919-1.373l0.622-4.468h-11.261z"></path>
</svg>
