<svg xmlns="http://www.w3.org/2000/svg" width="192" height="192" viewBox="0 0 192 192"><path fill="#ba9801" d="M189.701 124.642c-.383-17.932-46.954-22.737-74.534-22.737s-74.15 4.805-74.534 22.737h-.035v23.158c0 18.07 46.874 22.888 74.569 22.888s74.57-4.846 74.57-22.995v-23.051z"/><path fill="#f3c600" d="M115.167 147.794c-27.694 0-74.569-4.829-74.569-22.938 0-18.117 46.875-22.95 74.569-22.95s74.57 4.834 74.57 22.95c0 18.109-46.875 22.938-74.57 22.938z"/><path fill="#ba9801" d="M172.413 82.787c-.383-17.932-46.954-22.737-74.534-22.737s-74.151 4.805-74.534 22.737h-.035v23.158c0 18.071 46.874 22.888 74.57 22.888 27.694 0 74.569-4.846 74.569-22.995v-23.051z"/><path fill="#f3c600" d="M97.879 105.94c-27.695 0-74.57-4.829-74.57-22.938 0-18.117 46.874-22.95 74.57-22.95 27.694 0 74.569 4.834 74.569 22.95 0 18.11-46.875 22.938-74.569 22.938z"/><path fill="#ba9801" d="M151.367 44.049c-.383-17.932-46.954-22.736-74.534-22.736s-74.151 4.804-74.534 22.736h-.035v23.158c0 18.07 46.874 22.888 74.569 22.888s74.57-4.846 74.57-22.995v-23.051z"/><path fill="#f3c600" d="M76.833 67.201c-27.695 0-74.57-4.828-74.57-22.938 0-18.116 46.874-22.95 74.57-22.95s74.569 4.834 74.569 22.95c0 18.11-46.874 22.938-74.569 22.938z"/></svg>