<svg xmlns="http://www.w3.org/2000/svg" width="192" height="192" viewBox="0 0 192 192"><path fill="#8941b1" d="M3.255 66.338l.681 97.21 161.612-1.93.425-95.716-162.718.436z"/><path fill="#555" d="M183.341 135.034l-.386-98.477-153.995 1.698-1.93 98.052z"/><path fill="#d72f44" d="M23.17 28.453c-.98 95.195-.386 110.83-.386 110.83h165.96l-1.158-110.83h-164.416zm29.646 13.778h104.042c-2.566 6.363-1.945 3.381-2.467 8.792 0 9.645 7.483 17.459 16.712 17.459 5.141-.545 2.33.1 8.291-2.519v39.261c-5.962-2.619-3.151-1.979-8.291-2.519-9.229.004-16.712 7.818-16.712 17.45.518 5.368-.099 2.433 2.413 8.658h-103.934c2.508-6.225 1.895-3.29 2.413-8.658 0-9.632-7.483-17.446-16.712-17.45-5.191.55-2.33-.1-8.425 2.576v-39.373c6.095 2.675 3.234 2.026 8.425 2.576 9.229 0 16.712-7.814 16.712-17.455-.523-5.416.095-2.433-2.467-8.797z"/><path fill="#5e75ff" d="M83.755 83.495c0 10.328 8.374 18.699 18.699 18.699 10.328 0 18.699-8.371 18.699-18.699s-8.371-18.699-18.699-18.699c-10.325 0-18.699 8.371-18.699 18.699z"/></svg>