<?xml version="1.0" encoding="utf-8"?>
<!-- Generated by IcoMoon.io -->
<!DOCTYPE svg PUBLIC "-//W3C//DTD SVG 1.1//EN" "http://www.w3.org/Graphics/SVG/1.1/DTD/svg11.dtd">
<svg version="1.1" xmlns="http://www.w3.org/2000/svg" xmlns:xlink="http://www.w3.org/1999/xlink" width="32" height="32" viewBox="0 0 32 32">
<path fill="#8941b1" d="M4.838 10.835l-0.001 0.001h-0.018c-1.265 0-2.291 1.026-2.291 2.291v9.167l0.047 0.461c0.331 1.138 1.106 1.731 2.263 1.848l0.175-0.018 18.139 0.017c1.276 0.001 2.31-1.033 2.31-2.309l-0.019-0.183v-8.984c0-1.265-1.026-2.291-2.291-2.291l-18.314-0.001z"></path>
<path fill="#555" d="M27.162 20.575c0.948 0 1.719-0.771 1.719-1.719v-9.167c0-0.947-0.771-1.719-1.719-1.719h-18.332c-0.948 0-1.719 0.771-1.719 1.719v9.167c0 0.947 0.771 1.719 1.719 1.719h18.332z"></path>
<path fill="#d72f44" d="M8.83 7.397c-1.266 0-2.292 1.027-2.292 2.292v9.166l0.047 0.462c0.331 1.138 1.106 1.731 2.263 1.847l0.175-0.018 18.139 0.018c1.276 0.001 2.31-1.033 2.31-2.309l-0.018-0.182v-8.784l0.018-0.183c-0.108-1.387-0.663-1.765-1.848-2.262l-0.329-0.033-0.133-0.014h-18.332zM10.817 8.543h14.377c-0.355 0.842-0.269 0.447-0.341 1.163 0 1.277 1.034 2.311 2.309 2.311 0.711-0.072 0.322 0.013 1.146-0.333v5.195c-0.824-0.347-0.435-0.262-1.146-0.333-1.275 0.001-2.309 1.035-2.309 2.309 0.072 0.71-0.013 0.322 0.333 1.146h-14.362c0.347-0.824 0.262-0.436 0.333-1.146 0-1.275-1.034-2.309-2.309-2.309-0.717 0.073-0.322-0.013-1.164 0.341v-5.21c0.842 0.354 0.447 0.268 1.164 0.341 1.275 0 2.309-1.034 2.309-2.31-0.072-0.717 0.013-0.322-0.341-1.164z"></path>
<path fill="#5e75ff" d="M14.559 14.273c0 1.899 1.539 3.437 3.437 3.437s3.437-1.539 3.437-3.437-1.539-3.437-3.437-3.437c-1.898 0-3.437 1.539-3.437 3.437z"></path>
</svg>
