<svg xmlns="http://www.w3.org/2000/svg" width="192" height="192" viewBox="0 0 192 192"><path fill="#555" d="M159.538 8.929c15.929 0 28.841 14.912 28.841 33.307.032 9.985-3.908 19.375-11.117 26.245 4.545 9.949 6.55 20.834 6.697 31.723 0 45.766-39.353 82.867-87.897 82.867-48.545 0-87.898-37.101-87.898-82.867.039-10.854 2.21-21.722 6.659-31.64-7.501-6.746-10.986-16.405-11.204-26.327 0-18.395 12.911-33.307 28.841-33.307 10.841.106 20.477 7.132 25.031 16.816 12.055-5.701 25.291-8.25 38.57-8.409 13.274-.043 26.398 2.88 38.467 8.362 4.544-9.823 14.206-16.454 25.01-16.77z"/><path fill="#eaeaea" d="M168.004 94.26c0-23.37-17.804-42.315-39.766-42.315-13.027 0-24.59 6.667-31.844 16.967-7.199-10.859-19.071-17.96-32.51-17.96-21.962 0-39.766 18.944-39.766 42.314 0 17.909 10.461 33.208 25.229 39.385l-.001.05c0 23.37 20.915 42.315 46.715 42.315 25.446 0 46.126-18.434 46.688-41.361 14.783-6.171 25.254-21.477 25.254-39.395z"/><path fill="#404040" d="M134.218 96.723c0 4.335-3.228 7.851-7.21 7.851-3.981 0-7.209-3.516-7.209-7.851 0-4.336 3.228-7.851 7.209-7.851 3.983 0 7.21 3.515 7.21 7.851zm-62.043 0c0 4.335-3.228 7.851-7.211 7.851s-7.209-3.516-7.209-7.851c0-4.336 3.227-7.851 7.209-7.851s7.211 3.515 7.211 7.851z"/><path fill="#d72f44" d="M113.543 135.798c0 4.132-7.784 16.438-17.387 16.438-9.602 0-17.386-12.305-17.386-16.438s7.784-7.481 17.386-7.481c9.603 0 17.387 3.349 17.387 7.481z"/></svg>