<?xml version="1.0" encoding="utf-8"?>
<!-- Generated by IcoMoon.io -->
<!DOCTYPE svg PUBLIC "-//W3C//DTD SVG 1.1//EN" "http://www.w3.org/Graphics/SVG/1.1/DTD/svg11.dtd">
<svg version="1.1" xmlns="http://www.w3.org/2000/svg" xmlns:xlink="http://www.w3.org/1999/xlink" width="32" height="32" viewBox="0 0 32 32">
<path fill="#f5b401" d="M26.933 6.889h-21.867c-0.671 0-1.215 0.544-1.215 1.215v15.792c0 0.671 0.544 1.215 1.215 1.215h21.867c0.671 0 1.215-0.544 1.215-1.215v-15.792c0-0.671-0.544-1.215-1.215-1.215z"></path>
<path fill="#f5b401" d="M16.35 15.403c-0.667-0.033-1.024-0.021-1.581 0.357-0.625 0.559-10.917 8.137-10.917 8.137v0.001c0.027 0.71 0.538 1.147 1.215 1.215h21.867c0.671 0 1.215-0.544 1.215-1.215 0 0-10.071-7.36-10.923-8.137-0.425-0.292-0.149-0.139-0.875-0.357z"></path>
<path fill="#f5b401" d="M5.067 6.889c-0.469 0.007-0.657 0.185-0.966 0.495 3.967 3.885 7.933 7.769 11.899 11.654 3.916-3.935 7.833-7.87 11.749-11.805l-0.107-0.107-0.046-0.036-0.243-0.103-0.182-0.074-0.237-0.024h-21.867z"></path>
</svg>
