<?xml version="1.0" encoding="utf-8"?>
<!-- Generated by IcoMoon.io -->
<!DOCTYPE svg PUBLIC "-//W3C//DTD SVG 1.1//EN" "http://www.w3.org/Graphics/SVG/1.1/DTD/svg11.dtd">
<svg version="1.1" xmlns="http://www.w3.org/2000/svg" xmlns:xlink="http://www.w3.org/1999/xlink" width="32" height="32" viewBox="0 0 32 32">
<path fill="#ec6205" d="M6.261 11.417c0.633 0 1.146-0.513 1.146-1.145v-1.719c0-0.633-0.513-1.146-1.146-1.146-0.632 0-1.145 0.513-1.145 1.146v1.719c0 0.632 0.513 1.145 1.145 1.145z"></path>
<path fill="#8941b1" d="M6.261 16.573c0.633 0 1.146-0.513 1.146-1.145v-1.719c0-0.633-0.513-1.146-1.146-1.146-0.632 0-1.145 0.513-1.145 1.146v1.719c0 0.632 0.513 1.145 1.145 1.145z"></path>
<path fill="#5e75ff" d="M6.261 21.729c0.633 0 1.146-0.513 1.146-1.145v-1.719c0-0.633-0.513-1.146-1.146-1.146-0.632 0-1.145 0.513-1.145 1.146v1.719c0 0.632 0.513 1.145 1.145 1.145zM6.834 25.166c0 1.266 1.026 2.292 2.291 2.292h13.749c1.266 0 2.291-1.026 2.291-2.292v-18.332c0-1.266-1.025-2.292-2.291-2.292h-13.749c-1.265 0-2.291 1.026-2.291 2.292v18.332z"></path>
<path fill="#555" d="M22.875 9.125c0 0.633 0.513 1.146 1.146 1.146h1.719c0.633 0 1.145-0.513 1.145-1.146s-0.513-1.146-1.145-1.146h-1.719c-0.633 0-1.146 0.513-1.146 1.146zM22.875 13.709c0 0.633 0.513 1.145 1.146 1.145h1.719c0.633 0 1.145-0.513 1.145-1.145s-0.513-1.146-1.145-1.146h-1.719c-0.633 0-1.146 0.513-1.146 1.146zM22.875 18.291c0 0.633 0.513 1.146 1.146 1.146h1.719c0.633 0 1.145-0.513 1.145-1.146s-0.513-1.145-1.145-1.145h-1.719c-0.633 0-1.146 0.513-1.146 1.145zM22.875 22.875c0 0.633 0.513 1.146 1.146 1.146h1.719c0.633 0 1.145-0.513 1.145-1.146s-0.513-1.146-1.145-1.146h-1.719c-0.633 0-1.146 0.513-1.146 1.146z"></path>
</svg>
