<svg xmlns="http://www.w3.org/2000/svg" width="192" height="192" viewBox="0 0 192 192"><path fill="#d72f44" d="M96 103.524c-8.296 0-15.049-6.753-15.049-15.049v-67.717c0-8.303 6.753-15.048 15.049-15.048 8.302 0 15.049 6.745 15.049 15.048v67.717c0 8.296-6.746 15.049-15.049 15.049z"/><path fill="#57ac6e" d="M96 186.29c-45.629 0-82.766-37.128-82.766-82.766 0-31.695 18.568-61.016 47.291-74.69 1.175-.551 2.542-.471 3.63.216 1.086.688 1.748 1.885 1.748 3.178v26.233c0 1.187-.551 2.3-1.498 3.005-13.388 10.082-21.074 25.412-21.074 42.059 0 29.039 23.63 52.669 52.669 52.669 29.047 0 52.669-23.63 52.669-52.669 0-16.646-7.678-31.977-21.074-42.059-.94-.706-1.498-1.818-1.498-3.005v-26.233c0-1.293.661-2.49 1.756-3.178 1.088-.687 2.462-.767 3.623-.216 28.73 13.674 47.291 42.995 47.291 74.69 0 45.638-37.121 82.765-82.766 82.765z"/></svg>