<svg xmlns="http://www.w3.org/2000/svg" width="192" height="192" viewBox="0 0 192 192"><path fill="#555" d="M78.771 46.255v22.972h34.457v-22.398h11.486v22.398l63.172 53.487-11.486 61.371h-160.802l-11.486-61.371 63.172-53.487v-22.972h11.486z"/><path fill="#f3c600" d="M130.458 115.17c0-19.026-15.431-34.457-34.458-34.457s-34.457 15.431-34.457 34.457 15.431 34.458 34.457 34.458 34.458-15.431 34.458-34.458z"/><path fill="#555" d="M78.771 115.17c0-3.176-2.567-5.743-5.743-5.743s-5.743 2.567-5.743 5.743 2.567 5.743 5.743 5.743 5.743-2.567 5.743-5.743zm-3.073-20.302c-2.246 2.246-2.246 5.875 0 8.121s5.875 2.246 8.121 0 2.245-5.875 0-8.121c-2.246-2.245-5.875-2.245-8.121 0zm20.302-8.406c-3.176-.006-5.743 2.567-5.743 5.743 0 3.17 2.567 5.737 5.743 5.743 3.176-.006 5.743-2.573 5.743-5.743 0-3.176-2.567-5.743-5.743-5.743zm20.302 8.406c-2.246-2.246-5.875-2.246-8.121 0s-2.246 5.875 0 8.121c2.246 2.246 5.875 2.246 8.121 0s2.246-5.87 0-8.121zm2.67 14.559c-3.176 0-5.743 2.567-5.743 5.743s2.567 5.743 5.743 5.743c3.17 0 5.731-2.567 5.743-5.743 0-3.176-2.567-5.743-5.743-5.743zm-22.972 22.972c-3.176 0-5.743 2.567-5.743 5.743s2.561 5.731 5.743 5.743c3.176 0 5.743-2.567 5.743-5.743s-2.567-5.743-5.743-5.743zm-20.302-5.047c-2.246 2.245-2.246 5.864 0 8.121 2.246 2.251 5.875 2.246 8.121 0s2.245-5.869 0-8.121c-2.246-2.246-5.875-2.246-8.121 0z"/><path fill="#d72f44" d="M100.136 128.002l15.885 15.885 8.121-8.12-15.885-15.885-8.121 8.121z"/><path fill="#57ac6e" d="M182.144 7.915h-172.288v57.294h45.943l5.743-22.972h68.915l5.743 22.972h45.944z"/></svg>