<svg xmlns="http://www.w3.org/2000/svg" width="192" height="192" viewBox="0 0 192 192"><path fill="#555" d="M67.691 136.613c13.047 29.289-20.829 53.114-20.829 53.114l99.157-.044s-35.033-21.348-20.825-53.07c14.207-31.722-70.549-29.289-57.503 0z"/><path fill="#f3c600" d="M157.839 28.796l-123.026.67 17.767 107.606 86.487-.335 18.772-107.941z"/><path fill="#555" d="M67.925 1.954c-.865 20.454-47.115 21.235-47.115 21.235l.028 6.013 150.667.35-.194-6.318c-46.334-.825-47.198-21.279-47.198-21.279h-56.188z"/><path fill="#d72f44" d="M95.997 101.389c-9.943 0-18.003-8.06-18.003-18.003s8.06-18.003 18.003-18.003 18.003 8.06 18.003 18.003-8.061 18.003-18.003 18.003z"/></svg>