<svg xmlns="http://www.w3.org/2000/svg" width="192" height="192" viewBox="0 0 192 192"><path fill="#8941b1" d="M5.524 63.336v111.526h180.952v-111.526z"/><path fill="#d5d5d5" d="M126.159 104.395h-60.318c-4.156 0-7.539-3.38-7.539-7.539 0-4.162 3.383-7.541 7.539-7.541h60.318c4.157 0 7.539 3.38 7.539 7.541 0 4.159-3.382 7.539-7.539 7.539zm0-22.619h-60.318c-8.32 0-15.08 6.766-15.08 15.08 0 8.312 6.76 15.077 15.08 15.077h60.318c8.313 0 15.079-6.766 15.079-15.077 0-8.314-6.766-15.08-15.079-15.08z"/><path fill="#959595" d="M186.297 63.336l-21.619-46.198h-137.173l-21.801 46.198z"/><path fill="#f3c600" d="M156.317 21.569h-120.635v41.767h120.635z"/></svg>