<svg xmlns="http://www.w3.org/2000/svg" width="192" height="192" viewBox="0 0 192 192"><path fill="#57ac6e" d="M96.001 4.745c-70.197 0-70.197 63.176-70.197 63.176v119.334l28.079-28.079 21.058 28.079 21.06-28.079 21.058 28.079 21.058-28.079 28.079 28.079v-119.334s0-63.176-70.195-63.176z"/><path fill="#555" d="M134.607 63.977c-5.811 0-10.529 4.716-10.529 10.529v17.985c0 5.819 4.718 10.529 10.529 10.529 5.813 0 10.531-4.709 10.531-10.529v-17.985c0-5.813-4.718-10.529-10.531-10.529zm-42.118 0c-5.811 0-10.529 4.716-10.529 10.529v17.985c0 5.819 4.718 10.529 10.529 10.529 5.813 0 10.531-4.709 10.531-10.529v-17.985c0-5.813-4.718-10.529-10.531-10.529z"/></svg>