<svg xmlns="http://www.w3.org/2000/svg" width="192" height="192" viewBox="0 0 192 192"><path fill="#f3c600" d="M94.49 4.85c-35.393 0-74.548 22.24-87.316 64.857-6.453 21.494 21.482 12.88 23.379 37.895 1.553 20.459-4.61 27.334-5.951 39.635-1.814 16.525 36.757 41.416 71.396 39.842 50.842-2.319 89.793-40.214 89.793-91.114s-40.409-91.114-91.301-91.114z"/><path fill="#d72f44" d="M64.319 58.691c0 9.153-7.417 16.566-16.566 16.566s-16.566-7.414-16.566-16.566c0-9.153 7.418-16.566 16.566-16.566s16.566 7.414 16.566 16.566z"/><path fill="#57ac6e" d="M111.057 36.368c0 9.153-7.418 16.566-16.566 16.566s-16.566-7.414-16.566-16.566c0-9.153 7.418-16.566 16.566-16.566s16.566 7.413 16.566 16.566z"/><path fill="#5e75ff" d="M157.487 57.572c0 9.153-7.417 16.566-16.566 16.566s-16.566-7.413-16.566-16.566c0-9.153 7.418-16.566 16.566-16.566s16.566 7.414 16.566 16.566z"/><path fill="#8941b1" d="M169.813 109.507c0 9.153-7.418 16.566-16.566 16.566s-16.566-7.413-16.566-16.566c0-9.153 7.418-16.566 16.566-16.566s16.566 7.414 16.566 16.566z"/><path fill="#555" d="M132.195 150.219c0 9.153-7.418 16.566-16.566 16.566s-16.566-7.414-16.566-16.566c0-9.111 7.418-16.566 16.566-16.566s16.566 7.455 16.566 16.566z"/><path fill="#735746" d="M78.589 137.268c0 9.153-7.418 16.566-16.566 16.566s-16.566-7.414-16.566-16.566c0-9.111 7.417-16.566 16.566-16.566s16.566 7.455 16.566 16.566z"/></svg>