<svg xmlns="http://www.w3.org/2000/svg" width="192" height="192" viewBox="0 0 192 192"><path fill="#8941b1" d="M4.979 10.365l111.953-.331.051 171.815-112.23.117.226-171.601z"/><path fill="#f3c600" d="M116.932 10.034l70.314 86.595s-70.442-.155-70.353-.425c.089-.271.038-86.17.038-86.17z"/><path fill="#d5d5d5" d="M47.232 44.024c17.126-11.554 42.44 4.227 39.747 24.605-.709 18.698-24.118 30.775-39.747 20.341-16.678-9.122-16.64-35.896 0-44.946z"/><path fill="#404040" d="M54.038 57.448c7.404-6.43 20.192 1.347 17.873 10.882-.711 8.04-11.593 12.489-17.762 7.291-6.131-3.962-6.131-14.097-.111-18.172z"/></svg>