<svg xmlns="http://www.w3.org/2000/svg" width="192" height="192" viewBox="0 0 192 192"><path fill="#6a6a6a" d="M158.079 52.804c2.318-14.788-.016-24.845-8.012-33.956-8.806-10.031-24.709-14.331-45.059-14.331h-59.069l-27.936 168.963 37.022-.041 18.445-120.442z"/><path fill="#bfbfbf" d="M72.754 52.681s-9.653 63.937-9.303 64.417c.351.48 94.431-64.241 94.431-64.241z"/><path fill="#959595" d="M63.347 117.219l-10.427 70.263h41.072l6.848-39.461c.568-3.591 3.664-6.241 7.302-6.241h4.6c29.776 0 53.091-12.097 59.905-47.082 2.844-14.62 1.372-26.827-6.151-35.402-2.282-2.597-5.115-4.742-8.417-6.493z"/></svg>