<?xml version="1.0" encoding="utf-8"?>
<!-- Generated by IcoMoon.io -->
<!DOCTYPE svg PUBLIC "-//W3C//DTD SVG 1.1//EN" "http://www.w3.org/Graphics/SVG/1.1/DTD/svg11.dtd">
<svg version="1.1" xmlns="http://www.w3.org/2000/svg" xmlns:xlink="http://www.w3.org/1999/xlink" width="32" height="32" viewBox="0 0 32 32">
<path fill="#5e75ff" d="M13.135 20.44c0.089 1.231 0.169 2.567-0.304 3.74-0.081 0.2-0.221 0.371-0.331 0.557h-2.229c-0.633 0-1.146 0.513-1.146 1.145s0.513 1.146 1.146 1.146h11.457c0.633 0 1.146-0.513 1.146-1.146s-0.513-1.145-1.146-1.145h-2.228c-0.111-0.186-0.251-0.357-0.331-0.557-0.463-1.149-0.435-2.528-0.305-3.74h-5.729z"></path>
<path fill="#555" d="M25.166 20.44c0.79 0 1.433-0.642 1.433-1.433v-12.603c0-0.79-0.643-1.432-1.433-1.432h-18.332c-0.789 0-1.433 0.642-1.433 1.432v12.603c0 0.791 0.643 1.433 1.433 1.433h18.332z"></path>
</svg>
