<?xml version="1.0" encoding="utf-8"?>
<!-- Generated by IcoMoon.io -->
<!DOCTYPE svg PUBLIC "-//W3C//DTD SVG 1.1//EN" "http://www.w3.org/Graphics/SVG/1.1/DTD/svg11.dtd">
<svg version="1.1" xmlns="http://www.w3.org/2000/svg" xmlns:xlink="http://www.w3.org/1999/xlink" width="32" height="32" viewBox="0 0 32 32">
<path fill="#555" d="M15.781 6.114l4.021 4.192h6.737c0.776 0 1.405 0.647 1.405 1.446v12.292c0 0.799-0.629 1.446-1.405 1.446h-21.079c-0.775 0-1.405-0.647-1.405-1.446v-12.292c0-0.799 0.63-1.446 1.405-1.446h6.296l4.021-4.192 0.002 0.003 0.001-0.003zM15.78 7.247l-2.935 3.059h5.868l-2.933-3.059z"></path>
<path fill="#57ac6e" d="M4.759 21.671l-0.703 0.023v2.787c0 0.776 0.63 1.405 1.405 1.405h11.965c-3.391-3.136-8.201-4.072-12.667-4.215z"></path>
<path fill="#8941b1" d="M26.539 20.968c-4.551 0.136-10.225 1.227-13.375 4.918h13.375c0.776 0 1.405-0.629 1.405-1.405v-3.468l-1.405-0.045z"></path>
<path fill="#f3c600" d="M22.617 19.399c1.503 0 2.721-1.219 2.721-2.722s-1.219-2.721-2.721-2.721c-1.503 0-2.722 1.218-2.722 2.721s1.219 2.722 2.722 2.722z"></path>
</svg>
