<svg xmlns="http://www.w3.org/2000/svg" width="192" height="192" viewBox="0 0 192 192"><path fill="#555" d="M104.779 127.921h.239v45.089l-9.018 18.035-9.017-18.035v-45.089h.238z"/><path fill="#d72f44" d="M96 3.834c-29.881 0-54.107 5.582-54.107 18.035 1.159 11.214 13.761 14.87 22.545 18.198v63.278c-8.986 3.138-21.201 7.115-22.545 18.198 0 12.454 24.226 22.545 54.107 22.545 29.885 0 54.107-10.091 54.107-22.545-1.154-11.213-13.761-14.87-22.545-18.198v-63.278c8.986-3.138 21.206-7.115 22.545-18.198 0-12.454-24.222-18.035-54.107-18.035z"/></svg>