<svg xmlns="http://www.w3.org/2000/svg" width="192" height="192" viewBox="0 0 192 192"><path fill="#f3c600" d="M185.164 100.338l-119.046.039.079 25.672 45.097.046.173 59.169 28.388.316.17-59.485 45.164.179-.025-25.936z"/><path fill="#735746" d="M172.591 29.305c-21.073-29.534-69.704-30.76-92.003-2.056-18.266 20.164-13.917 48.749-14.471 73.658 39.695-.079 79.351-.079 119.046-.039-.909-24.039 4.072-51.438-12.573-71.563z"/><path fill="#57ac6e" d="M37.453 137.518c-15.934-5.654-33.093 9.884-30.365 26.253 1.424 18.741 28.427 27.162 40.565 13.007 12.929-11.307 6.326-35.425-10.201-39.26z"/></svg>