<?xml version="1.0" encoding="utf-8"?>
<!-- Generated by IcoMoon.io -->
<!DOCTYPE svg PUBLIC "-//W3C//DTD SVG 1.1//EN" "http://www.w3.org/Graphics/SVG/1.1/DTD/svg11.dtd">
<svg version="1.1" xmlns="http://www.w3.org/2000/svg" xmlns:xlink="http://www.w3.org/1999/xlink" width="32" height="32" viewBox="0 0 32 32">
<path fill="#d72f44" d="M24.328 16.219c0 0.289-0.013 0.579-0.042 0.868 2.027 2.277 2.976 4.248 2.289 5.195-0.596 0.822-2.313 0.709-4.582-0.133-0.683-0.254-1.418-0.575-2.187-0.956-1.639-0.812-3.436-1.899-5.243-3.21-2.792-2.025-5.068-4.191-6.477-6.041-1.353-1.778-1.907-3.262-1.337-4.045 0.658-0.907 2.676-0.677 5.299 0.417 0.273-0.126 0.554-0.235 0.839-0.33-4.909-2.517-8.984-3.289-10.185-1.633-1.163 1.601 0.667 5.054 4.327 8.791l0.012-0.111 0.029 0.153c1.634 1.663 3.629 3.381 5.883 5.017 1.029 0.747 2.057 1.435 3.069 2.063 1.116 0.692 2.211 1.309 3.267 1.843 4.829 2.445 8.824 3.181 10.011 1.545 1.228-1.693-0.887-5.452-4.972-9.431z"></path>
<path fill="#735746" d="M24.286 17.087c0.029-0.289 0.042-0.579 0.042-0.868-0.001-0.484-0.039-0.967-0.119-1.443-0.365-2.167-1.543-4.197-3.462-5.589-2.359-1.713-5.291-2.063-7.861-1.205-0.285 0.095-0.565 0.204-0.839 0.33-1.327 0.601-2.519 1.542-3.434 2.805-0.194 0.267-0.368 0.543-0.527 0.823 1.409 1.85 3.685 4.016 6.477 6.041 1.807 1.311 3.603 2.399 5.243 3.211 0.769 0.381 1.504 0.702 2.187 0.956 0.242-0.258 0.471-0.533 0.684-0.827 0.937-1.291 1.463-2.753 1.609-4.234z"></path>
<path fill="#f3c600" d="M12.953 20.2c-2.255-1.637-4.249-3.355-5.883-5.017l-0.041-0.042c-0.377 3.039 0.861 6.185 3.515 8.111 2.635 1.913 5.985 2.127 8.745 0.854-1.055-0.534-2.151-1.151-3.267-1.843-1.012-0.628-2.040-1.315-3.069-2.063z"></path>
</svg>
