<?xml version="1.0" encoding="utf-8"?>
<!-- Generated by IcoMoon.io -->
<!DOCTYPE svg PUBLIC "-//W3C//DTD SVG 1.1//EN" "http://www.w3.org/Graphics/SVG/1.1/DTD/svg11.dtd">
<svg version="1.1" xmlns="http://www.w3.org/2000/svg" xmlns:xlink="http://www.w3.org/1999/xlink" width="32" height="32" viewBox="0 0 32 32">
<path fill="#aaa" d="M23.289 4.256h-14.579v6.479h14.579v-6.479z"></path>
<path fill="#565860" d="M27.541 10.735h-23.083c-0.671 0-1.215 0.544-1.215 1.215v12.757c0 0.671 0.544 1.215 1.215 1.215h23.083c0.671 0 1.215-0.545 1.215-1.215v-12.757c0-0.671-0.545-1.215-1.215-1.215z"></path>
<path fill="#3b9f5d" d="M5.673 10.735v4.253c0 0.671 0.544 1.214 1.215 1.214h18.224c0.671 0 1.215-0.543 1.215-1.214v-4.253h-20.653z"></path>
<path fill="#aaa" d="M23.289 22.885h-14.579v4.859h14.579v-4.859z"></path>
</svg>
