<?xml version="1.0" encoding="utf-8"?>
<!-- Generated by IcoMoon.io -->
<!DOCTYPE svg PUBLIC "-//W3C//DTD SVG 1.1//EN" "http://www.w3.org/Graphics/SVG/1.1/DTD/svg11.dtd">
<svg version="1.1" xmlns="http://www.w3.org/2000/svg" xmlns:xlink="http://www.w3.org/1999/xlink" width="32" height="32" viewBox="0 0 32 32">
<path fill="#f3c600" d="M4.027 9.383h23.947c0.696 0 1.261 0.564 1.261 1.26v15.125c0 0.696-0.565 1.26-1.261 1.26h-23.947c-0.696 0-1.261-0.564-1.261-1.26v-15.125c0-0.696 0.565-1.26 1.261-1.26z"></path>
<path fill="#565860" d="M14.187 22.172c0 0.151-0.011 0.299-0.029 0.445h-7.505c-0.017-0.146-0.028-0.294-0.028-0.445 0-1.645 1.053-3.042 2.521-3.561-0.452-0.367-0.741-0.927-0.741-1.554 0-1.106 0.896-2.002 2.002-2.002s2.001 0.896 2.001 2.002c0 0.627-0.289 1.187-0.741 1.554 1.468 0.519 2.521 1.916 2.521 3.561z"></path>
<path fill="#aa7e5f" d="M23.639 20.726v1.261h-5.041v-1.261h5.041zM26.79 17.575v1.261h-8.192v-1.261h8.192zM26.79 14.425v1.26h-8.192v-1.26h8.192z"></path>
<path fill="#565860" d="M15.388 4.972h1.224c0.75 0 1.359 0.609 1.359 1.359v4.213c0 0.751-0.609 1.359-1.359 1.359h-1.224c-0.75 0-1.359-0.609-1.359-1.359v-4.213c0-0.751 0.609-1.359 1.359-1.359z"></path>
</svg>
