<svg xmlns="http://www.w3.org/2000/svg" width="192" height="192" viewBox="0 0 192 192"><path fill="#d5d5d5" d="M136.475 21.337c-23.667-24.354-68.605-20.846-87.278 7.81-6.215 9.61-11.434 31.906-11.434 31.906h116.181s-6.578-29.283-17.469-39.716z"/><path fill="#d72f44" d="M100.435 22.759c-8.782-4.415-19.331 6.13-14.973 14.945 2.908 8.264 15.599 9.465 20.047 1.965 4.106-5.617 1.482-14.515-5.074-16.909z"/><path fill="#d5d5d5" d="M169.238 70.863c-.659-7.271-14.973-9.81-14.973-9.81h-116.501s-8.36.358-13.631 5.673c-5.271 5.315-1.796 29.086-2.31 43.541-.627 25.149-5.186 75.415-5.186 75.415l29.166.313-6.958-20.642h114.311l-6.93 20.642 29.138-.313s-4.672-48.354-5.158-72.563c-.229-14.085 1.31-28.315-.968-42.255z"/><path fill="#555" d="M154.264 61.053h-116.501l.093 12.177h116.315l.093-12.177z"/><path fill="#5e75ff" d="M124.527 135.925c.029 3.793.029 7.589 0 11.41h-57.026c.028-3.82.028-7.617 0-11.41h57.026zm0-22.807c.029 3.793.029 7.585 0 11.406h-57.026c.028-3.821.028-7.613 0-11.406h57.026zm0-22.811c.029 3.793.029 7.585 0 11.406h-57.026c.028-3.82.028-7.613 0-11.406h57.026z"/><path fill="#555" d="M135.218 165.319h-78.407l12.15 10.841 55.261-.175 10.997-10.666z"/></svg>