<svg xmlns="http://www.w3.org/2000/svg" width="192" height="192" viewBox="0 0 192 192"><path fill="#8941b1" d="M45.611 103.27c12.922 15.322 31.556 23.02 50.389 23.034 18.832-.014 37.471-7.713 50.389-23.034 3.35-3.971 9.289-4.48 13.261-1.125 3.976 3.35 4.48 9.289 1.13 13.261-16.743 19.849-40.859 29.735-64.778 29.721-23.919.014-48.035-9.872-64.778-29.721-3.35-3.972-2.847-9.91 1.125-13.261 3.976-3.35 9.915-2.847 13.265 1.125z"/><path fill="#555" d="M86.589 27.89v-23.528s19.209.027 18.823 0c-.386-.027 0 23.528 0 23.528-9.411 9.411-18.823 0-18.823 0zm2.903 64.877c-19.425 36.073-51.085 94.871-51.085 94.871l-16.574-8.922 51.085-94.871 16.574 8.922zm64.101 94.871l-51.574-95.784 16.573-8.922 51.574 95.784-16.573 8.922z"/><path fill="#5e75ff" d="M67.766 60.83h9.411c.005 5.228 2.094 9.872 5.515 13.307 3.435 3.421 8.079 5.51 13.307 5.515 5.228-.005 9.873-2.094 13.307-5.515 3.421-3.435 5.51-8.08 5.515-13.307-.005-5.228-2.094-9.873-5.515-13.308-3.435-3.421-8.079-5.51-13.307-5.515-5.228.004-9.873 2.094-13.307 5.515-3.422 3.435-5.51 8.08-5.515 13.308h-18.823c.005-20.794 16.851-37.641 37.645-37.646 20.795.004 37.641 16.851 37.646 37.646-.005 20.794-16.851 37.641-37.646 37.645-20.794-.005-37.641-16.851-37.645-37.645h9.411z"/></svg>