<svg xmlns="http://www.w3.org/2000/svg" width="192" height="192" viewBox="0 0 192 192"><path fill="#d72f44" d="M96 16.201c51.635 0 93.49 41.855 93.49 93.49 0 25.817-10.462 49.19-27.383 66.107l-13.22-13.22c13.533-13.538 21.905-32.235 21.905-52.887 0-41.308-33.483-74.792-74.792-74.792-41.304 0-74.792 33.484-74.792 74.792 0 20.652 8.372 39.35 21.91 52.887l-8.283 8.283c-1.51 1.51-2.744 2.744-3.604 3.599l-1.337 1.337c-16.917-16.917-27.383-40.29-27.383-66.107 0-51.635 41.86-93.49 93.49-93.49z"/><path fill="#f3c600" d="M96 34.9c41.309 0 74.792 33.483 74.792 74.792 0 20.652-8.372 39.35-21.905 52.887l-13.22-13.225c10.149-10.148 16.427-24.172 16.427-39.663 0-30.978-25.112-56.094-56.094-56.094-30.978 0-56.094 25.116-56.094 56.094 0 15.491 6.278 29.515 16.431 39.663l-13.219 13.225c-13.538-13.537-21.91-32.235-21.91-52.887 0-41.309 33.488-74.792 74.792-74.792z"/><path fill="#5e75ff" d="M96 53.598c30.983 0 56.094 25.116 56.094 56.094 0 15.491-6.278 29.515-16.427 39.663l-13.224-13.22c6.769-6.769 10.952-16.118 10.952-26.444 0-20.652-16.739-37.396-37.396-37.396-20.652 0-37.396 16.744-37.396 37.396 0 10.326 4.188 19.675 10.952 26.444l-13.22 13.22c-10.153-10.148-16.431-24.172-16.431-39.663 0-30.978 25.117-56.094 56.094-56.094z"/></svg>