<svg xmlns="http://www.w3.org/2000/svg" width="192" height="192" viewBox="0 0 192 192"><path fill="#555" d="M164.535 78.759v49.35l8.918 11.745-2.395 7.247-9.834-4.983s-7.609 1.966-9.836 4.983c-1.498-2.029-2.395-7.247-2.395-7.247l9.31-11.825v-43.04h-124.61v43.04l9.311 11.825-2.395 7.247-9.836-4.983-9.834 4.983-2.395-7.247 8.918-11.745v-49.35h137.071zm-72.528 102.492v-27.811h-17.913v22.341l-24.619 6.052 6.166 7.198 36.365-7.78zm6.23-28.689h17.913v22.341l24.619 6.052-6.167 7.198-36.541-5.89z"/><path fill="#d72f44" d="M96 39.754c-7.309 0-13.234-8.234-13.234-18.393s5.925-18.393 13.234-18.393 13.234 8.235 13.234 18.393c0 10.158-5.925 18.393-13.234 18.393z"/><path fill="#5e75ff" d="M136.498 153.669h-80.996v-135.537h80.996z"/><path fill="#f3c600" d="M121.009 64.121h-50.426v-17.902h50.426z"/><path fill="#404040" d="M89.363 54.767c0 1.513-.956 2.739-2.135 2.739-1.177 0-2.133-1.226-2.133-2.739s.956-2.739 2.133-2.739c1.18 0 2.135 1.226 2.135 2.739zm17.826 0c0 1.513-.956 2.739-2.134 2.739-1.181 0-2.135-1.226-2.135-2.739s.954-2.739 2.135-2.739c1.178 0 2.134 1.226 2.134 2.739z"/></svg>