<?xml version="1.0" encoding="utf-8"?>
<!-- Generated by IcoMoon.io -->
<!DOCTYPE svg PUBLIC "-//W3C//DTD SVG 1.1//EN" "http://www.w3.org/Graphics/SVG/1.1/DTD/svg11.dtd">
<svg version="1.1" xmlns="http://www.w3.org/2000/svg" xmlns:xlink="http://www.w3.org/1999/xlink" width="32" height="32" viewBox="0 0 32 32">
<path fill="#555" d="M15.684 3.155h0.421v3.263h-0.421zM7.58 22.415v-7.157h16.84v7.157h0.842v-7.999h-18.524v7.999h0.842zM15.461 28.267v-3.758h-2.421v3.019c-1.263-0.421-3.327-0.771-3.327 0.818 0 0-0.167 0.763 0.833 0.973 1.045 0.219 4.817 0.353 4.938-0.796 0.010-0.097-0.023-0.182-0.023-0.255zM16.303 28.148v-3.758h2.421v3.019c1.263-0.421 3.327-0.771 3.327 0.818 0 0 0.167 0.763-0.833 0.973-1.045 0.219-4.817 0.353-4.938-0.796-0.010-0.097 0.024-0.181 0.024-0.255z"></path>
<path fill="#5e75ff" d="M21.473 21.791c0 1.589-1.334 2.835-3.024 2.835h-4.775c-1.69 0-3.147-1.246-3.147-2.835v-12.769c0-1.589 1.457-2.921 3.147-2.921h4.775c1.69 0 3.024 1.332 3.024 2.921v12.769z"></path>
<path fill="#f3c600" d="M19.841 11.227c0 1.442-1.169 2.611-2.611 2.611h-2.567c-1.442 0-2.611-1.169-2.611-2.611v-0.146c0-1.442 1.169-2.611 2.611-2.611h2.567c1.442 0 2.611 1.169 2.611 2.611v0.146z"></path>
<path fill="#555" d="M7.185 22.979c0.546 0 1.029 0.265 1.329 0.673 0.203-0.275 0.324-0.613 0.324-0.98 0-0.912-0.74-1.652-1.653-1.652s-1.652 0.74-1.652 1.652c0 0.367 0.121 0.705 0.323 0.98 0.301-0.408 0.783-0.673 1.329-0.673zM24.815 22.979c0.545 0 1.028 0.265 1.329 0.673 0.203-0.275 0.323-0.613 0.323-0.98 0-0.912-0.739-1.652-1.652-1.652s-1.653 0.74-1.653 1.652c0 0.367 0.121 0.705 0.324 0.98 0.301-0.408 0.783-0.673 1.329-0.673z"></path>
<path fill="#1b324e" d="M14.399 10.814c0 0.359-0.097 0.65-0.217 0.65s-0.217-0.291-0.217-0.65c0-0.359 0.097-0.65 0.217-0.65s0.217 0.291 0.217 0.65zM18.072 10.814c0 0.359-0.097 0.65-0.217 0.65s-0.217-0.291-0.217-0.65c0-0.359 0.097-0.65 0.217-0.65s0.217 0.291 0.217 0.65z"></path>
<path fill="#57ac6e" d="M19.579 16.173c0 0.367-0.298 0.664-0.665 0.664h-5.828c-0.367 0-0.665-0.297-0.665-0.664v-0.039c0-0.367 0.298-0.665 0.665-0.665h5.828c0.367 0 0.665 0.297 0.665 0.665v0.039z"></path>
<path fill="#d72f44" d="M19.579 18.593c0 0.367-0.298 0.664-0.665 0.664h-5.828c-0.367 0-0.665-0.297-0.665-0.664v-0.040c0-0.367 0.298-0.664 0.665-0.664h5.828c0.367 0 0.665 0.297 0.665 0.664v0.040z"></path>
<path fill="#8941b1" d="M19.579 21.119c0 0.367-0.298 0.664-0.665 0.664h-5.828c-0.367 0-0.665-0.297-0.665-0.664v-0.040c0-0.367 0.298-0.664 0.665-0.664h5.828c0.367 0 0.665 0.297 0.665 0.664v0.040z"></path>
<path fill="#d72f44" d="M16.673 3.269c0 0.406-0.329 0.735-0.735 0.735s-0.735-0.329-0.735-0.735c0-0.405 0.329-0.735 0.735-0.735s0.735 0.329 0.735 0.735z"></path>
</svg>
