<svg xmlns="http://www.w3.org/2000/svg" width="192" height="192" viewBox="0 0 192 192"><path fill="#57ac6e" d="M127.994 132.017l-7.275 38.322 30.455 8.544v-28.932l-23.18-17.934zm-63.118-.254l-26.45 18.104v28.932l33.331-8.544-6.882-38.492z"/><path fill="#d72f44" d="M62.204 110.614c0 20.98 3.13 40.945 8.798 58.71 7.783 24.533 42.214 24.533 49.997 0 5.668-17.765 8.798-37.73 8.798-58.71 0-42.89-13.197-81.128-33.839-106.338-20.641 25.21-33.754 63.448-33.754 106.338z"/><path fill="#f3c600" d="M109.282 95.132c0 7.335-5.946 13.282-13.282 13.282s-13.282-5.947-13.282-13.282 5.946-13.282 13.282-13.282 13.282 5.947 13.282 13.282z"/></svg>