<svg xmlns="http://www.w3.org/2000/svg" width="192" height="192" viewBox="0 0 192 192"><path fill="#d72f44" d="M146.788 119.287c-23.445-23.426-43.142-16.264-43.142-16.264s-7.157 19.683 16.287 43.156c23.449 23.426 61.412 40.476 64.369 37.519 2.869-2.865-14.069-40.938-37.514-64.411z"/><path fill="#555" d="M43.343 107.921c36.091 36.086 74.94 37.867 90.025 23.788s11.258-52.898-24.829-88.984c-36.091-36.086-90.762-39.922-97.942-32.759-6.963 6.977-3.34 61.869 32.746 97.956z"/><path fill="#f3c600" d="M48.892 75.115c7.222 7.208 18.921 7.208 26.139 0s7.217-18.945 0-26.152c-7.218-7.208-18.917-7.208-26.139 0-7.217 7.208-7.217 18.944 0 26.152z"/></svg>