<svg xmlns="http://www.w3.org/2000/svg" width="192" height="192" viewBox="0 0 192 192"><path fill="#565860" d="M117.641.29c.994 22.778 1.987 45.555 2.98 68.333 19.998-10.439 39.992-20.886 59.991-31.323l-1.006 16.936c-19.398 10.864-38.795 21.729-58.192 32.594.419 9.674.845 19.347 1.265 29.02h-18.544l.005-19.346c-4.638 2.594-9.271 5.199-13.91 7.791.001.001-6.954-16.174-6.954-16.174 6.957-3.632 13.914-7.265 20.87-10.898.001-22.578.02-45.155.02-67.733.001.001 13.474-9.2 13.474-9.2z"/><path fill="#3b9f5d" d="M36.405 81.235c-4.389 0-8.374 1.377-12.241 3.288-12.344 6.902-16.454 22.382-9.181 34.579 7.273 12.201 23.177 16.498 35.521 9.599 2.031-1.137 42.06-25.869 42.06-25.869l-9.288-14.711-22.195 8.722c-7.066-11.734-14.455-14.818-24.677-15.608zm1.931 9.277c5.905.666 9.815 3.551 13.222 8.147 4.628 7.764 2.011 17.619-5.845 22.012-7.856 4.389-17.974 1.655-22.602-6.109s-2.015-17.615 5.841-22.007c4.991-2.162 1.939-1.189 9.384-2.043zm84.344 25.339l-18.496.016c-2.287 47.119-2.33 47.878-2.326 48.651.072 13.885 12.065 25.199 26.783 25.271 14.722.071 26.596-11.128 26.524-25.016-.076-13.885-12.069-25.203-26.788-25.271-1.077-.008-2.13.064-3.172.179l-2.525-23.831zm5.745 32.796c9.368.044 17.001 7.241 17.049 16.078.044 8.838-7.513 15.963-16.877 15.92-9.368-.044-17.001-7.242-17.049-16.083-.047-8.833 7.509-15.963 16.877-15.915z"/><path fill="#959595" d="M113.404 76.579c-2.549 0-4.62 2.071-4.62 4.621s2.071 4.616 4.62 4.616c2.55 0 4.616-2.067 4.616-4.616s-2.066-4.621-4.616-4.621z"/></svg>