<?xml version="1.0" encoding="utf-8"?>
<!-- Generated by IcoMoon.io -->
<!DOCTYPE svg PUBLIC "-//W3C//DTD SVG 1.1//EN" "http://www.w3.org/Graphics/SVG/1.1/DTD/svg11.dtd">
<svg version="1.1" xmlns="http://www.w3.org/2000/svg" xmlns:xlink="http://www.w3.org/1999/xlink" width="32" height="32" viewBox="0 0 32 32">
<path fill="#9d9d9d" d="M26.465 27.57h-20.929c-0.845 0-1.53-0.685-1.53-1.53v-20.93c0-0.845 0.685-1.529 1.53-1.529h20.929c0.845 0 1.53 0.685 1.53 1.529v20.93c0 0.845-0.685 1.53-1.53 1.53z"></path>
<path fill="#d3d3d3" d="M25.21 25.411h-18.42c-0.346 0-0.626-0.281-0.626-0.626v-18.421c0-0.345 0.28-0.626 0.626-0.626h18.42c0.346 0 0.626 0.281 0.626 0.626v18.421c0 0.345-0.28 0.626-0.626 0.626z"></path>
<path fill="#e6e6e6" d="M21.829 15.575c0 3.22-2.61 5.829-5.829 5.829s-5.829-2.609-5.829-5.829c0-3.219 2.61-5.829 5.829-5.829s5.829 2.609 5.829 5.829z"></path>
<path fill="#555" d="M19.755 15.575c0 2.074-1.681 3.755-3.755 3.755s-3.755-1.681-3.755-3.755c0-2.073 1.681-3.755 3.755-3.755s3.755 1.681 3.755 3.755z"></path>
<path fill="#5b5b5f" d="M9.629 28.419h-2.005c-0.315 0-0.571-0.255-0.571-0.57v-0.279h3.146v0.279c0 0.315-0.255 0.57-0.571 0.57zM22.51 28.419h2.004c0.315 0 0.571-0.255 0.571-0.57v-0.279h-3.145v0.279c0 0.315 0.255 0.57 0.571 0.57z"></path>
<path fill="#ecedef" d="M26.253 19.646c0.185 0 0.334 0.149 0.334 0.334v2.682c0 0.184-0.149 0.334-0.334 0.334h-0.835c-0.185 0-0.334-0.15-0.334-0.334v-2.682c0-0.185 0.149-0.334 0.334-0.334h0.835zM25.836 8.154h0.417c0.185 0 0.334 0.15 0.334 0.334v2.682c0 0.185-0.149 0.334-0.334 0.334h-0.835c-0.185 0-0.334-0.149-0.334-0.334v-2.682c0-0.184 0.149-0.334 0.334-0.334h0.417z"></path>
</svg>
