<svg xmlns="http://www.w3.org/2000/svg" width="192" height="192" viewBox="0 0 192 192"><path fill="#959595" d="M10.719 175.547l-.017-167.194 170.596.017-.025 167.16-20.865.099.312 8.018h-22.242l-.313-8.018h-83.006v7.764h-22.242v-7.764l-22.198-.082z"/><path fill="#808080" d="M26.622 156.964l-.185-134.937 138.793-.008.157 134.945h-138.765z"/><path fill="#555" d="M137.389 90.817c0 22.764-18.454 41.218-41.218 41.218s-41.218-18.454-41.218-41.218c0-22.764 18.454-41.218 41.218-41.218s41.218 18.454 41.218 41.218z"/><path fill="#404040" d="M122.723 90.817c0 14.665-11.888 26.553-26.553 26.553s-26.553-11.888-26.553-26.553 11.888-26.553 26.553-26.553 26.553 11.888 26.553 26.553z"/><path fill="#808080" d="M169.386 119.601v23.686h-6.586v-23.686h6.586zm0-81.255v23.686h-6.586v-23.686h6.586z"/></svg>