<svg xmlns="http://www.w3.org/2000/svg" width="192" height="192" viewBox="0 0 192 192"><path fill="#555" d="M149.627 7.303c7.389.375 14.014 3.498 19.338 8.559 11.458 11.458 11.458 30.033 0 41.491s-30.033 11.457-41.49 0c-1.215-1.279-.722-.705-1.522-1.684l-43.534 17.334c8.207 12.539 8.104 29.59.541 42.374l-.599.972 49.863 20.401c1.078-1.854 2.51-3.455 3.979-5.001 6.463-6.265 13.285-8.56 22.153-8.56 7.389.375 14.014 3.499 19.338 8.56 11.458 11.457 11.457 30.033 0 41.49s-30.033 11.457-41.491 0c-6.357-6.529-9.993-16.171-8.224-25.3l-53.961-22.078c-16.923 13.844-39.431 12.642-55.2-2.349-15.969-15.969-15.969-41.858 0-57.826 15.793-15.122 38.36-16.089 55.311-2.258l46.037-18.332c-3.246-10.541-.195-21.343 7.309-29.235 6.462-6.265 13.285-8.559 22.153-8.559z"/></svg>