<svg xmlns="http://www.w3.org/2000/svg" width="192" height="192" viewBox="0 0 192 192"><path fill="#555" d="M140.093 26.045l-26.854.06-.173 59.995 26.883.014.143-60.069z"/><path fill="#8941b1" d="M29.45 63.603l-.079 44.818 62.193 12.208 77.803.308-.102-35.216-70.049.112-6.218-22.175z"/><path fill="#d72f44" d="M188.833 120.41l-97.268.218-17.972-12.149-70.426-.167 28.31 57.642 121.093-.029 36.263-45.515z"/><path fill="#f3c600" d="M82.443 79.499c-10.653-.014-52.987-.043-52.987-.043v12.928s42.334 0 52.987-.014v-12.871zm39.037 16.103c-5.841-1.464-11.465 5-9.131 10.595 1.725 5.536 9.769 7.102 13.479 2.652 4.203-4.232 1.58-12.363-4.348-13.247zm28.32 1.391c-4.943-4.043-13.219.217-12.77 6.58-.203 5.769 6.783 9.885 11.755 6.986 5.145-2.42 5.739-10.406 1.015-13.566z"/></svg>