<?xml version="1.0" encoding="utf-8"?>
<!-- Generated by IcoMoon.io -->
<!DOCTYPE svg PUBLIC "-//W3C//DTD SVG 1.1//EN" "http://www.w3.org/Graphics/SVG/1.1/DTD/svg11.dtd">
<svg version="1.1" xmlns="http://www.w3.org/2000/svg" xmlns:xlink="http://www.w3.org/1999/xlink" width="32" height="32" viewBox="0 0 32 32">
<path fill="#555" d="M15.095 3.966c0.047-0.599 0.005-1.766 0.89-1.672 0.923-0.069 0.842 1.103 0.911 1.723-0.603 0.004-1.202-0.013-1.801-0.051z"></path>
<path fill="#fff" d="M10.85 3.149c1.419 0.248 2.817 0.62 4.245 0.817 0.599 0.038 1.197 0.055 1.801 0.051 1.394-0.133 2.762-0.441 4.139-0.659 0.060 1.603 0.030 3.215-0.081 4.819-1.325 0.483-2.693 0.911-4.113 0.949-0.569 0.017-1.133 0.017-1.697 0.005-1.471-0.039-2.912-0.377-4.301-0.843-0.145-1.71-0.154-3.429 0.009-5.139z"></path>
<path fill="#555" d="M15.143 9.131c0.565 0.013 1.129 0.013 1.697-0.005 0.005 0.59 0.013 1.18 0.021 1.775-0.581 0-1.159-0.009-1.731-0.034 0-0.582 0.004-1.159 0.013-1.736z"></path>
<path fill="#fff" d="M9.144 9.999c1.997 0.269 3.968 0.735 5.986 0.868 0.573 0.025 1.15 0.034 1.731 0.034 1.967-0.030 3.9-0.436 5.837-0.74 0.081 2.194 0.090 4.391-0.017 6.581-1.86 0.611-3.801 0.919-5.751 0.962-0.633 0.009-1.261 0.005-1.885-0.013-1.989-0.103-4.003-0.214-5.909-0.834-0.159-2.283-0.167-4.575 0.009-6.858z"></path>
<path fill="#555" d="M15.045 17.691c0.624 0.019 1.253 0.024 1.885 0.015-0.055 0.274-0.167 0.823-0.218 1.098-0.479-0.015-0.958-0.019-1.433-0.015-0.055-0.275-0.175-0.823-0.235-1.098z"></path>
<path fill="#5e75ff" d="M15.279 18.666c0.475-0.004 0.954 0 1.433 0.013 2.882 0.812 5.785 1.569 8.65 2.445-1.364 2.288-2.929 4.451-4.37 6.692-0.547 0.705-1.031 1.731-2.039 1.796-1.967 0.132-3.955 0.141-5.922-0.030-1.001-0.069-1.488-1.069-2.027-1.775-1.441-2.232-2.998-4.391-4.366-6.671 2.865-0.885 5.777-1.603 8.641-2.471z"></path>
</svg>
