<svg xmlns="http://www.w3.org/2000/svg" width="192" height="192" viewBox="0 0 192 192"><path fill="#d72f44" d="M6.559 51.583c0 24.894 20.182 45.076 45.076 45.076s45.076-20.182 45.076-45.076c0-24.894-20.182-45.076-45.076-45.076s-45.076 20.182-45.076 45.076z"/><path fill="#555" d="M105.217 63.28l74.141 86.001 6.188 25.784-10.433 10.428-24.761-7.206-86.955-73.094c10.167-2.218 19.522-7.255 27.058-14.791 7.713-7.713 12.602-17.176 14.761-27.122z"/><path fill="#f3c600" d="M7.334 42.705c2.441-12.217 9.602-22.285 19.206-28.691 5.831-3.889 12.569-6.403 19.694-7.253 6.343 14.394 8.529 30.792 5.214 47.389-2.95 14.769-9.897 27.686-19.398 38.013-18.141-8.707-28.835-28.818-24.716-49.458z"/></svg>