<svg xmlns="http://www.w3.org/2000/svg" width="192" height="192" viewBox="0 0 192 192"><path fill="#555" d="M113.636 33.69v16.666l41.758-.064-.057 110.276c-4.073.009-8.147.018-12.22.026 4.995.226 8.405 4.55 8.644 9.282 0 5.145-4.171 9.316-9.316 9.316s-9.316-4.171-9.316-9.316c.086-4.706 3.088-9.033 7.943-9.279l-85.587.186c4.486.793 7.285 4.71 7.506 9.093 0 5.145-4.171 9.316-9.316 9.316s-9.316-4.171-9.316-9.316c.075-4.433 3.116-8.197 7.467-9.085l-11.263.025.006-110.191 42.284.263-.116-17.198h30.898z"/><path fill="#f3c600" d="M3.2 18.705l.23 15.138 185.394.243.067-16.958z"/><path fill="#d72f44" d="M66.798 70.831l37.978 33.478-4.935 4.94-33.043-38.418z"/></svg>