<?xml version="1.0" encoding="utf-8"?>
<!-- Generated by IcoMoon.io -->
<!DOCTYPE svg PUBLIC "-//W3C//DTD SVG 1.1//EN" "http://www.w3.org/Graphics/SVG/1.1/DTD/svg11.dtd">
<svg version="1.1" xmlns="http://www.w3.org/2000/svg" xmlns:xlink="http://www.w3.org/1999/xlink" width="32" height="32" viewBox="0 0 32 32">
<path fill="#57ac6e" d="M25.090 11.212h-2.483c-0.062 0-0.112-0.051-0.112-0.113v-3.862c0-0.062 0.050-0.112 0.112-0.112h2.483c0.062 0 0.112 0.050 0.112 0.112v3.862c0 0.062-0.050 0.113-0.112 0.113z"></path>
<path fill="#8941b1" d="M20.726 8.378h-11.728c-0.155 0-0.281-0.125-0.281-0.28v-6.364c0-0.155 0.125-0.28 0.281-0.28h11.728c0.155 0 0.281 0.125 0.281 0.28v6.364c0 0.155-0.125 0.28-0.281 0.28z"></path>
<path fill="#555" d="M22.427 21.581h-15.129c-0.276 0-0.499-0.223-0.499-0.499v-15.751c0-0.277 0.223-0.5 0.499-0.5h15.129c0.276 0 0.5 0.223 0.5 0.5v15.751c0 0.276-0.224 0.499-0.5 0.499z"></path>
<path fill="#f3c600" d="M20.476 19.036h-11.229v-11.661h11.229z"></path>
<path fill="#8941b1" d="M20.537 21.537h-11.649c-0.177 0-0.32 0.143-0.32 0.32v8.37c0 0.176 0.143 0.319 0.32 0.319h11.649c0.177 0 0.32-0.143 0.32-0.319v-8.37c0-0.177-0.143-0.32-0.32-0.32z"></path>
<path fill="#735746" d="M17.265 13.394c0 1.397-1.133 2.531-2.531 2.531s-2.531-1.133-2.531-2.531 1.133-2.531 2.531-2.531c1.398 0 2.531 1.133 2.531 2.531z"></path>
</svg>
