<?xml version="1.0" encoding="utf-8"?>
<!-- Generated by IcoMoon.io -->
<!DOCTYPE svg PUBLIC "-//W3C//DTD SVG 1.1//EN" "http://www.w3.org/Graphics/SVG/1.1/DTD/svg11.dtd">
<svg version="1.1" xmlns="http://www.w3.org/2000/svg" xmlns:xlink="http://www.w3.org/1999/xlink" width="32" height="32" viewBox="0 0 32 32">
<path fill="#555" d="M25.133 26.275c0 0.631-0.511 1.142-1.142 1.142h-15.983c-0.631 0-1.141-0.511-1.141-1.142v-20.549c0-0.631 0.511-1.142 1.141-1.142h13.129c0.631 0 3.996 3.365 3.996 3.996v17.695z"></path>
<path fill="#f3c702" d="M22.85 23.991c0 0.631-0.511 1.142-1.142 1.142h-11.416c-0.631 0-1.142-0.511-1.142-1.142v-11.417c0-0.631 0.511-1.141 1.142-1.141h11.416c0.631 0 1.142 0.511 1.142 1.141v11.417z"></path>
<path fill="#d72f44" d="M9.15 4.583h2.283v3.425h-2.283zM12.575 4.583h2.283v3.425h-2.283zM16 4.583h2.283v3.425h-2.283z"></path>
</svg>
