<svg xmlns="http://www.w3.org/2000/svg" width="192" height="192" viewBox="0 0 192 192"><path fill="#d72f44" d="M153.057 97.499c0 1.978-.09 3.968-.287 5.946 13.886 15.598 20.386 29.104 15.68 35.591-4.086 5.629-15.845 4.855-31.396-.914-4.678-1.743-9.714-3.937-14.986-6.55-11.229-5.562-23.538-13.015-35.917-21.992-19.13-13.879-34.72-28.719-44.372-41.393-9.271-12.179-13.063-22.349-9.165-27.71 4.51-6.214 18.334-4.64 36.302 2.853 1.876-.859 3.8-1.609 5.75-2.261-33.633-17.242-61.555-22.529-69.786-11.182-7.964 10.97 4.569 34.622 29.649 60.225l.082-.758c.059.349.13.691.2 1.044 11.194 11.394 24.861 23.165 40.309 34.375 7.053 5.122 14.095 9.832 21.026 14.134 7.646 4.742 15.151 8.965 22.381 12.623 33.087 16.755 60.456 21.799 68.593 10.585 8.411-11.598-6.076-37.354-34.065-64.617z"/><path fill="#555" d="M152.77 103.445c.196-1.978.286-3.968.286-5.946-.004-3.317-.267-6.629-.817-9.883-2.5-14.848-10.574-28.754-23.719-38.291-16.167-11.732-36.251-14.134-53.854-8.254-1.951.652-3.87 1.401-5.75 2.261-9.086 4.117-17.254 10.566-23.526 19.217-1.326 1.833-2.519 3.721-3.611 5.64 9.652 12.674 25.242 27.514 44.372 41.389 12.38 8.98 24.688 16.434 35.918 21.995 5.271 2.614 10.307 4.808 14.989 6.55 1.657-1.77 3.222-3.654 4.686-5.668 6.421-8.843 10.021-18.863 11.026-29.009z"/><path fill="#f3c600" d="M75.123 124.774c-15.449-11.21-29.115-22.981-40.309-34.375l-.282-.287c-2.587 20.818 5.899 42.374 24.083 55.566 18.055 13.105 41.004 14.577 59.914 5.852-7.23-3.658-14.735-7.886-22.381-12.623-6.931-4.302-13.973-9.012-21.026-14.134z"/></svg>