<svg xmlns="http://www.w3.org/2000/svg" width="192" height="192" viewBox="0 0 192 192"><path fill="#555" d="M83.228 157.618h25.493v29.726h-25.493v-29.726z"/><path fill="#f3c600" d="M128.723 157.618h-69.125l-40.054-43.732v-65.497l40.054-43.732h69.125l43.732 43.682v65.498l-43.682 43.833z"/><path fill="#555" d="M93.859 58.817v8.565h-8.565v36.074h-10.58v-36.175h-8.464v-8.464h27.61zm-45.244 0c2.872 0 5.341.504 7.406 1.411 2.015 1.008 3.376 2.116 4.03 3.527 1.612 3.426 1.007 8.918 1.007 8.918h-10.429v-3.124c0-1.511-.101-2.519-.353-2.872-.252-.403-.705-.605-1.31-.605-.655 0-1.159.302-1.511.857-.353.503-.504 1.36-.504 2.519 0 1.36.151 2.519.504 3.174.403.705 1.511 1.612 3.225 2.62 5.038 2.922 8.061 5.341 9.422 7.205 1.259 2.015 1.915 5.038 1.915 9.169 0 3.023-.353 5.29-1.008 6.751-.755 1.511-2.166 2.67-4.182 3.628-2.015 1.007-4.433 1.511-7.154 1.511-3.022 0-5.542-.605-7.658-1.713-2.116-1.159-3.527-2.519-4.182-4.333-1.209-3.275-1.31-8.867-1.31-8.867h10.58l.101 3.879c0 1.511.151 2.519.403 3.023.302.504.806.706 1.511.706.806 0 1.36-.302 1.713-.907.352-.503.503-1.411.503-2.519 0-2.519-.302-4.232-1.007-5.038-.705-.706-2.418-2.015-5.189-3.829-2.721-1.864-4.535-3.174-5.542-4.031-.857-.806-1.511-2.015-2.167-3.426-.604-1.511-.907-3.325-.907-5.542 0-3.325.403-5.693 1.209-7.205.856-1.511 2.217-2.771 4.03-3.627 1.915-.857 4.182-1.26 6.852-1.26zm62.273 0c2.217 0 4.282.403 6.046 1.159 1.814.755 3.275 1.864 4.383 3.375s1.763 3.124 2.015 4.887c.151 1.713.252 4.786.252 9.169v7.356c0 4.282-.101 7.306-.302 9.069-.202 1.814-.806 3.526-1.864 4.937-1.007 1.511-2.519 2.62-4.283 3.426-1.814.755-3.879 1.159-6.247 1.159-2.267 0-4.333-.353-6.147-1.108-1.763-.756-3.224-1.864-4.333-3.376s-1.763-3.124-2.015-4.887c-.151-1.713-.252-4.786-.252-9.169v-7.356c0-4.282.101-7.306.302-9.069.151-1.814.755-3.527 1.814-4.938 1.008-1.511 2.519-2.62 4.283-3.426 1.864-.756 3.93-1.159 6.349-1.159zm0 6.399c-.655 0-1.209.202-1.511.604-.504.504-.655 1.763-.655 3.93v19.649c0 2.519.151 4.03.403 4.635.302.504.857.857 1.763.857s1.511-.403 1.763-1.008c.251-.705.403-2.267.403-4.786v-19.297c0-2.015-.151-3.225-.403-3.779-.302-.503-.857-.806-1.663-.806zm31.036-6.449c3.225 0 5.693.252 7.406.706 1.662.504 3.023 1.159 3.879 2.015.856.907 1.511 2.015 1.763 3.275.302 1.31.503 3.275.503 5.945v3.728c0 2.67-.353 4.686-1.007 5.895-.504 1.209-1.663 2.167-3.225 2.822-1.612.655-3.728 1.007-6.298 1.007l-4.383.101v16.979h-10.581v-42.473h11.84zm-1.36 6.348v10.58h1.007c1.259 0 2.116-.201 2.519-.655.504-.504.756-1.511.756-3.023v-3.526c0-1.36-.252-2.318-.806-2.721-.503-.403-1.713-.604-3.526-.604z"/></svg>