<?xml version="1.0" encoding="utf-8"?>
<!-- Generated by IcoMoon.io -->
<!DOCTYPE svg PUBLIC "-//W3C//DTD SVG 1.1//EN" "http://www.w3.org/Graphics/SVG/1.1/DTD/svg11.dtd">
<svg version="1.1" xmlns="http://www.w3.org/2000/svg" xmlns:xlink="http://www.w3.org/1999/xlink" width="32" height="32" viewBox="0 0 32 32">
<path fill="#555" d="M13.955 7.183c0.939-1.006 2.423-0.731 3.655-0.78 0 0.572 0.004 1.139 0.009 1.706-0.833 0.071-1.666 0.155-2.495 0.257-0.088 0.811-0.168 1.626-0.225 2.441-0.572 0.013-1.135 0.040-1.701 0.079 0.013-1.249-0.262-2.747 0.757-3.703z"></path>
<path fill="#735647" d="M12.422 10.283l0.775-0.063c0.567-0.039 1.129-0.066 1.701-0.079l1.209 0.177c1.351 1.542 2.202 3.447 3.296 5.166-2.366 0.040-4.736 0.044-7.098-0.005-0.044-1.733-0.065-3.469 0.116-5.197z"></path>
<path fill="#57ac6e" d="M3.539 19.131c0.943-1.679 2.441-3.332 4.457-3.571 1.449-0.195 2.919-0.111 4.381-0.080 2.362 0.049 4.732 0.045 7.098 0.005 2.277 0.009 4.595-0.262 6.84 0.226 2.734 0.819 4.502 3.996 3.717 6.752-0.517 1.299-1.541 2.357-2.684 3.137-1.144 0.771-2.593 0.621-3.899 0.665-4.883-0.084-9.765 0-14.647-0.022-2.375 0.137-4.28-1.746-5.255-3.731l-0.009-3.38z"></path>
<path fill="#555" d="M2.761 17.429l0.678-0.225c0.035 0.642 0.057 1.284 0.071 1.927l0.009 3.38c-0.018 0.634-0.039 1.271-0.075 1.905-0.168-0.053-0.509-0.159-0.677-0.217-0.173-1.165-0.421-2.303-0.944-3.367 0.536-1.068 0.771-2.229 0.939-3.403z"></path>
<path fill="#fff" d="M8.022 19.113c0.683-0.181 1.529-0.173 2.034 0.399 1.125 1.001 0.261 3.234-1.303 3.079-1.909 0.173-2.517-2.853-0.731-3.478z"></path>
<path fill="#f5f5f5" d="M13.339 19.113c0.681-0.186 1.528-0.169 2.037 0.399 1.121 1.005 0.261 3.234-1.307 3.079-1.91 0.169-2.521-2.853-0.731-3.478z"></path>
<path fill="#fff" d="M18.655 19.113c0.683-0.181 1.529-0.173 2.038 0.399 1.126 1.001 0.257 3.234-1.307 3.079-1.909 0.173-2.517-2.853-0.731-3.478zM23.972 19.113c0.682-0.181 1.529-0.173 2.038 0.399 1.117 1.005 0.261 3.234-1.307 3.079-1.909 0.169-2.516-2.853-0.731-3.478z"></path>
</svg>
