<svg xmlns="http://www.w3.org/2000/svg" width="192" height="192" viewBox="0 0 192 192"><path fill="#555" d="M122.87 19.661v11.046l-14.978-.932v19.769l16.334-.158 1.168 52.77-71.638.047 33.269-52.456 12.451-.121v-27.741l23.394-2.224zm-118.675 93.635l-.04 47.422 14.095-23.564-14.055-23.858z"/><path fill="#f3c600" d="M12.421 125.967c6.203-11.04 16.049-21.907 29.304-23.481 9.526-1.281 19.195-.727 28.807-.524 15.53.32 31.112.294 46.669.03 14.972.057 30.208-1.721 44.974 1.484 17.974 5.39 29.598 26.276 24.442 44.397-3.405 8.535-10.136 15.496-17.65 20.622-7.518 5.07-17.044 4.079-25.636 4.369-32.103-.554-64.202 0-96.305-.147-15.613.904-28.141-11.477-34.547-24.525l-.056-22.227z"/><path fill="#d72f44" d="M175.217 130.238c-4.066 0-7.364-3.297-7.364-7.364s3.297-7.364 7.364-7.364 7.364 3.297 7.364 7.364-3.297 7.364-7.364 7.364z"/><path fill="#555" d="M80.368 148.213c-6.005 0-10.874-4.868-10.874-10.874s4.869-10.873 10.874-10.873 10.874 4.868 10.874 10.873c0 6.006-4.869 10.874-10.874 10.874zm33.491 0c-6.005 0-10.874-4.868-10.874-10.874s4.869-10.873 10.874-10.873 10.874 4.868 10.874 10.873c0 6.006-4.869 10.874-10.874 10.874zm33.491.434c-6.246 0-11.309-5.063-11.309-11.309s5.063-11.308 11.309-11.308 11.309 5.063 11.309 11.308c0 6.246-5.063 11.309-11.309 11.309zm-100.624-.967c-6.005 0-10.873-4.869-10.873-10.874s4.868-10.874 10.873-10.874c6.006 0 10.874 4.869 10.874 10.874s-4.868 10.874-10.874 10.874z"/><path fill="#5e75ff" d="M123.133 32.284c-3.631 0-6.575-2.943-6.575-6.575s2.944-6.575 6.575-6.575 6.574 2.944 6.574 6.575-2.943 6.575-6.574 6.575z"/></svg>