<svg xmlns="http://www.w3.org/2000/svg" width="192" height="192" viewBox="0 0 192 192"><path fill="#555" d="M24.944 143.992l14.964 12.358 11.898-12.163 14.799 12.724 11.534-12.724 15.392 13.58 10.282-13.149 27.817 27.915-15.358 5.834-8.834-12.031-15.721 13.117-11.007-13.478-10.646 14.863-15.555-14.798-13.151 14.24-13.446-14.735-20.071 20.371 17.104-41.923zm19.091-137.515l144.671-.01-22.987 36.457h-83.725l-37.96-36.446z"/><path fill="#d72f44" d="M44.151 6.085c51.563 49.267 136.304 134.294 136.304 134.294l-41.193 41.193-135.969-137.308 40.858-38.179z"/><path fill="#f3c600" d="M41.723 52.275c-5.33 0-9.65-4.32-9.65-9.65s4.32-9.65 9.65-9.65 9.65 4.321 9.65 9.65-4.321 9.65-9.65 9.65zm98.546 98.828c-5.33 0-9.65-4.321-9.65-9.65s4.321-9.65 9.65-9.65c5.329 0 9.65 4.321 9.65 9.65s-4.321 9.65-9.65 9.65z"/><path fill="#d5d5d5" d="M75.655 13.871h40.691v3.517l-40.691 2.512v-6.028z"/></svg>