<svg xmlns="http://www.w3.org/2000/svg" width="192" height="192" viewBox="0 0 192 192"><path fill="#d72f44" d="M131.649 14.698c-54.642.025-55.634 12.762-55.663 44.51-.029 31.739 24.925 40.846 55.663 40.846 3.472 0 6.868-.229 10.166-.679.092.058 28.796 17.797 28.796 17.797s-6.118-24.841-6.156-24.962c13.854-7.432 22.853-1.046 22.853-33.002 0-31.96-1.017-44.539-55.658-44.509z"/><path fill="#565860" d="M71.488 52.551c65.57.033 66.758 15.542 66.791 54.183.038 38.645-29.901 49.732-66.791 49.732-4.168 0-8.24-.284-12.195-.826-.113.067-32.331 21.661-32.331 21.661s5.114-30.242 5.16-30.388c-16.63-9.045-27.429-1.271-27.429-40.179 0-38.903 1.226-54.217 66.795-54.183z"/></svg>