<svg xmlns="http://www.w3.org/2000/svg" width="192" height="192" viewBox="0 0 192 192"><path fill="#f3c600" d="M111.131 22.957c-40.341 0-73.043 32.703-73.043 73.043s32.702 73.043 73.043 73.043c40.34 0 73.043-32.703 73.043-73.043s-32.703-73.043-73.043-73.043z"/><path fill="#8941b1" d="M111.131 64.696c-17.287 0-31.304 14.014-31.304 31.304s14.017 31.304 31.304 31.304c17.29 0 31.304-14.014 31.304-31.304s-14.014-31.304-31.304-31.304z"/><path fill="#d72f44" d="M111.131 82.086c-7.682 0-13.911 6.232-13.911 13.914s6.229 13.914 13.911 13.914c7.686 0 13.914-6.232 13.914-13.914s-6.229-13.914-13.914-13.914z"/><path fill="#555" d="M37.105 80.255l4.147 12.507h70.4v6.957h-70.4l-4.147 12.507h-29.283l4.143-12.507h-4.66v-6.957h4.66l-4.143-12.507h29.283z"/></svg>