<svg xmlns="http://www.w3.org/2000/svg" width="192" height="192" viewBox="0 0 192 192"><path fill="#bfbfbf" d="M143.411 123.034h-6.499v-52.051h6.499c14.356 0 25.995 11.653 25.995 26.026s-11.639 26.026-25.995 26.026zm0-71.57h-6.499v-34.549h-129.975v128.891c0 16.172 13.092 29.279 29.245 29.279h71.486c16.153 0 29.244-13.107 29.244-29.279v-3.253h6.499c25.124 0 45.491-20.391 45.491-45.545s-20.367-45.545-45.491-45.545z"/><path fill="#57ac6e" d="M72.733 116.831c-12.72 0-23.032-10.312-23.032-23.032s10.312-23.032 23.032-23.032c12.721 0 23.032 10.312 23.032 23.032s-10.312 23.032-23.032 23.032z"/></svg>