<svg xmlns="http://www.w3.org/2000/svg" width="192" height="192" viewBox="0 0 192 192"><path fill="#57ac6e" d="M138.79 4.4v21.106h30.842c7.682.001 11.819 6.923 11.819 14.606v87.632c.001 7.767-4.137 14.267-11.819 14.267h-30.842v17.56c0 13.93-10.046 28.029-19.586 28.029h-85.184c-9.54 0-23.47-14.183-23.47-28.029v-155.171h128.24zm0 39.679v76.066h12.437c7.683 0 11.566-5.234 11.566-12.917v-46.518c0-7.767-3.883-16.631-11.566-16.631h-12.437z"/><path fill="#555" d="M93.285 4.4h5.91v60.785h-5.91z"/><path fill="#bfbfbf" d="M74.712 65.186h43.056v46.433h-43.056z"/></svg>