<svg xmlns="http://www.w3.org/2000/svg" width="192" height="192" viewBox="0 0 192 192"><path fill="#d5d5d5" d="M74.786 115.58c-11.246 6.986-18.147 19.34-18.147 33.397 0 21.725 17.636 39.361 39.531 39.361s39.19-17.636 39.19-39.361c0-13.972-7.327-26.155-18.317-33.141v-112.173h-42.257v111.917z"/><path fill="#5e75ff" d="M104.605 124.186v-33.738l-17.21.341v33.397c-9.031 3.493-15.505 12.183-15.505 22.491 0 13.291 10.82 24.11 24.11 24.11s24.11-10.82 24.11-24.11c0-10.309-6.39-18.998-15.506-22.491z"/><path fill="#d72f44" d="M92.848 117.199v-89.796h6.134v89.711z"/></svg>