<svg xmlns="http://www.w3.org/2000/svg" width="192" height="192" viewBox="0 0 192 192"><path fill="#555" d="M159.354 5.494v18.101h-9.047l-.004 20.174s.53 17.87-12.295 30.139c-12.816 12.268-18.884 18.07-18.884 18.07s-4.136 4.086 0 8.046c4.141 3.96 17.603 16.843 17.603 16.843s13.576 12.884 13.576 33.438c0 6.034 0 12.068.002 18.101h9.049v18.101h-126.709v-18.101h9.05v-18.101c0-20.554 13.576-33.438 13.576-33.438s13.467-12.883 17.603-16.843c4.141-3.959 0-8.046 0-8.046s-6.064-5.802-18.884-18.07-12.295-30.139-12.295-30.139v-20.174h-9.05v-18.101h126.709z"/><path fill="#f3c600" d="M59.793 44.303l25.599 34.592s6.159 7.779 6.087 17.106v40.226l-36.207 32.18h81.456l-36.55-32.202.207-40.203c-.073-9.326 6.023-16.906 6.023-16.906l25.803-34.791h-72.419z"/></svg>