<svg xmlns="http://www.w3.org/2000/svg" width="192" height="192" viewBox="0 0 192 192"><path fill="#57ac6e" d="M187.2 104.88c0 45.696-40.8 82.704-91.2 82.704s-91.2-36.96-91.2-82.704c0-45.696 40.8-82.8 91.2-82.8s91.2 37.104 91.2 82.8z"/><path fill="#96efae" d="M84.768 39.168c0 19.2-14.208 34.752-31.776 34.752s-31.776-15.552-31.776-34.752c0-19.2 14.208-34.752 31.776-34.752s31.776 15.552 31.776 34.752zm86.016 0c0 19.2-14.208 34.752-31.776 34.752s-31.776-15.552-31.776-34.752c0-19.2 14.208-34.752 31.776-34.752s31.776 15.552 31.776 34.752z"/><path fill="#404040" d="M60.96 39.36c0 4.8-3.456 8.64-7.68 8.64s-7.68-3.84-7.68-8.64c0-4.704 3.456-8.544 7.68-8.544s7.68 3.84 7.68 8.64zm85.296.096c0 4.704-3.36 8.544-7.68 8.544-4.224 0-7.68-3.84-7.68-8.64 0-4.704 3.456-8.544 7.68-8.544 4.32 0 7.68 3.84 7.68 8.64z"/><path fill="#498359" d="M78.384 129.024c0 4.32-3.216 7.872-7.2 7.872s-7.2-3.552-7.2-7.872 3.168-7.92 7.2-7.92 7.2 3.552 7.2 7.92zm56.064 0c0 4.32-3.168 7.872-7.2 7.872s-7.2-3.552-7.2-7.872 3.264-7.92 7.2-7.92 7.2 3.552 7.2 7.92z"/></svg>