<?xml version="1.0" encoding="utf-8"?>
<!-- Generated by IcoMoon.io -->
<!DOCTYPE svg PUBLIC "-//W3C//DTD SVG 1.1//EN" "http://www.w3.org/Graphics/SVG/1.1/DTD/svg11.dtd">
<svg version="1.1" xmlns="http://www.w3.org/2000/svg" xmlns:xlink="http://www.w3.org/1999/xlink" width="32" height="32" viewBox="0 0 32 32">
<path fill="#555" d="M12.183 24.009c0.697-0.717 0.847-1.725 0.335-2.251l-3.092-3.179c-0.513-0.527-1.493-0.373-2.191 0.344l-2.525 2.596c-0.697 0.716-0.847 1.724-0.335 2.251l3.092 3.179c0.513 0.527 1.493 0.373 2.191-0.344l2.525-2.595z"></path>
<path fill="#57ac6e" d="M18.861 7.387l-11.97 11.969 4.963 4.963 11.97-11.97-1.149-1.149 0.865-0.865-2.543-2.543-0.865 0.865-1.271-1.271z"></path>
<path fill="#4c5665" d="M26.594 4.739l-0.883 2.577-1.695-1.695 2.577-0.883z"></path>
<path fill="#f3c600" d="M18.861 7.387l5.156-1.765 1.695 1.695-1.765 5.156-0.635-0.635-1.501 0.229 0.459-3.002-3.002 0.459 0.229-1.501-0.635-0.635z"></path>
<path fill="#61493c" d="M16.923 13.419c4.181 4.181 4.164 6.081 2.981 7.264s-3.083 1.199-7.263-2.981-9.059-10.975-7.876-12.158c1.183-1.183 7.977 3.695 12.158 7.875z"></path>
<path fill="#735746" d="M18.29 19.069c1.493-1.493 4.238-1.169 5.731 0.324 0.592 0.592 0.916 1.249 1.158 1.959-1.059 1.040-3.138 4.247-7.265 2.513-0.85-1.526-0.843-3.578 0.376-4.796z"></path>
<path fill="#d72f44" d="M24.339 21.295c-1.339 0.093-1.907 0.329-2.793 1.316-0.7 0.781-0.274 0.437-1.321 0.978-1.347 0.27-0.58 0.155-2.312 0.276 0.192 0.343 0.425 0.661 0.7 0.935 2.596 2.595 7.947 2.211 9.315 0.843-1.545-0.979-2.184-2.639-2.75-4.291-0.349-0.054-0.072-0.015-0.84-0.057z"></path>
</svg>
