<svg xmlns="http://www.w3.org/2000/svg" width="192" height="192" viewBox="0 0 192 192"><path fill="#555" d="M58.942 80.776l-52.778-55.343 20.881-20.881 52.693 55.663-20.796 20.561z"/><path fill="#d72f44" d="M78.089 100.583c-10.441 14.006-12.987 29.03 7.13 49.147 25.465 25.465 77.328 49.147 94.644 31.746 17.401-17.401-6.281-69.179-31.746-94.645-19.947-19.947-34.887-17.655-48.807-7.385z"/><path fill="#f3c600" d="M64.338 74.694l9.253-9.252 35.65 35.65c1.019-.255 2.122-.424 3.226-.424 7.47 0 13.496 6.026 13.496 13.496s-6.026 13.496-13.496 13.496c-7.47 0-13.497-6.026-13.497-13.496 0-1.443.255-2.801.679-4.159l-35.311-35.311z"/></svg>