<?xml version="1.0" encoding="utf-8"?>
<!-- Generated by IcoMoon.io -->
<!DOCTYPE svg PUBLIC "-//W3C//DTD SVG 1.1//EN" "http://www.w3.org/Graphics/SVG/1.1/DTD/svg11.dtd">
<svg version="1.1" xmlns="http://www.w3.org/2000/svg" xmlns:xlink="http://www.w3.org/1999/xlink" width="32" height="32" viewBox="0 0 32 32">
<path fill="#555" d="M3.765 25.176c0 0.676 0.548 1.223 1.223 1.223h22.023c0.676 0 1.223-0.547 1.223-1.223v-18.352c0-0.675-0.547-1.223-1.223-1.223h-22.023c-0.675 0-1.223 0.548-1.223 1.223v18.352z"></path>
<path fill="#5e75ff" d="M6.212 19.059c0 0.676 0.547 1.223 1.223 1.223h17.129c0.676 0 1.223-0.547 1.223-1.223v-9.864c0-0.676-0.547-1.224-1.223-1.224h-17.129c-0.676 0-1.223 0.548-1.223 1.224v9.864z"></path>
<path fill="#d72f44" d="M23.341 23.341c0 0.676 0.548 1.224 1.224 1.224s1.223-0.548 1.223-1.224c0-0.676-0.547-1.223-1.223-1.223s-1.224 0.547-1.224 1.223zM6.212 23.341c0 0.676 0.547 1.224 1.223 1.224s1.224-0.548 1.224-1.224c0-0.676-0.548-1.223-1.224-1.223s-1.223 0.547-1.223 1.223z"></path>
<path fill="#ffd300" d="M17.835 23.953c0 0.338 0.274 0.612 0.611 0.612s0.612-0.274 0.612-0.612v-1.223c0-0.338-0.274-0.612-0.612-0.612s-0.611 0.274-0.611 0.612v1.223z"></path>
<path fill="#f3c700" d="M12.941 23.953c0 0.338 0.274 0.612 0.612 0.612s0.611-0.274 0.611-0.612v-1.223c0-0.338-0.274-0.612-0.611-0.612s-0.612 0.274-0.612 0.612v1.223zM15.388 23.953c0 0.338 0.274 0.612 0.612 0.612s0.612-0.274 0.612-0.612v-1.223c0-0.338-0.274-0.612-0.612-0.612s-0.612 0.274-0.612 0.612v1.223z"></path>
</svg>
