<?xml version="1.0" encoding="utf-8"?>
<!-- Generated by IcoMoon.io -->
<!DOCTYPE svg PUBLIC "-//W3C//DTD SVG 1.1//EN" "http://www.w3.org/Graphics/SVG/1.1/DTD/svg11.dtd">
<svg version="1.1" xmlns="http://www.w3.org/2000/svg" xmlns:xlink="http://www.w3.org/1999/xlink" width="32" height="32" viewBox="0 0 32 32">
<path fill="#eaeaea" d="M27.737 6.057h-23.473c-0.997 0-1.805 0.809-1.805 1.808v16.269c0 0.999 0.809 1.808 1.805 1.808h23.473c0.997 0 1.805-0.809 1.805-1.808v-16.269c0-0.999-0.809-1.808-1.805-1.808z"></path>
<path fill="#d72f44" d="M20.965 13.74c-0.249 0-0.451-0.202-0.451-0.451s0.202-0.452 0.451-0.452 0.451 0.202 0.451 0.452c0 0.249-0.202 0.451-0.451 0.451zM20.965 11.481c-0.997 0-1.805 0.809-1.805 1.808s0.808 1.807 1.805 1.807 1.805-0.809 1.805-1.807c0-0.999-0.808-1.808-1.805-1.808zM11.035 13.74c-0.249 0-0.451-0.202-0.451-0.451s0.202-0.452 0.451-0.452 0.451 0.202 0.451 0.452c0 0.249-0.202 0.451-0.451 0.451zM11.035 11.481c-0.997 0-1.805 0.809-1.805 1.808s0.808 1.807 1.805 1.807 1.805-0.809 1.805-1.807c0-0.999-0.808-1.808-1.805-1.808zM22.771 16h-13.541c-0.748 0-1.355-1.214-1.355-2.711s0.607-2.712 1.355-2.712h13.541c0.748 0 1.355 1.214 1.355 2.712s-0.607 2.711-1.355 2.711zM4.263 18.711h23.473v-10.846h-23.473z"></path>
<path fill="#aaa" d="M11.486 23.231c0.249 0 0.451 0.203 0.451 0.452s-0.202 0.452-0.451 0.452-0.451-0.202-0.451-0.452c0-0.249 0.202-0.452 0.451-0.452zM15.097 23.231h1.805c0.249 0 0.451 0.203 0.451 0.452s-0.202 0.452-0.451 0.452h-1.805c-0.249 0-0.451-0.202-0.451-0.452s0.202-0.452 0.451-0.452zM20.514 23.231c0.249 0 0.451 0.203 0.451 0.452s-0.202 0.452-0.451 0.452-0.451-0.202-0.451-0.452c0-0.249 0.202-0.452 0.451-0.452zM24.125 25.943c0-0.145-0.037-0.281-0.099-0.403l0.003-0.001-1.805-3.616-0.003 0.002c-0.149-0.296-0.451-0.501-0.805-0.501h-10.833c-0.353 0-0.656 0.205-0.805 0.501l-0.003-0.002-1.806 3.616 0.003 0.001c-0.061 0.121-0.099 0.257-0.099 0.403z"></path>
</svg>
