<svg xmlns="http://www.w3.org/2000/svg" width="192" height="192" viewBox="0 0 192 192"><path fill="#735746" d="M6.041 27.56v136.586s179.384.409 179.754 0c.37-.409 0-136.586 0-136.586z"/><path fill="#f3c600" d="M18.434 121.556h154.922v-81.517l-154.744-.106z"/><path fill="#57ac6e" d="M39.341 57.453h112.573v41.277h-112.574v-41.277z"/><path fill="#404040" d="M58.818 89.56c-6.415 0-11.615-5.2-11.615-11.615s5.2-11.614 11.615-11.614 11.614 5.2 11.614 11.614-5.2 11.615-11.614 11.615zm74.691.179c-6.513 0-11.793-5.281-11.793-11.794s5.28-11.794 11.793-11.794c6.514 0 11.794 5.281 11.794 11.794s-5.28 11.794-11.794 11.794zm16.336 74.701l-12.637-26.668-82.6-.012c-12.367 24.814-12.616 25.714-12.616 26.68z"/></svg>