<?xml version="1.0" encoding="utf-8"?>
<!-- Generated by IcoMoon.io -->
<!DOCTYPE svg PUBLIC "-//W3C//DTD SVG 1.1//EN" "http://www.w3.org/Graphics/SVG/1.1/DTD/svg11.dtd">
<svg version="1.1" xmlns="http://www.w3.org/2000/svg" xmlns:xlink="http://www.w3.org/1999/xlink" width="32" height="32" viewBox="0 0 32 32">
<path fill="#57ac6e" d="M4.542 10.557v14.036c0 1.265 1.026 2.291 2.292 2.291h18.332c1.266 0 2.292-1.026 2.292-2.291v-14.036h-22.916z"></path>
<path fill="#5e75ff" d="M27.458 7.407c0-1.265-1.026-2.291-2.292-2.291h-18.332c-1.266 0-2.292 1.026-2.292 2.291v3.437h22.916v-3.437z"></path>
<path fill="#fff" d="M11.99 7.979c0-0.633-0.513-1.145-1.146-1.145s-1.146 0.513-1.146 1.145 0.513 1.146 1.146 1.146c0.633 0 1.146-0.513 1.146-1.146zM15.427 7.979c0-0.633-0.513-1.145-1.146-1.145s-1.146 0.513-1.146 1.145 0.513 1.146 1.146 1.146c0.633 0 1.146-0.513 1.146-1.146zM8.553 7.979c0-0.633-0.513-1.145-1.146-1.145s-1.146 0.513-1.146 1.145 0.513 1.146 1.146 1.146c0.633 0 1.146-0.513 1.146-1.146z"></path>
<path fill="#555" d="M7.215 13.709h7.729v9.739h-7.729zM16.769 13.709h7.729v4.010h-7.729zM16.769 19.628h7.729v3.629h-7.729z"></path>
</svg>
