<?xml version="1.0" encoding="utf-8"?>
<!-- Generated by IcoMoon.io -->
<!DOCTYPE svg PUBLIC "-//W3C//DTD SVG 1.1//EN" "http://www.w3.org/Graphics/SVG/1.1/DTD/svg11.dtd">
<svg version="1.1" xmlns="http://www.w3.org/2000/svg" xmlns:xlink="http://www.w3.org/1999/xlink" width="32" height="32" viewBox="0 0 32 32">
<path fill="#555" d="M19.437 29.177c2.527 0 4.583-2.057 4.583-4.583 0-0.633-0.513-1.146-1.146-1.146s-1.145 0.513-1.145 1.146c0 1.264-1.028 2.291-2.292 2.291s-2.291-1.027-2.291-2.291v-20.624c0-0.633-0.513-1.146-1.146-1.146s-1.146 0.513-1.146 1.146v20.624c0 2.527 2.056 4.583 4.583 4.583z"></path>
<path fill="#5e75ff" d="M23.5 17.719s-0.156-10.117-7.5-13.749c7.593 0 13.749 6.156 13.749 13.749-2.89-1.953-6.249 0-6.249 0z"></path>
<path fill="#555" d="M8.5 17.719s-3.319-1.953-6.249 0c0-7.593 6.156-13.749 13.749-13.749-7.343 3.633-7.5 13.749-7.5 13.749z"></path>
<path fill="#57ac6e" d="M23.499 17.719c0-0.691-3.357-1.875-7.499-1.875s-7.499 1.185-7.499 1.875c0 0 0.156-10.117 7.499-13.749 7.344 3.633 7.499 13.749 7.499 13.749z"></path>
</svg>
