<svg xmlns="http://www.w3.org/2000/svg" width="192" height="192" viewBox="0 0 192 192"><path fill="#735746" d="M118.493 178.97c16.536 0 29.99-13.454 29.99-29.99.467.205-15.319-.453-14.991 0 0 8.27-6.729 14.995-14.999 14.995-8.266 0-14.995-6.726-14.995-14.995v-134.956h-14.995v134.956c0 16.535 13.454 29.99 29.99 29.99z"/><path fill="#57ac6e" d="M145.075 103.472s-1.019-66.68-49.075-90.451c49.69 0 89.784 48.354 89.971 90.451.002.378-40.895 0-40.895 0z"/><path fill="#d5d5d5" d="M96.66 13.02c48.056 23.783 48.418 90.446 48.418 90.446-98.153.006-139.046.384-139.048.006-.143-39.795 40.942-90.442 90.628-90.442z"/></svg>