<svg xmlns="http://www.w3.org/2000/svg" width="192" height="192" viewBox="0 0 192 192"><path fill="#57ac6e" d="M9.734 74.844l172.302-.141.23 107.882-171.431.014z"/><path fill="#404040" d="M95.885 103.619c10.546 0 19.088 8.547 19.088 19.088 0 7.048-3.861 13.133-9.544 16.44v12.193c0 5.269-4.27 9.544-9.544 9.544-5.269 0-9.544-4.275-9.544-9.544v-12.193c-5.678-3.307-9.544-9.392-9.544-16.44 0-10.541 8.547-19.088 19.088-19.088z"/><path fill="#555" d="M31.698 74.785c0-35.965 29.259-65.224 65.224-65.224 22.215 0 40.135 10.511 52.219 29.179.299-.69-18.358 14.087-18.358 14.087s-11.903-19.097-33.861-19.109c-22.645-.014-41.387 18.422-41.387 41.067z"/></svg>