<svg xmlns="http://www.w3.org/2000/svg" width="192" height="192" viewBox="0 0 192 192"><path fill="#555" d="M54.63 113.624c7.937 30.125 35.258 51.166 66.441 51.166 3.02 4.688 1.669 6.041 0 6.041-30.19-.236-56.118-17.604-68.513-44.959v35.105c6.046 1.239 9.613 6.625 9.91 12.517.001 7.131-5.8 12.931-12.931 12.931s-12.931-5.8-12.931-12.931c.119-5.811 4.059-11.32 9.911-12.517v-43.331zm-5.092-108.234c7.13 0 12.931 5.801 12.931 12.931-.119 5.811-4.059 11.321-9.911 12.517v35.483c12.134-27.716 38.518-44.336 68.513-44.966 3.02 3.02 1.669 6.04.001 6.04-31.174 0-58.489 21.026-66.425 51.133-7.305-1.523-8.128-3.986-8.128-3.986v-43.703c-6.046-1.239-9.613-6.626-9.911-12.517 0-7.13 5.801-12.931 12.931-12.931z"/><path fill="#d72f44" d="M29.905 118.454v-43.763h43.103v43.763z"/><path fill="#57ac6e" d="M117.551 45.65v-41.843h43.104v41.843zm0 143.05v-41.522h43.104v41.522z"/></svg>