<svg xmlns="http://www.w3.org/2000/svg" width="192" height="192" viewBox="0 0 192 192"><path fill="#444" d="M95.562 6.314c-49.016 0-88.75 39.781-88.75 88.855s39.734 88.855 88.75 88.855 88.75-39.781 88.75-88.855c0-49.074-39.734-88.855-88.75-88.855z"/><path fill="#57ac6e" d="M95.562 100.396c-2.884 0-5.221-2.339-5.221-5.227s2.336-5.227 5.221-5.227 5.221 2.338 5.221 5.227c0 2.888-2.337 5.227-5.221 5.227zm0-47.041c-23.067 0-41.765 18.719-41.765 41.814 0 23.092 18.698 41.814 41.765 41.814s41.765-18.722 41.765-41.814c0-23.095-18.697-41.814-41.765-41.814z"/></svg>