<svg xmlns="http://www.w3.org/2000/svg" width="192" height="192" viewBox="0 0 192 192"><path fill="#5e75ff" d="M95.86 35.769v121.417l-56.041-28.048-35.497 1.069-.179-65.711 35.677-.74 56.041-27.988z"/><path fill="#555" d="M135.573 35.831c31.138 4.846 53.736 30.356 53.736 60.65s-22.598 55.805-53.736 60.65c.083.037-1.618-9.822-1.663-9.828 26.087-4.058 45.022-25.433 45.022-50.822s-18.935-46.764-45.022-50.822c.215.162 1.405-9.528 1.663-9.829zm-7.599 23.273c19.192 2.986 33.118 18.704 33.118 37.377s-13.926 34.391-33.118 37.377c.031.021-1.499-9.669-1.663-9.828 14.141-2.198 24.406-13.786 24.406-27.549 0-13.765-10.265-25.351-24.406-27.549.334.008 1.694-9.682 1.663-9.829z"/></svg>