<svg xmlns="http://www.w3.org/2000/svg" width="192" height="192" viewBox="0 0 192 192"><path fill="#57ac6e" d="M155.615 66.034h-16.285c-.406 0-.735-.33-.735-.735v-25.329c0-.406.33-.735.735-.735h16.285c.406 0 .735.329.735.735v25.329c0 .406-.329.735-.735.735z"/><path fill="#8941b1" d="M48.239 45.613v-41.733h80.593v41.733z"/><path fill="#555" d="M35.65 133.382v-105.923h105.774v105.923z"/><path fill="#f3c600" d="M125.355 117.347h-73.639v-76.478h73.639z"/><path fill="#8941b1" d="M47.257 133.222s-.476 55.718 0 54.889c.475-.829 80.594 0 80.594 0v-54.889z"/><path fill="#d72f44" d="M104.299 80.347c0 9.165-7.43 16.597-16.597 16.597-9.165 0-16.595-7.432-16.595-16.597 0-9.166 7.43-16.597 16.595-16.597 9.166 0 16.597 7.43 16.597 16.597z"/></svg>