<svg xmlns="http://www.w3.org/2000/svg" width="192" height="192" viewBox="0 0 192 192"><path fill="#57ac6e" d="M147.213 5.885c-130.563 130.01-140.19 139.41-140.945 139.909-1.296.856 34.672 40.352 78.345 40.322 54.832-.038 101.481-45.299 101.151-101.151-.201-34.132-20.206-60.21-38.551-78.561z"/><path fill="#d72f44" d="M131.974 151.629c36.84-25.789 45.794-76.564 20.005-113.393-5.184-7.397-11.381-13.671-18.266-18.767l-114.214 113.291c26.152 35.382 76.234 44.256 112.475 18.869z"/><path fill="#404040" d="M56.013 138.021c-4.865 0-8.809-3.944-8.809-8.809s3.944-8.809 8.809-8.809c4.865 0 8.809 3.944 8.809 8.809s-3.944 8.809-8.809 8.809zm31.868 7.773c-4.722 0-8.55-3.828-8.55-8.55s3.828-8.55 8.55-8.55c4.722 0 8.55 3.828 8.55 8.55s-3.828 8.55-8.55 8.55zm32.646-15.545c-4.722 0-8.55-3.828-8.55-8.55s3.828-8.55 8.55-8.55c4.722 0 8.55 3.827 8.55 8.55s-3.828 8.55-8.55 8.55zm17.1-30.574c-4.436 0-8.032-3.596-8.032-8.032s3.596-8.031 8.032-8.031 8.032 3.596 8.032 8.031-3.596 8.032-8.032 8.032zm-7.773-33.163c-4.436 0-8.032-3.596-8.032-8.032s3.596-8.032 8.032-8.032 8.032 3.596 8.032 8.032-3.596 8.032-8.032 8.032z"/></svg>