<svg xmlns="http://www.w3.org/2000/svg" width="192" height="192" viewBox="0 0 192 192"><path fill="#555" d="M126.261 82.544c17.385-17.385 17.385-45.461 0-62.754-17.385-17.385-45.461-17.385-62.754 0-17.385 17.385-17.385 45.462 0 62.754l7.81-7.809c-13.016-13.016-13.016-34.213 0-47.228s34.213-13.016 47.228 0c13.016 13.016 13.016 34.213 0 47.228l7.717 7.809z"/><path fill="#57ac6e" d="M41.009 104.18l25.009 25.009-33.747 2.417v13.852l53.921 3.905 35.886 35.886 64.613-64.706-81.069-80.975z"/><path fill="#8941b1" d="M35.059 137.463c-3.998-12.458-17.385-19.245-29.75-15.154l14.596 44.997c12.365-4.09 19.151-17.385 15.154-29.843z"/></svg>