<svg xmlns="http://www.w3.org/2000/svg" width="192" height="192" viewBox="0 0 192 192"><path fill="#57ac6e" d="M145.788 135.159l-76.208 17.661-17.676-76.141 76.208-17.662z"/><path fill="#555" d="M82.388 69.614l-30.483 7.065-10.604-45.685 30.482-7.065zm-21.574 69.493l-21.762-93.753-34.686-16.862 2.72-5.599 37.358 18.159 22.434 96.647zm30.154 14.368l-.699-6.145 95.303-22.087 1.404 6.065z"/><path fill="#8941b1" d="M94.466 153.253c2.838 12.227-4.781 24.438-17.019 27.274s-24.46-4.777-27.298-17.004c-2.839-12.226 4.781-24.438 17.019-27.274s24.459 4.777 27.298 17.004z"/></svg>