<?xml version="1.0" encoding="utf-8"?>
<!-- Generated by IcoMoon.io -->
<!DOCTYPE svg PUBLIC "-//W3C//DTD SVG 1.1//EN" "http://www.w3.org/Graphics/SVG/1.1/DTD/svg11.dtd">
<svg version="1.1" xmlns="http://www.w3.org/2000/svg" xmlns:xlink="http://www.w3.org/1999/xlink" width="32" height="32" viewBox="0 0 32 32">
<path fill="#f3c600" d="M17.146 11.417c0 3.164 2.565 5.729 5.729 5.729s5.729-2.565 5.729-5.729-2.565-5.729-5.729-5.729c-3.163 0-5.729 2.565-5.729 5.729z"></path>
<path fill="#555" d="M7.598 18.291c0-4.429 3.761-8.020 8.402-8.020 3.937 0 7.233 2.589 8.144 6.078 2.524 0.365 4.459 2.439 4.459 4.95 0 2.768-2.351 5.013-5.251 5.013h-15.755c-2.32 0-4.201-1.795-4.201-4.010s1.881-4.011 4.201-4.011z"></path>
</svg>
