<svg xmlns="http://www.w3.org/2000/svg" width="192" height="192" viewBox="0 0 192 192"><path fill="#565860" d="M186.533 82.491c0 14.391-11.668 26.058-26.059 26.058-1.485 0-2.927-.167-4.343-.408v.408h-69.49c-11.994 0-21.716-9.722-21.716-21.715s9.722-21.716 21.716-21.716c1.696 0 3.34.213 4.925.582-.367-1.585-.582-3.229-.582-4.925 0-11.994 9.722-21.716 21.716-21.716 6.046 0 11.509 2.474 15.446 6.46 4.133-8.934 13.151-15.146 23.642-15.146 14.393 0 26.059 11.666 26.059 26.059 0 2.074-.267 4.08-.725 6.015 5.748 4.78 9.411 11.983 9.411 20.044z"/><path fill="#4074f7" d="M163.139 160.532c13.596-1.976 22.706-12.289 23.394-25.924 0-14.393-11.668-26.059-26.059-26.059l-1.6.081c1.334-2.713 1.451-5.811 1.6-8.767 0-14.393-11.668-26.059-26.059-26.059-6.951.044-13.372 2.747-18.267 7.642-3.453-20.077-20.695-32.708-40.365-33.701-22.786 0-41.259 18.474-41.259 41.26.254 5.023-.067 2.838.697 6.589-17.831.593-30.237 15.435-31.099 32.499 0 17.989 14.584 32.573 32.573 32.573l2.171-.141v.141h121.607l2.665-.134zm-52.358-49.959l.074.148h-.184l.11-.148z"/></svg>