<svg xmlns="http://www.w3.org/2000/svg" width="192" height="192" viewBox="0 0 192 192"><path fill="#5e75ff" d="M188.581 103.521c0-34.297-26.271-61.982-58.672-61.982-30.054 0-54.814 23.977-58.256 54.807l-.01.022s-.028.319-.091.854l-.019.213c-.714 6.271-5.132 31.835-17.437 23.664-2.027-1.346-7.485-4.622-5.317-7.379 2.165-2.757 20.675-13.785 16.736-48.045 0 0-22.249 6.302-28.158 32.689 0 0-5.708-18.707-36.82-13.981 0 0 1.996 28.474 38.003 33.077 0 0 1.969.191 3.123 2.291 6.597 12.02 11.644 26.969 89.812 26.969h4.922c33.09 0 52.182-3.474 52.182-43.198z"/><path fill="#404040" d="M177.988 113.494c0 1.843-1.496 3.339-3.342 3.339-1.843 0-3.339-1.496-3.339-3.339 0-1.846 1.496-3.342 3.339-3.342 1.846 0 3.342 1.496 3.342 3.342z"/><path fill="#d5d5d5" d="M138.158 150.461c16.216 0 27.094-3.189 35.987-9.854-11.992-8.785-28.499-12.317-49.243-12.317-21.686 0-40.121 4.294-52.029 13.772 12.686 3.965 30.965 8.399 60.362 8.399z"/></svg>