<svg xmlns="http://www.w3.org/2000/svg" width="192" height="192" viewBox="0 0 192 192"><path fill="#d5d5d5" d="M22.53 186.031h146.939v-180.062h-146.939v180.062z"/><path fill="#57ac6e" d="M161.654 51.597h-131.308v-5.915h131.308v5.915z"/><path fill="#d72f44" d="M135.038 87.423c6.675 8.618 10.9 19.35 10.9 31.095 0 27.546-22.307 49.937-49.937 49.937-27.546 0-49.937-22.307-49.937-49.937 0-27.546 22.307-49.938 49.937-49.938 6.337 0 12.506 1.183 18.082 3.38 0 .085 10.9 2.45 20.955 15.463z"/><path fill="#8941b1" d="M30.726 28.57h11.83v6.76h-11.83z"/><path fill="#555" d="M51.85 28.57h9.294v6.76h-9.294z"/></svg>