<svg xmlns="http://www.w3.org/2000/svg" width="192" height="192" viewBox="0 0 192 192"><path fill="#57ac6e" d="M187.6 102.047v28.475h-12.082v-11.39h-6.041v-17.085h18.123z"/><path fill="#555" d="M169.555 79.202v108.015h-159.46v-68.085h-5.695v-17.085h5.695l.255-22.78 159.205-.065z"/><path fill="#5e75ff" d="M72.74 136.217c3.149 0 5.695 2.546 5.695 5.695s-2.546 5.695-5.695 5.695c-3.149 0-5.695-2.546-5.695-5.695s2.546-5.695 5.695-5.695zm68.34 0c3.149 0 5.695 2.546 5.695 5.695s-2.546 5.695-5.695 5.695c-3.149 0-5.695-2.546-5.695-5.695s2.546-5.695 5.695-5.695zm-34.17 0c3.149 0 5.695 2.546 5.695 5.695s-2.546 5.695-5.695 5.695-5.695-2.546-5.695-5.695 2.546-5.695 5.695-5.695zm-68.34 0c3.149 0 5.695 2.546 5.695 5.695s-2.546 5.695-5.695 5.695-5.695-2.546-5.695-5.695 2.546-5.695 5.695-5.695zm51.255-17.084c3.15 0 5.695 2.546 5.695 5.695s-2.546 5.695-5.695 5.695c-3.149 0-5.695-2.546-5.695-5.695s2.546-5.695 5.695-5.695zm34.17 0c3.149 0 5.695 2.546 5.695 5.695s-2.546 5.695-5.695 5.695-5.695-2.546-5.695-5.695 2.546-5.695 5.695-5.695zm-68.34 0c3.149 0 5.695 2.546 5.695 5.695s-2.546 5.695-5.695 5.695-5.695-2.546-5.695-5.695 2.546-5.695 5.695-5.695zm-17.085-17.086c3.149 0 5.695 2.546 5.695 5.695s-2.546 5.695-5.695 5.695-5.695-2.546-5.695-5.695c0-3.15 2.546-5.695 5.695-5.695zm68.34 0c3.149 0 5.695 2.546 5.695 5.695s-2.546 5.695-5.695 5.695-5.695-2.546-5.695-5.695c0-3.15 2.546-5.695 5.695-5.695zm-34.17 0c3.149 0 5.695 2.546 5.695 5.695s-2.546 5.695-5.695 5.695-5.695-2.546-5.695-5.695c0-3.15 2.546-5.695 5.695-5.695zm68.34 0c3.149 0 5.695 2.546 5.695 5.695s-2.546 5.695-5.695 5.695-5.695-2.546-5.695-5.695c0-3.15 2.546-5.695 5.695-5.695z"/><path fill="#bfbfbf" d="M20.94 3.823v75.445h136.68v-75.445z"/></svg>