<svg xmlns="http://www.w3.org/2000/svg" width="192" height="192" viewBox="0 0 192 192"><path fill="#57ac6e" d="M170.131 187.392l-25.762-25.762 17.146-17.141 25.763 25.762z"/><path fill="#f3c600" d="M92.005 4.608c-48.126 0-87.281 39.155-87.281 87.281s39.155 87.281 87.281 87.281c48.126 0 87.281-39.155 87.281-87.281s-39.155-87.281-87.281-87.281z"/><path fill="#5e75ff" d="M97.075 60.253c1.072.006 2.18.004 3.258.029.281.007 1.036-.008 1.37.089.057.362.05.792.058 1.147.049 2.229.05 4.46.059 6.689.017 4.661.013 9.323.008 13.984h21.695v19.396h-21.738c-.018 7.274-.054 14.547-.082 21.82h-19.396v-21.82h-21.82v-19.396h21.82v-21.82c4.922-.071 9.845-.107 14.768-.119z"/></svg>