<?xml version="1.0" encoding="utf-8"?>
<!-- Generated by IcoMoon.io -->
<!DOCTYPE svg PUBLIC "-//W3C//DTD SVG 1.1//EN" "http://www.w3.org/Graphics/SVG/1.1/DTD/svg11.dtd">
<svg version="1.1" xmlns="http://www.w3.org/2000/svg" xmlns:xlink="http://www.w3.org/1999/xlink" width="32" height="32" viewBox="0 0 32 32">
<path fill="#555" d="M13.833 15.117h2.667v2.667h-2.667z"></path>
<path fill="#57ac6e" d="M27.167 28.883c-0.427 0-0.853-0.163-1.179-0.488l-3.542-3.542c-0.651-0.651-0.651-1.706 0-2.357s1.707-0.651 2.357 0l3.542 3.542c0.651 0.651 0.651 1.706 0 2.357-0.325 0.325-0.752 0.488-1.179 0.488z"></path>
<path fill="#555" d="M15.167 3.117c-6.617 0-12 5.383-12 12s5.383 12 12 12 12-5.383 12-12-5.383-12-12-12zM15.167 5.783c5.155 0 9.333 4.179 9.333 9.333s-4.179 9.333-9.333 9.333-9.333-4.179-9.333-9.333 4.179-9.333 9.333-9.333z"></path>
<path fill="#5e75ff" d="M15.167 20.783c-0.736 0-1.333-0.597-1.333-1.333v-8.667c0-0.736 0.597-1.333 1.333-1.333s1.333 0.597 1.333 1.333v8.667c0 0.736-0.597 1.333-1.333 1.333zM19.5 16.45h-8.667c-0.736 0-1.333-0.597-1.333-1.333s0.597-1.333 1.333-1.333h8.667c0.736 0 1.333 0.597 1.333 1.333s-0.597 1.333-1.333 1.333z"></path>
</svg>
