<?xml version="1.0" encoding="utf-8"?>
<!-- Generated by IcoMoon.io -->
<!DOCTYPE svg PUBLIC "-//W3C//DTD SVG 1.1//EN" "http://www.w3.org/Graphics/SVG/1.1/DTD/svg11.dtd">
<svg version="1.1" xmlns="http://www.w3.org/2000/svg" xmlns:xlink="http://www.w3.org/1999/xlink" width="32" height="32" viewBox="0 0 32 32">
<path fill="#d63f31" d="M16 23.29c-1.83 0-3.313 1.483-3.313 3.313s1.483 3.313 3.313 3.313c1.83 0 3.313-1.483 3.313-3.313s-1.483-3.313-3.313-3.313z"></path>
<path fill="#565860" d="M16 2.083c-1.83 0-3.313 1.483-3.313 3.313-0.009 0.435 0.094 0.855 0.262 1.253-2.636 0.884-4.419 2.789-5.233 5.401v8.753s0 2.568-1.657 3.424v1.711h19.881v-1.711c-1.657-0.856-1.657-3.424-1.657-3.424v-8.753c-0.766-2.786-2.615-4.34-5.232-5.401 0.203-0.386 0.24-0.825 0.261-1.253 0-1.83-1.483-3.313-3.313-3.313z"></path>
</svg>
