<?xml version="1.0" encoding="utf-8"?>
<!-- Generated by IcoMoon.io -->
<!DOCTYPE svg PUBLIC "-//W3C//DTD SVG 1.1//EN" "http://www.w3.org/Graphics/SVG/1.1/DTD/svg11.dtd">
<svg version="1.1" xmlns="http://www.w3.org/2000/svg" xmlns:xlink="http://www.w3.org/1999/xlink" width="32" height="32" viewBox="0 0 32 32">
<path fill="#735746" d="M3.52 7.676c-0.083-2.67 2.819-4.842 5.365-3.97 1.46 0.344 2.249 1.697 2.985 2.878 2.688-0.849 5.555-0.843 8.249 0 0.789-1.365 1.822-2.843 3.543-3.003 2.671-0.522 5.281 2.095 4.759 4.765-0.155 1.507-1.395 2.486-2.475 3.377 1.869 3.691 1.816 8.379-0.617 11.809-2.611 3.976-7.869 5.881-12.426 4.522-4.522-1.241-7.999-5.537-8.171-10.231-0.184-2.119 0.451-4.172 1.317-6.077-1.282-1.003-2.647-2.291-2.528-4.071z"></path>
<path fill="#f3c600" d="M14.421 15.633c3.038-1.044 6.587 1.265 6.883 4.457 0.439 2.831-1.804 5.691-4.646 5.976-2.843 0.439-5.715-1.822-5.982-4.676-0.356-2.499 1.329-5.056 3.745-5.757zM21.809 7.445c0.451-0.825 0.831-1.917 1.917-2.059 1.448-0.421 3.062 0.807 2.955 2.338 0.119 1.163-0.961 1.781-1.709 2.439-1.026-0.944-2.083-1.846-3.163-2.718zM6.345 5.711c1.543-1.079 3.395 0.107 3.833 1.739-1.091 0.866-2.148 1.774-3.169 2.712-1.703-0.795-2.439-3.312-0.665-4.451z"></path>
<path fill="#2b2b2b" d="M19.020 11.871c1.489-0.605 2.445 1.591 1.068 2.338-1.501 0.611-2.451-1.614-1.068-2.338zM11.953 11.895c1.453-0.689 2.439 1.792 0.967 2.237-1.431 0.759-2.499-1.691-0.967-2.237zM14.083 16.643c1.276-0.018 2.558-0.006 3.84 0.029-0.647 1.489-1.282 3.009-1.472 4.641 0.801 0.024 1.614 0.053 2.427 0.083 0 0.279 0.012 0.825 0.017 1.103-1.934 0.048-3.869 0.048-5.797 0l0.017-1.103c0.801-0.030 1.609-0.059 2.421-0.077-0.207-1.638-0.837-3.169-1.454-4.676z"></path>
</svg>
