<?xml version="1.0" encoding="utf-8"?>
<!-- Generated by IcoMoon.io -->
<!DOCTYPE svg PUBLIC "-//W3C//DTD SVG 1.1//EN" "http://www.w3.org/Graphics/SVG/1.1/DTD/svg11.dtd">
<svg version="1.1" xmlns="http://www.w3.org/2000/svg" xmlns:xlink="http://www.w3.org/1999/xlink" width="32" height="32" viewBox="0 0 32 32">
<path fill="#735647" d="M5.554 6.86h9.865c0.641 0 1.161 0.52 1.161 1.161v16.249c0 0.641-0.52 1.161-1.161 1.161h-9.865c-0.641 0-1.161-0.519-1.161-1.161v-16.249c0-0.641 0.519-1.161 1.161-1.161zM16.581 6.86h9.865c0.641 0 1.161 0.52 1.161 1.161v16.249c0 0.641-0.52 1.161-1.161 1.161h-9.865c-0.641 0-1.161-0.519-1.161-1.161v-16.249c0-0.641 0.52-1.161 1.161-1.161z"></path>
<path fill="#ccc" d="M18.031 22.529c-0.778 0-2.031 0-2.031 1.161v-17.409c0-0.641 0.519-1.161 1.161-1.161h8.125v17.409h-7.255z"></path>
<path fill="#eaeaea" d="M6.715 4.829l9.285 1.741v16.829l-9.285-1.741v-16.83z"></path>
<path fill="#d72f44" d="M18.522 22.529h2.031v4.643h-2.031v-4.643z"></path>
</svg>
