<?xml version="1.0" encoding="utf-8"?>
<!-- Generated by IcoMoon.io -->
<!DOCTYPE svg PUBLIC "-//W3C//DTD SVG 1.1//EN" "http://www.w3.org/Graphics/SVG/1.1/DTD/svg11.dtd">
<svg version="1.1" xmlns="http://www.w3.org/2000/svg" xmlns:xlink="http://www.w3.org/1999/xlink" width="32" height="32" viewBox="0 0 32 32">
<path fill="#555" d="M4.542 25.166c0 0.631 0.513 1.146 1.146 1.146h20.624c0.633 0 1.146-0.515 1.146-1.146s-0.513-1.145-1.146-1.145h-20.624c-0.633 0-1.146 0.515-1.146 1.145z"></path>
<path fill="#d72f44" d="M21.156 10.271h2.291c0.949 0 1.719 0.767 1.719 1.719v12.031h-5.729v-12.031c0-0.951 0.77-1.719 1.719-1.719z"></path>
<path fill="#57ac6e" d="M8.553 7.979h2.291c0.949 0 1.719 0.768 1.719 1.719v14.323h-5.729v-14.323c0-0.951 0.769-1.719 1.719-1.719z"></path>
<path fill="#565860" d="M25.166 12.563h-5.729v1.719h5.729z"></path>
<path fill="#555" d="M25.166 20.010h-5.729v1.719h5.729zM12.563 20.010h-5.729v1.719h5.729zM12.563 10.271h-5.729v1.719h5.729z"></path>
<path fill="#735746" d="M14.281 5.688h3.437c0.949 0 1.719 0.768 1.719 1.719v16.614h-6.875v-16.614c0-0.951 0.769-1.719 1.719-1.719z"></path>
<path fill="#f3c600" d="M19.437 7.979h-6.875v1.719h6.875zM19.437 20.010h-6.875v1.719h6.875z"></path>
</svg>
