<?xml version="1.0" encoding="utf-8"?>
<!-- Generated by IcoMoon.io -->
<!DOCTYPE svg PUBLIC "-//W3C//DTD SVG 1.1//EN" "http://www.w3.org/Graphics/SVG/1.1/DTD/svg11.dtd">
<svg version="1.1" xmlns="http://www.w3.org/2000/svg" xmlns:xlink="http://www.w3.org/1999/xlink" width="32" height="32" viewBox="0 0 32 32">
<path fill="#5e75ff" d="M16.666 13.381c4.181 4.181 4.164 6.081 2.981 7.264s-3.083 1.199-7.263-2.982-9.059-10.975-7.876-12.157c1.183-1.183 7.977 3.695 12.158 7.875z"></path>
<path fill="#555" d="M18.033 19.030c1.493-1.493 4.238-1.169 5.731 0.325 0.592 0.592 0.916 1.248 1.158 1.959-1.059 1.040-3.138 4.247-7.265 2.513-0.85-1.525-0.843-3.577 0.376-4.796z"></path>
<path fill="#f3c600" d="M24.082 21.257c-1.339 0.093-1.907 0.328-2.793 1.316-0.7 0.781-0.274 0.437-1.321 0.978-1.347 0.269-0.58 0.155-2.312 0.275 0.192 0.343 0.425 0.661 0.7 0.935 2.596 2.595 7.947 2.211 9.315 0.843-1.545-0.979-2.184-2.639-2.75-4.291-0.349-0.054-0.071-0.015-0.84-0.057z"></path>
</svg>
