<?xml version="1.0" encoding="utf-8"?>
<!-- Generated by IcoMoon.io -->
<!DOCTYPE svg PUBLIC "-//W3C//DTD SVG 1.1//EN" "http://www.w3.org/Graphics/SVG/1.1/DTD/svg11.dtd">
<svg version="1.1" xmlns="http://www.w3.org/2000/svg" xmlns:xlink="http://www.w3.org/1999/xlink" width="32" height="32" viewBox="0 0 32 32">
<path fill="#555" d="M27.458 16c0 6.328-5.131 11.458-11.458 11.458s-11.458-5.13-11.458-11.458 5.13-11.458 11.458-11.458c6.327 0 11.458 5.13 11.458 11.458z"></path>
<path fill="#5e75ff" d="M22.875 16c0 3.797-3.078 6.875-6.875 6.875s-6.875-3.078-6.875-6.875 3.077-6.875 6.875-6.875c3.797 0 6.875 3.078 6.875 6.875z"></path>
<path fill="#4c5665" d="M18.291 16c0 1.265-1.026 2.291-2.291 2.291s-2.291-1.026-2.291-2.291 1.026-2.291 2.291-2.291 2.291 1.026 2.291 2.291z"></path>
<path fill="#fffffe" d="M18.291 14.854c0 0.633-0.513 1.146-1.145 1.146-0.633 0-1.146-0.513-1.146-1.146s0.513-1.145 1.146-1.145c0.632 0 1.145 0.513 1.145 1.145z"></path>
</svg>
