<?xml version="1.0" encoding="utf-8"?>
<!-- Generated by IcoMoon.io -->
<!DOCTYPE svg PUBLIC "-//W3C//DTD SVG 1.1//EN" "http://www.w3.org/Graphics/SVG/1.1/DTD/svg11.dtd">
<svg version="1.1" xmlns="http://www.w3.org/2000/svg" xmlns:xlink="http://www.w3.org/1999/xlink" width="32" height="32" viewBox="0 0 32 32">
<path fill="#5e75ff" d="M4.542 21.729c0 1.266 1.026 2.292 2.292 2.292h18.332c1.266 0 2.292-1.026 2.292-2.292v-11.457c0-1.266-1.026-2.292-2.292-2.292h-18.332c-1.266 0-2.292 1.026-2.292 2.292v11.457z"></path>
<path fill="#555" d="M27.458 11.417h-22.916v3.437h22.916z"></path>
<path fill="#f3c600" d="M11.417 20.583c0-0.633 0.513-1.146 1.146-1.146s1.146 0.513 1.146 1.146c0 0.633-0.513 1.145-1.146 1.145s-1.146-0.513-1.146-1.145zM6.834 20.583c0-0.633 0.513-1.146 1.145-1.146 0.633 0 1.146 0.513 1.146 1.146s-0.513 1.145-1.146 1.145c-0.632 0-1.145-0.513-1.145-1.145zM16 20.583c0-0.633 0.513-1.146 1.146-1.146s1.145 0.513 1.145 1.146c0 0.633-0.513 1.145-1.145 1.145s-1.146-0.513-1.146-1.145z"></path>
</svg>
