<?xml version="1.0" encoding="utf-8"?>
<!-- Generated by IcoMoon.io -->
<!DOCTYPE svg PUBLIC "-//W3C//DTD SVG 1.1//EN" "http://www.w3.org/Graphics/SVG/1.1/DTD/svg11.dtd">
<svg version="1.1" xmlns="http://www.w3.org/2000/svg" xmlns:xlink="http://www.w3.org/1999/xlink" width="32" height="32" viewBox="0 0 32 32">
<path fill="#555" d="M6.219 22.275l6.779-7.401v-8.258h-1.501v-1.501h9.008v1.501h-1.501v8.258l6.767 7.984c1.481 1.497 0.696 4.027-2.086 4.027h-15.303c-2.783 0-3.667-3.112-2.163-4.61z"></path>
<path fill="#f3c600" d="M8.383 22.859l5.565-6.143v-2.046h4.173v2.046l5.565 6.143c1.391 1.364 0.649 2.525-0.928 2.525h-13.512c-1.849 0-2.253-1.161-0.863-2.525z"></path>
<path fill="#555" d="M14.649 19.118c0-0.571 0.472-1.032 1.053-1.032s1.053 0.461 1.053 1.032c0 0.57-0.471 1.033-1.053 1.033s-1.053-0.463-1.053-1.033zM14.335 23.247c0.363 0 0.658 0.289 0.658 0.645s-0.295 0.646-0.658 0.646c-0.363 0-0.657-0.289-0.657-0.646s0.295-0.645 0.657-0.645zM17.185 21.668c0.471 0 0.853 0.375 0.853 0.835 0 0.462-0.382 0.837-0.853 0.837s-0.851-0.375-0.851-0.837c0-0.461 0.381-0.835 0.851-0.835z"></path>
</svg>
