<?xml version="1.0" encoding="utf-8"?>
<!-- Generated by IcoMoon.io -->
<!DOCTYPE svg PUBLIC "-//W3C//DTD SVG 1.1//EN" "http://www.w3.org/Graphics/SVG/1.1/DTD/svg11.dtd">
<svg version="1.1" xmlns="http://www.w3.org/2000/svg" xmlns:xlink="http://www.w3.org/1999/xlink" width="32" height="32" viewBox="0 0 32 32">
<path fill="#d72f44" d="M16 3.397c6.961 0 12.603 5.643 12.603 12.603s-5.642 12.603-12.603 12.603c-6.961 0-12.603-5.643-12.603-12.603s5.643-12.603 12.603-12.603zM16 5.688c-5.686 0-10.312 4.626-10.312 10.312s4.626 10.312 10.312 10.312c5.687 0 10.312-4.626 10.312-10.312s-4.625-10.312-10.312-10.312z"></path>
<path fill="#555" d="M11.417 21.729c0.293 0 0.587-0.111 0.81-0.335l4.919-4.919v-5.058c0-0.632-0.513-1.145-1.146-1.145s-1.146 0.513-1.146 1.145v4.109l-4.247 4.248c-0.447 0.447-0.447 1.173 0 1.62 0.224 0.224 0.517 0.335 0.81 0.335z"></path>
</svg>
