<?xml version="1.0" encoding="utf-8"?>
<!-- Generated by IcoMoon.io -->
<!DOCTYPE svg PUBLIC "-//W3C//DTD SVG 1.1//EN" "http://www.w3.org/Graphics/SVG/1.1/DTD/svg11.dtd">
<svg version="1.1" xmlns="http://www.w3.org/2000/svg" xmlns:xlink="http://www.w3.org/1999/xlink" width="32" height="32" viewBox="0 0 32 32">
<path fill="#d72f44" d="M2.541 20.894c0 3.379 2.739 6.117 6.118 6.117s6.117-2.739 6.117-6.117c0-6.117-6.117-11.011-6.117-11.011s-6.118 4.894-6.118 11.011z"></path>
<path fill="#5e75ff" d="M9.883 16c0 3.379 2.739 6.117 6.117 6.117s6.117-2.739 6.117-6.117c0-6.117-6.117-11.011-6.117-11.011s-6.117 4.894-6.117 11.011z"></path>
<path fill="#638da0" d="M17.224 21.995c2.617-0.532 4.627-2.734 4.869-5.445 0.017-0.182 0.025-0.365 0.025-0.551 0-1.119-0.205-2.197-0.539-3.211-1.788 1.923-4.302 5.309-4.355 9.207z"></path>
<path fill="#555" d="M17.223 20.894c0 3.379 2.739 6.117 6.117 6.117s6.118-2.739 6.118-6.117c0-6.117-6.118-11.011-6.118-11.011s-6.117 4.894-6.117 11.011z"></path>
</svg>
