<?xml version="1.0" encoding="utf-8"?>
<!-- Generated by IcoMoon.io -->
<!DOCTYPE svg PUBLIC "-//W3C//DTD SVG 1.1//EN" "http://www.w3.org/Graphics/SVG/1.1/DTD/svg11.dtd">
<svg version="1.1" xmlns="http://www.w3.org/2000/svg" xmlns:xlink="http://www.w3.org/1999/xlink" width="32" height="32" viewBox="0 0 32 32">
<path fill="#d63f31" d="M21.634 6.158h-4.309v9.28h4.309zM21.061 16.943h-4.309v9.281h4.309zM15.599 6.158h-4.309v9.28h4.309zM15.599 16.943h-4.309v9.281h4.309z"></path>
<path fill="#555" d="M15.141 6.834h-3.437v8.020h3.437zM15.141 17.146h-3.437v8.020h3.437zM20.869 6.834h-3.437v8.020h3.437zM20.869 17.146h-3.437v8.020h3.437zM11.703 4.542h9.166c1.266 0 2.292 1.026 2.292 2.292v18.332c0 1.266-1.026 2.292-2.292 2.292h-9.166c-1.265 0-2.291-1.026-2.291-2.292v-18.332c0-1.266 1.026-2.292 2.291-2.292z"></path>
<path fill="#f3c600" d="M8.839 15.809c0 1.162 0.941 2.1 2.101 2.1s2.101-0.938 2.101-2.1c0-1.163-0.941-2.101-2.101-2.101s-2.101 0.938-2.101 2.101z"></path>
</svg>
