<?xml version="1.0" encoding="utf-8"?>
<!-- Generated by IcoMoon.io -->
<!DOCTYPE svg PUBLIC "-//W3C//DTD SVG 1.1//EN" "http://www.w3.org/Graphics/SVG/1.1/DTD/svg11.dtd">
<svg version="1.1" xmlns="http://www.w3.org/2000/svg" xmlns:xlink="http://www.w3.org/1999/xlink" width="32" height="32" viewBox="0 0 32 32">
<path fill="#3e7dfb" d="M26.858 8.213c-1.048-0.846-2.318-1.385-3.49-2.055-2.045 3.346-4.061 6.729-6.090 10.091 1.491 0.907 2.839 2.548 4.511 1.877s3.364-4.815 5-7.54c0.461-0.703 0.759-1.704 0.069-2.373z"></path>
<path fill="#d63f31" d="M14.449 7.325c-0.413-1.030-1.235-1.821-1.941-2.653-0.705 0.825-1.52 1.616-1.94 2.635-0.095 0.618-0.053 1.243-0.056 1.863 0.367 0.357 0.73 0.717 1.093 1.077 0.603 0.003 1.207 0.003 1.806 0.003l1.101-1.101c-0.004-0.607 0.031-1.221-0.063-1.824z"></path>
<path fill="#54545d" d="M10.715 11.121s-0.305 0.009-1.031 0.622c-0.625-0.303-1.207-0.511-1.871-0.179-0.927 0.871-0.717 1.816-0.528 2.638-0.55 0.561-0.465 1.827-0.465 1.827l8.489-0.003-0.388-4.855-4.206-0.049z"></path>
<path fill="#3e7dfb" d="M16.083 27.287c0.744 0.039 1.393-0.631 1.344-1.372 0.081-2.953 0.053-8.859 0.053-8.859l-2.17-1.030s-9.869-0.008-10.564-0.011c0.043 3.411-0.081 6.834 0.053 10.242 0.237 1.295 1.807 1.041 2.777 1.066z"></path>
<path fill="#54545d" d="M17.349 17.875c0.843 0 1.527-0.684 1.527-1.527s-0.684-1.528-1.527-1.528-1.527 0.684-1.527 1.528c0 0.843 0.684 1.527 1.527 1.527z"></path>
</svg>
