<?xml version="1.0" encoding="utf-8"?>
<!-- Generated by IcoMoon.io -->
<!DOCTYPE svg PUBLIC "-//W3C//DTD SVG 1.1//EN" "http://www.w3.org/Graphics/SVG/1.1/DTD/svg11.dtd">
<svg version="1.1" xmlns="http://www.w3.org/2000/svg" xmlns:xlink="http://www.w3.org/1999/xlink" width="32" height="32" viewBox="0 0 32 32">
<path fill="#d72f44" d="M11.767 7.815c0 2.201-1.745 3.984-3.897 3.984s-3.897-1.783-3.897-3.984 3.897-6.425 3.897-6.425 3.897 4.225 3.897 6.425z"></path>
<path fill="#fefefd" d="M9.906 7.233c0 1.15-0.911 2.082-2.036 2.082s-2.036-0.932-2.036-2.082c0-1.15 2.036-3.358 2.036-3.358s2.036 2.208 2.036 3.358z"></path>
<path fill="#d72f44" d="M27.519 7.815c0 2.201-1.745 3.984-3.897 3.984s-3.897-1.783-3.897-3.984 3.897-6.425 3.897-6.425 3.897 4.225 3.897 6.425z"></path>
<path fill="#fefefd" d="M25.659 7.233c0 1.15-0.911 2.082-2.036 2.082s-2.037-0.932-2.037-2.082c0-1.15 2.037-3.358 2.037-3.358s2.036 2.208 2.036 3.358zM31.196 17.926c0 7.005-6.803 12.684-15.196 12.684s-15.196-5.679-15.196-12.684c0-7.005 6.804-12.683 15.196-12.683s15.196 5.679 15.196 12.683z"></path>
<path fill="#d72f44" d="M31.192 18.056l0.004-0.13c0-7.005-6.803-12.683-15.196-12.683s-15.195 5.679-15.195 12.683l0.003 0.13z"></path>
<path fill="#fefefd" d="M20.308 20.807c0 0.908-1.932 3.612-4.315 3.612s-4.315-2.704-4.315-3.612c0-0.907 4.315-6.501 4.315-6.501s4.315 5.594 4.315 6.501z"></path>
<path fill="#353535" d="M11.681 20.863c0.072 0.956 1.974 3.557 4.311 3.557s4.239-2.601 4.311-3.557z"></path>
<path fill="#2b2b2b" d="M10.64 16.141c0 0.723-0.573 1.309-1.28 1.309s-1.281-0.586-1.281-1.309 0.573-1.309 1.281-1.309c0.707 0 1.28 0.587 1.28 1.309zM23.615 16.141c0 0.723-0.573 1.309-1.28 1.309s-1.28-0.586-1.28-1.309 0.573-1.309 1.28-1.309c0.707 0 1.28 0.587 1.28 1.309z"></path>
</svg>
