<?xml version="1.0" encoding="utf-8"?>
<!-- Generated by IcoMoon.io -->
<!DOCTYPE svg PUBLIC "-//W3C//DTD SVG 1.1//EN" "http://www.w3.org/Graphics/SVG/1.1/DTD/svg11.dtd">
<svg version="1.1" xmlns="http://www.w3.org/2000/svg" xmlns:xlink="http://www.w3.org/1999/xlink" width="32" height="32" viewBox="0 0 32 32">
<path fill="#3b9f5d" d="M23.947 7.1v19.389c0 1.053-3.558 1.907-7.947 1.907s-7.947-0.854-7.947-1.907v-19.389h15.893z"></path>
<path fill="#3b9f5d" d="M16 5.651c4.389 0 7.947 0.609 7.947 1.36s-3.558 1.36-7.947 1.36-7.947-0.609-7.947-1.36c0-0.751 3.558-1.36 7.947-1.36z"></path>
<path fill="#3b9f5d" d="M17.589 3.603c0.702 0 1.271 0.569 1.271 1.271v2.861c0 0.351-1.281 0.636-2.861 0.636s-2.861-0.285-2.861-0.636v-2.861c0-0.702 0.569-1.271 1.271-1.271h3.179z"></path>
</svg>
