<?xml version="1.0" encoding="utf-8"?>
<!-- Generated by IcoMoon.io -->
<!DOCTYPE svg PUBLIC "-//W3C//DTD SVG 1.1//EN" "http://www.w3.org/Graphics/SVG/1.1/DTD/svg11.dtd">
<svg version="1.1" xmlns="http://www.w3.org/2000/svg" xmlns:xlink="http://www.w3.org/1999/xlink" width="32" height="32" viewBox="0 0 32 32">
<path fill="#bfbfbf" d="M23.769 25.189h-15.733c-1.957 0-3.558-1.601-3.558-3.559v-10.265c0-2.065 1.69-3.755 3.755-3.755h17.882c0.773 0 1.405 0.633 1.405 1.406v12.42c0 2.063-1.688 3.753-3.752 3.753z"></path>
<path fill="#aaa" d="M12.449 18.107h-4.419c-0.265 0-0.479-0.215-0.479-0.48v-7.033c0-0.264 0.215-0.479 0.479-0.479h4.419c0.265 0 0.479 0.215 0.479 0.479v7.033c0 0.265-0.215 0.48-0.479 0.48z"></path>
<path fill="#d72f44" d="M9.087 20.168c-0.849 0-1.537 0.715-1.537 1.597s0.688 1.599 1.537 1.599 1.536-0.717 1.536-1.599c0-0.883-0.687-1.597-1.536-1.597z"></path>
<path fill="#6a6a6a" d="M25.275 19.597h-7.797c-1.236 0-2.247-1.011-2.247-2.247v-8.293c0-1.236 1.011-2.247 2.247-2.247h7.797c1.236 0 2.246 1.011 2.246 2.247v8.293c0 1.235-1.010 2.247-2.246 2.247z"></path>
<path opacity="0.15" fill="#fff" d="M17.125 8.952h8.505v8.504h-8.505z"></path>
<path fill="#555" d="M23.475 13.204c0 1.159-0.939 2.098-2.099 2.098s-2.098-0.939-2.098-2.098 0.939-2.099 2.098-2.099c1.159 0 2.099 0.939 2.099 2.099z"></path>
</svg>
