<?xml version="1.0" encoding="utf-8"?>
<!-- Generated by IcoMoon.io -->
<!DOCTYPE svg PUBLIC "-//W3C//DTD SVG 1.1//EN" "http://www.w3.org/Graphics/SVG/1.1/DTD/svg11.dtd">
<svg version="1.1" xmlns="http://www.w3.org/2000/svg" xmlns:xlink="http://www.w3.org/1999/xlink" width="32" height="32" viewBox="0 0 32 32">
<path fill="#735746" d="M14.151 22.417v6.445c0 0.996 0.809 1.805 1.805 1.805s1.805-0.809 1.805-1.805l0.057-6.445z"></path>
<path fill="#f3c600" d="M8.651 18.75h14.667v-7.333h-14.667z"></path>
<path fill="#57ac6e" d="M8.651 16.917v4.583s0.105 0.765 0.545 1.203c0.476 0.477 1.289 0.631 1.289 0.631h11s0.831-0.172 1.303-0.645c0.444-0.443 0.53-1.189 0.53-1.189v-4.583z"></path>
<path fill="#e5415c" d="M15.985 1.333c-7.333 0-7.333 11-7.333 11h14.667s0.917-11-7.333-11z"></path>
</svg>
