<?xml version="1.0" encoding="utf-8"?>
<!-- Generated by IcoMoon.io -->
<!DOCTYPE svg PUBLIC "-//W3C//DTD SVG 1.1//EN" "http://www.w3.org/Graphics/SVG/1.1/DTD/svg11.dtd">
<svg version="1.1" xmlns="http://www.w3.org/2000/svg" xmlns:xlink="http://www.w3.org/1999/xlink" width="32" height="32" viewBox="0 0 32 32">
<path fill="#57ac6e" d="M20.667 21.229c-8.797-0.283-9.167 0-9.167 0v4.243l0.643 1.013 3.445 1.99h0.992l3.445-1.99 0.642-1.013v-4.243z"></path>
<path fill="#f3c600" d="M16 22.344c5.37 0 9.739-4.369 9.739-9.739s-4.369-9.739-9.739-9.739-9.739 4.369-9.739 9.739 4.369 9.739 9.739 9.739z"></path>
<path fill="#555" d="M13.24 7.735c-1.769 0-3.207 1.469-3.207 3.275 0 1.081 0.517 2.060 1.455 2.757 0.897 0.667 2.123 1.045 3.651 1.126l-0.001 4.614c0 0.475 0.385 0.859 0.859 0.859h0.003c0.475 0 0.859-0.385 0.859-0.859v-4.614c1.528-0.081 2.753-0.459 3.651-1.126 0.937-0.697 1.454-1.677 1.454-2.757 0-1.806-1.438-3.275-3.207-3.275-0.959 0-1.789 0.341-2.401 0.987l-0.358 0.463-0.357-0.463c-0.612-0.646-1.443-0.987-2.401-0.987zM13.24 9.454c0.495 0 0.862 0.143 1.153 0.451 0.593 0.685 0.685 1.589 0.748 2.453l-0.003 0.815c-1.401-0.089-2.195-0.463-2.626-0.783-0.629-0.468-0.761-1.009-0.761-1.379 0-0.749 0.569-1.557 1.489-1.557zM18.757 9.454c0.919 0 1.488 0.808 1.488 1.557 0 0.37-0.132 0.911-0.761 1.379-0.431 0.32-1.223 0.694-2.625 0.783 0.002-0.766 0.003-0.708-0.002-0.821 0.015-0.885 0.205-1.738 0.749-2.449 0.291-0.306 0.657-0.449 1.151-0.449z"></path>
</svg>
