<?xml version="1.0" encoding="utf-8"?>
<!-- Generated by IcoMoon.io -->
<!DOCTYPE svg PUBLIC "-//W3C//DTD SVG 1.1//EN" "http://www.w3.org/Graphics/SVG/1.1/DTD/svg11.dtd">
<svg version="1.1" xmlns="http://www.w3.org/2000/svg" xmlns:xlink="http://www.w3.org/1999/xlink" width="32" height="32" viewBox="0 0 32 32">
<path fill="#7d4241" d="M24.431 12.329h-1.835v1.835h1.835z"></path>
<path fill="#619af4" d="M16.478 6.479h-1.835v1.835h1.835z"></path>
<path fill="#57ac6e" d="M4.855 20.933c0 0.507 0.41 0.917 0.917 0.917s0.917-0.41 0.917-0.917v-1.874h0.651c0.507 0 0.917-0.411 0.917-0.917s-0.41-0.918-0.917-0.918h-0.651v-1.185c0-0.507-0.41-0.917-0.917-0.917s-0.917 0.411-0.917 0.917v1.185h-0.651c-0.507 0-0.917 0.411-0.917 0.918s0.41 0.917 0.917 0.917h0.651v1.874z"></path>
<path fill="#4c5665" d="M15.377 12.051l12.977 12.977c0.477 0.478 0.477 1.253 0 1.731l-1.73 1.73c-0.478 0.478-1.253 0.478-1.731 0l-12.977-12.977 3.461-3.461z"></path>
<path fill="#d72f44" d="M6.727 10.321c-0.478-0.478-0.478-1.253 0-1.731l1.73-1.73c0.477-0.478 1.253-0.478 1.73 0l4.326 4.325-3.461 3.461-4.325-4.325z"></path>
<path fill="#f3c600" d="M23.513 9.003c-0.507 0-0.918 0.411-0.918 0.918v1.185h-0.65c-0.507 0-0.917 0.411-0.917 0.918s0.41 0.917 0.917 0.917h0.65v1.874c0 0.507 0.411 0.917 0.918 0.917s0.917-0.411 0.917-0.917v-1.874h0.651c0.507 0 0.917-0.411 0.917-0.917s-0.411-0.918-0.917-0.918h-0.651v-1.185c0-0.507-0.411-0.918-0.917-0.918z"></path>
<path fill="#5e75ff" d="M15.561 3.153c-0.507 0-0.918 0.411-0.918 0.918v1.185h-0.65c-0.507 0-0.917 0.411-0.917 0.917s0.41 0.918 0.917 0.918h0.65v1.874c0 0.507 0.411 0.917 0.918 0.917s0.917-0.411 0.917-0.917v-1.874h0.651c0.507 0 0.917-0.411 0.917-0.918s-0.411-0.917-0.917-0.917h-0.651v-1.185c0-0.507-0.41-0.918-0.917-0.918z"></path>
</svg>
