<?xml version="1.0" encoding="utf-8"?>
<!-- Generated by IcoMoon.io -->
<!DOCTYPE svg PUBLIC "-//W3C//DTD SVG 1.1//EN" "http://www.w3.org/Graphics/SVG/1.1/DTD/svg11.dtd">
<svg version="1.1" xmlns="http://www.w3.org/2000/svg" xmlns:xlink="http://www.w3.org/1999/xlink" width="32" height="32" viewBox="0 0 32 32">
<path fill="#d63f31" d="M1.791 29.195c0 0.561 0.455 1.015 1.015 1.015h26.388c0.561 0 1.015-0.454 1.015-1.015 0-0.119-0.025-0.232-0.063-0.339h0.063s-1.353-4.736-2.030-6.766c-0.677-2.030-7.443-2.707-7.443-2.707h-9.473s-6.766 0.677-7.443 2.707c-0.677 2.030-2.030 6.766-2.030 6.766h0.063c-0.038 0.107-0.063 0.219-0.063 0.339z"></path>
<path fill="#f8ceaa" d="M16 3.822c-3.177 0-5.751 3.333-5.751 7.443 0.047 2.312 0.969 5.429 3.157 6.625l2.594 4.539 2.594-4.539c2.257-1.331 3.062-4.185 3.157-6.625 0-4.11-2.575-7.443-5.751-7.443z"></path>
<path fill="#565860" d="M13.223 18.031l-1.96 1.353 2.287 6.090 2.45-3.489 2.45 3.489 2.287-6.090-1.96-1.353-2.777 3.515c-0.925-1.172-1.851-2.344-2.777-3.515z"></path>
<path fill="#565860" d="M16.472 1.79c-1.668 0.011-4.219 0.129-4.859 2.028l0.042 0.049c-1.663-0.164-2.231 1.675-2.389 2.99-0.217 2.827 1.006 5.065 1.006 5.065s0.164-2.812 1.289-4.455c0.349-0.562 0.163-0.233 0.531-1.005 0.263 0.649 0.977 0.756 1.579 0.782 4.519-0.177 4.925 0.571 5.64 0.952 0.539 0.287 1.165 1.036 1.745 1.385 0.285 0.171 0.375 2.48 0.283 2.68-0.403 0.869 1.739 0.387 1.385-4.313-0.161-2.141-0.742-2.802-1.385-3.792-1.285-1.979-3.331-2.259-3.331-2.259-0.873-0.086-0.361-0.043-1.536-0.107z"></path>
</svg>
