<?xml version="1.0" encoding="utf-8"?>
<!-- Generated by IcoMoon.io -->
<!DOCTYPE svg PUBLIC "-//W3C//DTD SVG 1.1//EN" "http://www.w3.org/Graphics/SVG/1.1/DTD/svg11.dtd">
<svg version="1.1" xmlns="http://www.w3.org/2000/svg" xmlns:xlink="http://www.w3.org/1999/xlink" width="32" height="32" viewBox="0 0 32 32">
<path fill="#57ac6e" d="M16 20.44c-1.899 0-3.437-1.538-3.437-3.437v-10.312c0-1.899 1.538-3.437 3.437-3.437s3.437 1.538 3.437 3.437v10.312c0 1.899-1.538 3.437-3.437 3.437z"></path>
<path fill="#735647" d="M22.588 13.851c0.475 0.001 0.859 0.385 0.859 0.859v2.149c-0.123 4.091-2.735 6.601-6.588 7.389v2.78h2.005c0.474 0 0.859 0.385 0.859 0.859s-0.385 0.859-0.859 0.859h-5.729c-0.474 0-0.859-0.385-0.859-0.859s0.385-0.859 0.859-0.859h2.005v-2.78c-3.84-0.575-6.394-3.551-6.588-7.389v-2.149c0-0.474 0.385-0.859 0.859-0.859 0.474 0.001 0.859 0.385 0.859 0.859v2.149c0 3.158 2.571 5.729 5.729 5.729s5.729-2.571 5.729-5.729v-2.149c0-0.474 0.385-0.859 0.859-0.859z"></path>
</svg>
