<?xml version="1.0" encoding="utf-8"?>
<!-- Generated by IcoMoon.io -->
<!DOCTYPE svg PUBLIC "-//W3C//DTD SVG 1.1//EN" "http://www.w3.org/Graphics/SVG/1.1/DTD/svg11.dtd">
<svg version="1.1" xmlns="http://www.w3.org/2000/svg" xmlns:xlink="http://www.w3.org/1999/xlink" width="32" height="32" viewBox="0 0 32 32">
<path fill="#8941b1" d="M3.168 4.819c1.234-0.005 2.48-0.005 3.72 0l0.759 3.888 12.384 0.011-0.335 1.011c-0.681 0.077-1.363 0.151-2.045 0.217v2.703c0.983-0.045 1.967-0.089 2.949-0.123 0.805 0.659 1.704 1.201 2.654 1.648l-1.079-0.089c-0.045 0.815-0.089 1.631-0.128 2.452l3.179-0.061c0.111-0.743 0.223-1.481 0.341-2.218 0.318-0.162 0.949-0.485 1.262-0.648-0.38 2.659-0.922 5.29-1.452 7.927-5.525 0.039-11.055 0.039-16.579 0-1.005-5.183-1.877-10.39-2.871-15.573-0.916-0.028-1.821-0.055-2.731-0.078l-0.027-1.067zM7.86 9.836c0.145 0.916 0.29 1.837 0.441 2.765 1.161 0.005 2.323 0.011 3.486 0.022l-0.269-2.765c-1.223-0.011-2.44-0.017-3.658-0.022zM12.714 9.847c0.061 0.899 0.123 1.798 0.19 2.703 1.201 0.033 2.402 0.061 3.608 0.089v-2.792h-3.798zM8.53 13.751c0.185 0.933 0.369 1.871 0.559 2.809 1.017-0.022 2.033-0.039 3.056-0.049-0.073-0.917-0.14-1.827-0.202-2.732-1.139-0.011-2.279-0.022-3.413-0.028zM13.094 13.763l0.201 2.749c1.073 0.005 2.145 0.011 3.223 0.021-0.006-0.927-0.011-1.854-0.006-2.775-1.145 0-2.279 0-3.418 0.005zM17.651 13.757c0 0.921-0.005 1.849 0 2.775 1.073-0.011 2.151-0.021 3.229-0.027 0.067-0.916 0.128-1.832 0.201-2.743-1.145-0.005-2.289-0.005-3.43-0.005zM9.239 17.639c0.173 0.927 0.347 1.86 0.525 2.793 0.922 0 1.843 0 2.771 0.005-0.073-0.905-0.14-1.798-0.201-2.692-1.033-0.039-2.067-0.078-3.095-0.106zM13.445 17.661c0.090 0.922 0.185 1.843 0.28 2.776 0.927-0.005 1.854-0.005 2.787 0 0-0.927 0-1.849 0.006-2.765-1.028-0.005-2.051-0.011-3.073-0.011zM17.651 17.667c0 0.921-0.005 1.843 0 2.77 0.928-0.005 1.866-0.005 2.805-0.005 0.083-0.928 0.173-1.849 0.268-2.771-1.028 0-2.050 0-3.073 0.006zM21.853 17.734l-0.218 2.703c0.927-0.005 1.855-0.005 2.787-0.005 0.173-0.933 0.352-1.861 0.536-2.788-1.039 0.028-2.073 0.055-3.105 0.089zM3.168 4.819c1.234-0.005 2.48-0.005 3.72 0l0.759 3.888 12.384 0.011-0.335 1.011c-0.681 0.077-1.363 0.151-2.045 0.217v2.703c0.983-0.045 1.967-0.089 2.949-0.123 0.805 0.659 1.704 1.201 2.654 1.648l-1.079-0.089c-0.045 0.815-0.089 1.631-0.128 2.452l3.179-0.061c0.111-0.743 0.223-1.481 0.341-2.218 0.318-0.162 0.949-0.485 1.262-0.648-0.38 2.659-0.922 5.29-1.452 7.927-5.525 0.039-11.055 0.039-16.579 0-1.005-5.183-1.877-10.39-2.871-15.573-0.916-0.028-1.821-0.055-2.731-0.078l-0.027-1.067zM7.86 9.836c0.145 0.916 0.29 1.837 0.441 2.765 1.161 0.005 2.323 0.011 3.486 0.022l-0.269-2.765c-1.223-0.011-2.44-0.017-3.658-0.022zM12.714 9.847c0.061 0.899 0.123 1.798 0.19 2.703 1.201 0.033 2.402 0.061 3.608 0.089v-2.792h-3.798zM8.53 13.751c0.185 0.933 0.369 1.871 0.559 2.809 1.017-0.022 2.033-0.039 3.056-0.049-0.073-0.917-0.14-1.827-0.202-2.732-1.139-0.011-2.279-0.022-3.413-0.028zM13.094 13.763l0.201 2.749c1.073 0.005 2.145 0.011 3.223 0.021-0.006-0.927-0.011-1.854-0.006-2.775-1.145 0-2.279 0-3.418 0.005zM17.651 13.757c0 0.921-0.005 1.849 0 2.775 1.073-0.011 2.151-0.021 3.229-0.027 0.067-0.916 0.128-1.832 0.201-2.743-1.145-0.005-2.289-0.005-3.43-0.005zM9.239 17.639c0.173 0.927 0.347 1.86 0.525 2.793 0.922 0 1.843 0 2.771 0.005-0.073-0.905-0.14-1.798-0.201-2.692-1.033-0.039-2.067-0.078-3.095-0.106zM13.445 17.661c0.090 0.922 0.185 1.843 0.28 2.776 0.927-0.005 1.854-0.005 2.787 0 0-0.927 0-1.849 0.006-2.765-1.028-0.005-2.051-0.011-3.073-0.011zM17.651 17.667c0 0.921-0.005 1.843 0 2.77 0.928-0.005 1.866-0.005 2.805-0.005 0.083-0.928 0.173-1.849 0.268-2.771-1.028 0-2.050 0-3.073 0.006zM21.853 17.734l-0.218 2.703c0.927-0.005 1.855-0.005 2.787-0.005 0.173-0.933 0.352-1.861 0.536-2.788-1.039 0.028-2.073 0.055-3.105 0.089z"></path>
<path fill="#5e75ff" d="M20.031 8.719c0.419-1.721 1.911-3.111 3.676-3.318 2.201-0.38 4.491 1.167 4.988 3.34 0.48 1.816-0.341 3.81-1.866 4.871-0.313 0.163-0.943 0.486-1.262 0.648-0.771 0.006-1.547-0.028-2.313-0.083-0.949-0.447-1.849-0.989-2.653-1.648-0.341-0.921-0.643-1.855-0.905-2.798l0.335-1.011zM23.835 7.652c-0.017 0.396-0.051 1.195-0.073 1.591-0.397 0.023-1.201 0.056-1.597 0.073l0.005 1.028c0.397 0.022 1.19 0.062 1.581 0.079 0.027 0.402 0.072 1.201 0.095 1.603 0.252-0.006 0.754-0.011 1.005-0.011l0.101-1.57c0.397-0.034 1.195-0.095 1.597-0.123-0.005-0.251-0.011-0.748-0.011-0.994l-1.591-0.089-0.090-1.592c-0.257 0-0.771 0-1.022 0.006z"></path>
<path fill="#555" d="M9.452 22.867c1.597-0.838 3.625 0.832 3.122 2.57-0.319 1.653-2.636 2.307-3.776 1.067-1.111-1.022-0.749-3.067 0.654-3.637zM9.597 24.107c-1.1 0.983 0.626 2.693 1.604 1.587 1.027-0.994-0.631-2.637-1.604-1.587zM22.797 22.885c1.407-0.811 3.357 0.441 3.257 2.049 0.073 1.693-2.078 2.883-3.463 1.889-1.503-0.822-1.358-3.274 0.207-3.938zM23.020 24.152c-1.117 0.871 0.609 2.637 1.508 1.547 1.184-0.882-0.597-2.715-1.508-1.547z"></path>
</svg>
