<?xml version="1.0" encoding="utf-8"?>
<!-- Generated by IcoMoon.io -->
<!DOCTYPE svg PUBLIC "-//W3C//DTD SVG 1.1//EN" "http://www.w3.org/Graphics/SVG/1.1/DTD/svg11.dtd">
<svg version="1.1" xmlns="http://www.w3.org/2000/svg" xmlns:xlink="http://www.w3.org/1999/xlink" width="32" height="32" viewBox="0 0 32 32">
<path fill="#555" d="M17.521 4.781h-12.603c-0.949 0-1.719 0.767-1.719 1.719v19.478c0 0.951 0.769 1.719 1.719 1.719h12.603c0.949 0 1.719-0.768 1.719-1.719v-19.478c0-0.951-0.77-1.719-1.719-1.719z"></path>
<path fill="#6a6a6a" d="M7.515 21.233h7.805c0.636 0 1.151 0.515 1.151 1.151v0.684c0 0.635-0.515 1.151-1.151 1.151h-7.805c-0.635 0-1.151-0.515-1.151-1.151v-0.684c0-0.635 0.515-1.151 1.151-1.151zM7.515 14.816h7.805c0.636 0 1.151 0.515 1.151 1.151v0.684c0 0.635-0.515 1.151-1.151 1.151h-7.805c-0.635 0-1.151-0.515-1.151-1.151v-0.684c0-0.635 0.515-1.151 1.151-1.151zM7.515 8.718h7.805c0.636 0 1.151 0.515 1.151 1.151v0.683c0 0.635-0.515 1.151-1.151 1.151h-7.805c-0.635 0-1.151-0.515-1.151-1.151v-0.683c0-0.636 0.515-1.151 1.151-1.151z"></path>
<path fill="#5e75ff" d="M25.867 13.72c-0.003 0.040-6.481-6.485-6.481-6.485l2.43-2.429c0.671-0.67 1.759-0.67 2.431 0l4.051 4.051c0.671 0.67 0.671 1.759 0 2.429l-2.431 2.435z"></path>
<path fill="#57ac6e" d="M19.407 7.219l6.459 6.507-9.743 9.808-1.589-1.601-0.811 0.816-3.249-3.265 0.813-0.821-1.625-1.635 9.744-9.809z"></path>
<path fill="#d72f44" d="M8.053 25.136l2.701-0.545-2.161-2.159-0.54 2.704z"></path>
<path fill="#f0cb83" d="M9.673 17.029l-1.080 5.403 2.161 2.159 5.401-1.077-0.81-0.813v-1.616h-3.241v-3.243h-1.621l-0.81-0.813z"></path>
</svg>
