<?xml version="1.0" encoding="utf-8"?>
<!-- Generated by IcoMoon.io -->
<!DOCTYPE svg PUBLIC "-//W3C//DTD SVG 1.1//EN" "http://www.w3.org/Graphics/SVG/1.1/DTD/svg11.dtd">
<svg version="1.1" xmlns="http://www.w3.org/2000/svg" xmlns:xlink="http://www.w3.org/1999/xlink" width="32" height="32" viewBox="0 0 32 32">
<path fill="#f5b401" d="M25.903 11.437l-9.903-6.602-9.903 6.602s-1.101 0.493-1.101 1.101v14.305c0 0.607 0.493 1.101 1.101 1.101h19.807c0.608 0 1.101-0.493 1.101-1.101v-14.305c0-0.608-1.101-1.101-1.101-1.101z"></path>
<path fill="#edae06" d="M16.317 19.149c-0.604-0.030-0.927-0.019-1.431 0.323-3.243 2.291-6.575 4.457-9.889 6.645v0.726c0 0.607 0.493 1.1 1.101 1.1h19.807c0.608 0 1.101-0.493 1.101-1.1v-0.72c-2.485-1.631-4.973-3.259-7.437-4.923-0.824-0.557-1.693-1.090-2.457-1.728-0.385-0.264-0.135-0.126-0.793-0.323z"></path>
<path fill="#eaeaea" d="M7.197 4.057c-0.607 0-1.1 0.493-1.1 1.101v6.051c2.375 2.885 4.75 5.769 7.125 8.652 0.549-0.396 1.137-0.741 1.664-1.167 0.508-0.454 1.717-0.462 2.225 0 0.535 0.431 1.111 0.809 1.677 1.199 2.373-2.711 4.745-5.422 7.117-8.133v-6.602c0-0.608-0.493-1.101-1.1-1.101h-17.607z"></path>
<path fill="#d5d4d5" d="M19.841 8.707h-7.683c-0.625 0-1.13 0.505-1.13 1.13v0.677c0 0.624 0.505 1.13 1.13 1.13h7.683c0.625 0 1.13-0.506 1.13-1.13v-0.677c0-0.625-0.505-1.13-1.13-1.13zM19.841 13.565h-7.683c-0.625 0-1.13 0.506-1.13 1.13v0.678c0 0.624 0.505 1.13 1.13 1.13h7.683c0.625 0 1.13-0.506 1.13-1.13v-0.678c0-0.624-0.505-1.13-1.13-1.13z"></path>
</svg>
