<?xml version="1.0" encoding="utf-8"?>
<!-- Generated by IcoMoon.io -->
<!DOCTYPE svg PUBLIC "-//W3C//DTD SVG 1.1//EN" "http://www.w3.org/Graphics/SVG/1.1/DTD/svg11.dtd">
<svg version="1.1" xmlns="http://www.w3.org/2000/svg" xmlns:xlink="http://www.w3.org/1999/xlink" width="32" height="32" viewBox="0 0 32 32">
<path fill="#57ac6e" d="M16 5.271c-8.253 0-8.253 7.428-8.253 7.428v14.031l3.301-3.301 2.476 3.301 2.476-3.301 2.476 3.301 2.476-3.301 3.301 3.301v-14.031s0-7.428-8.253-7.428z"></path>
<path fill="#555" d="M20.539 12.235c-0.683 0-1.238 0.555-1.238 1.238v2.115c0 0.684 0.555 1.238 1.238 1.238s1.238-0.554 1.238-1.238v-2.115c0-0.683-0.555-1.238-1.238-1.238zM15.587 12.235c-0.683 0-1.238 0.555-1.238 1.238v2.115c0 0.684 0.555 1.238 1.238 1.238s1.238-0.554 1.238-1.238v-2.115c0-0.683-0.555-1.238-1.238-1.238z"></path>
</svg>
