<?xml version="1.0" encoding="utf-8"?>
<!-- Generated by IcoMoon.io -->
<!DOCTYPE svg PUBLIC "-//W3C//DTD SVG 1.1//EN" "http://www.w3.org/Graphics/SVG/1.1/DTD/svg11.dtd">
<svg version="1.1" xmlns="http://www.w3.org/2000/svg" xmlns:xlink="http://www.w3.org/1999/xlink" width="32" height="32" viewBox="0 0 32 32">
<path fill="#555" d="M11.417 8.553c0 0.949 0.769 1.719 1.719 1.719h5.729c0.949 0 1.719-0.769 1.719-1.719v-3.437c0-0.949-0.769-1.719-1.719-1.719h-5.729c-0.949 0-1.719 0.769-1.719 1.719v3.437z"></path>
<path fill="#5e75ff" d="M11.417 7.979v13.749h2.292v1.146h4.583v-1.146h2.292v-13.749h-9.167z"></path>
<path fill="#d72f44" d="M16 28.603l-1.527-2.291h3.055l-1.528 2.291z"></path>
<path fill="#f3c600" d="M20.583 21.729l-3.055 4.583h-3.055l-3.056-4.583h1.146l1.146-1.145 2.291 2.291 2.291-2.291 1.146 1.145h1.146z"></path>
</svg>
