<?xml version="1.0" encoding="utf-8"?>
<!-- Generated by IcoMoon.io -->
<!DOCTYPE svg PUBLIC "-//W3C//DTD SVG 1.1//EN" "http://www.w3.org/Graphics/SVG/1.1/DTD/svg11.dtd">
<svg version="1.1" xmlns="http://www.w3.org/2000/svg" xmlns:xlink="http://www.w3.org/1999/xlink" width="32" height="32" viewBox="0 0 32 32">
<path fill="#5e75ff" d="M18.183 7.705l-13.807 2.456 2.362 13.277 13.806-2.457-2.361-13.275zM3.562 8.662l14.869-2.645c0.587-0.104 1.147 0.287 1.251 0.873l3.023 16.993c0.105 0.586-0.286 1.147-0.873 1.251l-14.869 2.645c-0.587 0.105-1.146-0.287-1.251-0.873l-3.023-16.993c-0.105-0.587 0.286-1.147 0.873-1.251z"></path>
<path fill="#d72f44" d="M4.377 10.161l13.807-2.456 2.361 13.275-13.806 2.457-2.362-13.277z"></path>
<path fill="#555" d="M27.615 8.644l-13.756-2.727-2.622 13.227 13.755 2.727 2.623-13.227zM13.645 4.225l14.814 2.936c0.584 0.117 0.964 0.684 0.848 1.269l-3.357 16.931c-0.115 0.584-0.683 0.964-1.267 0.847l-14.814-2.936c-0.585-0.117-0.964-0.683-0.849-1.268l3.356-16.93c0.117-0.585 0.683-0.964 1.269-0.849z"></path>
<path fill="#f3c600" d="M13.859 5.917l13.756 2.727-2.623 13.227-13.755-2.727 2.622-13.227z"></path>
</svg>
