<?xml version="1.0" encoding="utf-8"?>
<!-- Generated by IcoMoon.io -->
<!DOCTYPE svg PUBLIC "-//W3C//DTD SVG 1.1//EN" "http://www.w3.org/Graphics/SVG/1.1/DTD/svg11.dtd">
<svg version="1.1" xmlns="http://www.w3.org/2000/svg" xmlns:xlink="http://www.w3.org/1999/xlink" width="32" height="32" viewBox="0 0 32 32">
<path fill="#555" d="M23.32 4.643c2.517 1.626 4.458 4.065 5.453 6.945l-5.453 5.454v-12.399z"></path>
<path fill="#5e75ff" d="M29.275 13.475c0.155 0.818 0.239 1.661 0.239 2.525 0 2.010-0.442 3.916-1.23 5.631h-7.165l8.155-8.155z"></path>
<path fill="#d72f44" d="M18.525 29.275c-0.818 0.155-1.661 0.239-2.525 0.239-2.010 0-3.916-0.443-5.631-1.23v-7.165l8.155 8.155z"></path>
<path fill="#555" d="M27.357 23.32c-1.626 2.517-4.065 4.458-6.945 5.453l-5.454-5.453h12.399z"></path>
<path fill="#735746" d="M2.725 18.525c-0.155-0.818-0.239-1.661-0.239-2.525 0-2.010 0.443-3.916 1.23-5.631h7.165l-8.155 8.155z"></path>
<path fill="#555" d="M8.68 27.357c-2.517-1.626-4.458-4.065-5.453-6.945l5.453-5.454v12.399zM4.643 8.68c1.626-2.517 4.065-4.458 6.945-5.453l5.454 5.453h-12.399z"></path>
<path fill="#f3c600" d="M13.475 2.725c0.819-0.155 1.661-0.239 2.525-0.239 2.010 0 3.916 0.443 5.631 1.23v7.165l-8.155-8.155z"></path>
</svg>
