<?xml version="1.0" encoding="utf-8"?>
<!-- Generated by IcoMoon.io -->
<!DOCTYPE svg PUBLIC "-//W3C//DTD SVG 1.1//EN" "http://www.w3.org/Graphics/SVG/1.1/DTD/svg11.dtd">
<svg version="1.1" xmlns="http://www.w3.org/2000/svg" xmlns:xlink="http://www.w3.org/1999/xlink" width="32" height="32" viewBox="0 0 32 32">
<path fill="#735647" d="M16 3.939c-3.797 0-6.875 0.709-6.875 2.291 0.147 1.425 1.749 1.889 2.865 2.312v8.040c-1.142 0.399-2.694 0.904-2.865 2.312 0 1.583 3.078 2.865 6.875 2.865s6.875-1.282 6.875-2.865c-0.147-1.425-1.749-1.889-2.865-2.312v-8.040c1.142-0.399 2.695-0.904 2.865-2.312 0-1.583-3.077-2.291-6.875-2.291z"></path>
<path fill="#555" d="M16 19.325c0.481 0.013 0.976 0.219 1.115 0.716h0.031v5.729l-1.146 2.291-1.146-2.291v-5.729h0.031c0.078-0.547 0.674-0.652 1.115-0.716z"></path>
</svg>
