<?xml version="1.0" encoding="utf-8"?>
<!-- Generated by IcoMoon.io -->
<!DOCTYPE svg PUBLIC "-//W3C//DTD SVG 1.1//EN" "http://www.w3.org/Graphics/SVG/1.1/DTD/svg11.dtd">
<svg version="1.1" xmlns="http://www.w3.org/2000/svg" xmlns:xlink="http://www.w3.org/1999/xlink" width="32" height="32" viewBox="0 0 32 32">
<path fill="#d72f44" d="M16 3.969c-6.327 0-11.458 4.617-11.458 10.312 0.237 4.604 2.217 6.771 5.977 9.055 1.6 1.804 3.44 3.405 5.481 4.694 0.251-1.153 0.486-2.309 0.698-3.469 5.748-0.184 10.439-4.559 10.76-10.281 0-5.695-5.13-10.312-11.458-10.312z"></path>
<path fill="#f3c600" d="M14.854 14.281c0-0.633 0.513-1.146 1.146-1.146s1.146 0.513 1.146 1.146-0.513 1.146-1.146 1.146c-0.633 0-1.146-0.513-1.146-1.146zM10.271 14.281c0-0.633 0.513-1.146 1.145-1.146 0.633 0 1.146 0.513 1.146 1.146s-0.513 1.146-1.146 1.146c-0.632 0-1.145-0.513-1.145-1.146zM19.437 14.281c0-0.633 0.513-1.146 1.146-1.146s1.145 0.513 1.145 1.146c0 0.633-0.513 1.146-1.145 1.146s-1.146-0.513-1.146-1.146z"></path>
</svg>
