<?xml version="1.0" encoding="utf-8"?>
<!-- Generated by IcoMoon.io -->
<!DOCTYPE svg PUBLIC "-//W3C//DTD SVG 1.1//EN" "http://www.w3.org/Graphics/SVG/1.1/DTD/svg11.dtd">
<svg version="1.1" xmlns="http://www.w3.org/2000/svg" xmlns:xlink="http://www.w3.org/1999/xlink" width="32" height="32" viewBox="0 0 32 32">
<path fill="#d72f44" d="M4.475 11.286l21.465-5.682c0.337-0.089 0.683 0.112 0.772 0.449s-0.111 0.683-0.449 0.772l-21.465 5.682c-0.337 0.089-0.683-0.112-0.772-0.449s0.111-0.682 0.449-0.772z"></path>
<path fill="#555" d="M3.374 25.154c0 0.698 0.565 1.263 1.263 1.263h22.727c0.698 0 1.263-0.565 1.263-1.263v-12.626c0-0.698-0.565-1.263-1.263-1.263h-22.727c-0.698 0-1.263 0.565-1.263 1.263v12.626z"></path>
<path fill="#57ac6e" d="M16 18.841c0 2.789 2.261 5.050 5.051 5.050s5.051-2.261 5.051-5.050c0-2.789-2.262-5.051-5.051-5.051s-5.051 2.261-5.051 5.051z"></path>
<path fill="#f3c700" d="M5.899 18.841c0 0.697 0.565 1.263 1.263 1.263h5.682c0.698 0 1.263-0.565 1.263-1.263v-3.157c0-0.698-0.565-1.263-1.263-1.263h-5.682c-0.697 0-1.263 0.565-1.263 1.263v3.157z"></path>
</svg>
