<?xml version="1.0" encoding="utf-8"?>
<!-- Generated by IcoMoon.io -->
<!DOCTYPE svg PUBLIC "-//W3C//DTD SVG 1.1//EN" "http://www.w3.org/Graphics/SVG/1.1/DTD/svg11.dtd">
<svg version="1.1" xmlns="http://www.w3.org/2000/svg" xmlns:xlink="http://www.w3.org/1999/xlink" width="32" height="32" viewBox="0 0 32 32">
<path fill="#555" d="M16 10.397c-0.637 0-1.153 0.516-1.153 1.153v12.083c-1.421-1.186-0.72-0.677-2.079-1.559-3.011-1.657-5.539-3.673-5.815-3.898l-0.025-0.021c-0.355-0.291-0.847-0.344-1.256-0.135s-0.655 0.639-0.627 1.097c0.003 0.052 0.055 0.868 0.349 2.039 0.295 1.169 0.829 2.699 1.836 4.167 0.671 0.976 1.557 1.925 2.713 2.685 1.541 1.016 3.556 1.673 6.060 1.67l0.025-0.005 0.025 0.005c2.491 0.003 4.497-0.655 6.030-1.672 1.535-1.015 2.586-2.359 3.299-3.668 1.421-2.623 1.562-5.127 1.573-5.22 0.028-0.459-0.221-0.893-0.631-1.099l-0.321-0.106c-0.763 0.087-0.465-0.039-0.939 0.251l-0.025 0.020-0.083 0.068-0.33 0.264c-0.29 0.227-0.711 0.552-1.235 0.932-1.047 0.761-2.503 1.745-4.104 2.627-1.415 0.881-0.685 0.341-2.135 1.691v-12.215c0-0.637-0.516-1.153-1.153-1.153z"></path>
<path fill="#d72f44" d="M16 2.323c-1.534 0.060-2.943 0.732-3.826 2.034-0.316 0.467-0.437 1.039-0.655 1.559-2.227 0.653-3.365 2.227-3.593 4.481 0.060 1.534 0.732 2.943 2.034 3.826 0.467 0.316 1.039 0.437 1.559 0.655 0.653 2.227 2.227 3.365 4.481 3.593 1.534-0.060 2.943-0.732 3.826-2.034 0.316-0.467 0.437-1.039 0.655-1.559 2.227-0.653 3.365-2.227 3.593-4.481-0.060-1.534-0.732-2.943-2.034-3.826-0.467-0.316-1.039-0.437-1.559-0.655-0.653-2.227-2.227-3.365-4.481-3.593z"></path>
<path fill="#f3c702" d="M13.117 10.397c0 1.592 1.291 2.883 2.883 2.883s2.883-1.291 2.883-2.883-1.291-2.883-2.883-2.883-2.883 1.291-2.883 2.883z"></path>
</svg>
