<?xml version="1.0" encoding="utf-8"?>
<!-- Generated by IcoMoon.io -->
<!DOCTYPE svg PUBLIC "-//W3C//DTD SVG 1.1//EN" "http://www.w3.org/Graphics/SVG/1.1/DTD/svg11.dtd">
<svg version="1.1" xmlns="http://www.w3.org/2000/svg" xmlns:xlink="http://www.w3.org/1999/xlink" width="32" height="32" viewBox="0 0 32 32">
<path fill="#666" d="M24.629 30.553h-9.513c-0.873 0-1.732-0.228-2.491-0.663l-5.534-3.168c-0.179-0.103-0.085-0.381 0.12-0.351l16.939 2.123c0.249 0.035 0.479 0.145 0.663 0.311 0.119 0.107 0.187 0.261 0.187 0.421l0.005 0.947c0.001 0.209-0.167 0.379-0.376 0.379z"></path>
<path fill="#fff" d="M17.051 1.963v24.206l7.757 0.944zM16.369 4.916c-0.905 4.278-1.311 8.917-1.311 12.977 0 2.583 0.171 5.694 1.311 8.269 0 0-8.103 0.58-8.103-8.145s8.103-13.101 8.103-13.101z"></path>
<path fill="#be272d" d="M16.369 4.284v-2.132l-3.085 0.891z"></path>
<path fill="#666" d="M16.999 29.748h-0.576c-0.029 0-0.053-0.024-0.053-0.053v-28.054c0-0.107 0.088-0.195 0.195-0.195h0.293c0.107 0 0.195 0.087 0.195 0.195v28.054l-0.053 0.053z"></path>
</svg>
