<?xml version="1.0" encoding="utf-8"?>
<!-- Generated by IcoMoon.io -->
<!DOCTYPE svg PUBLIC "-//W3C//DTD SVG 1.1//EN" "http://www.w3.org/Graphics/SVG/1.1/DTD/svg11.dtd">
<svg version="1.1" xmlns="http://www.w3.org/2000/svg" xmlns:xlink="http://www.w3.org/1999/xlink" width="32" height="32" viewBox="0 0 32 32">
<path fill="#555" d="M25.166 4.542c-0.007 5.537-2.749 8.807-6.696 12.387 1.183 1.101 2.86 1.318 4.405 1.363 2.531 0 4.583 2.052 4.583 4.583s-2.052 4.583-4.583 4.583c-1.939 0-3.593-1.206-4.262-2.907-0.321-0.688-0.593-1.587-0.593-2.673-0.095-1.273-1.149-2.088-2.019-2.875-1.029 0.864-1.758 1.503-2.019 2.875 0 1.086-0.273 1.985-0.594 2.673-0.669 1.701-2.323 2.907-4.262 2.907-2.531 0-4.583-2.053-4.583-4.583s2.053-4.583 4.583-4.583c1.549-0.022 3.217-0.281 4.405-1.363-4.101-3.367-6.525-7.059-6.696-12.386l9.166 9.777 9.166-9.777zM22.875 20.583c-1.263 0-2.291 1.027-2.291 2.291s1.028 2.291 2.291 2.291c1.264 0 2.291-1.027 2.291-2.291s-1.027-2.291-2.291-2.291zM9.125 20.583c-1.263 0-2.291 1.027-2.291 2.291s1.028 2.291 2.291 2.291c1.264 0 2.291-1.027 2.291-2.291s-1.027-2.291-2.291-2.291z"></path>
<path fill="#f3c600" d="M15.141 16.573c0 0.475 0.385 0.859 0.859 0.859s0.859-0.385 0.859-0.859c0-0.474-0.385-0.859-0.859-0.859s-0.859 0.385-0.859 0.859z"></path>
</svg>
