<?xml version="1.0" encoding="utf-8"?>
<!-- Generated by IcoMoon.io -->
<!DOCTYPE svg PUBLIC "-//W3C//DTD SVG 1.1//EN" "http://www.w3.org/Graphics/SVG/1.1/DTD/svg11.dtd">
<svg version="1.1" xmlns="http://www.w3.org/2000/svg" xmlns:xlink="http://www.w3.org/1999/xlink" width="32" height="32" viewBox="0 0 32 32">
<path fill="#555" d="M24.047 26.201c-0.424 0-0.849-0.161-1.172-0.486l-7.953-7.952c-0.648-0.647-0.648-1.696 0-2.343 0.647-0.647 1.697-0.647 2.343 0l7.953 7.953c0.648 0.647 0.648 1.695 0 2.342-0.323 0.325-0.747 0.486-1.171 0.486z"></path>
<path fill="#8941b1" d="M14.639 5.799c-2.229 0-4.325 0.868-5.901 2.445-3.254 3.253-3.254 8.548 0 11.801 1.576 1.577 3.672 2.445 5.901 2.445s4.325-0.868 5.901-2.445c3.254-3.253 3.254-8.548 0-11.801-1.576-1.577-3.672-2.445-5.901-2.445z"></path>
</svg>
