<?xml version="1.0" encoding="utf-8"?>
<!-- Generated by IcoMoon.io -->
<!DOCTYPE svg PUBLIC "-//W3C//DTD SVG 1.1//EN" "http://www.w3.org/Graphics/SVG/1.1/DTD/svg11.dtd">
<svg version="1.1" xmlns="http://www.w3.org/2000/svg" xmlns:xlink="http://www.w3.org/1999/xlink" width="32" height="32" viewBox="0 0 32 32">
<path fill="#555" d="M24.749 7.214s2.291 2.291 2.291 4.583c0 2.291-2.291 5.729-2.291 12.603h-2.292v-8.021s-2.291 0-4.583 4.583c-2.292 4.583-4.583 4.583-6.875 4.583s-6.875-0.107-6.875-0.967c0-1-0.217-1.885 1.038-2.829 1.157-0.869 4.798-2.399 4.798-2.399s4.010 3.115 8.020-3.437c4.639-7.58 6.768-8.701 6.768-8.701z"></path>
<path fill="#f3c600" d="M22.313 24.837c0 0.709 0.566 1.283 1.263 1.283s1.262-0.574 1.262-1.283c0-0.709-0.565-1.283-1.262-1.283s-1.263 0.574-1.263 1.283z"></path>
</svg>
