<?xml version="1.0" encoding="utf-8"?>
<!-- Generated by IcoMoon.io -->
<!DOCTYPE svg PUBLIC "-//W3C//DTD SVG 1.1//EN" "http://www.w3.org/Graphics/SVG/1.1/DTD/svg11.dtd">
<svg version="1.1" xmlns="http://www.w3.org/2000/svg" xmlns:xlink="http://www.w3.org/1999/xlink" width="32" height="32" viewBox="0 0 32 32">
<path fill="#3e7dfb" d="M16.692 7.041v17.926l-8.274-4.141h-1.551v-0.002h-3.252c-1.155 0-2.091-0.947-2.091-2.115v-5.419c0-1.168 0.936-2.115 2.091-2.115l4.803-0.002 8.274-4.132z"></path>
<path fill="#565860" d="M22.543 7.043c4.597 0.715 7.933 4.482 7.933 8.955s-3.336 8.239-7.933 8.955l-0.123 0.009c-0.369 0-0.695-0.257-0.756-0.617-0.067-0.401 0.216-0.778 0.634-0.843 3.851-0.599 6.647-3.755 6.647-7.503s-2.795-6.904-6.647-7.503c-0.418-0.065-0.701-0.443-0.634-0.843 0.069-0.4 0.461-0.673 0.879-0.608zM21.421 10.479c2.833 0.441 4.889 2.762 4.889 5.519s-2.056 5.077-4.889 5.519l-0.123 0.009c-0.369 0-0.695-0.257-0.755-0.617-0.068-0.401 0.216-0.778 0.633-0.843 2.088-0.324 3.603-2.035 3.603-4.067s-1.515-3.743-3.603-4.067c-0.417-0.065-0.701-0.443-0.633-0.843s0.462-0.673 0.879-0.608zM19.429 13.092l0.304 0.017c1.363 0.347 2.317 1.534 2.317 2.888s-0.953 2.541-2.317 2.889l-0.197 0.025c-0.339 0-0.649-0.218-0.74-0.547-0.108-0.392 0.135-0.795 0.545-0.899 0.693-0.176 1.177-0.779 1.177-1.467s-0.484-1.291-1.177-1.467c-0.409-0.104-0.653-0.506-0.545-0.898 0.101-0.342 0.325-0.405 0.633-0.54z"></path>
<path fill="#3b70da" d="M16.692 7.035c0.761 0 1.379 4.013 1.379 8.964s-0.618 8.963-1.379 8.963-1.379-4.013-1.379-8.963c0-4.951 0.617-8.964 1.379-8.964z"></path>
</svg>
