<?xml version="1.0" encoding="utf-8"?>
<!-- Generated by IcoMoon.io -->
<!DOCTYPE svg PUBLIC "-//W3C//DTD SVG 1.1//EN" "http://www.w3.org/Graphics/SVG/1.1/DTD/svg11.dtd">
<svg version="1.1" xmlns="http://www.w3.org/2000/svg" xmlns:xlink="http://www.w3.org/1999/xlink" width="32" height="32" viewBox="0 0 32 32">
<path fill="#735647" d="M14.221 24.597h3.557v4.15h-3.557v-4.15z"></path>
<path fill="#f3c600" d="M20.573 24.597h-9.655l-5.591-6.098v-9.147l5.591-6.098h9.655l6.099 6.098v9.147l-6.099 6.098z"></path>
<path fill="#555" d="M15.705 10.813v1.186h-1.186v5.039h-1.482v-5.039l-1.183 0.001v-1.187h3.851zM9.389 10.817c0.404 0 0.748 0.065 1.033 0.195s0.473 0.295 0.566 0.492c0.222 0.476 0.138 1.244 0.138 1.244h-1.445v-0.442c0-0.206-0.019-0.338-0.056-0.394s-0.099-0.085-0.184-0.085c-0.094 0.001-0.165 0.038-0.213 0.115s-0.073 0.192-0.073 0.347c0 0.199 0.027 0.349 0.081 0.45 0.052 0.101 0.198 0.222 0.44 0.365 0.693 0.411 1.129 0.747 1.309 1.010s0.27 0.687 0.27 1.271c0 0.425-0.050 0.739-0.149 0.94s-0.293 0.371-0.579 0.507c-0.286 0.136-0.619 0.205-0.998 0.205-0.417 0-0.773-0.079-1.067-0.236s-0.488-0.358-0.579-0.601c-0.173-0.459-0.184-1.236-0.184-1.236h1.482l0.011 0.536c0 0.223 0.020 0.367 0.061 0.431s0.113 0.096 0.216 0.096c0.104 0 0.181-0.041 0.232-0.122 0.050-0.081 0.075-0.201 0.075-0.361 0-0.351-0.048-0.581-0.145-0.689-0.098-0.108-0.341-0.289-0.728-0.542-0.387-0.256-0.643-0.441-0.769-0.557s-0.23-0.275-0.312-0.479c-0.083-0.204-0.124-0.464-0.124-0.781 0-0.457 0.059-0.791 0.175-1.003s0.307-0.377 0.567-0.496c0.261-0.119 0.577-0.179 0.947-0.179zM18.077 10.817c0.315 0 0.6 0.052 0.851 0.157s0.454 0.261 0.607 0.47c0.153 0.209 0.244 0.437 0.273 0.682s0.043 0.675 0.043 1.291v1.021c0 0.599-0.014 1.024-0.042 1.273s-0.115 0.477-0.262 0.683c-0.147 0.207-0.346 0.365-0.597 0.475s-0.542 0.167-0.875 0.167c-0.316 0-0.601-0.053-0.852-0.157s-0.453-0.261-0.607-0.469c-0.153-0.209-0.244-0.436-0.273-0.682s-0.043-0.676-0.043-1.29v-1.021c0-0.6 0.014-1.025 0.042-1.274s0.115-0.477 0.263-0.684c0.147-0.206 0.345-0.365 0.596-0.475s0.542-0.166 0.875-0.166zM18.087 11.706c-0.099 0-0.175 0.031-0.227 0.093s-0.078 0.244-0.078 0.547v2.75c0 0.342 0.017 0.553 0.051 0.633 0.035 0.081 0.115 0.121 0.241 0.121 0.128 0 0.21-0.047 0.246-0.139s0.054-0.312 0.054-0.658v-2.707c0-0.274-0.018-0.45-0.056-0.526s-0.114-0.115-0.231-0.115zM22.411 10.813c0.449 0 0.793 0.033 1.035 0.099s0.423 0.161 0.544 0.285c0.121 0.125 0.203 0.276 0.247 0.453s0.064 0.451 0.064 0.823v0.517c0 0.379-0.042 0.655-0.125 0.828-0.084 0.173-0.237 0.307-0.46 0.399s-0.514 0.139-0.874 0.139l-0.616 0.015v2.372h-1.482v-5.929h1.667zM22.223 11.697v1.482l0.139 0.003c0.173 0 0.293-0.034 0.36-0.103s0.1-0.21 0.1-0.426v-0.478c0-0.199-0.039-0.329-0.116-0.389s-0.238-0.090-0.483-0.090z"></path>
</svg>
