<?xml version="1.0" encoding="utf-8"?>
<!-- Generated by IcoMoon.io -->
<!DOCTYPE svg PUBLIC "-//W3C//DTD SVG 1.1//EN" "http://www.w3.org/Graphics/SVG/1.1/DTD/svg11.dtd">
<svg version="1.1" xmlns="http://www.w3.org/2000/svg" xmlns:xlink="http://www.w3.org/1999/xlink" width="32" height="32" viewBox="0 0 32 32">
<path fill="#f5b401" d="M18.522 3.826c-6.724 0-12.174 5.451-12.174 12.174s5.45 12.174 12.174 12.174c6.723 0 12.173-5.451 12.173-12.174s-5.45-12.174-12.173-12.174z"></path>
<path fill="#735647" d="M18.522 7.304c-4.802 0-8.695 3.893-8.695 8.696s3.893 8.696 8.695 8.696c4.802 0 8.695-3.893 8.695-8.696s-3.893-8.696-8.695-8.696z"></path>
<path fill="#fff" d="M18.522 10.783c-2.881 0-5.217 2.336-5.217 5.217s2.336 5.217 5.217 5.217c2.881 0 5.217-2.336 5.217-5.217s-2.336-5.217-5.217-5.217z"></path>
<path fill="#d63f31" d="M18.522 13.681c-1.281 0-2.319 1.039-2.319 2.319s1.038 2.319 2.319 2.319c1.281 0 2.319-1.039 2.319-2.319s-1.038-2.319-2.319-2.319z"></path>
<path fill="#565860" d="M1.217 15.42c-0.319 0-0.579 0.26-0.579 0.58s0.26 0.58 0.579 0.58h17.391c0.32 0 0.58-0.26 0.58-0.58s-0.26-0.58-0.58-0.58h-17.391z"></path>
<path fill="#3b9f5d" d="M1.79 16.557l-0.738 2.227h5.101l0.738-2.227h-5.101zM1.052 13.216l0.738 2.227h5.101l-0.738-2.227h-5.101z"></path>
</svg>
