<?xml version="1.0" encoding="utf-8"?>
<!-- Generated by IcoMoon.io -->
<!DOCTYPE svg PUBLIC "-//W3C//DTD SVG 1.1//EN" "http://www.w3.org/Graphics/SVG/1.1/DTD/svg11.dtd">
<svg version="1.1" xmlns="http://www.w3.org/2000/svg" xmlns:xlink="http://www.w3.org/1999/xlink" width="32" height="32" viewBox="0 0 32 32">
<path fill="#57ac6e" d="M6.834 5.115c-1.266 0-2.292 1.026-2.292 2.291v18.333c0 1.265 1.026 2.291 2.292 2.291h18.332c1.266 0 2.292-1.026 2.292-2.291v-18.333c0-1.265-1.026-2.291-2.292-2.291h-18.332z"></path>
<path fill="#555" d="M22.875 11.99h-14.036v2.234h14.036zM22.875 16.458h-14.036v2.235h14.036zM22.875 20.927h-14.036v2.235h14.036z"></path>
<path fill="#ae7a51" d="M20.583 5.115h-9.167v2.291h9.167z"></path>
<path fill="#5e75ff" d="M13.135 3.969h7.448v2.865c0 0.949-0.769 1.719-1.719 1.719h-5.729c-0.949 0-1.719-0.769-1.719-1.719v-2.865h1.719z"></path>
</svg>
